<?xml version="1.0" encoding="utf-8"?>
<!-- Generator: Adobe Illustrator 16.0.0, SVG Export Plug-In . SVG Version: 6.00 Build 0)  -->
<!DOCTYPE svg PUBLIC "-//W3C//DTD SVG 1.1//EN" "http://www.w3.org/Graphics/SVG/1.1/DTD/svg11.dtd">
<svg version="1.1" id="Layer_1" xmlns="http://www.w3.org/2000/svg" xmlns:xlink="http://www.w3.org/1999/xlink" x="0px" y="0px"
	 width="699px" height="282px" viewBox="0 0 699 282" enable-background="new 0 0 699 282" xml:space="preserve">
<g>
	<polygon fill="#FFCC99" points="562,42 688,42 688,66 562,66 562,42 	"/>
	<polygon fill="#FFFFDA" points="561,41 562,41 562,67 561,67 561,41 	"/>
	<polygon fill="#FFFFDA" points="562,41 688,41 688,42 562,42 562,41 	"/>
	<polygon fill="#B28E6B" points="562,66 689,66 689,67 562,67 562,66 	"/>
	<polygon fill="#B28E6B" points="688,41 689,41 689,66 688,66 688,41 	"/>
	<path d="M571.24,50.29h3.439c0.77,0,1.359,0.062,1.76,0.187c0.551,0.156,1.02,0.443,1.41,0.86c0.381,0.406,0.68,0.906,0.871,1.5
		c0.209,0.593,0.318,1.328,0.318,2.203c0,0.76-0.1,1.422-0.279,1.984c-0.23,0.677-0.57,1.224-1,1.641
		c-0.33,0.312-0.77,0.557-1.32,0.734c-0.41,0.135-0.969,0.203-1.67,0.203h-3.529V50.29L571.24,50.29z M573.109,51.868v6.172h1.41
		c0.531,0,0.91-0.032,1.141-0.094c0.299-0.073,0.549-0.198,0.75-0.375c0.209-0.188,0.379-0.49,0.5-0.906
		c0.129-0.417,0.189-0.985,0.189-1.703c0-0.719-0.061-1.271-0.189-1.657c-0.121-0.385-0.301-0.687-0.529-0.906
		c-0.23-0.219-0.521-0.365-0.871-0.438c-0.27-0.063-0.779-0.094-1.551-0.094H573.109L573.109,51.868z M581.959,54.915l-1.629-0.297
		c0.189-0.646,0.5-1.125,0.939-1.438c0.451-0.312,1.111-0.468,1.98-0.468c0.811,0,1.4,0.093,1.779,0.281
		c0.391,0.187,0.66,0.427,0.82,0.719c0.16,0.291,0.25,0.822,0.25,1.593l-0.02,2.078c0,0.594,0.029,1.032,0.08,1.313
		c0.061,0.281,0.17,0.583,0.33,0.906h-1.77c-0.051-0.114-0.111-0.291-0.17-0.531c-0.031-0.104-0.051-0.172-0.061-0.203
		c-0.32,0.291-0.641,0.515-0.99,0.672c-0.34,0.146-0.711,0.218-1.109,0.218c-0.691,0-1.24-0.187-1.641-0.562
		c-0.391-0.385-0.59-0.865-0.59-1.438c0-0.375,0.09-0.713,0.26-1.015c0.189-0.302,0.449-0.531,0.77-0.688
		c0.33-0.156,0.811-0.297,1.42-0.422c0.84-0.156,1.41-0.302,1.74-0.437v-0.172c0-0.344-0.09-0.588-0.27-0.734
		c-0.17-0.146-0.48-0.219-0.949-0.219c-0.311,0-0.561,0.062-0.74,0.187C582.221,54.383,582.07,54.602,581.959,54.915L581.959,54.915
		z M584.35,56.368c-0.23,0.073-0.6,0.161-1.1,0.265c-0.49,0.105-0.811,0.209-0.971,0.313c-0.219,0.167-0.34,0.375-0.34,0.625
		s0.09,0.469,0.281,0.656c0.189,0.177,0.42,0.266,0.699,0.266c0.33,0,0.641-0.104,0.93-0.313c0.221-0.156,0.359-0.354,0.42-0.593
		c0.051-0.146,0.08-0.433,0.08-0.86V56.368L584.35,56.368z M590.949,52.868v1.422h-1.219v2.703c0,0.552,0.01,0.875,0.029,0.969
		c0.02,0.093,0.08,0.171,0.16,0.234c0.08,0.052,0.18,0.078,0.301,0.078c0.16,0,0.398-0.057,0.719-0.172l0.15,1.391
		c-0.41,0.177-0.881,0.265-1.4,0.265c-0.33,0-0.619-0.052-0.879-0.156c-0.26-0.114-0.451-0.255-0.58-0.422
		c-0.111-0.177-0.191-0.411-0.23-0.703c-0.041-0.208-0.061-0.625-0.061-1.25V54.29h-0.82v-1.422h0.82v-1.344l1.791-1.047v2.391
		H590.949L590.949,52.868z M593.52,54.915l-1.629-0.297c0.189-0.646,0.5-1.125,0.939-1.438c0.449-0.312,1.109-0.468,1.98-0.468
		c0.799,0,1.398,0.093,1.779,0.281c0.391,0.187,0.66,0.427,0.82,0.719c0.16,0.291,0.25,0.822,0.25,1.593l-0.02,2.078
		c0,0.594,0.029,1.032,0.08,1.313c0.059,0.281,0.17,0.583,0.33,0.906h-1.771c-0.049-0.114-0.109-0.291-0.17-0.531
		c-0.029-0.104-0.049-0.172-0.059-0.203c-0.32,0.291-0.641,0.515-0.99,0.672c-0.34,0.146-0.711,0.218-1.111,0.218
		c-0.699,0-1.24-0.187-1.639-0.562c-0.391-0.385-0.59-0.865-0.59-1.438c0-0.375,0.09-0.713,0.26-1.015
		c0.189-0.302,0.449-0.531,0.77-0.688c0.33-0.156,0.811-0.297,1.42-0.422c0.83-0.156,1.41-0.302,1.74-0.437v-0.172
		c0-0.344-0.09-0.588-0.27-0.734c-0.17-0.146-0.48-0.219-0.951-0.219c-0.32,0-0.559,0.062-0.74,0.187
		C593.779,54.383,593.631,54.602,593.52,54.915L593.52,54.915z M595.91,56.368c-0.23,0.073-0.6,0.161-1.1,0.265
		c-0.49,0.105-0.811,0.209-0.971,0.313c-0.23,0.167-0.34,0.375-0.34,0.625s0.09,0.469,0.279,0.656
		c0.191,0.177,0.42,0.266,0.701,0.266c0.33,0,0.629-0.104,0.93-0.313c0.209-0.156,0.359-0.354,0.42-0.593
		c0.051-0.146,0.08-0.433,0.08-0.86V56.368L595.91,56.368z M599.43,59.602V50.29h3.961c1,0,1.719,0.088,2.17,0.265
		c0.449,0.167,0.799,0.464,1.08,0.891c0.27,0.427,0.398,0.911,0.398,1.453c0,0.698-0.209,1.276-0.619,1.734
		c-0.41,0.459-1.02,0.745-1.83,0.86c0.41,0.239,0.74,0.5,1,0.781c0.27,0.281,0.631,0.787,1.08,1.516l1.119,1.812h-2.229
		l-1.361-2.031c-0.49-0.719-0.818-1.172-1-1.359c-0.18-0.188-0.369-0.318-0.559-0.391c-0.201-0.073-0.512-0.109-0.941-0.109h-0.389
		v3.89H599.43L599.43,59.602z M601.311,54.227h1.389c0.9,0,1.471-0.036,1.691-0.109c0.219-0.073,0.398-0.203,0.529-0.391
		c0.119-0.187,0.18-0.422,0.18-0.703c0-0.313-0.08-0.563-0.25-0.75c-0.16-0.198-0.4-0.323-0.699-0.375
		c-0.15-0.021-0.611-0.031-1.371-0.031h-1.469V54.227L601.311,54.227z M612.709,57.462l1.771,0.296
		c-0.23,0.646-0.59,1.141-1.08,1.485s-1.111,0.515-1.84,0.515c-1.182,0-2.051-0.385-2.611-1.156c-0.449-0.614-0.68-1.385-0.68-2.312
		c0-1.125,0.301-2,0.881-2.625c0.59-0.636,1.33-0.953,2.219-0.953c1.012,0,1.801,0.333,2.371,1c0.59,0.656,0.859,1.666,0.83,3.031
		H610.1c0.02,0.531,0.17,0.943,0.439,1.234c0.271,0.292,0.611,0.438,1.031,0.438c0.279,0,0.52-0.073,0.699-0.219
		C612.459,58.04,612.609,57.795,612.709,57.462L612.709,57.462z M612.811,55.649c-0.021-0.51-0.15-0.901-0.41-1.172
		c-0.25-0.271-0.561-0.406-0.92-0.406c-0.391,0-0.711,0.141-0.971,0.422c-0.25,0.291-0.379,0.677-0.379,1.156H612.811
		L612.811,55.649z M621.91,54.852l-1.77,0.313c-0.051-0.344-0.182-0.604-0.4-0.782c-0.211-0.177-0.48-0.265-0.811-0.265
		c-0.439,0-0.799,0.151-1.07,0.453c-0.26,0.302-0.389,0.818-0.389,1.547c0,0.791,0.139,1.354,0.408,1.687
		c0.271,0.334,0.631,0.5,1.08,0.5c0.342,0,0.621-0.093,0.83-0.281c0.211-0.198,0.361-0.531,0.451-1l1.76,0.297
		c-0.18,0.802-0.541,1.411-1.061,1.828c-0.51,0.406-1.199,0.609-2.059,0.609c-0.99,0-1.781-0.312-2.361-0.937
		s-0.879-1.484-0.879-2.578c0-1.115,0.299-1.979,0.879-2.594c0.58-0.625,1.381-0.938,2.391-0.938c0.82,0,1.471,0.177,1.949,0.531
		C621.35,53.597,621.699,54.133,621.91,54.852L621.91,54.852z M622.84,56.133c0-0.593,0.15-1.166,0.439-1.718
		c0.291-0.552,0.701-0.974,1.24-1.266c0.541-0.292,1.141-0.438,1.811-0.438c1.01,0,1.84,0.333,2.5,1c0.65,0.656,0.98,1.489,0.98,2.5
		c0,1.021-0.33,1.869-1,2.546c-0.65,0.667-1.48,1-2.48,1c-0.621,0-1.211-0.14-1.77-0.421c-0.561-0.282-0.99-0.688-1.281-1.219
		C622.99,57.576,622.84,56.915,622.84,56.133L622.84,56.133z M624.67,56.227c0,0.667,0.16,1.182,0.471,1.547
		c0.318,0.354,0.719,0.531,1.189,0.531s0.859-0.177,1.17-0.531c0.311-0.365,0.471-0.885,0.471-1.563c0-0.657-0.16-1.162-0.471-1.516
		s-0.699-0.531-1.17-0.531s-0.871,0.177-1.189,0.531C624.83,55.05,624.67,55.561,624.67,56.227L624.67,56.227z M632.91,59.602
		h-1.779v-6.734h1.648v0.953c0.291-0.458,0.541-0.755,0.771-0.891c0.229-0.146,0.479-0.218,0.77-0.218c0.4,0,0.789,0.109,1.17,0.328
		l-0.551,1.562c-0.299-0.198-0.58-0.297-0.84-0.297c-0.25,0-0.471,0.073-0.641,0.219c-0.17,0.135-0.309,0.385-0.408,0.75
		c-0.092,0.354-0.141,1.104-0.141,2.25V59.602L632.91,59.602z M642.439,59.602h-1.66v-0.984c-0.27,0.385-0.59,0.672-0.969,0.859
		c-0.371,0.188-0.75,0.281-1.121,0.281c-0.779,0-1.449-0.312-2-0.937c-0.559-0.625-0.83-1.495-0.83-2.609
		c0-1.146,0.26-2.016,0.801-2.61c0.539-0.594,1.221-0.89,2.039-0.89c0.75,0,1.4,0.313,1.961,0.938V50.29h1.779V59.602
		L642.439,59.602z M637.689,56.087c0,0.718,0.1,1.239,0.291,1.563c0.289,0.469,0.689,0.703,1.209,0.703
		c0.4,0,0.75-0.172,1.041-0.515c0.299-0.355,0.439-0.881,0.439-1.579c0-0.77-0.141-1.328-0.42-1.671
		c-0.279-0.344-0.641-0.516-1.08-0.516c-0.42,0-0.77,0.172-1.061,0.516C637.83,54.92,637.689,55.42,637.689,56.087L637.689,56.087z
		 M644.189,59.602V50.29H647l1.689,6.359l1.67-6.359h2.811v9.312h-1.75v-7.328l-1.84,7.328h-1.811l-1.83-7.328v7.328H644.189
		L644.189,59.602z M654.609,56.133c0-0.593,0.15-1.166,0.441-1.718c0.289-0.552,0.699-0.974,1.238-1.266
		c0.541-0.292,1.141-0.438,1.811-0.438c1.01,0,1.84,0.333,2.5,1c0.65,0.656,0.98,1.489,0.98,2.5c0,1.021-0.33,1.869-1,2.546
		c-0.65,0.667-1.48,1-2.48,1c-0.619,0-1.209-0.14-1.77-0.421c-0.561-0.282-0.99-0.688-1.279-1.219
		C654.76,57.576,654.609,56.915,654.609,56.133L654.609,56.133z M656.439,56.227c0,0.667,0.16,1.182,0.471,1.547
		c0.32,0.354,0.719,0.531,1.189,0.531s0.859-0.177,1.17-0.531c0.311-0.365,0.471-0.885,0.471-1.563c0-0.657-0.16-1.162-0.471-1.516
		s-0.699-0.531-1.17-0.531s-0.869,0.177-1.189,0.531C656.6,55.05,656.439,55.561,656.439,56.227L656.439,56.227z M669.15,59.602
		h-1.66v-0.984c-0.27,0.385-0.59,0.672-0.971,0.859c-0.369,0.188-0.75,0.281-1.119,0.281c-0.781,0-1.451-0.312-2-0.937
		c-0.551-0.625-0.83-1.495-0.83-2.609c0-1.146,0.27-2.016,0.799-2.61c0.541-0.594,1.221-0.89,2.041-0.89
		c0.75,0,1.4,0.313,1.959,0.938V50.29h1.781V59.602L669.15,59.602z M664.4,56.087c0,0.718,0.1,1.239,0.289,1.563
		c0.291,0.469,0.691,0.703,1.211,0.703c0.4,0,0.75-0.172,1.039-0.515c0.301-0.355,0.439-0.881,0.439-1.579
		c0-0.77-0.139-1.328-0.42-1.671c-0.279-0.344-0.639-0.516-1.08-0.516c-0.408,0-0.77,0.172-1.059,0.516
		C664.539,54.92,664.4,55.42,664.4,56.087L664.4,56.087z M674.82,57.462l1.77,0.296c-0.23,0.646-0.59,1.141-1.08,1.485
		s-1.1,0.515-1.84,0.515c-1.18,0-2.051-0.385-2.609-1.156c-0.451-0.614-0.67-1.385-0.67-2.312c0-1.125,0.289-2,0.869-2.625
		c0.59-0.636,1.33-0.953,2.221-0.953c1.01,0,1.799,0.333,2.369,1c0.59,0.656,0.859,1.666,0.83,3.031h-4.471
		c0.021,0.531,0.172,0.943,0.441,1.234c0.27,0.292,0.619,0.438,1.029,0.438c0.279,0,0.52-0.073,0.711-0.219
		C674.57,58.04,674.721,57.795,674.82,57.462L674.82,57.462z M674.92,55.649c-0.01-0.51-0.15-0.901-0.41-1.172
		c-0.25-0.271-0.561-0.406-0.92-0.406c-0.391,0-0.709,0.141-0.971,0.422c-0.25,0.291-0.369,0.677-0.369,1.156H674.92L674.92,55.649z
		 M678.15,59.602V50.29h1.779v9.312H678.15L678.15,59.602z"/>
	<polygon fill="#FFCC99" points="19,42 136,42 136,66 19,66 19,42 	"/>
	<polygon fill="#FFFFDA" points="18,41 19,41 19,67 18,67 18,41 	"/>
	<polygon fill="#FFFFDA" points="19,41 136,41 136,42 19,42 19,41 	"/>
	<polygon fill="#B28E6B" points="19,66 137,66 137,67 19,67 19,66 	"/>
	<polygon fill="#B28E6B" points="136,41 137,41 137,66 136,66 136,41 	"/>
	<path d="M29.42,50.29h3.44c0.77,0,1.36,0.062,1.77,0.187c0.55,0.156,1.02,0.443,1.4,0.86c0.39,0.406,0.68,0.906,0.88,1.5
		c0.21,0.593,0.31,1.328,0.31,2.203c0,0.76-0.09,1.422-0.28,1.984c-0.23,0.677-0.56,1.224-1,1.641
		c-0.32,0.312-0.76,0.557-1.31,0.734c-0.42,0.135-0.98,0.203-1.68,0.203h-3.53V50.29L29.42,50.29z M31.3,51.868v6.172h1.4
		c0.54,0,0.92-0.032,1.14-0.094c0.31-0.073,0.56-0.198,0.75-0.375c0.21-0.188,0.38-0.49,0.5-0.906c0.13-0.417,0.19-0.985,0.19-1.703
		c0-0.719-0.06-1.271-0.19-1.657c-0.12-0.385-0.3-0.687-0.53-0.906c-0.23-0.219-0.52-0.365-0.87-0.438
		c-0.26-0.063-0.78-0.094-1.55-0.094H31.3L31.3,51.868z M40.14,54.915l-1.63-0.297c0.19-0.646,0.5-1.125,0.94-1.438
		c0.45-0.312,1.11-0.468,1.99-0.468c0.8,0,1.39,0.093,1.78,0.281c0.38,0.187,0.65,0.427,0.81,0.719
		c0.17,0.291,0.25,0.822,0.25,1.593l-0.02,2.078c0,0.594,0.03,1.032,0.08,1.313c0.06,0.281,0.17,0.583,0.33,0.906H42.9
		c-0.05-0.114-0.1-0.291-0.17-0.531c-0.03-0.104-0.05-0.172-0.06-0.203c-0.31,0.291-0.64,0.515-0.98,0.672
		c-0.35,0.146-0.72,0.218-1.11,0.218c-0.7,0-1.25-0.187-1.64-0.562c-0.4-0.385-0.6-0.865-0.6-1.438c0-0.375,0.09-0.713,0.27-1.015
		c0.19-0.302,0.44-0.531,0.76-0.688c0.34-0.156,0.81-0.297,1.43-0.422c0.83-0.156,1.41-0.302,1.73-0.437v-0.172
		c0-0.344-0.09-0.588-0.27-0.734c-0.16-0.146-0.48-0.219-0.95-0.219c-0.31,0-0.56,0.062-0.73,0.187
		C40.4,54.383,40.25,54.602,40.14,54.915L40.14,54.915z M42.53,56.368c-0.23,0.073-0.59,0.161-1.09,0.265
		c-0.49,0.105-0.82,0.209-0.97,0.313c-0.23,0.167-0.35,0.375-0.35,0.625s0.1,0.469,0.28,0.656c0.19,0.177,0.43,0.266,0.71,0.266
		c0.32,0,0.63-0.104,0.92-0.313c0.22-0.156,0.36-0.354,0.42-0.593c0.05-0.146,0.08-0.433,0.08-0.86V56.368L42.53,56.368z
		 M49.13,52.868v1.422h-1.21v2.703c0,0.552,0.01,0.875,0.03,0.969c0.02,0.093,0.07,0.171,0.15,0.234
		c0.09,0.052,0.19,0.078,0.3,0.078c0.17,0,0.41-0.057,0.72-0.172l0.16,1.391c-0.42,0.177-0.89,0.265-1.41,0.265
		c-0.32,0-0.62-0.052-0.88-0.156c-0.26-0.114-0.45-0.255-0.57-0.422c-0.12-0.177-0.2-0.411-0.24-0.703
		c-0.04-0.208-0.06-0.625-0.06-1.25V54.29h-0.81v-1.422h0.81v-1.344l1.8-1.047v2.391H49.13L49.13,52.868z M51.7,54.915l-1.63-0.297
		c0.19-0.646,0.5-1.125,0.94-1.438c0.45-0.312,1.11-0.468,1.99-0.468c0.8,0,1.39,0.093,1.78,0.281c0.38,0.187,0.65,0.427,0.81,0.719
		c0.17,0.291,0.25,0.822,0.25,1.593l-0.02,2.078c0,0.594,0.03,1.032,0.08,1.313c0.06,0.281,0.17,0.583,0.33,0.906h-1.77
		c-0.05-0.114-0.11-0.291-0.17-0.531c-0.03-0.104-0.05-0.172-0.06-0.203c-0.31,0.291-0.64,0.515-0.98,0.672
		c-0.35,0.146-0.72,0.218-1.11,0.218c-0.7,0-1.25-0.187-1.64-0.562c-0.4-0.385-0.6-0.865-0.6-1.438c0-0.375,0.09-0.713,0.27-1.015
		s0.44-0.531,0.76-0.688c0.34-0.156,0.81-0.297,1.42-0.422c0.84-0.156,1.42-0.302,1.74-0.437v-0.172c0-0.344-0.09-0.588-0.27-0.734
		c-0.16-0.146-0.48-0.219-0.95-0.219c-0.31,0-0.56,0.062-0.73,0.187C51.96,54.383,51.81,54.602,51.7,54.915L51.7,54.915z
		 M54.09,56.368c-0.23,0.073-0.59,0.161-1.09,0.265c-0.49,0.105-0.82,0.209-0.97,0.313c-0.23,0.167-0.35,0.375-0.35,0.625
		s0.1,0.469,0.28,0.656c0.19,0.177,0.43,0.266,0.71,0.266c0.32,0,0.63-0.104,0.92-0.313c0.22-0.156,0.36-0.354,0.42-0.593
		c0.05-0.146,0.08-0.433,0.08-0.86V56.368L54.09,56.368z M59.71,59.602v-7.734h-2.77V50.29h7.39v1.578h-2.75v7.734H59.71
		L59.71,59.602z M66.87,54.915l-1.63-0.297c0.19-0.646,0.5-1.125,0.94-1.438c0.45-0.312,1.11-0.468,1.99-0.468
		c0.8,0,1.39,0.093,1.78,0.281c0.38,0.187,0.65,0.427,0.81,0.719c0.17,0.291,0.25,0.822,0.25,1.593l-0.02,2.078
		c0,0.594,0.03,1.032,0.08,1.313c0.06,0.281,0.17,0.583,0.33,0.906h-1.77c-0.05-0.114-0.1-0.291-0.17-0.531
		c-0.03-0.104-0.05-0.172-0.06-0.203c-0.31,0.291-0.64,0.515-0.98,0.672c-0.35,0.146-0.72,0.218-1.11,0.218
		c-0.7,0-1.25-0.187-1.64-0.562c-0.4-0.385-0.6-0.865-0.6-1.438c0-0.375,0.09-0.713,0.27-1.015c0.19-0.302,0.44-0.531,0.76-0.688
		c0.34-0.156,0.81-0.297,1.43-0.422c0.83-0.156,1.41-0.302,1.73-0.437v-0.172c0-0.344-0.09-0.588-0.27-0.734
		c-0.16-0.146-0.48-0.219-0.95-0.219c-0.31,0-0.56,0.062-0.73,0.187C67.13,54.383,66.98,54.602,66.87,54.915L66.87,54.915z
		 M69.26,56.368c-0.23,0.073-0.59,0.161-1.09,0.265c-0.49,0.105-0.82,0.209-0.97,0.313c-0.23,0.167-0.35,0.375-0.35,0.625
		s0.1,0.469,0.28,0.656c0.19,0.177,0.43,0.266,0.71,0.266c0.32,0,0.63-0.104,0.92-0.313c0.22-0.156,0.36-0.354,0.42-0.593
		c0.05-0.146,0.08-0.433,0.08-0.86V56.368L69.26,56.368z M72.69,59.602V50.29h1.78v3.359c0.56-0.625,1.21-0.938,1.96-0.938
		c0.82,0,1.5,0.296,2.03,0.89c0.54,0.594,0.81,1.448,0.81,2.563c0,1.146-0.27,2.031-0.83,2.656c-0.54,0.625-1.2,0.937-1.98,0.937
		c-0.39,0-0.77-0.093-1.14-0.281c-0.38-0.198-0.7-0.484-0.97-0.859v0.984H72.69L72.69,59.602z M74.46,56.087
		c0,0.697,0.11,1.213,0.33,1.546c0.31,0.48,0.72,0.719,1.23,0.719c0.4,0,0.73-0.166,1-0.5c0.28-0.344,0.42-0.88,0.42-1.609
		c0-0.761-0.14-1.313-0.42-1.656c-0.27-0.344-0.62-0.516-1.06-0.516c-0.43,0-0.79,0.167-1.08,0.5
		C74.6,54.904,74.46,55.409,74.46,56.087L74.46,56.087z M80.71,59.602V50.29h1.78v9.312H80.71L80.71,59.602z M88.23,57.462
		L90,57.758c-0.23,0.646-0.59,1.141-1.08,1.485c-0.49,0.344-1.11,0.515-1.85,0.515c-1.17,0-2.04-0.385-2.61-1.156
		c-0.44-0.614-0.67-1.385-0.67-2.312c0-1.125,0.29-2,0.88-2.625c0.59-0.636,1.33-0.953,2.22-0.953c1.01,0,1.8,0.333,2.37,1
		c0.58,0.656,0.86,1.666,0.83,3.031h-4.47c0.02,0.531,0.17,0.943,0.44,1.234c0.27,0.292,0.61,0.438,1.03,0.438
		c0.28,0,0.52-0.073,0.7-0.219C87.98,58.04,88.13,57.795,88.23,57.462L88.23,57.462z M88.32,55.649c-0.01-0.51-0.14-0.901-0.4-1.172
		c-0.25-0.271-0.56-0.406-0.92-0.406c-0.39,0-0.71,0.141-0.97,0.422c-0.25,0.291-0.38,0.677-0.38,1.156H88.32L88.32,55.649z
		 M91.54,59.602V50.29h2.81l1.69,6.359l1.67-6.359h2.81v9.312h-1.75v-7.328l-1.84,7.328h-1.81l-1.83-7.328v7.328H91.54L91.54,59.602
		z M101.96,56.133c0-0.593,0.15-1.166,0.44-1.718c0.29-0.552,0.7-0.974,1.23-1.266c0.54-0.292,1.15-0.438,1.82-0.438
		c1.01,0,1.84,0.333,2.5,1c0.65,0.656,0.98,1.489,0.98,2.5c0,1.021-0.33,1.869-1,2.546c-0.66,0.667-1.48,1-2.48,1
		c-0.62,0-1.21-0.14-1.77-0.421c-0.56-0.282-0.99-0.688-1.28-1.219C102.11,57.576,101.96,56.915,101.96,56.133L101.96,56.133z
		 M103.79,56.227c0,0.667,0.16,1.182,0.47,1.547c0.32,0.354,0.72,0.531,1.19,0.531c0.46,0,0.85-0.177,1.17-0.531
		c0.31-0.365,0.47-0.885,0.47-1.563c0-0.657-0.16-1.162-0.47-1.516c-0.32-0.354-0.71-0.531-1.17-0.531
		c-0.47,0-0.87,0.177-1.19,0.531C103.95,55.05,103.79,55.561,103.79,56.227L103.79,56.227z M116.5,59.602h-1.66v-0.984
		c-0.27,0.385-0.59,0.672-0.97,0.859c-0.37,0.188-0.75,0.281-1.12,0.281c-0.79,0-1.45-0.312-2-0.937
		c-0.56-0.625-0.83-1.495-0.83-2.609c0-1.146,0.26-2.016,0.79-2.61c0.55-0.594,1.23-0.89,2.05-0.89c0.75,0,1.4,0.313,1.95,0.938
		V50.29h1.79V59.602L116.5,59.602z M111.75,56.087c0,0.718,0.09,1.239,0.29,1.563c0.28,0.469,0.68,0.703,1.21,0.703
		c0.4,0,0.75-0.172,1.04-0.515c0.29-0.355,0.44-0.881,0.44-1.579c0-0.77-0.14-1.328-0.42-1.671c-0.28-0.344-0.64-0.516-1.08-0.516
		c-0.42,0-0.77,0.172-1.06,0.516C111.89,54.92,111.75,55.42,111.75,56.087L111.75,56.087z M122.17,57.462l1.77,0.296
		c-0.23,0.646-0.59,1.141-1.08,1.485c-0.49,0.344-1.11,0.515-1.85,0.515c-1.17,0-2.04-0.385-2.6-1.156
		c-0.45-0.614-0.68-1.385-0.68-2.312c0-1.125,0.3-2,0.88-2.625c0.59-0.636,1.33-0.953,2.22-0.953c1.01,0,1.8,0.333,2.37,1
		c0.59,0.656,0.86,1.666,0.83,3.031h-4.47c0.02,0.531,0.17,0.943,0.44,1.234c0.27,0.292,0.61,0.438,1.03,0.438
		c0.28,0,0.52-0.073,0.7-0.219C121.92,58.04,122.07,57.795,122.17,57.462L122.17,57.462z M122.26,55.649
		c-0.01-0.51-0.14-0.901-0.4-1.172c-0.25-0.271-0.56-0.406-0.92-0.406c-0.39,0-0.71,0.141-0.97,0.422
		c-0.25,0.291-0.38,0.677-0.38,1.156H122.26L122.26,55.649z M125.49,59.602V50.29h1.79v9.312H125.49L125.49,59.602z"/>
	<polygon fill="#FFCC99" points="198,30 324,30 324,78 198,78 198,30 	"/>
	<polygon fill="#FFFFDA" points="197,29 198,29 198,79 197,79 197,29 	"/>
	<polygon fill="#FFFFDA" points="198,29 324,29 324,30 198,30 198,29 	"/>
	<polygon fill="#B28E6B" points="198,78 325,78 325,79 198,79 198,78 	"/>
	<polygon fill="#B28E6B" points="324,29 325,29 325,78 324,78 324,29 	"/>
	<path d="M225.71,42.617v-0.984l5.69-2.407v1.047l-4.52,1.844l4.52,1.875v1.047L225.71,42.617L225.71,42.617z M232.72,42.617v-0.984
		l5.68-2.407v1.047l-4.51,1.844l4.51,1.875v1.047L232.72,42.617L232.72,42.617z M239.86,38.992v-1.219h1.07v1.219H239.86
		L239.86,38.992z M239.86,46.367v-6.219h1.07v6.219H239.86L239.86,46.367z M242.53,46.367v-6.219h0.94v0.875
		c0.46-0.677,1.12-1.015,1.98-1.015c0.38,0,0.72,0.067,1.03,0.203c0.33,0.135,0.57,0.313,0.72,0.531
		c0.16,0.219,0.27,0.474,0.33,0.766c0.03,0.198,0.05,0.541,0.05,1.031v3.828h-1.05v-3.781c0-0.438-0.04-0.761-0.12-0.969
		c-0.09-0.208-0.229-0.375-0.44-0.5c-0.21-0.135-0.46-0.203-0.74-0.203c-0.44,0-0.83,0.146-1.17,0.437
		c-0.32,0.282-0.48,0.818-0.48,1.61v3.406H242.53L242.53,46.367z M251.5,45.43l0.16,0.921c-0.3,0.063-0.57,0.094-0.8,0.094
		c-0.38,0-0.68-0.057-0.89-0.172c-0.21-0.125-0.36-0.286-0.45-0.484c-0.09-0.198-0.13-0.615-0.13-1.25v-3.578h-0.76v-0.813h0.76
		v-1.547l1.05-0.625v2.172h1.06v0.813h-1.06v3.64c0,0.302,0.01,0.495,0.05,0.579c0.04,0.083,0.1,0.151,0.18,0.203
		c0.09,0.052,0.21,0.078,0.36,0.078C251.16,45.461,251.31,45.45,251.5,45.43L251.5,45.43z M256.79,44.367l1.09,0.125
		c-0.16,0.635-0.48,1.13-0.95,1.484c-0.47,0.355-1.061,0.532-1.78,0.532c-0.91,0-1.63-0.282-2.17-0.844
		c-0.54-0.563-0.8-1.349-0.8-2.359c0-1.042,0.27-1.849,0.81-2.422c0.54-0.584,1.24-0.875,2.1-0.875c0.83,0,1.51,0.281,2.03,0.843
		c0.53,0.563,0.79,1.36,0.79,2.391c0,0.063,0,0.156,0,0.281h-4.64c0.04,0.688,0.24,1.214,0.58,1.578
		c0.34,0.355,0.78,0.532,1.3,0.532c0.38,0,0.71-0.099,0.98-0.297C256.41,45.127,256.63,44.805,256.79,44.367L256.79,44.367z
		 M253.34,42.664h3.46c-0.04-0.531-0.17-0.927-0.39-1.188c-0.34-0.406-0.78-0.609-1.31-0.609c-0.49,0-0.9,0.161-1.23,0.484
		C253.54,41.674,253.37,42.112,253.34,42.664L253.34,42.664z M259.2,46.367v-6.219h0.95v0.938c0.24-0.438,0.46-0.724,0.66-0.86
		c0.2-0.145,0.43-0.218,0.68-0.218c0.36,0,0.72,0.109,1.08,0.328l-0.36,0.984c-0.26-0.156-0.51-0.234-0.76-0.234
		c-0.24,0-0.46,0.073-0.64,0.219c-0.18,0.135-0.31,0.328-0.38,0.578c-0.12,0.375-0.19,0.781-0.19,1.218v3.266H259.2L259.2,46.367z
		 M263.46,46.367v-5.406h-0.94v-0.813h0.94v-0.672c0-0.416,0.03-0.724,0.11-0.921c0.1-0.282,0.28-0.506,0.53-0.672
		c0.26-0.167,0.62-0.25,1.08-0.25c0.3,0,0.63,0.036,0.98,0.109l-0.15,0.906c-0.22-0.031-0.43-0.047-0.63-0.047
		c-0.32,0-0.55,0.068-0.69,0.204c-0.12,0.135-0.18,0.39-0.18,0.765v0.578h1.21v0.813h-1.21v5.406H263.46L263.46,46.367z
		 M270.6,45.601c-0.39,0.334-0.771,0.568-1.14,0.704c-0.35,0.135-0.74,0.203-1.15,0.203c-0.69,0-1.22-0.167-1.58-0.5
		c-0.36-0.334-0.55-0.761-0.55-1.282c0-0.302,0.07-0.578,0.21-0.828c0.13-0.26,0.31-0.463,0.54-0.609
		c0.23-0.156,0.49-0.271,0.77-0.344c0.2-0.062,0.51-0.12,0.94-0.172c0.84-0.093,1.46-0.213,1.87-0.359c0-0.146,0-0.234,0-0.266
		c0-0.438-0.101-0.745-0.3-0.922c-0.27-0.229-0.67-0.343-1.2-0.343c-0.49,0-0.851,0.088-1.09,0.265
		c-0.24,0.167-0.42,0.469-0.53,0.907l-1.04-0.141c0.1-0.438,0.25-0.792,0.47-1.063c0.22-0.27,0.53-0.479,0.94-0.625
		c0.41-0.145,0.88-0.218,1.41-0.218s0.96,0.062,1.29,0.187c0.34,0.125,0.58,0.281,0.74,0.469c0.15,0.187,0.26,0.427,0.33,0.719
		c0.03,0.177,0.04,0.5,0.04,0.968v1.407c0,0.979,0.02,1.599,0.07,1.859c0.05,0.26,0.14,0.51,0.28,0.75h-1.11
		C270.7,46.148,270.64,45.893,270.6,45.601L270.6,45.601z M270.51,43.242c-0.38,0.156-0.96,0.292-1.72,0.406
		c-0.44,0.063-0.74,0.136-0.92,0.219c-0.18,0.073-0.32,0.182-0.42,0.328c-0.1,0.146-0.14,0.313-0.14,0.5
		c0,0.281,0.1,0.516,0.31,0.703c0.22,0.188,0.53,0.282,0.94,0.282c0.4,0,0.76-0.089,1.08-0.266c0.32-0.177,0.55-0.422,0.7-0.734
		c0.11-0.24,0.17-0.589,0.17-1.047V43.242L270.51,43.242z M277.28,44.086l1.03,0.14c-0.11,0.709-0.41,1.266-0.88,1.672
		c-0.46,0.407-1.04,0.61-1.71,0.61c-0.86,0-1.55-0.276-2.07-0.828c-0.51-0.563-0.76-1.365-0.76-2.407c0-0.666,0.11-1.25,0.33-1.75
		c0.229-0.51,0.56-0.89,1.01-1.14c0.46-0.25,0.96-0.375,1.5-0.375c0.67,0,1.22,0.172,1.64,0.515c0.44,0.334,0.72,0.818,0.85,1.453
		l-1.04,0.157c-0.09-0.417-0.26-0.73-0.51-0.938c-0.25-0.219-0.55-0.328-0.91-0.328c-0.53,0-0.96,0.193-1.291,0.578
		c-0.34,0.375-0.5,0.974-0.5,1.797c0,0.844,0.16,1.453,0.479,1.828c0.32,0.375,0.74,0.563,1.25,0.563c0.42,0,0.76-0.125,1.03-0.375
		C277.01,45.008,277.2,44.617,277.28,44.086L277.28,44.086z M283.47,44.367l1.09,0.125c-0.17,0.635-0.48,1.13-0.95,1.484
		c-0.47,0.355-1.07,0.532-1.78,0.532c-0.91,0-1.63-0.282-2.18-0.844c-0.53-0.563-0.79-1.349-0.79-2.359
		c0-1.042,0.27-1.849,0.81-2.422c0.54-0.584,1.24-0.875,2.09-0.875c0.84,0,1.51,0.281,2.03,0.843c0.54,0.563,0.8,1.36,0.8,2.391
		c0,0.063,0,0.156,0,0.281h-4.64c0.04,0.688,0.23,1.214,0.58,1.578c0.34,0.355,0.771,0.532,1.3,0.532c0.38,0,0.71-0.099,0.98-0.297
		C283.09,45.127,283.31,44.805,283.47,44.367L283.47,44.367z M280.01,42.664h3.47c-0.04-0.531-0.17-0.927-0.39-1.188
		c-0.34-0.406-0.78-0.609-1.31-0.609c-0.49,0-0.9,0.161-1.24,0.484C280.22,41.674,280.04,42.112,280.01,42.664L280.01,42.664z
		 M291.44,42.617l-5.69,2.422v-1.047l4.5-1.875l-4.5-1.844v-1.047l5.69,2.407V42.617L291.44,42.617z M298.44,42.617l-5.68,2.422
		v-1.047l4.5-1.875l-4.5-1.844v-1.047l5.68,2.407V42.617L298.44,42.617z"/>
	<path d="M205.9,71.074v-9.313h1.87v9.313H205.9L205.9,71.074z M209.56,61.761H213c0.77,0,1.35,0.063,1.76,0.188
		c0.55,0.156,1.02,0.442,1.41,0.859c0.38,0.406,0.67,0.906,0.87,1.5c0.21,0.594,0.31,1.328,0.31,2.203c0,0.76-0.09,1.422-0.28,1.984
		c-0.23,0.678-0.56,1.224-1,1.641c-0.32,0.313-0.76,0.557-1.31,0.734c-0.42,0.136-0.97,0.204-1.67,0.204h-3.53V61.761L209.56,61.761
		z M211.43,63.339v6.172h1.41c0.53,0,0.91-0.031,1.14-0.094c0.3-0.073,0.55-0.198,0.75-0.375c0.21-0.187,0.37-0.489,0.5-0.906
		c0.12-0.417,0.19-0.984,0.19-1.703c0-0.719-0.07-1.271-0.19-1.656c-0.13-0.386-0.3-0.688-0.53-0.907
		c-0.23-0.218-0.52-0.364-0.88-0.437c-0.26-0.063-0.77-0.094-1.54-0.094H211.43L211.43,63.339z M220.27,66.386l-1.62-0.297
		c0.19-0.646,0.5-1.125,0.94-1.437c0.44-0.313,1.11-0.469,1.98-0.469c0.8,0,1.4,0.094,1.78,0.281c0.39,0.188,0.66,0.427,0.81,0.719
		c0.17,0.292,0.25,0.823,0.25,1.594l-0.01,2.078c0,0.594,0.03,1.031,0.08,1.312c0.06,0.282,0.17,0.584,0.33,0.907h-1.77
		c-0.05-0.115-0.11-0.292-0.17-0.532c-0.03-0.104-0.05-0.172-0.06-0.203c-0.32,0.292-0.65,0.516-0.99,0.672
		c-0.34,0.146-0.71,0.219-1.11,0.219c-0.7,0-1.24-0.188-1.64-0.563c-0.39-0.385-0.59-0.864-0.59-1.437
		c0-0.375,0.09-0.714,0.26-1.016c0.19-0.302,0.45-0.531,0.77-0.687c0.33-0.157,0.81-0.297,1.42-0.422
		c0.83-0.156,1.41-0.302,1.73-0.438v-0.172c0-0.343-0.081-0.588-0.26-0.734c-0.17-0.146-0.49-0.219-0.95-0.219
		c-0.32,0-0.56,0.063-0.74,0.188C220.53,65.855,220.39,66.074,220.27,66.386L220.27,66.386z M222.66,67.839
		c-0.22,0.073-0.59,0.162-1.09,0.266c-0.49,0.104-0.81,0.208-0.97,0.312c-0.23,0.167-0.34,0.375-0.34,0.625s0.09,0.469,0.28,0.657
		c0.19,0.177,0.42,0.265,0.7,0.265c0.33,0,0.63-0.104,0.92-0.312c0.22-0.157,0.36-0.354,0.43-0.594
		c0.05-0.146,0.07-0.432,0.07-0.859V67.839L222.66,67.839z M229.27,64.339v1.422h-1.22v2.703c0,0.552,0.01,0.875,0.03,0.969
		c0.02,0.094,0.08,0.172,0.16,0.234c0.08,0.052,0.18,0.078,0.3,0.078c0.16,0,0.4-0.057,0.71-0.171l0.16,1.39
		c-0.42,0.177-0.89,0.266-1.41,0.266c-0.32,0-0.61-0.052-0.87-0.156c-0.26-0.115-0.45-0.256-0.58-0.422
		c-0.11-0.177-0.19-0.412-0.23-0.703c-0.05-0.209-0.07-0.625-0.07-1.25v-2.938h-0.81v-1.422h0.81v-1.344l1.8-1.046v2.39H229.27
		L229.27,64.339z M231.83,66.386l-1.62-0.297c0.19-0.646,0.5-1.125,0.94-1.437c0.44-0.313,1.11-0.469,1.98-0.469
		c0.8,0,1.4,0.094,1.78,0.281c0.39,0.188,0.66,0.427,0.81,0.719c0.17,0.292,0.25,0.823,0.25,1.594l-0.01,2.078
		c0,0.594,0.02,1.031,0.08,1.312c0.06,0.282,0.17,0.584,0.32,0.907h-1.76c-0.05-0.115-0.11-0.292-0.17-0.532
		c-0.03-0.104-0.06-0.172-0.07-0.203c-0.31,0.292-0.64,0.516-0.98,0.672c-0.34,0.146-0.71,0.219-1.11,0.219
		c-0.7,0-1.24-0.188-1.64-0.563c-0.4-0.385-0.59-0.864-0.59-1.437c0-0.375,0.08-0.714,0.26-1.016c0.19-0.302,0.44-0.531,0.77-0.687
		c0.33-0.157,0.8-0.297,1.42-0.422c0.83-0.156,1.41-0.302,1.73-0.438v-0.172c0-0.343-0.08-0.588-0.26-0.734
		c-0.17-0.146-0.49-0.219-0.95-0.219c-0.32,0-0.56,0.063-0.74,0.188C232.09,65.855,231.95,66.074,231.83,66.386L231.83,66.386z
		 M234.22,67.839c-0.23,0.073-0.59,0.162-1.09,0.266c-0.49,0.104-0.81,0.208-0.97,0.312c-0.229,0.167-0.34,0.375-0.34,0.625
		s0.09,0.469,0.28,0.657c0.19,0.177,0.42,0.265,0.7,0.265c0.32,0,0.63-0.104,0.92-0.312c0.22-0.157,0.36-0.354,0.43-0.594
		c0.05-0.146,0.07-0.432,0.07-0.859V67.839L234.22,67.839z M239.84,71.074v-7.735h-2.76v-1.578h7.39v1.578h-2.75v7.735H239.84
		L239.84,71.074z M247,66.386l-1.62-0.297c0.19-0.646,0.5-1.125,0.94-1.437c0.44-0.313,1.11-0.469,1.98-0.469
		c0.8,0,1.4,0.094,1.78,0.281c0.39,0.188,0.66,0.427,0.81,0.719c0.17,0.292,0.25,0.823,0.25,1.594l-0.01,2.078
		c0,0.594,0.03,1.031,0.08,1.312c0.06,0.282,0.17,0.584,0.33,0.907h-1.77c-0.05-0.115-0.11-0.292-0.17-0.532
		c-0.03-0.104-0.05-0.172-0.06-0.203c-0.32,0.292-0.65,0.516-0.99,0.672c-0.34,0.146-0.71,0.219-1.11,0.219
		c-0.7,0-1.24-0.188-1.64-0.563c-0.39-0.385-0.59-0.864-0.59-1.437c0-0.375,0.09-0.714,0.26-1.016c0.19-0.302,0.45-0.531,0.77-0.687
		c0.33-0.157,0.81-0.297,1.42-0.422c0.83-0.156,1.41-0.302,1.73-0.438v-0.172c0-0.343-0.08-0.588-0.26-0.734
		c-0.17-0.146-0.49-0.219-0.95-0.219c-0.32,0-0.561,0.063-0.74,0.188C247.26,65.855,247.12,66.074,247,66.386L247,66.386z
		 M249.39,67.839c-0.22,0.073-0.59,0.162-1.09,0.266c-0.49,0.104-0.81,0.208-0.97,0.312c-0.229,0.167-0.34,0.375-0.34,0.625
		s0.09,0.469,0.28,0.657c0.19,0.177,0.42,0.265,0.7,0.265c0.33,0,0.63-0.104,0.92-0.312c0.22-0.157,0.36-0.354,0.43-0.594
		c0.05-0.146,0.07-0.432,0.07-0.859V67.839L249.39,67.839z M252.83,71.074v-9.313h1.78v3.359c0.55-0.625,1.2-0.937,1.95-0.937
		c0.83,0,1.5,0.297,2.03,0.891c0.55,0.593,0.82,1.447,0.82,2.562c0,1.146-0.28,2.031-0.831,2.656c-0.54,0.625-1.21,0.938-1.99,0.938
		c-0.38,0-0.76-0.094-1.14-0.281c-0.37-0.198-0.7-0.485-0.97-0.86v0.985H252.83L252.83,71.074z M254.59,67.558
		c0,0.698,0.11,1.213,0.33,1.547c0.31,0.479,0.73,0.719,1.24,0.719c0.39,0,0.73-0.167,1-0.5c0.28-0.344,0.42-0.881,0.42-1.61
		c0-0.76-0.14-1.312-0.42-1.656c-0.27-0.344-0.63-0.516-1.07-0.516c-0.42,0-0.78,0.167-1.07,0.5
		C254.73,66.376,254.59,66.881,254.59,67.558L254.59,67.558z M260.85,71.074v-9.313h1.78v9.313H260.85L260.85,71.074z
		 M268.36,68.933l1.77,0.297c-0.23,0.646-0.59,1.14-1.08,1.484c-0.49,0.344-1.1,0.516-1.84,0.516c-1.18,0-2.05-0.386-2.61-1.156
		c-0.45-0.615-0.67-1.386-0.67-2.313c0-1.125,0.29-2,0.87-2.625c0.6-0.635,1.34-0.953,2.22-0.953c1.01,0,1.8,0.333,2.38,1
		c0.58,0.656,0.86,1.667,0.82,3.031h-4.46c0.02,0.531,0.16,0.943,0.43,1.235c0.27,0.291,0.62,0.437,1.03,0.437
		c0.29,0,0.52-0.073,0.71-0.219C268.11,69.511,268.26,69.266,268.36,68.933L268.36,68.933z M268.46,67.12
		c-0.01-0.51-0.15-0.901-0.41-1.171c-0.25-0.271-0.55-0.407-0.92-0.407c-0.38,0-0.71,0.141-0.97,0.422
		c-0.25,0.292-0.37,0.677-0.37,1.156H268.46L268.46,67.12z M271.22,68.042l1.831-0.172c0.11,0.615,0.34,1.068,0.669,1.36
		c0.33,0.281,0.79,0.422,1.36,0.422c0.601,0,1.061-0.125,1.36-0.375c0.31-0.261,0.47-0.563,0.47-0.907
		c0-0.218-0.07-0.406-0.21-0.562c-0.12-0.156-0.34-0.292-0.67-0.406c-0.22-0.073-0.72-0.209-1.5-0.407
		c-1.01-0.25-1.72-0.557-2.12-0.921c-0.57-0.511-0.85-1.136-0.85-1.875c0-0.469,0.13-0.907,0.39-1.313
		c0.28-0.417,0.66-0.734,1.16-0.953c0.51-0.219,1.13-0.328,1.84-0.328c1.17,0,2.05,0.26,2.63,0.781c0.59,0.51,0.91,1.193,0.94,2.047
		l-1.88,0.078c-0.08-0.479-0.25-0.823-0.51-1.031c-0.26-0.209-0.66-0.313-1.19-0.313c-0.55,0-0.98,0.11-1.28,0.328
		c-0.2,0.146-0.3,0.339-0.3,0.579c0,0.218,0.09,0.406,0.27,0.562c0.24,0.208,0.81,0.422,1.73,0.641
		c0.92,0.208,1.59,0.427,2.03,0.656c0.44,0.229,0.78,0.547,1.02,0.953c0.25,0.396,0.37,0.891,0.37,1.484
		c0,0.532-0.15,1.032-0.45,1.5c-0.29,0.459-0.71,0.803-1.25,1.032c-0.54,0.229-1.21,0.343-2.02,0.343c-1.17,0-2.08-0.27-2.72-0.812
		C271.72,69.881,271.34,69.084,271.22,68.042L271.22,68.042z M283.45,64.339v1.422h-1.22v2.703c0,0.552,0.02,0.875,0.04,0.969
		c0.02,0.094,0.07,0.172,0.15,0.234c0.09,0.052,0.18,0.078,0.3,0.078c0.17,0,0.41-0.057,0.72-0.171l0.15,1.39
		c-0.41,0.177-0.88,0.266-1.4,0.266c-0.33,0-0.62-0.052-0.88-0.156c-0.26-0.115-0.45-0.256-0.58-0.422
		c-0.11-0.177-0.19-0.412-0.23-0.703c-0.04-0.209-0.06-0.625-0.06-1.25v-2.938h-0.81v-1.422h0.81v-1.344l1.79-1.046v2.39H283.45
		L283.45,64.339z M284.27,67.605c0-0.594,0.14-1.167,0.43-1.719c0.3-0.552,0.71-0.974,1.24-1.266c0.54-0.291,1.14-0.437,1.81-0.437
		c1.01,0,1.84,0.333,2.5,1c0.66,0.656,0.99,1.49,0.99,2.5c0,1.021-0.34,1.87-1,2.547c-0.66,0.667-1.49,1-2.49,1
		c-0.61,0-1.2-0.141-1.76-0.422c-0.57-0.281-0.99-0.688-1.29-1.219C284.41,69.048,284.27,68.386,284.27,67.605L284.27,67.605z
		 M286.09,67.699c0,0.666,0.16,1.182,0.47,1.546c0.33,0.355,0.72,0.532,1.19,0.532s0.86-0.177,1.17-0.532
		c0.32-0.364,0.47-0.885,0.47-1.562c0-0.656-0.15-1.162-0.47-1.516c-0.31-0.354-0.7-0.531-1.17-0.531s-0.86,0.177-1.19,0.531
		C286.25,66.521,286.09,67.032,286.09,67.699L286.09,67.699z M294.33,71.074h-1.78v-6.735h1.66v0.953
		c0.28-0.458,0.53-0.755,0.76-0.89c0.229-0.146,0.49-0.219,0.77-0.219c0.41,0,0.8,0.109,1.17,0.328l-0.55,1.563
		c-0.3-0.198-0.58-0.297-0.84-0.297c-0.25,0-0.46,0.073-0.64,0.218c-0.17,0.136-0.3,0.386-0.41,0.75
		c-0.09,0.355-0.14,1.105-0.14,2.25V71.074L294.33,71.074z M299.02,66.386l-1.63-0.297c0.189-0.646,0.5-1.125,0.939-1.437
		c0.45-0.313,1.11-0.469,1.98-0.469c0.81,0,1.4,0.094,1.78,0.281c0.39,0.188,0.66,0.427,0.82,0.719
		c0.16,0.292,0.25,0.823,0.25,1.594l-0.02,2.078c0,0.594,0.03,1.031,0.08,1.312c0.06,0.282,0.17,0.584,0.33,0.907h-1.77
		c-0.05-0.115-0.11-0.292-0.17-0.532c-0.03-0.104-0.05-0.172-0.06-0.203c-0.311,0.292-0.64,0.516-0.99,0.672
		c-0.34,0.146-0.71,0.219-1.11,0.219c-0.69,0-1.24-0.188-1.64-0.563c-0.39-0.385-0.59-0.864-0.59-1.437
		c0-0.375,0.09-0.714,0.27-1.016c0.18-0.302,0.44-0.531,0.76-0.687c0.33-0.157,0.81-0.297,1.42-0.422
		c0.84-0.156,1.41-0.302,1.74-0.438v-0.172c0-0.343-0.09-0.588-0.27-0.734c-0.16-0.146-0.48-0.219-0.95-0.219
		c-0.31,0-0.56,0.063-0.74,0.188C299.28,65.855,299.13,66.074,299.02,66.386L299.02,66.386z M301.41,67.839
		c-0.23,0.073-0.6,0.162-1.1,0.266c-0.49,0.104-0.81,0.208-0.97,0.312c-0.22,0.167-0.34,0.375-0.34,0.625s0.09,0.469,0.28,0.657
		c0.19,0.177,0.42,0.265,0.71,0.265c0.32,0,0.63-0.104,0.92-0.312c0.22-0.157,0.36-0.354,0.419-0.594
		c0.05-0.146,0.081-0.432,0.081-0.859V67.839L301.41,67.839z M304.75,71.511l2.04,0.25c0.03,0.24,0.11,0.406,0.24,0.5
		c0.16,0.125,0.43,0.188,0.79,0.188c0.46,0,0.81-0.073,1.05-0.219c0.16-0.094,0.28-0.24,0.36-0.438
		c0.05-0.156,0.08-0.432,0.08-0.828V69.98c-0.53,0.729-1.2,1.094-2.02,1.094c-0.9,0-1.62-0.386-2.15-1.157
		c-0.42-0.604-0.63-1.354-0.63-2.25c0-1.135,0.27-2,0.81-2.593c0.56-0.594,1.23-0.891,2.04-0.891c0.83,0,1.52,0.365,2.06,1.094
		v-0.938h1.67v6.047c0,0.792-0.07,1.385-0.2,1.781c-0.13,0.396-0.31,0.703-0.55,0.922c-0.24,0.229-0.56,0.406-0.95,0.531
		c-0.4,0.125-0.9,0.188-1.5,0.188c-1.14,0-1.95-0.198-2.42-0.594c-0.48-0.385-0.72-0.88-0.72-1.484
		C304.75,71.678,304.75,71.605,304.75,71.511L304.75,71.511z M306.34,67.558c0,0.719,0.14,1.245,0.41,1.578
		c0.28,0.333,0.62,0.5,1.03,0.5c0.44,0,0.81-0.172,1.11-0.516c0.3-0.343,0.45-0.849,0.45-1.515c0-0.698-0.15-1.214-0.44-1.547
		c-0.28-0.344-0.64-0.516-1.09-0.516c-0.43,0-0.78,0.167-1.06,0.5C306.48,66.376,306.34,66.881,306.34,67.558L306.34,67.558z
		 M316.77,68.933l1.76,0.297c-0.23,0.646-0.59,1.14-1.08,1.484c-0.49,0.344-1.1,0.516-1.84,0.516c-1.18,0-2.05-0.386-2.61-1.156
		c-0.45-0.615-0.67-1.386-0.67-2.313c0-1.125,0.29-2,0.87-2.625c0.6-0.635,1.34-0.953,2.22-0.953c1.01,0,1.8,0.333,2.38,1
		c0.58,0.656,0.86,1.667,0.83,3.031h-4.47c0.02,0.531,0.16,0.943,0.43,1.235c0.27,0.291,0.62,0.437,1.04,0.437
		c0.28,0,0.51-0.073,0.7-0.219C316.52,69.511,316.66,69.266,316.77,68.933L316.77,68.933z M316.86,67.12
		c-0.01-0.51-0.15-0.901-0.41-1.171c-0.25-0.271-0.55-0.407-0.92-0.407c-0.38,0-0.71,0.141-0.97,0.422
		c-0.25,0.292-0.37,0.677-0.37,1.156H316.86L316.86,67.12z"/>
	<polygon fill="#FFCC99" points="363,30 499,30 499,78 363,78 363,30 	"/>
	<polygon fill="#FFFFDA" points="362,29 363,29 363,79 362,79 362,29 	"/>
	<polygon fill="#FFFFDA" points="363,29 499,29 499,30 363,30 363,29 	"/>
	<polygon fill="#B28E6B" points="363,78 500,78 500,79 363,79 363,78 	"/>
	<polygon fill="#B28E6B" points="499,29 500,29 500,78 499,78 499,29 	"/>
	<path d="M395.369,42.617v-0.984l5.682-2.407v1.047l-4.512,1.844l4.512,1.875v1.047L395.369,42.617L395.369,42.617z M402.369,42.617
		v-0.984l5.691-2.407v1.047l-4.51,1.844l4.51,1.875v1.047L402.369,42.617L402.369,42.617z M409.52,38.992v-1.219h1.061v1.219H409.52
		L409.52,38.992z M409.52,46.367v-6.219h1.061v6.219H409.52L409.52,46.367z M412.189,46.367v-6.219h0.939v0.875
		c0.451-0.677,1.121-1.015,1.98-1.015c0.371,0,0.721,0.067,1.031,0.203c0.318,0.135,0.559,0.313,0.719,0.531s0.271,0.474,0.33,0.766
		c0.031,0.198,0.041,0.541,0.041,1.031v3.828h-1.041v-3.781c0-0.438-0.039-0.761-0.129-0.969c-0.08-0.208-0.23-0.375-0.43-0.5
		c-0.211-0.135-0.461-0.203-0.74-0.203c-0.451,0-0.84,0.146-1.17,0.437c-0.32,0.282-0.49,0.818-0.49,1.61v3.406H412.189
		L412.189,46.367z M421.16,45.43l0.15,0.921c-0.301,0.063-0.561,0.094-0.791,0.094c-0.389,0-0.68-0.057-0.889-0.172
		c-0.211-0.125-0.361-0.286-0.461-0.484c-0.08-0.198-0.119-0.615-0.119-1.25v-3.578h-0.771v-0.813h0.771v-1.547l1.049-0.625v2.172
		h1.061v0.813H420.1v3.64c0,0.302,0.01,0.495,0.041,0.579c0.039,0.083,0.109,0.151,0.189,0.203c0.08,0.052,0.199,0.078,0.359,0.078
		C420.811,45.461,420.971,45.45,421.16,45.43L421.16,45.43z M426.449,44.367l1.09,0.125c-0.17,0.635-0.479,1.13-0.949,1.484
		c-0.471,0.355-1.07,0.532-1.779,0.532c-0.91,0-1.641-0.282-2.18-0.844c-0.531-0.563-0.791-1.349-0.791-2.359
		c0-1.042,0.27-1.849,0.811-2.422c0.539-0.584,1.24-0.875,2.09-0.875c0.84,0,1.51,0.281,2.029,0.843
		c0.541,0.563,0.801,1.36,0.801,2.391c0,0.063,0,0.156,0,0.281h-4.641c0.041,0.688,0.23,1.214,0.58,1.578
		c0.34,0.355,0.77,0.532,1.301,0.532c0.379,0,0.709-0.099,0.979-0.297C426.07,45.127,426.289,44.805,426.449,44.367L426.449,44.367z
		 M422.99,42.664h3.469c-0.039-0.531-0.17-0.927-0.389-1.188c-0.34-0.406-0.781-0.609-1.311-0.609c-0.49,0-0.9,0.161-1.24,0.484
		C423.199,41.674,423.02,42.112,422.99,42.664L422.99,42.664z M428.85,46.367v-6.219h0.961v0.938c0.24-0.438,0.459-0.724,0.648-0.86
		c0.211-0.145,0.441-0.218,0.691-0.218c0.35,0,0.709,0.109,1.08,0.328l-0.361,0.984c-0.26-0.156-0.52-0.234-0.77-0.234
		c-0.24,0-0.449,0.073-0.641,0.219c-0.17,0.135-0.299,0.328-0.369,0.578c-0.131,0.375-0.189,0.781-0.189,1.218v3.266H428.85
		L428.85,46.367z M433.119,46.367v-5.406h-0.939v-0.813h0.939v-0.672c0-0.416,0.031-0.724,0.102-0.921
		c0.109-0.282,0.289-0.506,0.539-0.672c0.26-0.167,0.621-0.25,1.07-0.25c0.311,0,0.629,0.036,0.99,0.109l-0.16,0.906
		c-0.221-0.031-0.42-0.047-0.621-0.047c-0.33,0-0.549,0.068-0.689,0.204c-0.129,0.135-0.189,0.39-0.189,0.765v0.578h1.221v0.813
		h-1.221v5.406H433.119L433.119,46.367z M440.26,45.601c-0.391,0.334-0.77,0.568-1.141,0.704c-0.35,0.135-0.738,0.203-1.148,0.203
		c-0.691,0-1.221-0.167-1.58-0.5c-0.371-0.334-0.551-0.761-0.551-1.282c0-0.302,0.07-0.578,0.199-0.828
		c0.141-0.26,0.32-0.463,0.551-0.609c0.23-0.156,0.48-0.271,0.77-0.344c0.191-0.062,0.51-0.12,0.93-0.172
		c0.852-0.093,1.471-0.213,1.881-0.359c0-0.146,0-0.234,0-0.266c0-0.438-0.1-0.745-0.301-0.922c-0.27-0.229-0.67-0.343-1.199-0.343
		c-0.49,0-0.859,0.088-1.1,0.265c-0.23,0.167-0.41,0.469-0.531,0.907l-1.029-0.141c0.1-0.438,0.25-0.792,0.471-1.063
		c0.219-0.27,0.529-0.479,0.939-0.625c0.4-0.145,0.869-0.218,1.4-0.218c0.539,0,0.969,0.062,1.299,0.187s0.58,0.281,0.74,0.469
		c0.15,0.187,0.26,0.427,0.32,0.719c0.041,0.177,0.051,0.5,0.051,0.968v1.407c0,0.979,0.02,1.599,0.059,1.859
		c0.061,0.26,0.15,0.51,0.281,0.75h-1.1C440.359,46.148,440.289,45.893,440.26,45.601L440.26,45.601z M440.17,43.242
		c-0.391,0.156-0.961,0.292-1.721,0.406c-0.439,0.063-0.75,0.136-0.92,0.219c-0.18,0.073-0.32,0.182-0.42,0.328
		s-0.139,0.313-0.139,0.5c0,0.281,0.1,0.516,0.309,0.703c0.221,0.188,0.531,0.282,0.941,0.282c0.398,0,0.76-0.089,1.068-0.266
		c0.33-0.177,0.561-0.422,0.711-0.734c0.109-0.24,0.17-0.589,0.17-1.047V43.242L440.17,43.242z M446.939,44.086l1.031,0.14
		c-0.121,0.709-0.41,1.266-0.881,1.672c-0.471,0.407-1.039,0.61-1.721,0.61c-0.85,0-1.539-0.276-2.059-0.828
		c-0.51-0.563-0.76-1.365-0.76-2.407c0-0.666,0.1-1.25,0.318-1.75c0.23-0.51,0.57-0.89,1.021-1.14c0.459-0.25,0.959-0.375,1.5-0.375
		c0.67,0,1.209,0.172,1.639,0.515c0.441,0.334,0.721,0.818,0.84,1.453l-1.029,0.157c-0.09-0.417-0.26-0.73-0.51-0.938
		c-0.25-0.219-0.561-0.328-0.91-0.328c-0.529,0-0.961,0.193-1.301,0.578c-0.33,0.375-0.5,0.974-0.5,1.797
		c0,0.844,0.16,1.453,0.49,1.828c0.32,0.375,0.74,0.563,1.25,0.563c0.41,0,0.76-0.125,1.031-0.375
		C446.67,45.008,446.85,44.617,446.939,44.086L446.939,44.086z M453.119,44.367l1.102,0.125c-0.17,0.635-0.49,1.13-0.961,1.484
		c-0.459,0.355-1.061,0.532-1.779,0.532c-0.9,0-1.631-0.282-2.17-0.844c-0.531-0.563-0.801-1.349-0.801-2.359
		c0-1.042,0.27-1.849,0.82-2.422c0.539-0.584,1.24-0.875,2.09-0.875c0.83,0,1.51,0.281,2.029,0.843
		c0.531,0.563,0.801,1.36,0.801,2.391c0,0.063,0,0.156,0,0.281h-4.641c0.041,0.688,0.23,1.214,0.58,1.578
		c0.34,0.355,0.77,0.532,1.291,0.532c0.389,0,0.719-0.099,0.99-0.297C452.75,45.127,452.971,44.805,453.119,44.367L453.119,44.367z
		 M449.67,42.664h3.471c-0.041-0.531-0.17-0.927-0.391-1.188c-0.35-0.406-0.779-0.609-1.311-0.609c-0.49,0-0.91,0.161-1.24,0.484
		C449.879,41.674,449.699,42.112,449.67,42.664L449.67,42.664z M461.09,42.617l-5.68,2.422v-1.047l4.5-1.875l-4.5-1.844v-1.047
		l5.68,2.407V42.617L461.09,42.617z M468.1,42.617l-5.689,2.422v-1.047l4.5-1.875l-4.5-1.844v-1.047l5.689,2.407V42.617
		L468.1,42.617z"/>
	<path d="M370.141,71.074v-9.313h1.869v9.313H370.141L370.141,71.074z M373.801,61.761h3.43c0.779,0,1.359,0.063,1.77,0.188
		c0.551,0.156,1.02,0.442,1.41,0.859c0.379,0.406,0.67,0.906,0.869,1.5c0.211,0.594,0.311,1.328,0.311,2.203
		c0,0.76-0.09,1.422-0.279,1.984c-0.23,0.678-0.561,1.224-1,1.641c-0.32,0.313-0.76,0.557-1.311,0.734
		c-0.42,0.136-0.971,0.204-1.67,0.204h-3.529V61.761L373.801,61.761z M375.67,63.339v6.172h1.41c0.529,0,0.91-0.031,1.141-0.094
		c0.299-0.073,0.549-0.198,0.75-0.375c0.209-0.187,0.369-0.489,0.5-0.906c0.119-0.417,0.189-0.984,0.189-1.703
		c0-0.719-0.07-1.271-0.189-1.656c-0.131-0.386-0.301-0.688-0.531-0.907c-0.23-0.218-0.52-0.364-0.879-0.437
		c-0.26-0.063-0.771-0.094-1.541-0.094H375.67L375.67,63.339z M384.51,66.386l-1.619-0.297c0.189-0.646,0.5-1.125,0.939-1.437
		c0.439-0.313,1.109-0.469,1.98-0.469c0.799,0,1.398,0.094,1.779,0.281c0.391,0.188,0.66,0.427,0.811,0.719
		c0.17,0.292,0.25,0.823,0.25,1.594l-0.01,2.078c0,0.594,0.02,1.031,0.08,1.312c0.059,0.282,0.17,0.584,0.33,0.907h-1.771
		c-0.049-0.115-0.109-0.292-0.17-0.532c-0.029-0.104-0.049-0.172-0.059-0.203c-0.32,0.292-0.65,0.516-0.99,0.672
		c-0.34,0.146-0.711,0.219-1.111,0.219c-0.699,0-1.24-0.188-1.639-0.563c-0.4-0.385-0.59-0.864-0.59-1.437
		c0-0.375,0.09-0.714,0.26-1.016c0.189-0.302,0.449-0.531,0.77-0.687c0.33-0.157,0.811-0.297,1.42-0.422
		c0.83-0.156,1.41-0.302,1.73-0.438v-0.172c0-0.343-0.08-0.588-0.26-0.734c-0.17-0.146-0.49-0.219-0.951-0.219
		c-0.32,0-0.559,0.063-0.74,0.188C384.77,65.855,384.631,66.074,384.51,66.386L384.51,66.386z M386.9,67.839
		c-0.221,0.073-0.59,0.162-1.09,0.266c-0.49,0.104-0.811,0.208-0.971,0.312c-0.23,0.167-0.34,0.375-0.34,0.625
		s0.09,0.469,0.279,0.657c0.191,0.177,0.42,0.265,0.701,0.265c0.33,0,0.629-0.104,0.92-0.312c0.219-0.157,0.359-0.354,0.43-0.594
		c0.051-0.146,0.07-0.432,0.07-0.859V67.839L386.9,67.839z M393.51,64.339v1.422h-1.221v2.703c0,0.552,0.012,0.875,0.031,0.969
		c0.02,0.094,0.07,0.172,0.16,0.234c0.08,0.052,0.18,0.078,0.299,0.078c0.16,0,0.4-0.057,0.711-0.171l0.16,1.39
		c-0.42,0.177-0.891,0.266-1.41,0.266c-0.32,0-0.609-0.052-0.871-0.156c-0.26-0.115-0.449-0.256-0.58-0.422
		c-0.109-0.177-0.189-0.412-0.229-0.703c-0.051-0.209-0.07-0.625-0.07-1.25v-2.938h-0.811v-1.422h0.811v-1.344l1.799-1.046v2.39
		H393.51L393.51,64.339z M396.07,66.386l-1.621-0.297c0.191-0.646,0.5-1.125,0.941-1.437c0.439-0.313,1.1-0.469,1.979-0.469
		c0.801,0,1.4,0.094,1.781,0.281c0.389,0.188,0.66,0.427,0.809,0.719c0.172,0.292,0.25,0.823,0.25,1.594l-0.01,2.078
		c0,0.594,0.021,1.031,0.08,1.312c0.061,0.282,0.17,0.584,0.32,0.907h-1.76c-0.051-0.115-0.109-0.292-0.17-0.532
		c-0.029-0.104-0.061-0.172-0.07-0.203c-0.311,0.292-0.641,0.516-0.98,0.672c-0.34,0.146-0.709,0.219-1.109,0.219
		c-0.699,0-1.24-0.188-1.641-0.563c-0.398-0.385-0.59-0.864-0.59-1.437c0-0.375,0.08-0.714,0.26-1.016
		c0.191-0.302,0.441-0.531,0.771-0.687c0.33-0.157,0.799-0.297,1.42-0.422c0.83-0.156,1.41-0.302,1.729-0.438v-0.172
		c0-0.343-0.09-0.588-0.26-0.734s-0.49-0.219-0.959-0.219c-0.311,0-0.551,0.063-0.73,0.188
		C396.33,65.855,396.189,66.074,396.07,66.386L396.07,66.386z M398.459,67.839c-0.229,0.073-0.59,0.162-1.09,0.266
		c-0.488,0.104-0.809,0.208-0.969,0.312c-0.23,0.167-0.34,0.375-0.34,0.625s0.09,0.469,0.279,0.657
		c0.189,0.177,0.42,0.265,0.699,0.265c0.32,0,0.631-0.104,0.92-0.312c0.221-0.157,0.361-0.354,0.432-0.594
		c0.049-0.146,0.068-0.432,0.068-0.859V67.839L398.459,67.839z M401.99,71.074v-9.313h3.949c1,0,1.73,0.089,2.18,0.266
		c0.441,0.166,0.801,0.463,1.07,0.89c0.27,0.427,0.41,0.912,0.41,1.453c0,0.698-0.209,1.276-0.629,1.735
		c-0.4,0.458-1.012,0.745-1.82,0.859c0.4,0.24,0.74,0.5,1,0.781c0.27,0.282,0.629,0.787,1.07,1.516l1.129,1.813h-2.23l-1.359-2.032
		c-0.49-0.718-0.83-1.172-1-1.359c-0.18-0.188-0.369-0.318-0.57-0.391c-0.189-0.073-0.51-0.109-0.93-0.109h-0.391v3.891H401.99
		L401.99,71.074z M403.869,65.699h1.391c0.9,0,1.461-0.037,1.68-0.11c0.23-0.073,0.41-0.203,0.531-0.39
		c0.129-0.188,0.189-0.422,0.189-0.704c0-0.312-0.08-0.562-0.25-0.75c-0.16-0.197-0.4-0.322-0.701-0.375
		c-0.158-0.02-0.619-0.031-1.379-0.031h-1.461V65.699L403.869,65.699z M415.27,68.933l1.76,0.297c-0.219,0.646-0.58,1.14-1.07,1.484
		c-0.488,0.344-1.109,0.516-1.85,0.516c-1.17,0-2.039-0.386-2.609-1.156c-0.439-0.615-0.67-1.386-0.67-2.313
		c0-1.125,0.289-2,0.879-2.625c0.592-0.635,1.33-0.953,2.221-0.953c1.01,0,1.801,0.333,2.371,1c0.578,0.656,0.859,1.667,0.83,3.031
		h-4.471c0.02,0.531,0.17,0.943,0.439,1.235c0.27,0.291,0.609,0.437,1.031,0.437c0.279,0,0.51-0.073,0.699-0.219
		C415.02,69.511,415.16,69.266,415.27,68.933L415.27,68.933z M415.359,67.12c-0.01-0.51-0.139-0.901-0.4-1.171
		c-0.25-0.271-0.559-0.407-0.93-0.407c-0.379,0-0.699,0.141-0.959,0.422c-0.25,0.292-0.381,0.677-0.381,1.156H415.359L415.359,67.12
		z M424.471,66.324l-1.771,0.312c-0.049-0.344-0.189-0.604-0.398-0.781c-0.211-0.177-0.48-0.266-0.82-0.266
		c-0.43,0-0.791,0.151-1.061,0.453c-0.26,0.302-0.391,0.818-0.391,1.547c0,0.792,0.141,1.354,0.41,1.688
		c0.27,0.333,0.631,0.5,1.07,0.5c0.35,0,0.619-0.094,0.83-0.282c0.221-0.197,0.369-0.531,0.461-1l1.76,0.297
		c-0.191,0.802-0.541,1.412-1.061,1.828c-0.51,0.407-1.199,0.61-2.061,0.61c-0.99,0-1.779-0.313-2.359-0.938
		c-0.59-0.625-0.881-1.484-0.881-2.578c0-1.114,0.291-1.979,0.881-2.594c0.58-0.625,1.379-0.937,2.391-0.937
		c0.818,0,1.469,0.177,1.949,0.531C423.91,65.068,424.26,65.605,424.471,66.324L424.471,66.324z M425.4,67.605
		c0-0.594,0.15-1.167,0.439-1.719c0.291-0.552,0.699-0.974,1.23-1.266c0.539-0.291,1.15-0.437,1.82-0.437c1.01,0,1.84,0.333,2.5,1
		c0.648,0.656,0.979,1.49,0.979,2.5c0,1.021-0.33,1.87-1,2.547c-0.66,0.667-1.479,1-2.479,1c-0.621,0-1.211-0.141-1.771-0.422
		c-0.559-0.281-0.988-0.688-1.279-1.219C425.551,69.048,425.4,68.386,425.4,67.605L425.4,67.605z M427.23,67.699
		c0,0.666,0.16,1.182,0.469,1.546c0.32,0.355,0.721,0.532,1.191,0.532c0.459,0,0.85-0.177,1.17-0.532
		c0.309-0.364,0.469-0.885,0.469-1.562c0-0.656-0.16-1.162-0.469-1.516c-0.32-0.354-0.711-0.531-1.17-0.531
		c-0.471,0-0.871,0.177-1.191,0.531C427.391,66.521,427.23,67.032,427.23,67.699L427.23,67.699z M435.471,71.074h-1.781v-6.735h1.65
		v0.953c0.279-0.458,0.541-0.755,0.77-0.89c0.23-0.146,0.48-0.219,0.76-0.219c0.41,0,0.801,0.109,1.182,0.328l-0.551,1.563
		c-0.301-0.198-0.59-0.297-0.85-0.297c-0.25,0-0.461,0.073-0.641,0.218c-0.16,0.136-0.301,0.386-0.4,0.75
		c-0.1,0.355-0.139,1.105-0.139,2.25V71.074L435.471,71.074z M444.99,71.074h-1.65v-0.985c-0.27,0.386-0.6,0.672-0.971,0.86
		c-0.379,0.187-0.75,0.281-1.129,0.281c-0.781,0-1.439-0.313-2-0.938c-0.551-0.625-0.82-1.494-0.82-2.609
		c0-1.146,0.26-2.016,0.789-2.609c0.551-0.594,1.23-0.891,2.051-0.891c0.75,0,1.4,0.312,1.949,0.937v-3.359h1.781V71.074
		L444.99,71.074z M440.24,67.558c0,0.719,0.1,1.24,0.299,1.562c0.281,0.469,0.682,0.704,1.201,0.704c0.41,0,0.76-0.172,1.049-0.516
		c0.291-0.354,0.441-0.88,0.441-1.578c0-0.771-0.141-1.328-0.42-1.672c-0.281-0.344-0.641-0.516-1.08-0.516
		c-0.42,0-0.771,0.172-1.061,0.516C440.391,66.391,440.24,66.891,440.24,67.558L440.24,67.558z M446.301,68.042l1.818-0.172
		c0.121,0.615,0.34,1.068,0.682,1.36c0.328,0.281,0.779,0.422,1.35,0.422c0.609,0,1.059-0.125,1.359-0.375
		c0.32-0.261,0.471-0.563,0.471-0.907c0-0.218-0.07-0.406-0.201-0.562c-0.129-0.156-0.35-0.292-0.67-0.406
		c-0.219-0.073-0.719-0.209-1.5-0.407c-1.01-0.25-1.719-0.557-2.129-0.921c-0.561-0.511-0.84-1.136-0.84-1.875
		c0-0.469,0.129-0.907,0.389-1.313c0.271-0.417,0.66-0.734,1.16-0.953c0.51-0.219,1.121-0.328,1.84-0.328
		c1.17,0,2.041,0.26,2.621,0.781c0.6,0.51,0.91,1.193,0.939,2.047l-1.869,0.078c-0.09-0.479-0.262-0.823-0.521-1.031
		c-0.26-0.209-0.648-0.313-1.189-0.313c-0.551,0-0.98,0.11-1.279,0.328c-0.201,0.146-0.291,0.339-0.291,0.579
		c0,0.218,0.08,0.406,0.26,0.562c0.24,0.208,0.82,0.422,1.74,0.641c0.91,0.208,1.59,0.427,2.031,0.656
		c0.43,0.229,0.77,0.547,1.01,0.953c0.25,0.396,0.379,0.891,0.379,1.484c0,0.532-0.15,1.032-0.459,1.5
		c-0.291,0.459-0.701,0.803-1.25,1.032c-0.541,0.229-1.211,0.343-2.01,0.343c-1.182,0-2.08-0.27-2.721-0.812
		C446.801,69.881,446.42,69.084,446.301,68.042L446.301,68.042z M458.529,64.339v1.422h-1.219v2.703c0,0.552,0.01,0.875,0.029,0.969
		c0.02,0.094,0.07,0.172,0.16,0.234c0.08,0.052,0.18,0.078,0.289,0.078c0.17,0,0.41-0.057,0.721-0.171l0.16,1.39
		c-0.42,0.177-0.891,0.266-1.41,0.266c-0.32,0-0.609-0.052-0.869-0.156c-0.26-0.115-0.461-0.256-0.58-0.422
		c-0.111-0.177-0.191-0.412-0.23-0.703c-0.051-0.209-0.07-0.625-0.07-1.25v-2.938h-0.811v-1.422h0.811v-1.344l1.801-1.046v2.39
		H458.529L458.529,64.339z M459.34,67.605c0-0.594,0.15-1.167,0.439-1.719c0.291-0.552,0.701-0.974,1.23-1.266
		c0.551-0.291,1.15-0.437,1.82-0.437c1.01,0,1.84,0.333,2.5,1c0.65,0.656,0.98,1.49,0.98,2.5c0,1.021-0.33,1.87-1,2.547
		c-0.66,0.667-1.48,1-2.48,1c-0.621,0-1.211-0.141-1.77-0.422c-0.561-0.281-0.99-0.688-1.281-1.219
		C459.49,69.048,459.34,68.386,459.34,67.605L459.34,67.605z M461.17,67.699c0,0.666,0.16,1.182,0.471,1.546
		c0.318,0.355,0.719,0.532,1.189,0.532s0.859-0.177,1.17-0.532c0.311-0.364,0.471-0.885,0.471-1.562c0-0.656-0.16-1.162-0.471-1.516
		c-0.311-0.354-0.699-0.531-1.17-0.531s-0.871,0.177-1.189,0.531C461.33,66.521,461.17,67.032,461.17,67.699L461.17,67.699z
		 M469.41,71.074h-1.779v-6.735h1.648v0.953c0.281-0.458,0.541-0.755,0.771-0.89c0.229-0.146,0.479-0.219,0.76-0.219
		c0.41,0,0.799,0.109,1.18,0.328l-0.551,1.563c-0.299-0.198-0.58-0.297-0.84-0.297c-0.25,0-0.471,0.073-0.65,0.218
		c-0.16,0.136-0.299,0.386-0.398,0.75c-0.102,0.355-0.141,1.105-0.141,2.25V71.074L469.41,71.074z M474.09,66.386l-1.619-0.297
		c0.18-0.646,0.5-1.125,0.93-1.437c0.449-0.313,1.109-0.469,1.99-0.469c0.799,0,1.389,0.094,1.779,0.281
		c0.391,0.188,0.66,0.427,0.811,0.719c0.17,0.292,0.25,0.823,0.25,1.594l-0.01,2.078c0,0.594,0.02,1.031,0.08,1.312
		c0.059,0.282,0.17,0.584,0.318,0.907h-1.76c-0.049-0.115-0.109-0.292-0.17-0.532c-0.039-0.104-0.059-0.172-0.07-0.203
		c-0.309,0.292-0.639,0.516-0.979,0.672c-0.34,0.146-0.711,0.219-1.111,0.219c-0.699,0-1.25-0.188-1.639-0.563
		c-0.4-0.385-0.59-0.864-0.59-1.437c0-0.375,0.078-0.714,0.26-1.016c0.189-0.302,0.439-0.531,0.77-0.687
		c0.33-0.157,0.801-0.297,1.42-0.422c0.83-0.156,1.41-0.302,1.73-0.438v-0.172c0-0.343-0.09-0.588-0.26-0.734
		s-0.49-0.219-0.961-0.219c-0.311,0-0.551,0.063-0.73,0.188C474.35,65.855,474.209,66.074,474.09,66.386L474.09,66.386z
		 M476.48,67.839c-0.23,0.073-0.59,0.162-1.09,0.266c-0.49,0.104-0.811,0.208-0.971,0.312c-0.23,0.167-0.34,0.375-0.34,0.625
		s0.09,0.469,0.279,0.657c0.191,0.177,0.42,0.265,0.701,0.265c0.318,0,0.629-0.104,0.92-0.312c0.219-0.157,0.359-0.354,0.42-0.594
		c0.059-0.146,0.08-0.432,0.08-0.859V67.839L476.48,67.839z M479.82,71.511l2.049,0.25c0.031,0.24,0.111,0.406,0.23,0.5
		c0.17,0.125,0.439,0.188,0.801,0.188c0.459,0,0.809-0.073,1.049-0.219c0.15-0.094,0.271-0.24,0.361-0.438
		c0.049-0.156,0.068-0.432,0.068-0.828V69.98c-0.529,0.729-1.199,1.094-2.01,1.094c-0.91,0-1.629-0.386-2.16-1.157
		c-0.408-0.604-0.619-1.354-0.619-2.25c0-1.135,0.27-2,0.811-2.593c0.549-0.594,1.23-0.891,2.029-0.891
		c0.83,0,1.52,0.365,2.061,1.094v-0.938h1.68v6.047c0,0.792-0.07,1.385-0.211,1.781c-0.119,0.396-0.299,0.703-0.539,0.922
		c-0.24,0.229-0.561,0.406-0.961,0.531c-0.389,0.125-0.889,0.188-1.5,0.188c-1.129,0-1.939-0.198-2.42-0.594
		c-0.479-0.385-0.719-0.88-0.719-1.484C479.82,71.678,479.82,71.605,479.82,71.511L479.82,71.511z M481.42,67.558
		c0,0.719,0.131,1.245,0.4,1.578c0.279,0.333,0.629,0.5,1.029,0.5c0.439,0,0.811-0.172,1.109-0.516
		c0.301-0.343,0.461-0.849,0.461-1.515c0-0.698-0.15-1.214-0.439-1.547c-0.281-0.344-0.65-0.516-1.102-0.516
		c-0.42,0-0.779,0.167-1.059,0.5C481.551,66.376,481.42,66.881,481.42,67.558L481.42,67.558z M491.84,68.933l1.77,0.297
		c-0.23,0.646-0.59,1.14-1.08,1.484c-0.49,0.344-1.109,0.516-1.85,0.516c-1.17,0-2.039-0.386-2.6-1.156
		c-0.449-0.615-0.68-1.386-0.68-2.313c0-1.125,0.299-2,0.879-2.625c0.59-0.635,1.33-0.953,2.221-0.953c1.01,0,1.801,0.333,2.369,1
		c0.59,0.656,0.861,1.667,0.83,3.031h-4.469c0.02,0.531,0.17,0.943,0.439,1.235c0.27,0.291,0.609,0.437,1.029,0.437
		c0.281,0,0.521-0.073,0.701-0.219C491.59,69.511,491.74,69.266,491.84,68.933L491.84,68.933z M491.93,67.12
		c-0.01-0.51-0.141-0.901-0.4-1.171c-0.25-0.271-0.559-0.407-0.92-0.407c-0.389,0-0.709,0.141-0.969,0.422
		c-0.25,0.292-0.381,0.677-0.381,1.156H491.93L491.93,67.12z"/>
	<polygon fill="#FFCC99" points="271,159 438,159 438,183 271,183 271,159 	"/>
	<polygon fill="#FFFFDA" points="270,158 271,158 271,184 270,184 270,158 	"/>
	<polygon fill="#FFFFDA" points="271,158 438,158 438,159 271,159 271,158 	"/>
	<polygon fill="#B28E6B" points="271,183 439,183 439,184 271,184 271,183 	"/>
	<polygon fill="#B28E6B" points="438,158 439,158 439,183 438,183 438,158 	"/>
	<path d="M282.43,166.78h3.439c0.771,0,1.36,0.07,1.76,0.189c0.56,0.16,1.03,0.44,1.41,0.86c0.39,0.41,0.68,0.91,0.88,1.5
		c0.2,0.59,0.31,1.33,0.31,2.2c0,0.76-0.1,1.43-0.28,1.99c-0.229,0.68-0.57,1.22-1,1.64c-0.33,0.31-0.76,0.561-1.32,0.73
		c-0.41,0.14-0.97,0.21-1.67,0.21h-3.53V166.78L282.43,166.78z M284.31,168.36v6.17h1.4c0.53,0,0.91-0.03,1.14-0.09
		c0.31-0.07,0.56-0.2,0.75-0.37c0.21-0.19,0.38-0.49,0.5-0.91c0.13-0.42,0.19-0.99,0.19-1.7c0-0.72-0.06-1.27-0.19-1.66
		c-0.12-0.39-0.3-0.689-0.53-0.909c-0.23-0.221-0.52-0.36-0.87-0.431c-0.26-0.069-0.78-0.1-1.55-0.1H284.31L284.31,168.36z
		 M293.15,171.41l-1.63-0.3c0.19-0.64,0.5-1.12,0.94-1.44c0.45-0.31,1.11-0.46,1.98-0.46c0.81,0,1.4,0.09,1.79,0.28
		c0.38,0.18,0.65,0.42,0.81,0.72c0.17,0.29,0.25,0.82,0.25,1.59l-0.02,2.08c0,0.59,0.03,1.03,0.08,1.311
		c0.06,0.279,0.17,0.58,0.33,0.91h-1.771c-0.05-0.12-0.11-0.29-0.17-0.53c-0.03-0.11-0.05-0.18-0.06-0.21
		c-0.31,0.29-0.64,0.52-0.99,0.67c-0.34,0.149-0.71,0.22-1.1,0.22c-0.7,0-1.25-0.18-1.65-0.56c-0.39-0.38-0.59-0.86-0.59-1.44
		c0-0.37,0.09-0.71,0.27-1.01s0.44-0.53,0.76-0.69c0.34-0.159,0.81-0.3,1.42-0.42c0.84-0.159,1.42-0.3,1.74-0.439v-0.17
		c0-0.351-0.09-0.591-0.27-0.74c-0.16-0.14-0.48-0.21-0.95-0.21c-0.31,0-0.56,0.06-0.73,0.18
		C293.41,170.88,293.26,171.101,293.15,171.41L293.15,171.41z M295.54,172.86c-0.23,0.08-0.6,0.16-1.1,0.27
		c-0.48,0.101-0.81,0.21-0.96,0.311c-0.23,0.17-0.35,0.38-0.35,0.63s0.1,0.46,0.28,0.649c0.19,0.181,0.43,0.271,0.709,0.271
		c0.32,0,0.63-0.11,0.92-0.32c0.22-0.149,0.36-0.35,0.42-0.59c0.05-0.14,0.08-0.43,0.08-0.86V172.86L295.54,172.86z M302.14,169.36
		v1.42h-1.22v2.71c0,0.55,0.02,0.87,0.04,0.97c0.02,0.09,0.07,0.17,0.15,0.23c0.09,0.05,0.18,0.08,0.3,0.08
		c0.17,0,0.41-0.061,0.72-0.17l0.15,1.39c-0.41,0.17-0.88,0.26-1.4,0.26c-0.32,0-0.62-0.05-0.88-0.149
		c-0.26-0.12-0.45-0.261-0.58-0.431c-0.11-0.17-0.19-0.41-0.23-0.699c-0.04-0.211-0.06-0.62-0.06-1.251v-2.939h-0.81v-1.42h0.81
		v-1.34l1.79-1.051v2.391H302.14L302.14,169.36z M304.71,171.41l-1.63-0.3c0.19-0.64,0.5-1.12,0.94-1.44
		c0.45-0.31,1.11-0.46,1.98-0.46c0.81,0,1.4,0.09,1.79,0.28c0.38,0.18,0.65,0.42,0.81,0.72c0.16,0.29,0.25,0.82,0.25,1.59
		l-0.021,2.08c0,0.59,0.03,1.03,0.081,1.311c0.06,0.279,0.17,0.58,0.33,0.91h-1.77c-0.05-0.12-0.11-0.29-0.17-0.53
		c-0.03-0.11-0.05-0.18-0.06-0.21c-0.31,0.29-0.64,0.52-0.99,0.67c-0.34,0.149-0.71,0.22-1.11,0.22c-0.69,0-1.24-0.18-1.64-0.56
		c-0.39-0.38-0.59-0.86-0.59-1.44c0-0.37,0.09-0.71,0.27-1.01c0.18-0.3,0.44-0.53,0.76-0.69c0.33-0.159,0.81-0.3,1.42-0.42
		c0.84-0.159,1.41-0.3,1.74-0.439v-0.17c0-0.351-0.09-0.591-0.27-0.74c-0.16-0.14-0.48-0.21-0.95-0.21c-0.31,0-0.56,0.06-0.74,0.18
		C304.97,170.88,304.82,171.101,304.71,171.41L304.71,171.41z M307.1,172.86c-0.23,0.08-0.6,0.16-1.1,0.27
		c-0.49,0.101-0.81,0.21-0.96,0.311c-0.23,0.17-0.35,0.38-0.35,0.63s0.1,0.46,0.28,0.649c0.19,0.181,0.42,0.271,0.71,0.271
		c0.32,0,0.63-0.11,0.92-0.32c0.22-0.149,0.36-0.35,0.42-0.59c0.05-0.14,0.08-0.43,0.08-0.86V172.86L307.1,172.86z M316.58,172.67
		l1.81,0.58c-0.28,1.01-0.74,1.771-1.39,2.271c-0.65,0.489-1.47,0.729-2.47,0.729c-1.24,0-2.26-0.42-3.06-1.26
		c-0.79-0.85-1.19-2-1.19-3.47c0-1.54,0.4-2.74,1.2-3.601c0.81-0.859,1.86-1.29,3.16-1.29c1.14,0,2.06,0.34,2.78,1.011
		c0.42,0.399,0.74,0.97,0.95,1.72l-1.85,0.439c-0.12-0.479-0.35-0.859-0.71-1.14c-0.34-0.28-0.76-0.42-1.26-0.42
		c-0.69,0-1.25,0.25-1.69,0.75c-0.43,0.49-0.64,1.29-0.64,2.4c0,1.17,0.21,2,0.64,2.5c0.43,0.5,0.98,0.75,1.66,0.75
		c0.5,0,0.92-0.15,1.28-0.471C316.16,173.851,316.42,173.351,316.58,172.67L316.58,172.67z M319.58,172.63
		c0-0.6,0.14-1.17,0.43-1.72s0.709-0.97,1.24-1.27c0.54-0.29,1.14-0.431,1.81-0.431c1.01,0,1.84,0.33,2.5,1
		c0.66,0.65,0.98,1.49,0.98,2.5c0,1.021-0.33,1.87-1,2.54c-0.65,0.67-1.48,1-2.48,1c-0.61,0-1.2-0.14-1.77-0.42
		c-0.56-0.28-0.99-0.689-1.28-1.22C319.72,174.07,319.58,173.41,319.58,172.63L319.58,172.63z M321.4,172.721
		c0,0.67,0.16,1.18,0.47,1.55c0.33,0.35,0.72,0.529,1.19,0.529c0.47,0,0.86-0.18,1.17-0.529c0.31-0.37,0.47-0.891,0.47-1.561
		c0-0.66-0.16-1.17-0.47-1.52c-0.31-0.351-0.7-0.53-1.17-0.53c-0.47,0-0.86,0.18-1.19,0.53
		C321.56,171.54,321.4,172.061,321.4,172.721L321.4,172.721z M327.8,169.36h1.64v0.91c0.59-0.71,1.29-1.061,2.11-1.061
		c0.419,0,0.79,0.08,1.109,0.26c0.32,0.181,0.59,0.44,0.79,0.801c0.3-0.36,0.61-0.62,0.96-0.801c0.34-0.18,0.71-0.26,1.09-0.26
		c0.5,0,0.92,0.101,1.27,0.29c0.34,0.2,0.6,0.5,0.76,0.891c0.13,0.279,0.19,0.75,0.19,1.39v4.32h-1.78v-3.86
		c0-0.67-0.06-1.1-0.19-1.28c-0.17-0.26-0.42-0.39-0.77-0.39c-0.25,0-0.48,0.07-0.7,0.229c-0.22,0.15-0.38,0.37-0.479,0.67
		c-0.101,0.29-0.14,0.761-0.14,1.391v3.24h-1.78v-3.69c0-0.66-0.04-1.08-0.1-1.27c-0.06-0.19-0.16-0.341-0.3-0.431
		c-0.13-0.1-0.31-0.14-0.54-0.14c-0.27,0-0.52,0.07-0.74,0.229c-0.22,0.15-0.38,0.36-0.48,0.641c-0.09,0.27-0.14,0.729-0.14,1.38
		v3.28h-1.78V169.36L327.8,169.36z M339.43,169.36h1.68v0.99c0.22-0.351,0.51-0.62,0.87-0.83c0.37-0.21,0.77-0.311,1.22-0.311
		c0.79,0,1.46,0.3,2,0.92c0.54,0.61,0.81,1.471,0.81,2.561c0,1.13-0.27,2-0.83,2.63c-0.54,0.62-1.2,0.93-1.98,0.93
		c-0.37,0-0.71-0.07-1.02-0.22c-0.3-0.15-0.62-0.41-0.95-0.76v3.39h-1.8V169.36L339.43,169.36z M341.2,172.61
		c0,0.76,0.15,1.33,0.45,1.689c0.31,0.351,0.68,0.53,1.11,0.53c0.41,0,0.75-0.17,1.02-0.5c0.28-0.33,0.42-0.87,0.42-1.62
		c0-0.71-0.14-1.24-0.42-1.58c-0.28-0.35-0.63-0.52-1.05-0.52c-0.44,0-0.8,0.17-1.09,0.52C341.35,171.46,341.2,171.96,341.2,172.61
		L341.2,172.61z M347.02,172.63c0-0.6,0.14-1.17,0.43-1.72c0.3-0.55,0.71-0.97,1.24-1.27c0.54-0.29,1.14-0.431,1.81-0.431
		c1.01,0,1.84,0.33,2.5,1c0.66,0.65,0.98,1.49,0.98,2.5c0,1.021-0.33,1.87-1,2.54c-0.65,0.67-1.48,1-2.48,1
		c-0.61,0-1.2-0.14-1.77-0.42c-0.56-0.28-0.98-0.689-1.28-1.22C347.16,174.07,347.02,173.41,347.02,172.63L347.02,172.63z
		 M348.84,172.721c0,0.67,0.16,1.18,0.47,1.55c0.33,0.35,0.72,0.529,1.19,0.529c0.47,0,0.86-0.18,1.17-0.529
		c0.31-0.37,0.47-0.891,0.47-1.561c0-0.66-0.16-1.17-0.47-1.52c-0.31-0.351-0.7-0.53-1.17-0.53c-0.47,0-0.86,0.18-1.19,0.53
		C349,171.54,348.84,172.061,348.84,172.721L348.84,172.721z M354.75,174.17l1.79-0.279c0.07,0.359,0.221,0.619,0.451,0.8
		c0.24,0.18,0.57,0.27,0.98,0.27c0.469,0,0.818-0.09,1.049-0.25c0.16-0.12,0.23-0.27,0.23-0.47c0-0.14-0.041-0.25-0.119-0.35
		c-0.092-0.08-0.291-0.16-0.592-0.23c-1.439-0.31-2.35-0.6-2.738-0.88c-0.541-0.36-0.811-0.87-0.811-1.51
		c0-0.58,0.231-1.07,0.69-1.471c0.461-0.399,1.18-0.59,2.15-0.59c0.93,0,1.619,0.15,2.061,0.45c0.449,0.29,0.76,0.73,0.93,1.33
		l-1.689,0.31c-0.07-0.26-0.211-0.46-0.41-0.59c-0.201-0.149-0.48-0.22-0.861-0.22c-0.469,0-0.799,0.06-1.01,0.18
		c-0.141,0.101-0.209,0.221-0.209,0.38c0,0.12,0.068,0.23,0.189,0.311c0.16,0.13,0.709,0.3,1.66,0.52c0.959,0.21,1.619,0.471,2,0.78
		c0.369,0.32,0.561,0.76,0.561,1.33c0,0.61-0.262,1.14-0.781,1.59s-1.289,0.67-2.299,0.67c-0.91,0-1.641-0.18-2.182-0.56
		C355.25,175.32,354.91,174.811,354.75,174.17L354.75,174.17z M362.609,168.44v-1.66h1.781v1.66H362.609L362.609,168.44z
		 M362.609,176.101v-6.74h1.781v6.74H362.609L362.609,176.101z M369.311,169.36v1.42H368.1v2.71c0,0.55,0.01,0.87,0.031,0.97
		c0.02,0.09,0.068,0.17,0.148,0.23c0.09,0.05,0.191,0.08,0.301,0.08c0.17,0,0.41-0.061,0.721-0.17l0.158,1.39
		c-0.42,0.17-0.889,0.26-1.408,0.26c-0.32,0-0.621-0.05-0.881-0.149c-0.26-0.12-0.449-0.261-0.57-0.431
		c-0.119-0.17-0.199-0.41-0.24-0.699c-0.039-0.211-0.059-0.62-0.059-1.251v-2.939h-0.811v-1.42h0.811v-1.34l1.799-1.051v2.391
		H369.311L369.311,169.36z M374.459,173.96l1.762,0.29c-0.23,0.65-0.59,1.141-1.08,1.49c-0.49,0.34-1.102,0.51-1.84,0.51
		c-1.182,0-2.051-0.38-2.611-1.149c-0.449-0.62-0.67-1.391-0.67-2.32c0-1.12,0.291-2,0.871-2.62c0.6-0.64,1.34-0.95,2.219-0.95
		c1.01,0,1.801,0.33,2.381,1c0.58,0.65,0.859,1.66,0.83,3.03h-4.471c0.02,0.53,0.16,0.94,0.43,1.229
		c0.281,0.29,0.621,0.44,1.041,0.44c0.279,0,0.51-0.07,0.699-0.22C374.209,174.53,374.35,174.29,374.459,173.96L374.459,173.96z
		 M374.551,172.141c-0.012-0.511-0.15-0.9-0.41-1.171c-0.25-0.27-0.551-0.399-0.92-0.399c-0.381,0-0.711,0.14-0.971,0.42
		c-0.25,0.29-0.369,0.67-0.369,1.15H374.551L374.551,172.141z M377.76,176.101v-9.32h2.82l1.68,6.36l1.68-6.36h2.811v9.32H385v-7.33
		l-1.85,7.33h-1.811l-1.83-7.33v7.33H377.76L377.76,176.101z M389.939,171.41l-1.629-0.3c0.189-0.64,0.5-1.12,0.939-1.44
		c0.449-0.31,1.109-0.46,1.98-0.46c0.809,0,1.4,0.09,1.789,0.28c0.381,0.18,0.65,0.42,0.811,0.72c0.16,0.29,0.25,0.82,0.25,1.59
		l-0.02,2.08c0,0.59,0.029,1.03,0.08,1.311c0.059,0.279,0.17,0.58,0.33,0.91h-1.771c-0.049-0.12-0.109-0.29-0.17-0.53
		c-0.029-0.11-0.049-0.18-0.059-0.21c-0.311,0.29-0.641,0.52-0.99,0.67c-0.34,0.149-0.711,0.22-1.111,0.22
		c-0.689,0-1.238-0.18-1.639-0.56c-0.391-0.38-0.59-0.86-0.59-1.44c0-0.37,0.09-0.71,0.27-1.01s0.439-0.53,0.76-0.69
		c0.33-0.159,0.811-0.3,1.42-0.42c0.84-0.159,1.41-0.3,1.74-0.439v-0.17c0-0.351-0.09-0.591-0.27-0.74
		c-0.16-0.14-0.48-0.21-0.951-0.21c-0.309,0-0.559,0.06-0.74,0.18C390.199,170.88,390.051,171.101,389.939,171.41L389.939,171.41z
		 M392.33,172.86c-0.23,0.08-0.6,0.16-1.1,0.27c-0.49,0.101-0.811,0.21-0.961,0.311c-0.23,0.17-0.35,0.38-0.35,0.63
		s0.1,0.46,0.279,0.649c0.191,0.181,0.42,0.271,0.711,0.271c0.32,0,0.629-0.11,0.92-0.32c0.221-0.149,0.359-0.35,0.42-0.59
		c0.051-0.14,0.08-0.43,0.08-0.86V172.86L392.33,172.86z M401.959,176.101h-1.779v-3.44c0-0.729-0.039-1.2-0.119-1.41
		c-0.08-0.22-0.201-0.38-0.381-0.5c-0.16-0.12-0.369-0.18-0.609-0.18c-0.301,0-0.57,0.08-0.82,0.26c-0.24,0.17-0.41,0.391-0.5,0.67
		c-0.1,0.271-0.15,0.79-0.15,1.55v3.051h-1.779v-6.74h1.66v0.99c0.58-0.761,1.32-1.141,2.219-1.141c0.391,0,0.75,0.07,1.08,0.21
		c0.32,0.141,0.561,0.32,0.73,0.54c0.18,0.21,0.301,0.46,0.359,0.75c0.061,0.28,0.09,0.681,0.09,1.2V176.101L401.959,176.101z
		 M405.109,171.41l-1.629-0.3c0.189-0.64,0.5-1.12,0.939-1.44c0.449-0.31,1.109-0.46,1.98-0.46c0.809,0,1.4,0.09,1.789,0.28
		c0.381,0.18,0.65,0.42,0.811,0.72c0.17,0.29,0.25,0.82,0.25,1.59l-0.02,2.08c0,0.59,0.029,1.03,0.08,1.311
		c0.059,0.279,0.17,0.58,0.33,0.91h-1.771c-0.049-0.12-0.109-0.29-0.17-0.53c-0.029-0.11-0.049-0.18-0.059-0.21
		c-0.311,0.29-0.641,0.52-0.99,0.67c-0.34,0.149-0.711,0.22-1.1,0.22c-0.701,0-1.25-0.18-1.65-0.56c-0.391-0.38-0.59-0.86-0.59-1.44
		c0-0.37,0.09-0.71,0.27-1.01s0.439-0.53,0.76-0.69c0.34-0.159,0.811-0.3,1.42-0.42c0.84-0.159,1.42-0.3,1.74-0.439v-0.17
		c0-0.351-0.09-0.591-0.27-0.74c-0.16-0.14-0.48-0.21-0.951-0.21c-0.309,0-0.559,0.06-0.729,0.18
		C405.369,170.88,405.221,171.101,405.109,171.41L405.109,171.41z M407.5,172.86c-0.23,0.08-0.6,0.16-1.1,0.27
		c-0.48,0.101-0.811,0.21-0.961,0.311c-0.23,0.17-0.35,0.38-0.35,0.63s0.1,0.46,0.279,0.649c0.191,0.181,0.432,0.271,0.711,0.271
		c0.32,0,0.629-0.11,0.92-0.32c0.221-0.149,0.359-0.35,0.42-0.59c0.051-0.14,0.08-0.43,0.08-0.86V172.86L407.5,172.86z
		 M410.84,176.53l2.041,0.25c0.039,0.24,0.109,0.41,0.238,0.5c0.17,0.13,0.432,0.189,0.801,0.189c0.449,0,0.801-0.069,1.039-0.22
		c0.16-0.09,0.281-0.24,0.361-0.43c0.049-0.16,0.08-0.44,0.08-0.83V175c-0.531,0.73-1.201,1.101-2.02,1.101
		c-0.9,0-1.621-0.391-2.15-1.16c-0.42-0.601-0.631-1.351-0.631-2.25c0-1.13,0.27-2,0.82-2.59c0.551-0.601,1.23-0.891,2.029-0.891
		c0.83,0,1.521,0.36,2.061,1.09v-0.939h1.67v6.05c0,0.79-0.07,1.38-0.199,1.78c-0.131,0.399-0.311,0.7-0.551,0.92
		c-0.24,0.229-0.561,0.41-0.949,0.53c-0.4,0.13-0.9,0.189-1.5,0.189c-1.141,0-1.941-0.2-2.42-0.59c-0.48-0.39-0.721-0.88-0.721-1.49
		C410.84,176.7,410.84,176.63,410.84,176.53L410.84,176.53z M412.43,172.58c0,0.72,0.141,1.25,0.41,1.58
		c0.279,0.33,0.619,0.5,1.029,0.5c0.441,0,0.811-0.17,1.111-0.52c0.299-0.341,0.449-0.851,0.449-1.511
		c0-0.699-0.141-1.22-0.439-1.55c-0.281-0.34-0.641-0.51-1.09-0.51c-0.43,0-0.781,0.16-1.061,0.5
		C412.57,171.4,412.43,171.9,412.43,172.58L412.43,172.58z M422.859,173.96l1.76,0.29c-0.229,0.65-0.59,1.141-1.08,1.49
		c-0.488,0.34-1.1,0.51-1.84,0.51c-1.18,0-2.049-0.38-2.609-1.149c-0.449-0.62-0.67-1.391-0.67-2.32c0-1.12,0.289-2,0.869-2.62
		c0.602-0.64,1.34-0.95,2.221-0.95c1.01,0,1.811,0.33,2.381,1c0.58,0.65,0.859,1.66,0.83,3.03h-4.471
		c0.02,0.53,0.16,0.94,0.439,1.229c0.27,0.29,0.611,0.44,1.031,0.44c0.279,0,0.51-0.07,0.699-0.22
		C422.609,174.53,422.75,174.29,422.859,173.96L422.859,173.96z M422.949,172.141c-0.01-0.511-0.148-0.9-0.41-1.171
		c-0.25-0.27-0.549-0.399-0.92-0.399c-0.379,0-0.709,0.14-0.969,0.42c-0.25,0.29-0.371,0.67-0.371,1.15H422.949L422.949,172.141z
		 M427.881,176.101H426.1v-6.74h1.66v0.96c0.279-0.46,0.541-0.76,0.76-0.9c0.23-0.14,0.49-0.21,0.77-0.21
		c0.41,0,0.801,0.11,1.17,0.32l-0.539,1.57c-0.311-0.2-0.59-0.301-0.85-0.301c-0.25,0-0.461,0.07-0.641,0.221
		c-0.17,0.13-0.301,0.38-0.41,0.75c-0.09,0.35-0.139,1.1-0.139,2.25V176.101L427.881,176.101z"/>
	<polygon fill="#FFCC99" points="285,242 425,242 425,266 285,266 285,242 	"/>
	<polygon fill="#FFFFDA" points="284,241 285,241 285,267 284,267 284,241 	"/>
	<polygon fill="#FFFFDA" points="285,241 425,241 425,242 285,242 285,241 	"/>
	<polygon fill="#B28E6B" points="285,266 426,266 426,267 285,267 285,266 	"/>
	<polygon fill="#B28E6B" points="425,241 426,241 426,266 425,266 425,241 	"/>
	<path d="M301.06,256.04l1.81,0.57c-0.28,1.01-0.74,1.77-1.39,2.27c-0.65,0.49-1.47,0.73-2.47,0.73c-1.24,0-2.26-0.42-3.061-1.26
		c-0.79-0.851-1.19-2-1.19-3.471c0-1.54,0.4-2.739,1.2-3.59c0.81-0.87,1.86-1.3,3.16-1.3c1.14,0,2.06,0.34,2.78,1.01
		c0.42,0.4,0.74,0.97,0.95,1.72l-1.85,0.44c-0.12-0.479-0.35-0.86-0.71-1.14c-0.34-0.28-0.76-0.42-1.26-0.42
		c-0.69,0-1.25,0.25-1.69,0.75c-0.43,0.489-0.64,1.29-0.64,2.399c0,1.17,0.21,2,0.64,2.5c0.43,0.5,0.98,0.75,1.66,0.75
		c0.5,0,0.92-0.149,1.28-0.46C300.64,257.21,300.9,256.71,301.06,256.04L301.06,256.04z M304.06,255.99c0-0.6,0.14-1.17,0.43-1.72
		s0.71-0.971,1.24-1.271c0.54-0.29,1.14-0.43,1.81-0.43c1.01,0,1.84,0.33,2.5,1c0.66,0.649,0.98,1.49,0.98,2.5
		c0,1.02-0.33,1.87-1,2.54c-0.65,0.67-1.48,1-2.48,1c-0.61,0-1.2-0.141-1.77-0.42c-0.56-0.28-0.99-0.69-1.28-1.221
		C304.2,257.431,304.06,256.771,304.06,255.99L304.06,255.99z M305.88,256.08c0,0.67,0.16,1.18,0.47,1.55
		c0.33,0.351,0.72,0.53,1.19,0.53s0.86-0.18,1.17-0.53c0.31-0.37,0.47-0.89,0.47-1.56c0-0.66-0.16-1.17-0.47-1.521
		c-0.31-0.35-0.7-0.529-1.17-0.529s-0.86,0.18-1.19,0.529C306.04,254.9,305.88,255.42,305.88,256.08L305.88,256.08z M318.54,259.46
		h-1.78v-3.439c0-0.73-0.04-1.2-0.12-1.41c-0.08-0.22-0.2-0.38-0.38-0.5c-0.16-0.12-0.37-0.18-0.61-0.18
		c-0.3,0-0.58,0.079-0.83,0.26c-0.24,0.17-0.4,0.39-0.5,0.67c-0.09,0.27-0.14,0.79-0.14,1.55v3.05h-1.78v-6.74h1.66v0.99
		c0.58-0.76,1.32-1.14,2.22-1.14c0.39,0,0.75,0.07,1.08,0.22c0.32,0.13,0.56,0.311,0.73,0.53c0.18,0.22,0.3,0.47,0.36,0.75
		c0.061,0.28,0.09,0.68,0.09,1.2V259.46L318.54,259.46z M323.45,252.72v1.421h-1.22v2.71c0,0.55,0.01,0.869,0.04,0.97
		c0.02,0.09,0.07,0.17,0.15,0.23c0.08,0.05,0.18,0.079,0.3,0.079c0.17,0,0.4-0.06,0.72-0.17l0.15,1.391
		c-0.41,0.17-0.88,0.26-1.4,0.26c-0.33,0-0.62-0.05-0.88-0.15c-0.26-0.12-0.45-0.26-0.58-0.42c-0.11-0.18-0.19-0.42-0.23-0.71
		c-0.04-0.21-0.06-0.62-0.06-1.25v-2.939h-0.82v-1.421h0.82v-1.34l1.79-1.05v2.39H323.45L323.45,252.72z M326.02,254.771l-1.63-0.3
		c0.189-0.641,0.5-1.12,0.939-1.431c0.45-0.32,1.11-0.47,1.98-0.47c0.81,0,1.4,0.09,1.78,0.28c0.39,0.189,0.66,0.42,0.82,0.72
		c0.16,0.29,0.25,0.82,0.25,1.59l-0.02,2.08c0,0.59,0.03,1.03,0.08,1.31c0.06,0.28,0.17,0.58,0.33,0.91h-1.77
		c-0.05-0.12-0.11-0.29-0.17-0.529c-0.03-0.11-0.05-0.181-0.06-0.211c-0.32,0.29-0.64,0.521-0.99,0.671
		c-0.34,0.149-0.71,0.22-1.11,0.22c-0.69,0-1.24-0.18-1.64-0.561c-0.39-0.38-0.59-0.859-0.59-1.439c0-0.37,0.09-0.71,0.26-1.01
		c0.19-0.301,0.45-0.53,0.77-0.69c0.33-0.16,0.81-0.3,1.42-0.42c0.84-0.16,1.41-0.3,1.74-0.439v-0.171c0-0.34-0.09-0.59-0.27-0.739
		c-0.17-0.141-0.48-0.21-0.95-0.21c-0.31,0-0.56,0.06-0.74,0.18C326.28,254.24,326.13,254.46,326.02,254.771L326.02,254.771z
		 M328.41,256.22c-0.23,0.08-0.6,0.16-1.1,0.271c-0.49,0.1-0.81,0.21-0.97,0.31c-0.22,0.17-0.34,0.381-0.34,0.631
		s0.09,0.46,0.28,0.649c0.19,0.18,0.42,0.271,0.7,0.271c0.33,0,0.64-0.11,0.93-0.311c0.22-0.16,0.36-0.359,0.419-0.6
		c0.05-0.14,0.081-0.431,0.081-0.86V256.22L328.41,256.22z M337.79,254.71l-1.76,0.311c-0.05-0.34-0.19-0.601-0.41-0.78
		c-0.21-0.18-0.48-0.271-0.81-0.271c-0.44,0-0.79,0.15-1.06,0.461c-0.26,0.3-0.39,0.81-0.39,1.54c0,0.789,0.13,1.359,0.4,1.689
		s0.63,0.5,1.08,0.5c0.34,0,0.62-0.09,0.83-0.28c0.22-0.199,0.37-0.529,0.45-1l1.771,0.301c-0.19,0.8-0.54,1.409-1.07,1.819
		c-0.51,0.41-1.19,0.61-2.06,0.61c-0.99,0-1.77-0.311-2.36-0.93c-0.58-0.63-0.87-1.49-0.87-2.58c0-1.12,0.29-1.98,0.87-2.601
		c0.59-0.62,1.38-0.93,2.39-0.93c0.83,0,1.48,0.17,1.96,0.53C337.24,253.45,337.58,253.99,337.79,254.71L337.79,254.71z
		 M342.24,252.72v1.421h-1.22v2.71c0,0.55,0.01,0.869,0.03,0.97c0.03,0.09,0.08,0.17,0.16,0.23c0.08,0.05,0.18,0.079,0.3,0.079
		c0.16,0,0.4-0.06,0.72-0.17l0.15,1.391c-0.41,0.17-0.88,0.26-1.4,0.26c-0.33,0-0.62-0.05-0.88-0.15c-0.26-0.12-0.45-0.26-0.58-0.42
		c-0.11-0.18-0.19-0.42-0.23-0.71c-0.04-0.21-0.06-0.62-0.06-1.25v-2.939h-0.82v-1.421h0.82v-1.34l1.79-1.05v2.39H342.24
		L342.24,252.72z M343.49,259.46v-9.319h6.89v1.579h-5.01v2.07h4.67v1.57h-4.67v2.53h5.2v1.569H343.49L343.49,259.46z
		 M358.32,259.46h-1.66v-0.99c-0.27,0.391-0.59,0.671-0.971,0.86c-0.369,0.19-0.75,0.28-1.12,0.28c-0.78,0-1.45-0.311-2-0.93
		c-0.55-0.63-0.83-1.5-0.83-2.61c0-1.15,0.27-2.021,0.8-2.61c0.54-0.6,1.22-0.89,2.05-0.89c0.75,0,1.4,0.31,1.949,0.93v-3.359h1.781
		V259.46L358.32,259.46z M353.57,255.94c0,0.72,0.1,1.24,0.3,1.56c0.28,0.47,0.68,0.71,1.2,0.71c0.41,0,0.76-0.17,1.049-0.52
		c0.291-0.351,0.432-0.88,0.432-1.58c0-0.771-0.141-1.32-0.42-1.67c-0.281-0.34-0.641-0.51-1.08-0.51
		c-0.411,0-0.771,0.17-1.061,0.51C353.71,254.771,353.57,255.271,353.57,255.94L353.57,255.94z M360.09,251.8v-1.659h1.779v1.659
		H360.09L360.09,251.8z M360.09,259.46v-6.74h1.779v6.74H360.09L360.09,259.46z M366.789,252.72v1.421h-1.209v2.71
		c0,0.55,0.01,0.869,0.029,0.97c0.021,0.09,0.07,0.17,0.15,0.23c0.09,0.05,0.189,0.079,0.301,0.079c0.17,0,0.41-0.06,0.719-0.17
		l0.16,1.391c-0.42,0.17-0.889,0.26-1.41,0.26c-0.32,0-0.619-0.05-0.879-0.15c-0.26-0.12-0.451-0.26-0.57-0.42
		c-0.121-0.18-0.199-0.42-0.24-0.71c-0.039-0.21-0.061-0.62-0.061-1.25v-2.939h-0.809v-1.421h0.809v-1.34l1.801-1.05v2.39H366.789
		L366.789,252.72z M367.609,255.99c0-0.6,0.141-1.17,0.441-1.72c0.289-0.55,0.699-0.971,1.229-1.271
		c0.541-0.29,1.15-0.43,1.811-0.43c1.01,0,1.85,0.33,2.5,1c0.66,0.649,0.99,1.49,0.99,2.5c0,1.02-0.34,1.87-1,2.54s-1.49,1-2.49,1
		c-0.609,0-1.199-0.141-1.76-0.42c-0.57-0.28-0.99-0.69-1.279-1.221C367.75,257.431,367.609,256.771,367.609,255.99L367.609,255.99z
		 M369.439,256.08c0,0.67,0.15,1.18,0.461,1.55c0.33,0.351,0.719,0.53,1.189,0.53s0.859-0.18,1.17-0.53
		c0.32-0.37,0.471-0.89,0.471-1.56c0-0.66-0.15-1.17-0.471-1.521c-0.311-0.35-0.699-0.529-1.17-0.529s-0.859,0.18-1.189,0.529
		C369.59,254.9,369.439,255.42,369.439,256.08L369.439,256.08z M377.67,259.46h-1.779v-6.74h1.66v0.961
		c0.279-0.461,0.539-0.761,0.76-0.891c0.229-0.149,0.49-0.22,0.77-0.22c0.41,0,0.801,0.11,1.17,0.32l-0.541,1.569
		c-0.309-0.2-0.59-0.3-0.85-0.3c-0.25,0-0.459,0.07-0.639,0.22c-0.17,0.13-0.301,0.38-0.41,0.75c-0.09,0.351-0.141,1.101-0.141,2.25
		V259.46L377.67,259.46z M381.01,259.46v-9.319h2.82l1.68,6.359l1.68-6.359H390v9.319h-1.75v-7.33l-1.85,7.33h-1.811l-1.83-7.33
		v7.33H381.01L381.01,259.46z M391.439,255.99c0-0.6,0.141-1.17,0.43-1.72c0.301-0.55,0.711-0.971,1.24-1.271
		c0.541-0.29,1.141-0.43,1.811-0.43c1.01,0,1.85,0.33,2.5,1c0.66,0.649,0.99,1.49,0.99,2.5c0,1.02-0.34,1.87-1,2.54s-1.49,1-2.49,1
		c-0.609,0-1.199-0.141-1.76-0.42c-0.57-0.28-0.99-0.69-1.291-1.221C391.58,257.431,391.439,256.771,391.439,255.99L391.439,255.99z
		 M393.27,256.08c0,0.67,0.15,1.18,0.461,1.55c0.33,0.351,0.719,0.53,1.189,0.53s0.859-0.18,1.17-0.53
		c0.32-0.37,0.471-0.89,0.471-1.56c0-0.66-0.15-1.17-0.471-1.521c-0.311-0.35-0.699-0.529-1.17-0.529s-0.859,0.18-1.189,0.529
		C393.42,254.9,393.27,255.42,393.27,256.08L393.27,256.08z M405.971,259.46h-1.65v-0.99c-0.281,0.391-0.6,0.671-0.971,0.86
		c-0.379,0.19-0.75,0.28-1.129,0.28c-0.781,0-1.451-0.311-2-0.93c-0.551-0.63-0.83-1.5-0.83-2.61c0-1.15,0.27-2.021,0.799-2.61
		c0.541-0.6,1.221-0.89,2.051-0.89c0.75,0,1.4,0.31,1.949,0.93v-3.359h1.781V259.46L405.971,259.46z M401.221,255.94
		c0,0.72,0.1,1.24,0.299,1.56c0.281,0.47,0.68,0.71,1.201,0.71c0.41,0,0.76-0.17,1.049-0.52c0.291-0.351,0.439-0.88,0.439-1.58
		c0-0.771-0.139-1.32-0.43-1.67c-0.279-0.34-0.639-0.51-1.07-0.51c-0.42,0-0.77,0.17-1.068,0.51
		C401.359,254.771,401.221,255.271,401.221,255.94L401.221,255.94z M411.65,257.32l1.76,0.29c-0.23,0.649-0.59,1.14-1.08,1.49
		c-0.48,0.34-1.1,0.51-1.84,0.51c-1.18,0-2.051-0.38-2.611-1.15c-0.449-0.62-0.67-1.39-0.67-2.319c0-1.12,0.291-2,0.871-2.62
		c0.6-0.641,1.34-0.95,2.221-0.95c1.01,0,1.809,0.33,2.379,1c0.58,0.649,0.859,1.66,0.83,3.03h-4.471
		c0.021,0.529,0.16,0.939,0.441,1.229c0.27,0.29,0.609,0.44,1.029,0.44c0.279,0,0.51-0.07,0.699-0.22
		C411.4,257.891,411.539,257.65,411.65,257.32L411.65,257.32z M411.74,255.5c-0.01-0.51-0.141-0.899-0.41-1.17
		c-0.25-0.27-0.551-0.399-0.92-0.399c-0.381,0-0.711,0.14-0.971,0.42c-0.25,0.29-0.369,0.67-0.369,1.149H411.74L411.74,255.5z
		 M414.971,259.46v-9.319h1.779v9.319H414.971L414.971,259.46z"/>
	<line fill="none" stroke="#000000" stroke-miterlimit="1.45" x1="340.86" y1="152.591" x2="282.61" y2="80.262"/>
	<polygon points="345.25,158.04 336.96,155.73 336.47,147.139 344.75,149.454 	"/>
	<path d="M271.45,104.433h-1.64v-6.204c-0.6,0.563-1.31,0.979-2.13,1.25v-1.5c0.43-0.135,0.89-0.401,1.39-0.796
		c0.52-0.396,0.86-0.855,1.05-1.375h1.33V104.433L271.45,104.433z M274.26,104.433v-1.641h1.66v1.641H274.26L274.26,104.433z
		 M277.6,104.433v-1.641h1.65v1.641H277.6L277.6,104.433z M284.79,104.433h-1.64v-6.204c-0.6,0.563-1.31,0.979-2.12,1.25v-1.5
		c0.42-0.135,0.89-0.401,1.39-0.796c0.51-0.396,0.86-0.855,1.04-1.375h1.33V104.433L284.79,104.433z"/>
	<path d="M310.2,104.433l1.29-6.219h1.07l-0.22,1.015c0.39-0.438,0.75-0.739,1.06-0.906c0.31-0.166,0.65-0.25,1.02-0.25
		c0.38,0,0.71,0.104,0.97,0.313c0.26,0.198,0.43,0.479,0.51,0.843c0.31-0.385,0.64-0.671,0.99-0.859
		c0.35-0.198,0.72-0.297,1.1-0.297c0.53,0,0.92,0.125,1.18,0.375c0.26,0.24,0.39,0.584,0.39,1.031c0,0.188-0.05,0.5-0.14,0.938
		l-0.83,4.016h-1.06l0.86-4.11c0.07-0.344,0.1-0.583,0.1-0.719c0-0.208-0.06-0.369-0.2-0.484c-0.12-0.115-0.3-0.172-0.53-0.172
		c-0.32,0-0.65,0.094-0.98,0.281s-0.58,0.438-0.77,0.75c-0.18,0.313-0.33,0.792-0.47,1.438l-0.62,3.016h-1.07l0.88-4.204
		c0.06-0.281,0.09-0.484,0.09-0.609c0-0.198-0.06-0.359-0.18-0.484c-0.13-0.125-0.3-0.188-0.5-0.188c-0.31,0-0.62,0.094-0.96,0.281
		c-0.32,0.188-0.59,0.454-0.79,0.797c-0.21,0.344-0.38,0.834-0.52,1.469l-0.61,2.938H310.2L310.2,104.433z M324.77,102.323
		l1.03,0.094c-0.14,0.51-0.49,1-1.03,1.469c-0.53,0.458-1.16,0.687-1.89,0.687c-0.47,0-0.89-0.104-1.28-0.312
		c-0.38-0.219-0.68-0.532-0.87-0.938c-0.2-0.406-0.3-0.87-0.3-1.39c0-0.678,0.15-1.334,0.47-1.969c0.31-0.646,0.72-1.12,1.22-1.422
		c0.5-0.313,1.04-0.469,1.62-0.469c0.74,0,1.33,0.229,1.77,0.688c0.44,0.458,0.67,1.088,0.67,1.89c0,0.302-0.03,0.615-0.08,0.938
		h-4.58c-0.02,0.114-0.03,0.224-0.03,0.328c0,0.583,0.14,1.026,0.41,1.328c0.27,0.302,0.6,0.453,0.98,0.453
		c0.37,0,0.72-0.114,1.06-0.344C324.3,103.115,324.57,102.771,324.77,102.323L324.77,102.323z M321.69,100.776h3.49
		c0.01-0.114,0.01-0.192,0.01-0.234c0-0.531-0.13-0.938-0.4-1.219c-0.26-0.281-0.6-0.422-1.02-0.422c-0.46,0-0.87,0.157-1.25,0.469
		C322.15,99.683,321.87,100.151,321.69,100.776L321.69,100.776z M326.87,104.433l1.29-6.219h1.07l-0.22,1.015
		c0.39-0.438,0.75-0.739,1.06-0.906c0.31-0.166,0.65-0.25,1.02-0.25c0.38,0,0.71,0.104,0.97,0.313c0.26,0.198,0.43,0.479,0.51,0.843
		c0.31-0.385,0.64-0.671,0.99-0.859c0.35-0.198,0.72-0.297,1.1-0.297c0.53,0,0.92,0.125,1.18,0.375c0.26,0.24,0.39,0.584,0.39,1.031
		c0,0.188-0.05,0.5-0.14,0.938l-0.83,4.016h-1.06l0.86-4.11c0.07-0.344,0.1-0.583,0.1-0.719c0-0.208-0.06-0.369-0.2-0.484
		c-0.12-0.115-0.3-0.172-0.53-0.172c-0.32,0-0.65,0.094-0.98,0.281s-0.58,0.438-0.77,0.75c-0.18,0.313-0.33,0.792-0.47,1.438
		l-0.62,3.016h-1.07l0.88-4.204c0.06-0.281,0.09-0.484,0.09-0.609c0-0.198-0.06-0.359-0.18-0.484c-0.13-0.125-0.3-0.188-0.5-0.188
		c-0.31,0-0.62,0.094-0.96,0.281c-0.32,0.188-0.59,0.454-0.79,0.797c-0.21,0.344-0.38,0.834-0.52,1.469l-0.61,2.938H326.87
		L326.87,104.433z M336.88,104.433l1.78-8.594h1.06l-0.64,3.078c0.35-0.313,0.65-0.531,0.92-0.656c0.28-0.125,0.56-0.188,0.86-0.188
		c0.58,0,1.06,0.219,1.44,0.656c0.4,0.428,0.6,1.053,0.6,1.875c0,0.553-0.08,1.058-0.24,1.516c-0.16,0.458-0.35,0.844-0.58,1.156
		c-0.23,0.313-0.47,0.563-0.72,0.75c-0.24,0.177-0.49,0.313-0.75,0.407c-0.26,0.093-0.51,0.14-0.75,0.14
		c-0.4,0-0.76-0.109-1.07-0.328c-0.32-0.219-0.56-0.547-0.74-0.984l-0.25,1.172H336.88L336.88,104.433z M338.44,101.87v0.203
		c0,0.531,0.13,0.938,0.38,1.219c0.25,0.271,0.56,0.406,0.95,0.406c0.36,0,0.7-0.125,1.02-0.375c0.31-0.26,0.56-0.666,0.76-1.219
		c0.2-0.552,0.3-1.062,0.3-1.531c0-0.521-0.13-0.927-0.38-1.219c-0.25-0.292-0.561-0.438-0.93-0.438c-0.38,0-0.73,0.151-1.05,0.453
		c-0.32,0.292-0.59,0.745-0.81,1.359C338.52,101.188,338.44,101.568,338.44,101.87L338.44,101.87z M348.12,102.323l1.03,0.094
		c-0.15,0.51-0.49,1-1.03,1.469c-0.54,0.458-1.17,0.687-1.89,0.687c-0.47,0-0.9-0.104-1.29-0.312c-0.38-0.219-0.67-0.532-0.87-0.938
		c-0.2-0.406-0.3-0.87-0.3-1.39c0-0.678,0.16-1.334,0.47-1.969c0.31-0.646,0.72-1.12,1.22-1.422c0.5-0.313,1.04-0.469,1.62-0.469
		c0.74,0,1.33,0.229,1.771,0.688c0.45,0.458,0.67,1.088,0.67,1.89c0,0.302-0.02,0.615-0.08,0.938h-4.57
		c-0.02,0.114-0.041,0.224-0.041,0.328c0,0.583,0.14,1.026,0.41,1.328c0.271,0.302,0.6,0.453,0.99,0.453
		c0.36,0,0.71-0.114,1.06-0.344C347.64,103.115,347.92,102.771,348.12,102.323L348.12,102.323z M345.04,100.776h3.48
		c0.01-0.114,0.02-0.192,0.02-0.234c0-0.531-0.14-0.938-0.41-1.219c-0.26-0.281-0.6-0.422-1.01-0.422c-0.46,0-0.88,0.157-1.25,0.469
		C345.49,99.683,345.22,100.151,345.04,100.776L345.04,100.776z M350.23,104.433l1.29-6.219h0.94l-0.26,1.265
		c0.32-0.479,0.63-0.833,0.93-1.062c0.32-0.229,0.63-0.344,0.94-0.344c0.22,0,0.48,0.073,0.78,0.219l-0.44,0.984
		c-0.17-0.125-0.37-0.187-0.59-0.187c-0.37,0-0.76,0.208-1.16,0.625c-0.38,0.406-0.68,1.146-0.9,2.219l-0.53,2.5H350.23
		L350.23,104.433z"/>
	<line fill="none" stroke="#000000" stroke-miterlimit="1.45" x1="317.9" y1="155.32" x2="109.89" y2="68.02"/>
	<polygon points="324.35,158.03 315.96,159.931 311.44,152.61 319.83,150.709 	"/>
	<path d="M139.34,103.702h-1.64v-6.203c-0.61,0.562-1.32,0.979-2.13,1.25v-1.5c0.43-0.136,0.89-0.401,1.39-0.797
		c0.51-0.396,0.86-0.854,1.05-1.375h1.33V103.702L139.34,103.702z M142.15,103.702v-1.641h1.66v1.641H142.15L142.15,103.702z
		 M145.48,103.702v-1.641h1.66v1.641H145.48L145.48,103.702z M152.68,103.702h-1.64v-6.203c-0.61,0.562-1.32,0.979-2.13,1.25v-1.5
		c0.43-0.136,0.89-0.401,1.39-0.797c0.51-0.396,0.86-0.854,1.05-1.375h1.33V103.702L152.68,103.702z"/>
	<path d="M86.38,92.203l1.3-6.219h1.06L88.52,87c0.4-0.438,0.75-0.74,1.06-0.907c0.32-0.166,0.66-0.25,1.02-0.25
		c0.39,0,0.71,0.105,0.97,0.313C91.83,86.354,92,86.635,92.08,87c0.32-0.386,0.64-0.672,0.99-0.86c0.35-0.198,0.72-0.297,1.11-0.297
		c0.52,0,0.91,0.125,1.17,0.375c0.26,0.24,0.39,0.584,0.39,1.032c0,0.188-0.05,0.5-0.14,0.938l-0.83,4.016h-1.06l0.86-4.11
		c0.07-0.343,0.11-0.583,0.11-0.718c0-0.209-0.07-0.37-0.21-0.485c-0.12-0.114-0.3-0.172-0.53-0.172c-0.32,0-0.65,0.094-0.98,0.282
		c-0.32,0.188-0.58,0.438-0.77,0.75c-0.17,0.312-0.33,0.791-0.47,1.437l-0.62,3.016h-1.06L90.91,88c0.06-0.282,0.1-0.485,0.1-0.61
		c0-0.198-0.07-0.359-0.19-0.484c-0.13-0.125-0.29-0.188-0.5-0.188c-0.3,0-0.62,0.094-0.95,0.282c-0.33,0.188-0.59,0.453-0.8,0.797
		c-0.21,0.343-0.38,0.833-0.52,1.468l-0.61,2.938H86.38L86.38,92.203z M100.96,90.093l1.03,0.094c-0.15,0.511-0.49,1-1.03,1.469
		c-0.54,0.458-1.17,0.687-1.9,0.687c-0.46,0-0.89-0.104-1.28-0.312c-0.38-0.219-0.67-0.531-0.87-0.938
		c-0.2-0.406-0.3-0.869-0.3-1.39c0-0.677,0.16-1.334,0.47-1.969c0.31-0.646,0.72-1.12,1.22-1.422c0.5-0.313,1.04-0.469,1.62-0.469
		c0.74,0,1.33,0.23,1.77,0.688c0.45,0.458,0.67,1.088,0.67,1.891c0,0.302-0.02,0.614-0.08,0.937h-4.57
		c-0.03,0.115-0.04,0.224-0.04,0.328c0,0.583,0.14,1.026,0.41,1.328c0.27,0.302,0.6,0.453,0.98,0.453c0.37,0,0.72-0.114,1.07-0.343
		C100.48,90.885,100.76,90.541,100.96,90.093L100.96,90.093z M97.88,88.547h3.48c0.01-0.115,0.02-0.193,0.02-0.235
		c0-0.531-0.14-0.938-0.41-1.219c-0.26-0.281-0.6-0.421-1.01-0.421c-0.46,0-0.88,0.156-1.25,0.468
		C98.33,87.453,98.05,87.922,97.88,88.547L97.88,88.547z M103.05,92.203l1.3-6.219h1.06L105.19,87c0.4-0.438,0.75-0.74,1.06-0.907
		c0.32-0.166,0.66-0.25,1.02-0.25c0.39,0,0.71,0.105,0.97,0.313c0.26,0.198,0.43,0.479,0.51,0.844c0.32-0.386,0.64-0.672,0.99-0.86
		c0.35-0.198,0.72-0.297,1.11-0.297c0.52,0,0.91,0.125,1.17,0.375c0.26,0.24,0.39,0.584,0.39,1.032c0,0.188-0.05,0.5-0.14,0.938
		l-0.83,4.016h-1.06l0.86-4.11c0.07-0.343,0.11-0.583,0.11-0.718c0-0.209-0.07-0.37-0.21-0.485c-0.12-0.114-0.3-0.172-0.53-0.172
		c-0.32,0-0.65,0.094-0.98,0.282c-0.32,0.188-0.58,0.438-0.77,0.75c-0.17,0.312-0.33,0.791-0.47,1.437l-0.62,3.016h-1.06L107.58,88
		c0.06-0.282,0.1-0.485,0.1-0.61c0-0.198-0.07-0.359-0.19-0.484c-0.13-0.125-0.29-0.188-0.5-0.188c-0.3,0-0.62,0.094-0.95,0.282
		s-0.59,0.453-0.8,0.797c-0.21,0.343-0.38,0.833-0.52,1.468l-0.61,2.938H103.05L103.05,92.203z M113.06,92.203l1.78-8.594h1.07
		l-0.64,3.078c0.34-0.313,0.65-0.531,0.92-0.656s0.55-0.188,0.86-0.188c0.57,0,1.05,0.219,1.43,0.657c0.4,0.427,0.6,1.052,0.6,1.875
		c0,0.552-0.08,1.057-0.24,1.515c-0.15,0.459-0.35,0.844-0.57,1.157c-0.23,0.312-0.47,0.562-0.72,0.75
		c-0.24,0.177-0.49,0.312-0.75,0.406c-0.26,0.094-0.51,0.14-0.75,0.14c-0.41,0-0.77-0.109-1.08-0.328
		c-0.31-0.218-0.56-0.547-0.74-0.984l-0.25,1.172H113.06L113.06,92.203z M114.63,89.64v0.203c0,0.532,0.12,0.938,0.37,1.219
		c0.25,0.271,0.57,0.406,0.95,0.406c0.37,0,0.71-0.125,1.02-0.375c0.31-0.26,0.57-0.666,0.76-1.218c0.2-0.552,0.3-1.063,0.3-1.532
		c0-0.52-0.12-0.927-0.37-1.218c-0.25-0.292-0.57-0.438-0.94-0.438c-0.38,0-0.73,0.151-1.05,0.453c-0.32,0.292-0.59,0.745-0.81,1.36
		C114.7,88.958,114.63,89.338,114.63,89.64L114.63,89.64z M124.3,90.093l1.03,0.094c-0.15,0.511-0.49,1-1.03,1.469
		c-0.53,0.458-1.16,0.687-1.89,0.687c-0.47,0-0.9-0.104-1.28-0.312c-0.39-0.219-0.68-0.531-0.88-0.938
		c-0.2-0.406-0.29-0.869-0.29-1.39c0-0.677,0.15-1.334,0.46-1.969c0.32-0.646,0.72-1.12,1.22-1.422c0.5-0.313,1.04-0.469,1.63-0.469
		c0.74,0,1.33,0.23,1.76,0.688c0.45,0.458,0.68,1.088,0.68,1.891c0,0.302-0.03,0.614-0.08,0.937h-4.58
		c-0.02,0.115-0.03,0.224-0.03,0.328c0,0.583,0.13,1.026,0.4,1.328c0.27,0.302,0.6,0.453,0.99,0.453c0.36,0,0.72-0.114,1.06-0.343
		C123.82,90.885,124.1,90.541,124.3,90.093L124.3,90.093z M121.22,88.547h3.49c0.01-0.115,0.01-0.193,0.01-0.235
		c0-0.531-0.13-0.938-0.41-1.219c-0.26-0.281-0.59-0.421-1.01-0.421c-0.46,0-0.88,0.156-1.25,0.468
		C121.67,87.453,121.4,87.922,121.22,88.547L121.22,88.547z M126.41,92.203l1.3-6.219h0.93l-0.26,1.266
		c0.32-0.479,0.63-0.834,0.94-1.063s0.62-0.344,0.93-0.344c0.22,0,0.48,0.073,0.79,0.219l-0.44,0.985
		c-0.18-0.125-0.38-0.188-0.6-0.188c-0.37,0-0.76,0.208-1.15,0.625c-0.39,0.406-0.69,1.146-0.91,2.219l-0.53,2.5H126.41
		L126.41,92.203z"/>
	<line fill="none" stroke="#000000" stroke-miterlimit="1.45" x1="368.33" y1="152.176" x2="415.141" y2="80.262"/>
	<polygon points="364.51,158.04 364.141,149.448 372.15,146.31 372.52,154.9 	"/>
	<path d="M377.09,104.433h-1.641v-6.204c-0.6,0.563-1.309,0.979-2.119,1.25v-1.5c0.42-0.135,0.891-0.401,1.391-0.796
		c0.51-0.396,0.859-0.855,1.049-1.375h1.32V104.433L377.09,104.433z M379.91,104.433v-1.641h1.65v1.641H379.91L379.91,104.433z
		 M383.24,104.433v-1.641h1.66v1.641H383.24L383.24,104.433z M390.43,104.433h-1.641v-6.204c-0.6,0.563-1.309,0.979-2.119,1.25v-1.5
		c0.43-0.135,0.891-0.401,1.391-0.796c0.51-0.396,0.859-0.855,1.049-1.375h1.32V104.433L390.43,104.433z"/>
	<path d="M412.959,104.433l1.291-6.219h1.061l-0.211,1.015c0.391-0.438,0.75-0.739,1.061-0.906c0.311-0.166,0.65-0.25,1.01-0.25
		c0.391,0,0.711,0.104,0.971,0.313c0.26,0.198,0.439,0.479,0.52,0.843c0.311-0.385,0.641-0.671,0.98-0.859
		c0.359-0.198,0.729-0.297,1.109-0.297c0.52,0,0.91,0.125,1.17,0.375c0.26,0.24,0.391,0.584,0.391,1.031
		c0,0.188-0.041,0.5-0.141,0.938l-0.82,4.016h-1.07l0.861-4.11c0.08-0.344,0.109-0.583,0.109-0.719c0-0.208-0.07-0.369-0.199-0.484
		c-0.131-0.115-0.301-0.172-0.531-0.172c-0.33,0-0.65,0.094-0.99,0.281c-0.32,0.188-0.57,0.438-0.76,0.75
		c-0.18,0.313-0.34,0.792-0.469,1.438l-0.631,3.016h-1.061l0.881-4.204c0.061-0.281,0.09-0.484,0.09-0.609
		c0-0.198-0.061-0.359-0.189-0.484c-0.121-0.125-0.291-0.188-0.5-0.188c-0.301,0-0.621,0.094-0.951,0.281
		c-0.32,0.188-0.59,0.454-0.799,0.797c-0.211,0.344-0.381,0.834-0.512,1.469l-0.609,2.938H412.959L412.959,104.433z
		 M427.529,102.323l1.031,0.094c-0.15,0.51-0.49,1-1.031,1.469c-0.529,0.458-1.16,0.687-1.889,0.687c-0.471,0-0.9-0.104-1.281-0.312
		c-0.389-0.219-0.68-0.532-0.879-0.938c-0.201-0.406-0.291-0.87-0.291-1.39c0-0.678,0.15-1.334,0.461-1.969
		c0.32-0.646,0.719-1.12,1.219-1.422c0.5-0.313,1.041-0.469,1.631-0.469c0.74,0,1.33,0.229,1.76,0.688
		c0.449,0.458,0.68,1.088,0.68,1.89c0,0.302-0.029,0.615-0.08,0.938h-4.58c-0.02,0.114-0.029,0.224-0.029,0.328
		c0,0.583,0.129,1.026,0.4,1.328c0.279,0.302,0.6,0.453,0.99,0.453c0.359,0,0.719-0.114,1.059-0.344
		C427.061,103.115,427.33,102.771,427.529,102.323L427.529,102.323z M424.449,100.776h3.49c0.01-0.114,0.01-0.192,0.01-0.234
		c0-0.531-0.129-0.938-0.398-1.219c-0.271-0.281-0.602-0.422-1.021-0.422c-0.459,0-0.879,0.157-1.25,0.469
		C424.9,99.683,424.631,100.151,424.449,100.776L424.449,100.776z M429.629,104.433l1.291-6.219h1.061l-0.211,1.015
		c0.391-0.438,0.75-0.739,1.061-0.906c0.311-0.166,0.65-0.25,1.01-0.25c0.391,0,0.711,0.104,0.971,0.313
		c0.26,0.198,0.439,0.479,0.52,0.843c0.311-0.385,0.641-0.671,0.98-0.859c0.359-0.198,0.729-0.297,1.109-0.297
		c0.52,0,0.91,0.125,1.17,0.375c0.26,0.24,0.391,0.584,0.391,1.031c0,0.188-0.041,0.5-0.141,0.938l-0.82,4.016h-1.07l0.861-4.11
		c0.08-0.344,0.109-0.583,0.109-0.719c0-0.208-0.07-0.369-0.199-0.484c-0.131-0.115-0.301-0.172-0.531-0.172
		c-0.33,0-0.65,0.094-0.99,0.281c-0.318,0.188-0.57,0.438-0.76,0.75c-0.18,0.313-0.34,0.792-0.469,1.438l-0.631,3.016h-1.061
		l0.881-4.204c0.061-0.281,0.09-0.484,0.09-0.609c0-0.198-0.061-0.359-0.189-0.484c-0.121-0.125-0.291-0.188-0.5-0.188
		c-0.301,0-0.621,0.094-0.951,0.281c-0.32,0.188-0.59,0.454-0.799,0.797c-0.211,0.344-0.381,0.834-0.51,1.469l-0.611,2.938H429.629
		L429.629,104.433z M439.641,104.433l1.779-8.594h1.061l-0.641,3.078c0.34-0.313,0.65-0.531,0.92-0.656s0.561-0.188,0.859-0.188
		c0.57,0,1.051,0.219,1.441,0.656c0.389,0.428,0.59,1.053,0.59,1.875c0,0.553-0.08,1.058-0.23,1.516
		c-0.16,0.458-0.35,0.844-0.58,1.156c-0.23,0.313-0.471,0.563-0.721,0.75c-0.24,0.177-0.488,0.313-0.75,0.407
		c-0.26,0.093-0.51,0.14-0.75,0.14c-0.398,0-0.76-0.109-1.08-0.328c-0.309-0.219-0.549-0.547-0.729-0.984l-0.25,1.172H439.641
		L439.641,104.433z M441.199,101.87v0.203c0,0.531,0.121,0.938,0.371,1.219c0.25,0.271,0.57,0.406,0.959,0.406
		c0.361,0,0.701-0.125,1.01-0.375c0.32-0.26,0.57-0.666,0.771-1.219c0.199-0.552,0.299-1.062,0.299-1.531
		c0-0.521-0.129-0.927-0.379-1.219s-0.561-0.438-0.941-0.438c-0.369,0-0.719,0.151-1.039,0.453c-0.33,0.292-0.6,0.745-0.82,1.359
		C441.279,101.188,441.199,101.568,441.199,101.87L441.199,101.87z M450.869,102.323l1.031,0.094c-0.141,0.51-0.49,1-1.031,1.469
		c-0.529,0.458-1.16,0.687-1.889,0.687c-0.471,0-0.891-0.104-1.281-0.312c-0.379-0.219-0.68-0.532-0.869-0.938
		c-0.199-0.406-0.301-0.87-0.301-1.39c0-0.678,0.16-1.334,0.471-1.969c0.311-0.646,0.721-1.12,1.221-1.422
		c0.5-0.313,1.039-0.469,1.619-0.469c0.74,0,1.33,0.229,1.77,0.688c0.451,0.458,0.67,1.088,0.67,1.89
		c0,0.302-0.029,0.615-0.08,0.938h-4.58c-0.02,0.114-0.029,0.224-0.029,0.328c0,0.583,0.141,1.026,0.41,1.328
		c0.27,0.302,0.6,0.453,0.98,0.453c0.369,0,0.719-0.114,1.07-0.344C450.4,103.115,450.68,102.771,450.869,102.323L450.869,102.323z
		 M447.801,100.776h3.479c0.01-0.114,0.021-0.192,0.021-0.234c0-0.531-0.141-0.938-0.41-1.219c-0.262-0.281-0.602-0.422-1.021-0.422
		c-0.459,0-0.869,0.157-1.25,0.469C448.25,99.683,447.971,100.151,447.801,100.776L447.801,100.776z M452.98,104.433l1.299-6.219
		h0.941l-0.271,1.265c0.33-0.479,0.641-0.833,0.941-1.062c0.309-0.229,0.629-0.344,0.939-0.344c0.221,0,0.48,0.073,0.779,0.219
		l-0.439,0.984c-0.17-0.125-0.369-0.187-0.59-0.187c-0.381,0-0.76,0.208-1.16,0.625c-0.381,0.406-0.689,1.146-0.9,2.219l-0.539,2.5
		H452.98L452.98,104.433z"/>
	<line fill="none" stroke="#000000" stroke-miterlimit="1.45" x1="392.971" y1="155.25" x2="594.9" y2="68.02"/>
	<polygon points="386.539,158.03 390.99,150.662 399.4,152.477 394.949,159.84 	"/>
	<path d="M555.49,104.01h-1.641v-6.204c-0.6,0.563-1.311,0.98-2.119,1.25v-1.5c0.42-0.135,0.889-0.401,1.389-0.796
		c0.512-0.396,0.861-0.855,1.041-1.375h1.33V104.01L555.49,104.01z M558.311,104.01v-1.641h1.648v1.641H558.311L558.311,104.01z
		 M561.641,104.01v-1.641h1.66v1.641H561.641L561.641,104.01z M568.83,104.01h-1.641v-6.204c-0.6,0.563-1.309,0.98-2.119,1.25v-1.5
		c0.43-0.135,0.889-0.401,1.389-0.796c0.512-0.396,0.861-0.855,1.051-1.375h1.32V104.01L568.83,104.01z"/>
	<path d="M575.869,92.203l1.291-6.219h1.061L578.01,87c0.391-0.438,0.75-0.74,1.061-0.907c0.311-0.166,0.65-0.25,1.01-0.25
		c0.391,0,0.709,0.105,0.971,0.313c0.26,0.198,0.439,0.479,0.52,0.844c0.309-0.386,0.639-0.672,0.98-0.86
		c0.359-0.198,0.729-0.297,1.109-0.297c0.52,0,0.91,0.125,1.17,0.375c0.26,0.24,0.391,0.584,0.391,1.032
		c0,0.188-0.041,0.5-0.141,0.938l-0.82,4.016h-1.07l0.861-4.11c0.078-0.343,0.109-0.583,0.109-0.718c0-0.209-0.07-0.37-0.201-0.485
		c-0.129-0.114-0.299-0.172-0.529-0.172c-0.32,0-0.65,0.094-0.99,0.282c-0.32,0.188-0.57,0.438-0.76,0.75
		c-0.18,0.312-0.34,0.791-0.471,1.437l-0.629,3.016h-1.061L580.4,88c0.059-0.282,0.09-0.485,0.09-0.61
		c0-0.198-0.061-0.359-0.189-0.484c-0.121-0.125-0.291-0.188-0.5-0.188c-0.301,0-0.621,0.094-0.951,0.282
		c-0.32,0.188-0.59,0.453-0.799,0.797c-0.211,0.343-0.381,0.833-0.512,1.468l-0.609,2.938H575.869L575.869,92.203z M590.439,90.093
		l1.031,0.094c-0.141,0.511-0.49,1-1.031,1.469c-0.529,0.458-1.16,0.687-1.889,0.687c-0.471,0-0.9-0.104-1.281-0.312
		c-0.389-0.219-0.68-0.531-0.879-0.938c-0.201-0.406-0.291-0.869-0.291-1.39c0-0.677,0.15-1.334,0.461-1.969
		c0.32-0.646,0.719-1.12,1.219-1.422c0.5-0.313,1.051-0.469,1.631-0.469c0.74,0,1.33,0.23,1.76,0.688
		c0.449,0.458,0.68,1.088,0.68,1.891c0,0.302-0.029,0.614-0.08,0.937h-4.58c-0.02,0.115-0.029,0.224-0.029,0.328
		c0,0.583,0.129,1.026,0.4,1.328c0.279,0.302,0.6,0.453,0.99,0.453c0.359,0,0.719-0.114,1.059-0.343
		C589.971,90.885,590.24,90.541,590.439,90.093L590.439,90.093z M587.359,88.547h3.49c0.01-0.115,0.01-0.193,0.01-0.235
		c0-0.531-0.129-0.938-0.4-1.219c-0.27-0.281-0.6-0.421-1.02-0.421c-0.459,0-0.879,0.156-1.25,0.468
		C587.811,87.453,587.539,87.922,587.359,88.547L587.359,88.547z M592.539,92.203l1.291-6.219h1.061L594.68,87
		c0.391-0.438,0.75-0.74,1.061-0.907c0.311-0.166,0.65-0.25,1.01-0.25c0.391,0,0.709,0.105,0.971,0.313
		c0.26,0.198,0.439,0.479,0.52,0.844c0.311-0.386,0.641-0.672,0.98-0.86c0.359-0.198,0.729-0.297,1.109-0.297
		c0.52,0,0.91,0.125,1.17,0.375c0.26,0.24,0.391,0.584,0.391,1.032c0,0.188-0.041,0.5-0.141,0.938l-0.82,4.016h-1.07l0.861-4.11
		c0.08-0.343,0.109-0.583,0.109-0.718c0-0.209-0.07-0.37-0.201-0.485c-0.129-0.114-0.299-0.172-0.529-0.172
		c-0.33,0-0.65,0.094-0.99,0.282c-0.32,0.188-0.57,0.438-0.76,0.75c-0.18,0.312-0.34,0.791-0.469,1.437l-0.631,3.016h-1.061
		L597.07,88c0.061-0.282,0.09-0.485,0.09-0.61c0-0.198-0.061-0.359-0.189-0.484c-0.121-0.125-0.291-0.188-0.5-0.188
		c-0.301,0-0.621,0.094-0.951,0.282c-0.32,0.188-0.59,0.453-0.799,0.797c-0.211,0.343-0.381,0.833-0.512,1.468l-0.609,2.938H592.539
		L592.539,92.203z M602.551,92.203l1.779-8.594h1.061l-0.641,3.078c0.34-0.313,0.65-0.531,0.92-0.656s0.561-0.188,0.859-0.188
		c0.57,0,1.051,0.219,1.441,0.657c0.389,0.427,0.59,1.052,0.59,1.875c0,0.552-0.08,1.057-0.23,1.515
		c-0.16,0.459-0.35,0.844-0.58,1.157c-0.23,0.312-0.471,0.562-0.721,0.75c-0.24,0.177-0.49,0.312-0.75,0.406
		c-0.26,0.094-0.51,0.14-0.75,0.14c-0.4,0-0.76-0.109-1.08-0.328c-0.309-0.218-0.549-0.547-0.729-0.984l-0.25,1.172H602.551
		L602.551,92.203z M604.109,89.64v0.203c0,0.532,0.121,0.938,0.371,1.219c0.25,0.271,0.57,0.406,0.959,0.406
		c0.361,0,0.701-0.125,1.01-0.375c0.32-0.26,0.57-0.666,0.771-1.218c0.199-0.552,0.299-1.063,0.299-1.532
		c0-0.52-0.129-0.927-0.379-1.218c-0.25-0.292-0.561-0.438-0.941-0.438c-0.369,0-0.719,0.151-1.039,0.453
		c-0.33,0.292-0.6,0.745-0.82,1.36C604.189,88.958,604.109,89.338,604.109,89.64L604.109,89.64z M613.779,90.093l1.031,0.094
		c-0.141,0.511-0.48,1-1.031,1.469c-0.529,0.458-1.16,0.687-1.889,0.687c-0.471,0-0.891-0.104-1.281-0.312
		c-0.379-0.219-0.68-0.531-0.869-0.938c-0.201-0.406-0.301-0.869-0.301-1.39c0-0.677,0.16-1.334,0.471-1.969
		c0.311-0.646,0.721-1.12,1.219-1.422c0.502-0.313,1.041-0.469,1.621-0.469c0.74,0,1.33,0.23,1.77,0.688
		c0.451,0.458,0.67,1.088,0.67,1.891c0,0.302-0.029,0.614-0.08,0.937h-4.58c-0.02,0.115-0.029,0.224-0.029,0.328
		c0,0.583,0.141,1.026,0.41,1.328c0.27,0.302,0.6,0.453,0.98,0.453c0.369,0,0.719-0.114,1.068-0.343
		C613.311,90.885,613.59,90.541,613.779,90.093L613.779,90.093z M610.709,88.547h3.48c0.01-0.115,0.02-0.193,0.02-0.235
		c0-0.531-0.139-0.938-0.408-1.219c-0.262-0.281-0.602-0.421-1.021-0.421c-0.449,0-0.869,0.156-1.25,0.468
		C611.16,87.453,610.881,87.922,610.709,88.547L610.709,88.547z M615.891,92.203l1.299-6.219h0.941l-0.271,1.266
		c0.33-0.479,0.641-0.834,0.941-1.063c0.309-0.229,0.629-0.344,0.939-0.344c0.219,0,0.48,0.073,0.779,0.219l-0.439,0.985
		c-0.17-0.125-0.371-0.188-0.59-0.188c-0.381,0-0.76,0.208-1.16,0.625c-0.381,0.406-0.689,1.146-0.9,2.219l-0.539,2.5H615.891
		L615.891,92.203z"/>
	<line fill="none" stroke="#000000" stroke-miterlimit="1.45" x1="355.9" y1="234.4" x2="355.9" y2="184.521"/>
	<polygon points="355.9,241.4 350.9,234.4 355.9,227.4 360.9,234.4 	"/>
	<path d="M336.6,208.7h-1.64v-6.21c-0.6,0.57-1.31,0.98-2.12,1.25v-1.5c0.42-0.13,0.89-0.4,1.39-0.79
		c0.51-0.399,0.86-0.86,1.04-1.38h1.33V208.7L336.6,208.7z M339.42,208.7v-1.64h1.65v1.64H339.42L339.42,208.7z M342.75,208.7v-1.64
		h1.66v1.64H342.75L342.75,208.7z M349.94,208.7h-1.64v-6.21c-0.6,0.57-1.31,0.98-2.12,1.25v-1.5c0.42-0.13,0.89-0.4,1.39-0.79
		c0.51-0.399,0.86-0.86,1.05-1.38h1.32V208.7L349.94,208.7z"/>
	<path d="M360.289,208.7l1.301-6.22h1.061l-0.221,1.01c0.4-0.43,0.75-0.74,1.061-0.9c0.311-0.17,0.65-0.25,1.02-0.25
		c0.381,0,0.711,0.101,0.971,0.311c0.26,0.2,0.43,0.479,0.51,0.84c0.311-0.38,0.641-0.67,0.99-0.86
		c0.35-0.189,0.719-0.29,1.109-0.29c0.52,0,0.91,0.12,1.17,0.37c0.26,0.24,0.391,0.591,0.391,1.03c0,0.19-0.051,0.5-0.141,0.94
		l-0.83,4.02h-1.061l0.861-4.11c0.07-0.35,0.109-0.59,0.109-0.72c0-0.21-0.07-0.37-0.209-0.49c-0.121-0.109-0.301-0.17-0.531-0.17
		c-0.32,0-0.65,0.101-0.98,0.28c-0.33,0.19-0.58,0.44-0.77,0.75c-0.18,0.32-0.33,0.8-0.469,1.44l-0.621,3.02h-1.061l0.871-4.21
		c0.061-0.28,0.09-0.48,0.09-0.61c0-0.189-0.061-0.35-0.18-0.479c-0.131-0.12-0.301-0.19-0.5-0.19c-0.311,0-0.621,0.101-0.961,0.28
		c-0.32,0.19-0.59,0.46-0.789,0.8c-0.211,0.34-0.381,0.83-0.521,1.47l-0.609,2.94H360.289L360.289,208.7z M374.859,206.59
		l1.031,0.091c-0.141,0.51-0.49,1-1.031,1.47c-0.529,0.46-1.16,0.689-1.889,0.689c-0.471,0-0.891-0.109-1.281-0.31
		c-0.379-0.22-0.68-0.54-0.869-0.94c-0.201-0.409-0.301-0.87-0.301-1.39c0-0.68,0.16-1.34,0.471-1.97
		c0.311-0.65,0.719-1.12,1.219-1.42c0.5-0.32,1.041-0.471,1.621-0.471c0.74,0,1.33,0.23,1.77,0.69c0.451,0.45,0.67,1.08,0.67,1.89
		c0,0.3-0.029,0.61-0.08,0.931h-4.58c-0.02,0.119-0.029,0.229-0.029,0.33c0,0.59,0.141,1.029,0.41,1.329
		c0.27,0.301,0.6,0.45,0.98,0.45c0.369,0,0.719-0.109,1.068-0.34C374.391,207.38,374.67,207.04,374.859,206.59L374.859,206.59z
		 M371.789,205.04h3.48c0.01-0.109,0.02-0.189,0.02-0.229c0-0.53-0.139-0.94-0.408-1.221c-0.262-0.279-0.602-0.42-1.021-0.42
		c-0.459,0-0.869,0.15-1.25,0.46C372.24,203.95,371.959,204.42,371.789,205.04L371.789,205.04z M376.959,208.7l1.301-6.22h1.061
		l-0.221,1.01c0.4-0.43,0.75-0.74,1.061-0.9c0.311-0.17,0.65-0.25,1.02-0.25c0.381,0,0.711,0.101,0.971,0.311
		c0.26,0.2,0.43,0.479,0.51,0.84c0.311-0.38,0.641-0.67,0.99-0.86c0.35-0.189,0.719-0.29,1.109-0.29c0.52,0,0.91,0.12,1.17,0.37
		c0.26,0.24,0.391,0.591,0.391,1.03c0,0.19-0.051,0.5-0.141,0.94l-0.83,4.02h-1.061l0.861-4.11c0.07-0.35,0.109-0.59,0.109-0.72
		c0-0.21-0.07-0.37-0.209-0.49c-0.121-0.109-0.301-0.17-0.531-0.17c-0.32,0-0.65,0.101-0.98,0.28c-0.33,0.19-0.58,0.44-0.77,0.75
		c-0.18,0.32-0.33,0.8-0.469,1.44l-0.621,3.02h-1.061l0.871-4.21c0.061-0.28,0.09-0.48,0.09-0.61c0-0.189-0.061-0.35-0.18-0.479
		c-0.131-0.12-0.301-0.19-0.5-0.19c-0.311,0-0.621,0.101-0.961,0.28c-0.32,0.19-0.59,0.46-0.789,0.8
		c-0.211,0.34-0.381,0.83-0.52,1.47l-0.611,2.94H376.959L376.959,208.7z M386.971,208.7l1.779-8.6h1.061l-0.641,3.08
		c0.35-0.311,0.65-0.53,0.93-0.65c0.27-0.13,0.551-0.19,0.85-0.19c0.58,0,1.061,0.221,1.441,0.65c0.398,0.43,0.6,1.061,0.6,1.88
		c0,0.55-0.08,1.061-0.24,1.51c-0.15,0.46-0.35,0.851-0.58,1.16c-0.23,0.311-0.471,0.561-0.721,0.75
		c-0.229,0.18-0.479,0.311-0.75,0.41c-0.26,0.09-0.51,0.14-0.75,0.14c-0.398,0-0.76-0.109-1.068-0.33
		c-0.32-0.22-0.561-0.55-0.74-0.979l-0.25,1.17H386.971L386.971,208.7z M388.529,206.13v0.21c0,0.53,0.131,0.94,0.381,1.221
		c0.25,0.27,0.57,0.399,0.949,0.399c0.371,0,0.701-0.12,1.021-0.37c0.309-0.26,0.559-0.67,0.76-1.22
		c0.199-0.55,0.299-1.06,0.299-1.53c0-0.52-0.129-0.93-0.379-1.22s-0.561-0.439-0.93-0.439c-0.381,0-0.73,0.149-1.051,0.449
		c-0.32,0.301-0.59,0.75-0.811,1.36C388.609,205.45,388.529,205.83,388.529,206.13L388.529,206.13z M398.209,206.59l1.031,0.091
		c-0.15,0.51-0.49,1-1.031,1.47c-0.529,0.46-1.158,0.689-1.889,0.689c-0.471,0-0.9-0.109-1.281-0.31
		c-0.389-0.22-0.68-0.54-0.879-0.94c-0.201-0.409-0.301-0.87-0.301-1.39c0-0.68,0.16-1.34,0.471-1.97
		c0.311-0.65,0.721-1.12,1.221-1.42c0.5-0.32,1.039-0.471,1.629-0.471c0.74,0,1.32,0.23,1.76,0.69c0.451,0.45,0.67,1.08,0.67,1.89
		c0,0.3-0.02,0.61-0.07,0.931h-4.58c-0.02,0.119-0.029,0.229-0.029,0.33c0,0.59,0.131,1.029,0.4,1.329
		c0.27,0.301,0.6,0.45,0.99,0.45c0.359,0,0.719-0.109,1.061-0.34C397.73,207.38,398.01,207.04,398.209,206.59L398.209,206.59z
		 M395.131,205.04h3.479c0.01-0.109,0.021-0.189,0.021-0.229c0-0.53-0.141-0.94-0.41-1.221c-0.262-0.279-0.602-0.42-1.012-0.42
		c-0.459,0-0.879,0.15-1.25,0.46C395.58,203.95,395.311,204.42,395.131,205.04L395.131,205.04z M400.32,208.7l1.299-6.22h0.932
		l-0.262,1.26c0.32-0.47,0.631-0.83,0.932-1.06c0.318-0.23,0.629-0.341,0.939-0.341c0.221,0,0.48,0.07,0.779,0.221l-0.43,0.979
		c-0.18-0.12-0.379-0.189-0.6-0.189c-0.371,0-0.76,0.21-1.15,0.63c-0.391,0.399-0.689,1.14-0.91,2.22l-0.529,2.5H400.32
		L400.32,208.7z"/>
</g>
</svg>
