<?xml version="1.0" encoding="utf-8"?>
<!-- Generator: Adobe Illustrator 16.0.0, SVG Export Plug-In . SVG Version: 6.00 Build 0)  -->
<!DOCTYPE svg PUBLIC "-//W3C//DTD SVG 1.1//EN" "http://www.w3.org/Graphics/SVG/1.1/DTD/svg11.dtd">
<svg version="1.1" id="Layer_1" xmlns="http://www.w3.org/2000/svg" xmlns:xlink="http://www.w3.org/1999/xlink" x="0px" y="0px"
	 width="684px" height="504px" viewBox="0 0 684 504" enable-background="new 0 0 684 504" xml:space="preserve">
<g>
	<image overflow="visible" width="86" height="106" xlink:href="285E1924.jpg"  transform="matrix(1 0 0 1 9.6255 135.0454)">
	</image>
	
		<image overflow="visible" width="441" height="343" xlink:href="285E1925.jpg"  transform="matrix(0.5692 0 0 0.5685 212.9937 89.791)">
	</image>
	<image overflow="visible" width="90" height="107" xlink:href="285E192C.jpg"  transform="matrix(1 0 0 1 584.3745 347.7715)">
	</image>
	<path fill="#FFFFFF" d="M33.845,18.999v19.326c0,2.209,1.791,4,4,4h29.116c2.209,0,4-1.791,4-4V18.999c0-2.209-1.791-4-4-4H37.845
		C35.636,14.999,33.845,16.79,33.845,18.999L33.845,18.999z"/>
	<path fill="none" stroke="#000000" stroke-miterlimit="1.45" d="M33.845,18.999v19.326c0,2.209,1.791,4,4,4h29.116
		c2.209,0,4-1.791,4-4V18.999c0-2.209-1.791-4-4-4H37.845C35.636,14.999,33.845,16.79,33.845,18.999L33.845,18.999z"/>
	<path d="M39.92,24.782h1.734v4.657c0,0.739,0.021,1.218,0.063,1.437c0.072,0.354,0.25,0.636,0.53,0.844
		c0.281,0.208,0.667,0.312,1.156,0.312c0.49,0,0.86-0.099,1.11-0.296c0.25-0.198,0.4-0.443,0.453-0.735
		c0.052-0.291,0.077-0.781,0.077-1.469v-4.75h1.734v4.516c0,1.031-0.046,1.76-0.14,2.188c-0.095,0.427-0.269,0.786-0.524,1.078
		c-0.255,0.291-0.593,0.523-1.015,0.695s-0.973,0.258-1.649,0.258c-0.823,0-1.444-0.094-1.867-0.281
		c-0.422-0.188-0.755-0.433-1-0.735c-0.244-0.302-0.408-0.62-0.491-0.953c-0.115-0.49-0.173-1.219-0.173-2.187V24.782L39.92,24.782z
		 M48.009,31.595l1.655-0.25c0.073,0.323,0.217,0.568,0.431,0.734c0.213,0.167,0.513,0.25,0.897,0.25
		c0.427,0,0.745-0.078,0.953-0.234c0.146-0.115,0.219-0.26,0.219-0.438c0-0.125-0.036-0.229-0.108-0.312
		c-0.084-0.083-0.267-0.156-0.547-0.219c-1.333-0.291-2.178-0.557-2.531-0.797c-0.49-0.343-0.735-0.812-0.735-1.406
		c0-0.542,0.211-0.995,0.633-1.359c0.423-0.365,1.081-0.547,1.978-0.547c0.854,0,1.489,0.138,1.906,0.414s0.702,0.685,0.858,1.226
		l-1.562,0.282c-0.063-0.24-0.188-0.425-0.375-0.555c-0.188-0.13-0.453-0.195-0.797-0.195c-0.428,0-0.734,0.062-0.923,0.187
		c-0.124,0.084-0.187,0.193-0.187,0.328c0,0.125,0.052,0.229,0.156,0.313c0.146,0.104,0.659,0.255,1.539,0.453
		c0.88,0.198,1.491,0.443,1.836,0.734c0.344,0.292,0.515,0.698,0.515,1.219c0,0.573-0.237,1.065-0.71,1.477
		c-0.474,0.411-1.18,0.617-2.118,0.617c-0.843,0-1.513-0.172-2.007-0.516C48.491,32.657,48.165,32.189,48.009,31.595L48.009,31.595z
		 M58.87,31.393l1.642,0.281c-0.208,0.604-0.542,1.063-1,1.375c-0.458,0.313-1.026,0.469-1.703,0.469
		c-1.084,0-1.886-0.354-2.406-1.063c-0.417-0.562-0.625-1.276-0.625-2.14c0-1.032,0.27-1.839,0.812-2.422
		c0.543-0.583,1.225-0.875,2.048-0.875c0.927,0,1.658,0.305,2.194,0.914c0.537,0.609,0.789,1.544,0.759,2.805h-4.125
		c0.021,0.489,0.155,0.869,0.405,1.14s0.568,0.406,0.953,0.406c0.25,0,0.464-0.07,0.641-0.21
		C58.641,31.931,58.777,31.704,58.87,31.393L58.87,31.393z M58.963,29.736c-0.01-0.48-0.133-0.844-0.366-1.094
		c-0.235-0.25-0.524-0.375-0.867-0.375c-0.355,0-0.651,0.13-0.891,0.39c-0.229,0.271-0.345,0.631-0.345,1.079H58.963L58.963,29.736z
		 M63.513,33.376h-1.642v-6.219h1.531v0.875c0.261-0.416,0.495-0.69,0.704-0.82c0.208-0.13,0.442-0.195,0.703-0.195
		c0.375,0,0.739,0.104,1.093,0.312l-0.515,1.422c-0.281-0.177-0.537-0.265-0.767-0.265c-0.238,0-0.437,0.065-0.594,0.195
		c-0.156,0.13-0.281,0.359-0.375,0.687c-0.093,0.329-0.14,1.024-0.14,2.086V33.376L63.513,33.376z"/>
	<path fill="#FFFFFF" d="M321.221,18.999v19.326c0,2.209,1.791,4,4,4h29.116c2.209,0,4-1.791,4-4V18.999c0-2.209-1.791-4-4-4
		h-29.116C323.012,14.999,321.221,16.79,321.221,18.999L321.221,18.999z"/>
	<path fill="none" stroke="#000000" stroke-miterlimit="1.45" d="M321.221,18.999v19.326c0,2.209,1.791,4,4,4h29.116
		c2.209,0,4-1.791,4-4V18.999c0-2.209-1.791-4-4-4h-29.116C323.012,14.999,321.221,16.79,321.221,18.999L321.221,18.999z"/>
	<path d="M333.987,30.22v-1.453h3.735v3.422c-0.365,0.354-0.892,0.664-1.578,0.929c-0.688,0.266-1.386,0.399-2.094,0.399
		c-0.896,0-1.681-0.188-2.353-0.563s-1.174-0.914-1.507-1.617c-0.334-0.703-0.5-1.466-0.5-2.289c0-0.896,0.187-1.69,0.562-2.383
		c0.375-0.692,0.923-1.226,1.642-1.601c0.552-0.282,1.239-0.422,2.062-0.422c1.063,0,1.894,0.224,2.492,0.672
		c0.599,0.448,0.987,1.062,1.164,1.843l-1.718,0.329c-0.125-0.417-0.355-0.748-0.688-0.993c-0.333-0.244-0.75-0.367-1.25-0.367
		c-0.76,0-1.363,0.24-1.812,0.719s-0.672,1.193-0.672,2.141c0,1.02,0.226,1.783,0.679,2.289c0.454,0.505,1.05,0.757,1.79,0.757
		c0.364,0,0.729-0.07,1.093-0.21c0.365-0.141,0.677-0.31,0.938-0.508V30.22H333.987L333.987,30.22z M339.306,24.782h1.733v4.657
		c0,0.739,0.021,1.218,0.063,1.437c0.073,0.354,0.25,0.636,0.531,0.844s0.666,0.312,1.156,0.312c0.488,0,0.859-0.099,1.109-0.296
		c0.25-0.198,0.4-0.443,0.453-0.735c0.051-0.291,0.078-0.781,0.078-1.469v-4.75h1.734v4.516c0,1.031-0.049,1.76-0.141,2.188
		c-0.094,0.427-0.27,0.786-0.523,1.078c-0.256,0.291-0.596,0.523-1.018,0.695c-0.42,0.172-0.971,0.258-1.646,0.258
		c-0.824,0-1.445-0.094-1.867-0.281c-0.422-0.188-0.755-0.433-1-0.735c-0.245-0.302-0.409-0.62-0.492-0.953
		c-0.115-0.49-0.172-1.219-0.172-2.187V24.782L339.306,24.782z M347.941,33.376v-8.594h1.734v8.594H347.941L347.941,33.376z"/>
	<path fill="#FFFFFF" d="M596.583,14.999v27.326c0,2.209,1.791,4,4,4h57.119c2.211,0,4-1.791,4-4V14.999c0-2.209-1.789-4-4-4
		h-57.119C598.375,10.999,596.583,12.79,596.583,14.999L596.583,14.999z"/>
	<path fill="none" stroke="#000000" stroke-miterlimit="1.45" d="M596.583,14.999v27.326c0,2.209,1.791,4,4,4h57.119
		c2.211,0,4-1.791,4-4V14.999c0-2.209-1.789-4-4-4h-57.119C598.375,10.999,596.583,12.79,596.583,14.999L596.583,14.999z"/>
	<path d="M601.003,26.026v-8.594h2.779c1.051,0,1.74,0.042,2.061,0.125c0.49,0.135,0.9,0.419,1.24,0.851
		c0.33,0.433,0.5,0.987,0.5,1.664c0,0.532-0.1,0.977-0.289,1.336c-0.191,0.36-0.441,0.641-0.73,0.844
		c-0.291,0.203-0.59,0.341-0.9,0.414c-0.41,0.084-1.01,0.125-1.801,0.125h-1.129v3.235H601.003L601.003,26.026z M602.734,18.885
		v2.437h0.959c0.67,0,1.131-0.044,1.361-0.132c0.24-0.089,0.42-0.229,0.549-0.422c0.131-0.193,0.201-0.414,0.201-0.664
		c0-0.313-0.102-0.571-0.281-0.774c-0.189-0.203-0.43-0.33-0.709-0.383c-0.201-0.041-0.611-0.062-1.23-0.062H602.734L602.734,18.885
		z M612.603,24.041l1.641,0.281c-0.211,0.605-0.541,1.063-1,1.375c-0.461,0.313-1.029,0.469-1.699,0.469
		c-1.092,0-1.891-0.354-2.41-1.062c-0.42-0.563-0.631-1.276-0.631-2.141c0-1.031,0.27-1.838,0.82-2.422
		c0.539-0.583,1.221-0.875,2.039-0.875c0.932,0,1.66,0.305,2.201,0.914c0.539,0.61,0.789,1.545,0.76,2.805h-4.131
		c0.021,0.49,0.16,0.87,0.41,1.141c0.25,0.27,0.57,0.406,0.951,0.406c0.25,0,0.459-0.07,0.639-0.211
		C612.375,24.58,612.503,24.354,612.603,24.041L612.603,24.041z M612.693,22.385c-0.01-0.479-0.129-0.844-0.369-1.094
		c-0.23-0.25-0.52-0.375-0.859-0.375c-0.361,0-0.65,0.13-0.891,0.391c-0.23,0.271-0.35,0.63-0.35,1.078H612.693L612.693,22.385z
		 M617.244,26.026h-1.641v-6.219h1.531v0.875c0.26-0.417,0.5-0.69,0.699-0.82c0.211-0.131,0.449-0.196,0.711-0.196
		c0.369,0,0.738,0.104,1.09,0.313l-0.51,1.422c-0.291-0.177-0.541-0.266-0.771-0.266c-0.24,0-0.439,0.065-0.59,0.195
		c-0.16,0.131-0.289,0.36-0.379,0.688c-0.09,0.328-0.141,1.023-0.141,2.086V26.026L617.244,26.026z M619.753,24.244l1.66-0.25
		c0.07,0.323,0.221,0.568,0.43,0.735c0.211,0.166,0.51,0.25,0.9,0.25c0.43,0,0.74-0.078,0.949-0.235
		c0.15-0.114,0.221-0.26,0.221-0.437c0-0.125-0.039-0.229-0.109-0.313c-0.08-0.083-0.26-0.156-0.551-0.218
		c-1.33-0.292-2.17-0.558-2.529-0.797c-0.49-0.344-0.73-0.813-0.73-1.407c0-0.541,0.209-0.994,0.631-1.359
		c0.42-0.364,1.078-0.547,1.979-0.547c0.85,0,1.49,0.138,1.9,0.414c0.42,0.276,0.711,0.685,0.859,1.227l-1.559,0.281
		c-0.061-0.239-0.191-0.424-0.371-0.555c-0.189-0.13-0.459-0.195-0.799-0.195c-0.432,0-0.74,0.063-0.92,0.188
		c-0.131,0.083-0.191,0.192-0.191,0.328c0,0.125,0.051,0.229,0.16,0.312c0.141,0.104,0.65,0.255,1.531,0.453
		c0.889,0.198,1.5,0.443,1.84,0.735c0.34,0.291,0.52,0.698,0.52,1.218c0,0.573-0.24,1.066-0.711,1.477
		c-0.479,0.412-1.18,0.617-2.119,0.617c-0.85,0-1.51-0.172-2.01-0.515C620.244,25.307,619.914,24.838,619.753,24.244L619.753,24.244
		z M627.013,18.963v-1.531h1.65v1.531H627.013L627.013,18.963z M627.013,26.026v-6.219h1.65v6.219H627.013L627.013,26.026z
		 M629.763,24.244l1.66-0.25c0.07,0.323,0.211,0.568,0.43,0.735c0.211,0.166,0.51,0.25,0.9,0.25c0.42,0,0.74-0.078,0.949-0.235
		c0.15-0.114,0.221-0.26,0.221-0.437c0-0.125-0.039-0.229-0.109-0.313c-0.08-0.083-0.27-0.156-0.551-0.218
		c-1.33-0.292-2.18-0.558-2.529-0.797c-0.49-0.344-0.73-0.813-0.73-1.407c0-0.541,0.211-0.994,0.631-1.359
		c0.42-0.364,1.08-0.547,1.979-0.547c0.852,0,1.49,0.138,1.9,0.414c0.42,0.276,0.701,0.685,0.861,1.227l-1.561,0.281
		c-0.061-0.239-0.189-0.424-0.381-0.555c-0.18-0.13-0.449-0.195-0.789-0.195c-0.43,0-0.74,0.063-0.93,0.188
		c-0.121,0.083-0.182,0.192-0.182,0.328c0,0.125,0.051,0.229,0.15,0.312c0.15,0.104,0.66,0.255,1.541,0.453
		c0.879,0.198,1.49,0.443,1.84,0.735c0.34,0.291,0.51,0.698,0.51,1.218c0,0.573-0.23,1.066-0.711,1.477
		c-0.469,0.412-1.18,0.617-2.109,0.617c-0.85,0-1.52-0.172-2.01-0.515C630.244,25.307,629.923,24.838,629.763,24.244L629.763,24.244
		z M639.875,19.807v1.312h-1.121v2.5c0,0.511,0.01,0.808,0.029,0.891c0.021,0.083,0.07,0.154,0.15,0.211s0.17,0.086,0.27,0.086
		c0.16,0,0.381-0.057,0.66-0.172l0.141,1.281c-0.379,0.167-0.811,0.25-1.301,0.25c-0.289,0-0.559-0.049-0.799-0.148
		c-0.24-0.099-0.41-0.229-0.52-0.391c-0.111-0.161-0.191-0.372-0.24-0.633c-0.031-0.198-0.051-0.588-0.051-1.172v-2.703h-0.75
		v-1.312h0.75v-1.235l1.66-0.968v2.203H639.875L639.875,19.807z M644.625,24.041l1.639,0.281c-0.209,0.605-0.539,1.063-1,1.375
		c-0.459,0.313-1.029,0.469-1.699,0.469c-1.09,0-1.891-0.354-2.41-1.062c-0.42-0.563-0.621-1.276-0.621-2.141
		c0-1.031,0.271-1.838,0.811-2.422c0.541-0.583,1.221-0.875,2.041-0.875c0.93,0,1.66,0.305,2.199,0.914
		c0.541,0.61,0.791,1.545,0.76,2.805h-4.129c0.02,0.49,0.16,0.87,0.41,1.141c0.25,0.27,0.568,0.406,0.949,0.406
		c0.25,0,0.471-0.07,0.641-0.211C644.394,24.58,644.533,24.354,644.625,24.041L644.625,24.041z M644.714,22.385
		c-0.012-0.479-0.131-0.844-0.361-1.094c-0.24-0.25-0.529-0.375-0.869-0.375c-0.359,0-0.65,0.13-0.891,0.391
		c-0.23,0.271-0.35,0.63-0.35,1.078H644.714L644.714,22.385z M653.343,26.026h-1.641v-3.172c0-0.677-0.029-1.115-0.1-1.313
		c-0.07-0.198-0.18-0.351-0.35-0.461c-0.16-0.109-0.35-0.164-0.57-0.164c-0.289,0-0.549,0.078-0.77,0.235
		c-0.221,0.156-0.381,0.364-0.461,0.625c-0.078,0.26-0.129,0.739-0.129,1.437v2.813h-1.65v-6.219h1.529v0.906
		c0.541-0.698,1.23-1.047,2.061-1.047c0.361,0,0.68,0.065,0.99,0.196c0.301,0.13,0.529,0.296,0.68,0.5
		c0.16,0.203,0.27,0.432,0.32,0.687c0.061,0.255,0.09,0.622,0.09,1.102V26.026L653.343,26.026z M657.875,19.807v1.312h-1.121v2.5
		c0,0.511,0.01,0.808,0.029,0.891c0.021,0.083,0.07,0.154,0.15,0.211s0.17,0.086,0.27,0.086c0.16,0,0.381-0.057,0.66-0.172
		l0.141,1.281c-0.379,0.167-0.811,0.25-1.301,0.25c-0.289,0-0.559-0.049-0.799-0.148c-0.24-0.099-0.41-0.229-0.52-0.391
		c-0.111-0.161-0.191-0.372-0.24-0.633c-0.031-0.198-0.051-0.588-0.051-1.172v-2.703h-0.75v-1.312h0.75v-1.235l1.66-0.968v2.203
		H657.875L657.875,19.807z"/>
	<path d="M607.244,37.93l1.68-0.156c0.109,0.562,0.311,0.976,0.621,1.242c0.309,0.265,0.729,0.398,1.26,0.398
		c0.549,0,0.969-0.117,1.26-0.351c0.279-0.235,0.43-0.513,0.43-0.836c0-0.198-0.061-0.37-0.18-0.516
		c-0.121-0.146-0.33-0.271-0.641-0.375c-0.189-0.073-0.65-0.198-1.369-0.375c-0.941-0.229-1.59-0.51-1.971-0.844
		c-0.52-0.479-0.779-1.057-0.779-1.734c0-0.437,0.119-0.846,0.369-1.227c0.24-0.38,0.6-0.669,1.07-0.867
		c0.471-0.198,1.029-0.297,1.68-0.297c1.09,0,1.9,0.237,2.439,0.711c0.541,0.474,0.83,1.102,0.861,1.883l-1.73,0.078
		c-0.08-0.437-0.24-0.752-0.48-0.945c-0.25-0.193-0.609-0.289-1.1-0.289c-0.5,0-0.9,0.104-1.189,0.312
		c-0.18,0.125-0.26,0.302-0.26,0.532c0,0.198,0.08,0.369,0.25,0.515c0.209,0.188,0.75,0.38,1.59,0.578
		c0.84,0.198,1.469,0.404,1.869,0.618c0.41,0.213,0.73,0.505,0.961,0.875c0.229,0.369,0.34,0.825,0.34,1.367
		c0,0.489-0.141,0.95-0.41,1.383c-0.281,0.432-0.67,0.752-1.17,0.961c-0.5,0.208-1.121,0.312-1.861,0.312
		c-1.09,0-1.93-0.253-2.5-0.758C607.703,39.62,607.353,38.888,607.244,37.93L607.244,37.93z M618.523,34.508v1.313h-1.119v2.5
		c0,0.51,0.01,0.807,0.029,0.89s0.07,0.154,0.15,0.211c0.07,0.057,0.17,0.086,0.27,0.086c0.16,0,0.371-0.057,0.66-0.172l0.141,1.281
		c-0.381,0.167-0.811,0.25-1.301,0.25c-0.289,0-0.559-0.049-0.799-0.148s-0.41-0.229-0.521-0.391
		c-0.109-0.161-0.189-0.372-0.238-0.632c-0.031-0.198-0.051-0.589-0.051-1.172v-2.703h-0.75v-1.313h0.75v-1.234l1.66-0.969v2.203
		H618.523L618.523,34.508z M619.283,37.524c0-0.542,0.141-1.071,0.41-1.586c0.271-0.516,0.65-0.907,1.141-1.172
		c0.49-0.266,1.041-0.399,1.66-0.399c0.93,0,1.699,0.305,2.311,0.914c0.6,0.61,0.91,1.383,0.91,2.321
		c0,0.937-0.311,1.716-0.92,2.336c-0.611,0.62-1.371,0.929-2.291,0.929c-0.57,0-1.119-0.13-1.629-0.39
		c-0.521-0.261-0.91-0.638-1.182-1.133C619.423,38.849,619.283,38.242,619.283,37.524L619.283,37.524z M620.974,37.617
		c0,0.615,0.15,1.086,0.439,1.414c0.289,0.329,0.65,0.493,1.08,0.493s0.801-0.164,1.08-0.493c0.289-0.328,0.43-0.804,0.43-1.429
		c0-0.604-0.141-1.071-0.43-1.399c-0.279-0.328-0.65-0.492-1.08-0.492s-0.791,0.164-1.08,0.492S620.974,37.003,620.974,37.617
		L620.974,37.617z M628.574,40.727h-1.641v-6.219h1.531v0.875c0.26-0.417,0.488-0.69,0.699-0.82c0.211-0.13,0.439-0.196,0.699-0.196
		c0.381,0,0.74,0.105,1.102,0.313l-0.521,1.422c-0.279-0.177-0.539-0.266-0.76-0.266c-0.24,0-0.439,0.065-0.6,0.195
		c-0.15,0.131-0.279,0.36-0.369,0.688c-0.102,0.328-0.141,1.023-0.141,2.086V40.727L628.574,40.727z M632.894,36.399l-1.5-0.266
		c0.17-0.604,0.459-1.049,0.869-1.336c0.41-0.286,1.02-0.43,1.84-0.43c0.721,0,1.271,0.086,1.631,0.258
		c0.359,0.172,0.609,0.391,0.76,0.656c0.141,0.266,0.221,0.758,0.221,1.477l-0.021,1.922c0,0.552,0.031,0.956,0.08,1.211
		c0.051,0.255,0.15,0.534,0.291,0.836h-1.621c-0.039-0.115-0.09-0.276-0.16-0.485c-0.029-0.104-0.049-0.171-0.059-0.203
		c-0.281,0.282-0.58,0.49-0.9,0.625c-0.32,0.136-0.66,0.203-1.02,0.203c-0.65,0-1.15-0.174-1.521-0.523
		c-0.369-0.349-0.559-0.789-0.559-1.32c0-0.355,0.09-0.667,0.26-0.938s0.41-0.482,0.709-0.633c0.301-0.151,0.74-0.278,1.311-0.382
		c0.76-0.146,1.291-0.282,1.6-0.407v-0.156c0-0.323-0.08-0.552-0.24-0.687c-0.148-0.136-0.449-0.204-0.889-0.204
		c-0.291,0-0.521,0.058-0.68,0.172C633.134,35.904,633.003,36.107,632.894,36.399L632.894,36.399z M635.103,37.742
		c-0.209,0.063-0.549,0.144-1,0.243c-0.459,0.099-0.76,0.195-0.91,0.289c-0.209,0.156-0.309,0.349-0.309,0.578
		s0.08,0.429,0.25,0.601c0.18,0.172,0.389,0.258,0.648,0.258c0.311,0,0.592-0.099,0.861-0.297c0.199-0.146,0.33-0.328,0.389-0.547
		c0.041-0.135,0.07-0.401,0.07-0.796V37.742L635.103,37.742z M638.183,41.133l1.891,0.234c0.029,0.219,0.1,0.37,0.221,0.454
		c0.148,0.114,0.398,0.171,0.729,0.171c0.43,0,0.75-0.062,0.971-0.187c0.141-0.094,0.25-0.234,0.33-0.422
		c0.051-0.135,0.07-0.385,0.07-0.75v-0.922c-0.5,0.677-1.121,1.016-1.871,1.016c-0.83,0-1.5-0.354-1.979-1.063
		c-0.381-0.562-0.57-1.255-0.57-2.078c0-1.052,0.25-1.851,0.75-2.398c0.5-0.547,1.129-0.821,1.879-0.821
		c0.76,0,1.391,0.339,1.891,1.016v-0.875h1.551v5.578c0,0.74-0.061,1.289-0.182,1.649c-0.119,0.359-0.289,0.643-0.51,0.851
		c-0.219,0.208-0.51,0.373-0.879,0.492c-0.361,0.12-0.83,0.18-1.391,0.18c-1.051,0-1.801-0.182-2.24-0.547
		c-0.439-0.364-0.66-0.823-0.66-1.375C638.183,41.284,638.183,41.216,638.183,41.133L638.183,41.133z M639.664,37.492
		c0,0.657,0.131,1.138,0.381,1.446c0.26,0.307,0.568,0.461,0.949,0.461c0.391,0,0.73-0.159,1.01-0.477
		c0.291-0.318,0.43-0.784,0.43-1.398c0-0.646-0.139-1.125-0.4-1.438c-0.27-0.312-0.6-0.469-1.01-0.469
		c-0.398,0-0.719,0.154-0.979,0.461C639.794,36.386,639.664,36.857,639.664,37.492L639.664,37.492z M649.273,38.742l1.641,0.282
		c-0.211,0.604-0.539,1.062-1,1.375c-0.461,0.312-1.02,0.468-1.699,0.468c-1.08,0-1.891-0.354-2.41-1.062
		c-0.41-0.563-0.621-1.276-0.621-2.141c0-1.031,0.27-1.838,0.811-2.422c0.539-0.583,1.221-0.875,2.051-0.875
		c0.92,0,1.658,0.305,2.189,0.914c0.539,0.61,0.789,1.545,0.76,2.805h-4.119c0.02,0.49,0.148,0.87,0.398,1.141
		s0.57,0.406,0.951,0.406c0.25,0,0.469-0.07,0.65-0.211C649.044,39.281,649.183,39.055,649.273,38.742L649.273,38.742z
		 M649.375,37.086c-0.021-0.479-0.141-0.844-0.371-1.094c-0.24-0.25-0.529-0.375-0.869-0.375c-0.352,0-0.65,0.131-0.891,0.391
		c-0.23,0.271-0.34,0.63-0.34,1.078H649.375L649.375,37.086z"/>
	<path fill="#FFFFFF" d="M176.806,313.653v19.328c0,2.21,1.791,4,4,4h29.115c2.21,0,4-1.79,4-4v-19.328c0-2.209-1.79-4-4-4h-29.115
		C178.597,309.653,176.806,311.444,176.806,313.653L176.806,313.653z"/>
	<path fill="none" stroke="#000000" stroke-width="3" stroke-miterlimit="1.45" stroke-dasharray="18,6" d="M176.806,313.653v19.328
		c0,2.21,1.791,4,4,4h29.115c2.21,0,4-1.79,4-4v-19.328c0-2.209-1.79-4-4-4h-29.115
		C178.597,309.653,176.806,311.444,176.806,313.653L176.806,313.653z"/>
	<path d="M183.206,328.031v-8.595h2.609l1.547,5.859l1.547-5.859h2.594v8.595h-1.609v-6.767l-1.703,6.767h-1.672l-1.688-6.767v6.767
		H183.206L183.206,328.031z M195.42,328.031l-3.063-8.595h1.875l2.172,6.359l2.11-6.359h1.843l-3.078,8.595H195.42L195.42,328.031z
		 M201.237,328.031v-8.595h2.781c1.052,0,1.74,0.042,2.063,0.125c0.489,0.136,0.901,0.419,1.234,0.852
		c0.334,0.433,0.5,0.987,0.5,1.664c0,0.531-0.096,0.977-0.289,1.336c-0.192,0.359-0.435,0.641-0.726,0.844
		c-0.292,0.203-0.595,0.342-0.907,0.414c-0.406,0.083-1.005,0.125-1.796,0.125h-1.125v3.235H201.237L201.237,328.031z
		 M202.972,320.89v2.438h0.953c0.677,0,1.132-0.044,1.366-0.133s0.417-0.229,0.547-0.422c0.131-0.193,0.195-0.414,0.195-0.664
		c0-0.313-0.094-0.57-0.281-0.773c-0.188-0.202-0.422-0.331-0.702-0.383c-0.198-0.042-0.61-0.063-1.235-0.063H202.972
		L202.972,320.89z"/>
	<path fill="#FFFFFF" d="M449.636,416.842v27.329c0,2.21,1.791,4,4,4h46.117c2.209,0,4-1.79,4-4v-27.329
		c0-2.211-1.791-4.001-4-4.001h-46.117C451.427,412.841,449.636,414.631,449.636,416.842L449.636,416.842z"/>
	<path fill="none" stroke="#000000" stroke-width="3" stroke-miterlimit="1.45" stroke-dasharray="18,6" d="M449.636,416.842v27.329
		c0,2.21,1.791,4,4,4h46.117c2.209,0,4-1.79,4-4v-27.329c0-2.211-1.791-4.001-4-4.001h-46.117
		C451.427,412.841,449.636,414.631,449.636,416.842L449.636,416.842z"/>
	<path d="M454.792,425.071l1.688-0.16c0.105,0.57,0.311,0.98,0.617,1.25c0.307,0.26,0.727,0.4,1.258,0.4
		c0.553,0,0.971-0.12,1.258-0.36c0.287-0.229,0.43-0.51,0.43-0.83c0-0.2-0.061-0.37-0.18-0.52c-0.119-0.141-0.33-0.271-0.633-0.37
		c-0.197-0.08-0.656-0.2-1.375-0.38c-0.938-0.23-1.594-0.51-1.969-0.84c-0.521-0.48-0.781-1.061-0.781-1.74
		c0-0.431,0.123-0.84,0.367-1.22c0.246-0.381,0.602-0.671,1.07-0.87c0.469-0.2,1.031-0.301,1.688-0.301
		c1.084,0,1.896,0.24,2.438,0.711c0.543,0.479,0.828,1.109,0.859,1.89l-1.734,0.08c-0.072-0.44-0.23-0.76-0.477-0.95
		c-0.244-0.19-0.611-0.29-1.102-0.29c-0.5,0-0.896,0.1-1.188,0.31c-0.176,0.131-0.266,0.311-0.266,0.53c0,0.2,0.084,0.37,0.25,0.521
		c0.219,0.189,0.75,0.38,1.594,0.58c0.844,0.199,1.469,0.399,1.875,0.619c0.406,0.21,0.725,0.5,0.953,0.87
		c0.23,0.37,0.344,0.83,0.344,1.37c0,0.49-0.137,0.95-0.414,1.38c-0.275,0.431-0.664,0.75-1.164,0.96s-1.119,0.311-1.859,0.311
		c-1.094,0-1.93-0.25-2.508-0.75C455.253,426.762,454.908,426.031,454.792,425.071L454.792,425.071z M466.078,421.651v1.31h-1.125
		v2.5c0,0.511,0.012,0.811,0.031,0.891c0.021,0.09,0.07,0.159,0.148,0.21c0.078,0.06,0.17,0.09,0.273,0.09
		c0.156,0,0.375-0.06,0.656-0.17l0.141,1.28c-0.375,0.159-0.807,0.249-1.297,0.249c-0.291,0-0.557-0.05-0.797-0.149
		s-0.414-0.23-0.523-0.39c-0.109-0.16-0.189-0.37-0.242-0.63c-0.031-0.2-0.047-0.591-0.047-1.181v-2.7h-0.75v-1.31h0.75v-1.24
		l1.656-0.96v2.2H466.078L466.078,421.651z M466.839,424.661c0-0.54,0.137-1.069,0.406-1.58c0.271-0.52,0.65-0.91,1.141-1.17
		c0.49-0.27,1.043-0.399,1.656-0.399c0.938,0,1.709,0.3,2.313,0.909c0.605,0.61,0.906,1.391,0.906,2.32
		c0,0.94-0.305,1.72-0.914,2.34s-1.371,0.93-2.289,0.93c-0.572,0-1.117-0.13-1.633-0.39s-0.908-0.64-1.18-1.14
		C466.976,425.991,466.839,425.381,466.839,424.661L466.839,424.661z M468.527,424.762c0,0.609,0.146,1.08,0.438,1.409
		c0.293,0.33,0.65,0.49,1.078,0.49c0.438,0,0.801-0.16,1.086-0.49c0.287-0.329,0.43-0.8,0.43-1.43c0-0.6-0.143-1.07-0.43-1.4
		c-0.285-0.319-0.648-0.489-1.086-0.489c-0.428,0-0.785,0.17-1.078,0.489C468.673,423.671,468.527,424.142,468.527,424.762
		L468.527,424.762z M476.123,427.871h-1.641v-6.22h1.531v0.87c0.26-0.41,0.496-0.69,0.703-0.82c0.209-0.13,0.443-0.189,0.703-0.189
		c0.375,0,0.74,0.1,1.094,0.31l-0.516,1.42c-0.281-0.17-0.535-0.26-0.766-0.26c-0.24,0-0.438,0.06-0.594,0.189
		c-0.156,0.131-0.281,0.36-0.375,0.69s-0.141,1.02-0.141,2.09V427.871L476.123,427.871z M480.449,423.541l-1.5-0.27
		c0.166-0.601,0.455-1.05,0.867-1.33c0.412-0.29,1.023-0.43,1.836-0.43c0.73,0,1.273,0.08,1.633,0.26
		c0.359,0.17,0.611,0.39,0.758,0.649c0.146,0.271,0.219,0.761,0.219,1.48l-0.016,1.92c0,0.55,0.025,0.96,0.078,1.21
		c0.053,0.26,0.152,0.54,0.297,0.84h-1.625c-0.041-0.12-0.094-0.279-0.156-0.49c-0.031-0.1-0.051-0.17-0.063-0.199
		c-0.281,0.279-0.58,0.489-0.898,0.63c-0.316,0.13-0.658,0.199-1.023,0.199c-0.645,0-1.154-0.18-1.523-0.529
		c-0.369-0.34-0.555-0.78-0.555-1.32c0-0.35,0.086-0.66,0.258-0.93c0.172-0.271,0.408-0.48,0.711-0.64
		c0.303-0.15,0.74-0.271,1.313-0.381c0.76-0.14,1.293-0.279,1.594-0.399v-0.16c0-0.32-0.078-0.55-0.234-0.69
		c-0.156-0.13-0.453-0.2-0.891-0.2c-0.291,0-0.518,0.061-0.68,0.171C480.687,423.041,480.554,423.251,480.449,423.541
		L480.449,423.541z M482.652,424.881c-0.209,0.07-0.541,0.15-1,0.25c-0.459,0.091-0.76,0.19-0.906,0.28
		c-0.207,0.16-0.313,0.35-0.313,0.58s0.086,0.43,0.258,0.601c0.172,0.18,0.389,0.26,0.648,0.26c0.303,0,0.59-0.101,0.859-0.29
		c0.197-0.15,0.328-0.33,0.391-0.55c0.043-0.141,0.063-0.4,0.063-0.801V424.881L482.652,424.881z M485.732,428.271l1.891,0.24
		c0.031,0.22,0.105,0.369,0.219,0.449c0.156,0.12,0.4,0.17,0.734,0.17c0.428,0,0.75-0.06,0.969-0.18
		c0.146-0.1,0.256-0.24,0.328-0.43c0.053-0.13,0.078-0.38,0.078-0.75v-0.92c-0.5,0.68-1.125,1.02-1.875,1.02
		c-0.834,0-1.494-0.359-1.984-1.06c-0.375-0.57-0.563-1.26-0.563-2.08c0-1.061,0.25-1.851,0.75-2.4s1.125-0.819,1.875-0.819
		c0.762,0,1.391,0.34,1.891,1.01v-0.87h1.547v5.58c0,0.74-0.061,1.29-0.18,1.649c-0.119,0.351-0.289,0.641-0.508,0.851
		s-0.51,0.37-0.875,0.49c-0.363,0.12-0.828,0.18-1.391,0.18c-1.051,0-1.799-0.18-2.242-0.55c-0.441-0.36-0.664-0.82-0.664-1.37
		C485.732,428.421,485.732,428.361,485.732,428.271L485.732,428.271z M487.216,424.631c0,0.66,0.129,1.141,0.383,1.45
		c0.256,0.311,0.57,0.46,0.945,0.46c0.396,0,0.734-0.16,1.016-0.479c0.281-0.311,0.422-0.78,0.422-1.4c0-0.64-0.133-1.12-0.398-1.43
		c-0.266-0.32-0.602-0.471-1.008-0.471c-0.395,0-0.721,0.15-0.977,0.461C487.345,423.531,487.216,424.001,487.216,424.631
		L487.216,424.631z M496.828,425.881l1.641,0.28c-0.207,0.61-0.541,1.07-1,1.38c-0.457,0.311-1.025,0.47-1.703,0.47
		c-1.082,0-1.885-0.359-2.406-1.06c-0.416-0.57-0.625-1.28-0.625-2.14c0-1.04,0.271-1.84,0.813-2.431
		c0.543-0.579,1.225-0.869,2.047-0.869c0.928,0,1.66,0.3,2.195,0.909c0.537,0.61,0.789,1.551,0.758,2.811h-4.125
		c0.021,0.49,0.156,0.87,0.406,1.14c0.25,0.271,0.568,0.4,0.953,0.4c0.25,0,0.465-0.07,0.641-0.21
		C496.599,426.421,496.734,426.201,496.828,425.881L496.828,425.881z M496.921,424.231c-0.01-0.48-0.133-0.851-0.367-1.101
		s-0.523-0.37-0.867-0.37c-0.354,0-0.65,0.131-0.891,0.391c-0.229,0.27-0.344,0.63-0.344,1.08H496.921L496.921,424.231z"/>
	<path d="M457.275,442.571v-8.521h1.734v7.07h4.313v1.45H457.275L457.275,442.571z M464.542,435.511v-1.539h1.656v1.539H464.542
		L464.542,435.511z M464.542,442.571v-6.22h1.656v6.22H464.542L464.542,442.571z M467.814,442.571v-8.6h1.641v3.1
		c0.512-0.57,1.115-0.86,1.813-0.86c0.75,0,1.375,0.271,1.875,0.82s0.75,1.34,0.75,2.37c0,1.06-0.254,1.88-0.766,2.45
		c-0.51,0.569-1.125,0.859-1.844,0.859c-0.354,0-0.703-0.09-1.047-0.27c-0.344-0.17-0.641-0.44-0.891-0.79v0.92H467.814
		L467.814,442.571z M469.439,439.321c0,0.64,0.105,1.12,0.313,1.439c0.281,0.431,0.662,0.65,1.141,0.65
		c0.355,0,0.662-0.149,0.922-0.47c0.26-0.311,0.391-0.8,0.391-1.47c0-0.7-0.131-1.221-0.391-1.53c-0.26-0.32-0.594-0.48-1-0.48
		c-0.385,0-0.711,0.15-0.977,0.46C469.572,438.231,469.439,438.691,469.439,439.321L469.439,439.321z M476.785,442.571h-1.641v-6.22
		h1.531v0.87c0.262-0.41,0.496-0.69,0.703-0.82c0.209-0.13,0.443-0.19,0.703-0.19c0.375,0,0.74,0.101,1.094,0.311l-0.516,1.42
		c-0.281-0.17-0.535-0.26-0.766-0.26c-0.24,0-0.438,0.06-0.594,0.189s-0.281,0.36-0.375,0.69s-0.141,1.02-0.141,2.09V442.571
		L476.785,442.571z M481.111,438.241l-1.5-0.27c0.166-0.601,0.455-1.04,0.867-1.33s1.023-0.431,1.836-0.431
		c0.73,0,1.273,0.09,1.633,0.261c0.359,0.17,0.613,0.39,0.758,0.649c0.146,0.271,0.219,0.76,0.219,1.48l-0.016,1.92
		c0,0.55,0.027,0.96,0.078,1.21c0.053,0.26,0.152,0.54,0.297,0.84h-1.625c-0.041-0.12-0.094-0.28-0.156-0.49
		c-0.031-0.1-0.053-0.17-0.063-0.2c-0.281,0.28-0.58,0.49-0.898,0.631c-0.316,0.13-0.658,0.199-1.023,0.199
		c-0.645,0-1.154-0.18-1.523-0.52c-0.369-0.35-0.555-0.79-0.555-1.32c0-0.359,0.086-0.67,0.258-0.939
		c0.172-0.271,0.408-0.48,0.711-0.631c0.303-0.159,0.74-0.279,1.313-0.39c0.76-0.14,1.293-0.28,1.594-0.4v-0.159
		c0-0.32-0.078-0.551-0.234-0.69c-0.156-0.13-0.453-0.2-0.891-0.2c-0.291,0-0.518,0.061-0.68,0.17
		C481.349,437.751,481.216,437.951,481.111,438.241L481.111,438.241z M483.314,439.581c-0.209,0.07-0.541,0.15-1,0.25
		c-0.459,0.101-0.76,0.19-0.906,0.29c-0.209,0.15-0.313,0.34-0.313,0.57c0,0.229,0.086,0.43,0.258,0.61
		c0.172,0.17,0.389,0.249,0.648,0.249c0.303,0,0.59-0.1,0.859-0.289c0.199-0.15,0.328-0.33,0.391-0.551
		c0.043-0.14,0.063-0.399,0.063-0.8V439.581L483.314,439.581z M488.128,442.571h-1.641v-6.22h1.531v0.87
		c0.26-0.41,0.496-0.69,0.703-0.82c0.209-0.13,0.443-0.19,0.703-0.19c0.375,0,0.74,0.101,1.094,0.311l-0.516,1.42
		c-0.281-0.17-0.535-0.26-0.766-0.26c-0.238,0-0.438,0.06-0.594,0.189s-0.281,0.36-0.375,0.69s-0.141,1.02-0.141,2.09V442.571
		L488.128,442.571z M490.439,436.352h1.75l1.5,4.409l1.453-4.409h1.703l-2.203,5.979l-0.391,1.08c-0.146,0.37-0.283,0.65-0.414,0.84
		c-0.129,0.19-0.281,0.351-0.453,0.471s-0.379,0.21-0.625,0.279c-0.244,0.07-0.523,0.101-0.836,0.101
		c-0.322,0-0.635-0.04-0.938-0.11l-0.141-1.28c0.26,0.05,0.49,0.08,0.688,0.08c0.387,0,0.67-0.109,0.852-0.34
		c0.182-0.22,0.326-0.51,0.43-0.87L490.439,436.352L490.439,436.352z"/>
	<path fill="#FFA500" d="M307.622,387.211v27.32c0,2.21,1.791,4,4,4h57.116c2.209,0,4-1.79,4-4v-27.32c0-2.21-1.791-4-4-4h-57.116
		C309.413,383.211,307.622,385.001,307.622,387.211L307.622,387.211z"/>
	<path fill="none" stroke="#000000" stroke-miterlimit="1.45" d="M307.622,387.211v27.32c0,2.21,1.791,4,4,4h57.116
		c2.209,0,4-1.79,4-4v-27.32c0-2.21-1.791-4-4-4h-57.116C309.413,383.211,307.622,385.001,307.622,387.211L307.622,387.211z"/>
	<path d="M328.051,389.642h3.155c0.72,0,1.267,0.06,1.642,0.17c0.5,0.149,0.929,0.41,1.289,0.79c0.358,0.38,0.632,0.84,0.819,1.39
		s0.281,1.22,0.281,2.021c0,0.71-0.083,1.319-0.25,1.83c-0.219,0.63-0.525,1.13-0.922,1.52c-0.302,0.3-0.708,0.53-1.218,0.689
		c-0.387,0.12-0.901,0.181-1.547,0.181h-3.25V389.642L328.051,389.642z M329.785,391.091v5.69h1.281c0.49,0,0.844-0.03,1.063-0.08
		c0.28-0.07,0.513-0.19,0.694-0.36c0.183-0.159,0.333-0.439,0.453-0.829c0.12-0.381,0.18-0.91,0.18-1.57s-0.06-1.17-0.18-1.53
		s-0.284-0.64-0.492-0.83c-0.208-0.2-0.474-0.34-0.797-0.41c-0.25-0.05-0.729-0.08-1.437-0.08H329.785L329.785,391.091z
		 M337.935,393.901l-1.5-0.26c0.167-0.601,0.456-1.051,0.868-1.341c0.411-0.279,1.022-0.43,1.836-0.43
		c0.729,0,1.272,0.09,1.632,0.26c0.36,0.17,0.612,0.391,0.758,0.66c0.146,0.26,0.219,0.76,0.219,1.47l-0.016,1.931
		c0,0.55,0.026,0.95,0.078,1.21c0.053,0.25,0.152,0.53,0.297,0.83h-1.625c-0.041-0.11-0.093-0.271-0.156-0.48
		c-0.03-0.109-0.052-0.17-0.062-0.2c-0.282,0.28-0.581,0.49-0.899,0.62c-0.317,0.141-0.659,0.2-1.022,0.2
		c-0.646,0-1.154-0.17-1.524-0.52c-0.37-0.351-0.554-0.79-0.554-1.32c0-0.35,0.086-0.67,0.257-0.94
		c0.172-0.27,0.409-0.479,0.711-0.63c0.302-0.149,0.74-0.279,1.313-0.38c0.76-0.149,1.292-0.28,1.594-0.41v-0.159
		c0-0.32-0.079-0.551-0.235-0.681c-0.156-0.14-0.453-0.21-0.89-0.21c-0.292,0-0.52,0.061-0.681,0.181
		C338.171,393.411,338.04,393.611,337.935,393.901L337.935,393.901z M340.139,395.251c-0.209,0.061-0.542,0.141-1,0.24
		c-0.459,0.1-0.762,0.2-0.907,0.29c-0.208,0.16-0.313,0.35-0.313,0.58s0.087,0.43,0.259,0.6s0.388,0.261,0.647,0.261
		c0.302,0,0.589-0.101,0.859-0.301c0.198-0.149,0.329-0.329,0.391-0.55c0.042-0.13,0.063-0.399,0.063-0.79V395.251L340.139,395.251z
		 M346.234,392.011v1.32h-1.125v2.5c0,0.51,0.01,0.8,0.031,0.891c0.02,0.079,0.07,0.149,0.148,0.21c0.078,0.06,0.17,0.08,0.273,0.08
		c0.156,0,0.375-0.051,0.656-0.17l0.141,1.279c-0.375,0.17-0.807,0.25-1.297,0.25c-0.291,0-0.557-0.05-0.797-0.14
		c-0.24-0.101-0.414-0.23-0.523-0.4c-0.109-0.16-0.189-0.37-0.242-0.63c-0.031-0.2-0.047-0.59-0.047-1.17v-2.7h-0.75v-1.32h0.75
		v-1.229l1.656-0.97v2.199H346.234L346.234,392.011z M348.605,393.901l-1.5-0.26c0.166-0.601,0.455-1.051,0.867-1.341
		c0.412-0.279,1.023-0.43,1.836-0.43c0.73,0,1.273,0.09,1.633,0.26s0.611,0.391,0.758,0.66c0.146,0.26,0.219,0.76,0.219,1.47
		l-0.016,1.931c0,0.55,0.025,0.95,0.078,1.21c0.051,0.25,0.15,0.53,0.297,0.83h-1.625c-0.041-0.11-0.094-0.271-0.156-0.48
		c-0.031-0.109-0.053-0.17-0.063-0.2c-0.281,0.28-0.58,0.49-0.898,0.62c-0.318,0.141-0.658,0.2-1.023,0.2
		c-0.646,0-1.154-0.17-1.523-0.52c-0.371-0.351-0.555-0.79-0.555-1.32c0-0.35,0.086-0.67,0.258-0.94
		c0.172-0.27,0.408-0.479,0.711-0.63c0.303-0.149,0.74-0.279,1.313-0.38c0.76-0.149,1.291-0.28,1.594-0.41v-0.159
		c0-0.32-0.078-0.551-0.234-0.681c-0.156-0.14-0.453-0.21-0.891-0.21c-0.291,0-0.518,0.061-0.68,0.181
		C348.841,393.411,348.71,393.611,348.605,393.901L348.605,393.901z M350.808,395.251c-0.209,0.061-0.541,0.141-1,0.24
		s-0.76,0.2-0.906,0.29c-0.209,0.16-0.313,0.35-0.313,0.58s0.086,0.43,0.258,0.6s0.389,0.261,0.648,0.261
		c0.303,0,0.59-0.101,0.859-0.301c0.197-0.149,0.328-0.329,0.391-0.55c0.043-0.13,0.063-0.399,0.063-0.79V395.251L350.808,395.251z"
		/>
	<path d="M318.554,409.781l1.672,0.53c-0.25,0.939-0.678,1.63-1.282,2.09c-0.604,0.45-1.364,0.67-2.281,0.67
		c-1.146,0-2.086-0.38-2.819-1.16c-0.735-0.78-1.103-1.84-1.103-3.189c0-1.431,0.37-2.54,1.11-3.33
		c0.739-0.79,1.713-1.19,2.921-1.19c1.052,0,1.907,0.311,2.563,0.92c0.386,0.38,0.678,0.91,0.875,1.601l-1.719,0.399
		c-0.104-0.45-0.317-0.8-0.64-1.05c-0.323-0.26-0.714-0.39-1.172-0.39c-0.637,0-1.151,0.229-1.547,0.68
		c-0.396,0.46-0.595,1.2-0.595,2.23c0,1.079,0.195,1.85,0.586,2.31c0.392,0.46,0.898,0.69,1.523,0.69c0.459,0,0.854-0.15,1.188-0.44
		S318.408,410.401,318.554,409.781L318.554,409.781z M321.329,409.731c0-0.54,0.135-1.07,0.406-1.58
		c0.271-0.521,0.651-0.91,1.141-1.18c0.489-0.261,1.042-0.4,1.656-0.4c0.938,0,1.708,0.31,2.313,0.92
		c0.604,0.61,0.905,1.38,0.905,2.32c0,0.939-0.305,1.72-0.914,2.34c-0.609,0.61-1.372,0.92-2.288,0.92
		c-0.573,0-1.117-0.13-1.634-0.39c-0.516-0.261-0.908-0.63-1.18-1.131C321.463,411.062,321.329,410.451,321.329,409.731
		L321.329,409.731z M323.017,409.821c0,0.62,0.145,1.09,0.437,1.42s0.651,0.49,1.078,0.49c0.438,0,0.8-0.16,1.086-0.49
		c0.287-0.33,0.431-0.81,0.431-1.43c0-0.61-0.144-1.07-0.431-1.4c-0.286-0.33-0.647-0.49-1.086-0.49c-0.427,0-0.786,0.16-1.078,0.49
		S323.017,409.211,323.017,409.821L323.017,409.821z M334.69,412.932h-1.64v-3.17c0-0.671-0.034-1.11-0.103-1.311
		c-0.067-0.2-0.182-0.35-0.344-0.46c-0.161-0.11-0.352-0.17-0.57-0.17c-0.292,0-0.549,0.08-0.772,0.24
		c-0.225,0.16-0.378,0.359-0.461,0.62c-0.084,0.26-0.125,0.739-0.125,1.439v2.811h-1.657v-6.21h1.532v0.899
		c0.541-0.7,1.229-1.05,2.062-1.05c0.354,0,0.684,0.07,0.985,0.2s0.53,0.3,0.687,0.5s0.264,0.43,0.32,0.689
		c0.058,0.25,0.086,0.62,0.086,1.101V412.932L334.69,412.932z M339.224,406.722v1.31h-1.125v2.5c0,0.51,0.01,0.81,0.031,0.89
		c0.021,0.08,0.069,0.15,0.147,0.21c0.078,0.061,0.17,0.091,0.274,0.091c0.155,0,0.375-0.061,0.655-0.181l0.142,1.28
		c-0.375,0.17-0.809,0.25-1.297,0.25c-0.292,0-0.559-0.04-0.798-0.14c-0.239-0.101-0.413-0.23-0.523-0.391
		c-0.109-0.17-0.19-0.38-0.242-0.64c-0.031-0.2-0.047-0.59-0.047-1.17v-2.7h-0.75v-1.31h0.75v-1.24l1.657-0.97v2.21H339.224
		L339.224,406.722z M341.595,408.611l-1.5-0.271c0.166-0.6,0.455-1.05,0.867-1.34c0.41-0.279,1.022-0.43,1.836-0.43
		c0.729,0,1.271,0.09,1.633,0.26c0.359,0.17,0.611,0.391,0.756,0.66c0.146,0.26,0.219,0.76,0.219,1.48l-0.014,1.92
		c0,0.55,0.025,0.95,0.078,1.21c0.051,0.25,0.15,0.529,0.297,0.83h-1.625c-0.043-0.11-0.094-0.271-0.158-0.48
		c-0.029-0.1-0.051-0.17-0.061-0.2c-0.281,0.28-0.582,0.49-0.9,0.62c-0.316,0.14-0.658,0.2-1.021,0.2
		c-0.646,0-1.154-0.17-1.524-0.521c-0.369-0.35-0.554-0.789-0.554-1.319c0-0.351,0.086-0.67,0.258-0.94
		c0.171-0.27,0.407-0.479,0.711-0.63c0.302-0.149,0.739-0.28,1.313-0.38c0.76-0.15,1.291-0.28,1.594-0.41v-0.149
		c0-0.33-0.078-0.561-0.236-0.69c-0.156-0.14-0.453-0.21-0.889-0.21c-0.293,0-0.52,0.06-0.681,0.18
		C341.832,408.111,341.699,408.312,341.595,408.611L341.595,408.611z M343.798,409.951c-0.209,0.06-0.543,0.141-1,0.24
		c-0.459,0.1-0.762,0.2-0.906,0.29c-0.209,0.16-0.313,0.35-0.313,0.58c0,0.229,0.086,0.43,0.258,0.6
		c0.173,0.17,0.388,0.26,0.647,0.26c0.303,0,0.59-0.1,0.861-0.3c0.197-0.14,0.328-0.33,0.389-0.55c0.043-0.13,0.064-0.4,0.064-0.79
		V409.951L343.798,409.951z M347.033,405.871v-1.529h1.656v1.529H347.033L347.033,405.871z M347.033,412.932v-6.21h1.656v6.21
		H347.033L347.033,412.932z M356.023,412.932h-1.639v-3.17c0-0.671-0.035-1.11-0.104-1.311c-0.066-0.2-0.182-0.35-0.344-0.46
		c-0.16-0.11-0.35-0.17-0.57-0.17c-0.291,0-0.549,0.08-0.771,0.24c-0.225,0.16-0.379,0.359-0.461,0.62
		c-0.084,0.26-0.125,0.739-0.125,1.439v2.811h-1.658v-6.21h1.533v0.899c0.541-0.7,1.229-1.05,2.061-1.05
		c0.355,0,0.684,0.07,0.986,0.2c0.301,0.13,0.531,0.3,0.686,0.5c0.156,0.2,0.264,0.43,0.32,0.689c0.059,0.25,0.086,0.62,0.086,1.101
		V412.932L356.023,412.932z M361.308,410.951l1.639,0.28c-0.207,0.61-0.541,1.06-1,1.38c-0.457,0.31-1.025,0.46-1.703,0.46
		c-1.082,0-1.885-0.35-2.404-1.06c-0.418-0.561-0.625-1.271-0.625-2.141c0-1.029,0.27-1.84,0.811-2.42
		c0.543-0.58,1.225-0.88,2.047-0.88c0.928,0,1.66,0.31,2.195,0.92c0.537,0.61,0.791,1.54,0.758,2.8H358.9
		c0.021,0.49,0.158,0.87,0.408,1.141c0.25,0.27,0.566,0.41,0.953,0.41c0.25,0,0.463-0.07,0.639-0.211
		C361.078,411.491,361.214,411.262,361.308,410.951L361.308,410.951z M361.4,409.291c-0.01-0.479-0.133-0.84-0.367-1.09
		c-0.232-0.25-0.521-0.38-0.865-0.38c-0.355,0-0.652,0.13-0.893,0.4c-0.229,0.27-0.342,0.63-0.342,1.069H361.4L361.4,409.291z
		 M365.949,412.932h-1.641v-6.21h1.533v0.869c0.26-0.42,0.494-0.689,0.703-0.819c0.207-0.13,0.441-0.2,0.703-0.2
		c0.375,0,0.738,0.11,1.094,0.32l-0.518,1.42c-0.279-0.181-0.535-0.271-0.766-0.271c-0.238,0-0.436,0.07-0.592,0.2
		c-0.158,0.13-0.283,0.36-0.375,0.69c-0.094,0.319-0.143,1.02-0.143,2.08V412.932L365.949,412.932z"/>
	
		<line fill="none" stroke="#000000" stroke-width="3" stroke-miterlimit="1.45" stroke-dasharray="18,6" x1="203.947" y1="187.953" x2="85.633" y2="187.953"/>
	<polygon points="213.947,187.953 198.947,181.703 202.697,187.953 198.947,194.203 	"/>
	<polygon points="75.633,187.953 90.633,194.203 86.883,187.953 90.633,181.703 	"/>
	
		<line fill="none" stroke="#000000" stroke-width="3" stroke-miterlimit="1.45" stroke-dasharray="18,6" x1="574.384" y1="400.871" x2="382.761" y2="400.871"/>
	<polygon points="584.384,400.871 569.384,394.621 573.134,400.871 569.384,407.121 	"/>
	<polygon points="372.761,400.871 387.761,407.121 384.011,400.871 387.761,394.621 	"/>
	
		<line fill="none" stroke="#000000" stroke-width="3" stroke-miterlimit="1.45" stroke-dasharray="18,6" x1="339.983" y1="295.861" x2="340.127" y2="373.211"/>
	<polygon points="339.964,285.861 333.742,300.873 339.985,297.111 346.242,300.85 	"/>
	<polygon points="340.147,383.211 346.369,368.201 340.125,371.961 333.869,368.222 	"/>
	<path fill="none" stroke="#0000FF" stroke-width="3" stroke-miterlimit="1.45" stroke-dasharray="18,6" d="M155.181,4.999v494.002
		c0,2.21,1.79,4,4,4h362.002c2.211,0,4-1.79,4-4V4.999c0-2.209-1.789-4-4-4H159.181C156.971,0.999,155.181,2.79,155.181,4.999
		L155.181,4.999z"/>
	<path fill="#0000FF" d="M288.875,482.031h4.234c0.948,0,1.672,0.07,2.172,0.22c0.677,0.2,1.255,0.55,1.735,1.051
		c0.479,0.51,0.843,1.13,1.093,1.85c0.25,0.729,0.375,1.63,0.375,2.71c0,0.95-0.12,1.76-0.359,2.439
		c-0.28,0.83-0.688,1.511-1.219,2.03c-0.406,0.38-0.948,0.681-1.625,0.9c-0.51,0.17-1.193,0.25-2.047,0.25h-4.359V482.031
		L288.875,482.031z M291.188,483.972v7.58h1.735c0.646,0,1.108-0.04,1.39-0.11c0.375-0.1,0.688-0.26,0.938-0.48
		c0.25-0.22,0.453-0.59,0.609-1.1c0.157-0.51,0.235-1.21,0.235-2.1c0-0.881-0.078-1.561-0.235-2.04
		c-0.156-0.471-0.375-0.841-0.656-1.101c-0.28-0.27-0.641-0.45-1.078-0.54c-0.322-0.08-0.952-0.109-1.891-0.109H291.188
		L291.188,483.972z M302.071,487.722l-2-0.36c0.229-0.8,0.617-1.4,1.164-1.78c0.547-0.39,1.357-0.58,2.43-0.58
		c0.979,0,1.708,0.11,2.188,0.341c0.479,0.229,0.818,0.529,1.016,0.88c0.198,0.359,0.297,1.02,0.297,1.97l-0.03,2.56
		c0,0.73,0.035,1.271,0.108,1.62c0.073,0.34,0.203,0.72,0.392,1.11h-2.173c-0.052-0.14-0.119-0.36-0.202-0.65
		c-0.042-0.13-0.068-0.21-0.078-0.25c-0.375,0.36-0.776,0.63-1.204,0.82c-0.427,0.18-0.885,0.27-1.375,0.27
		c-0.854,0-1.526-0.229-2.016-0.699c-0.489-0.461-0.734-1.04-0.734-1.75c0-0.471,0.112-0.891,0.336-1.261
		c0.224-0.369,0.537-0.649,0.938-0.84c0.401-0.2,0.982-0.37,1.742-0.51c1.031-0.2,1.745-0.38,2.142-0.55v-0.221
		c0-0.409-0.104-0.71-0.313-0.899c-0.208-0.18-0.604-0.271-1.187-0.271c-0.387,0-0.688,0.08-0.907,0.23
		C302.384,487.062,302.207,487.331,302.071,487.722L302.071,487.722z M305.009,489.501c-0.282,0.091-0.728,0.2-1.336,0.33
		c-0.61,0.13-1.009,0.26-1.196,0.391c-0.291,0.199-0.438,0.449-0.438,0.76c0,0.319,0.115,0.58,0.345,0.81
		c0.229,0.221,0.521,0.33,0.875,0.33c0.396,0,0.775-0.13,1.14-0.39c0.261-0.2,0.433-0.44,0.516-0.73
		c0.063-0.189,0.095-0.54,0.095-1.06V489.501L305.009,489.501z M313.125,485.191v1.75h-1.5v3.34c0,0.68,0.017,1.07,0.048,1.18
		c0.03,0.11,0.096,0.2,0.194,0.271c0.1,0.08,0.221,0.11,0.367,0.11c0.209,0,0.505-0.07,0.891-0.2l0.188,1.7
		c-0.51,0.22-1.088,0.329-1.734,0.329c-0.396,0-0.753-0.069-1.069-0.199c-0.318-0.141-0.553-0.311-0.703-0.521
		c-0.151-0.21-0.253-0.49-0.306-0.859c-0.052-0.25-0.077-0.761-0.077-1.541v-3.609h-1v-1.75h1v-1.66l2.202-1.28v2.94H313.125
		L313.125,485.191z M316.298,487.722l-2-0.36c0.229-0.8,0.616-1.4,1.164-1.78c0.547-0.39,1.356-0.58,2.43-0.58
		c0.979,0,1.708,0.11,2.187,0.341c0.479,0.229,0.818,0.529,1.017,0.88c0.197,0.359,0.297,1.02,0.297,1.97l-0.032,2.56
		c0,0.73,0.037,1.271,0.11,1.62c0.072,0.34,0.203,0.72,0.39,1.11h-2.172c-0.052-0.14-0.119-0.36-0.203-0.65
		c-0.041-0.13-0.067-0.21-0.078-0.25c-0.375,0.36-0.775,0.63-1.203,0.82c-0.427,0.18-0.885,0.27-1.375,0.27
		c-0.854,0-1.525-0.229-2.016-0.699c-0.489-0.461-0.734-1.04-0.734-1.75c0-0.471,0.112-0.891,0.336-1.261
		c0.225-0.369,0.536-0.649,0.938-0.84c0.401-0.2,0.981-0.37,1.743-0.51c1.03-0.2,1.743-0.38,2.14-0.55v-0.221
		c0-0.409-0.104-0.71-0.312-0.899c-0.209-0.18-0.604-0.271-1.188-0.271c-0.385,0-0.687,0.08-0.906,0.23
		C316.61,487.062,316.433,487.331,316.298,487.722L316.298,487.722z M319.235,489.501c-0.281,0.091-0.726,0.2-1.336,0.33
		c-0.609,0.13-1.007,0.26-1.195,0.391c-0.292,0.199-0.437,0.449-0.437,0.76c0,0.319,0.114,0.58,0.343,0.81
		c0.229,0.221,0.521,0.33,0.875,0.33c0.396,0,0.776-0.13,1.141-0.39c0.261-0.2,0.433-0.44,0.517-0.73
		c0.062-0.189,0.093-0.54,0.093-1.06V489.501L319.235,489.501z M327.985,493.481v-11.45h3.453l2.079,7.811l2.062-7.811h3.47v11.45
		h-2.156v-9.01l-2.267,9.01h-2.233l-2.267-9.01v9.01H327.985L327.985,493.481z M342.97,487.722l-2-0.36
		c0.229-0.8,0.617-1.4,1.164-1.78c0.547-0.39,1.355-0.58,2.428-0.58c0.98,0,1.709,0.11,2.189,0.341
		c0.479,0.229,0.816,0.529,1.016,0.88c0.197,0.359,0.295,1.02,0.295,1.97l-0.031,2.56c0,0.73,0.037,1.271,0.111,1.62
		c0.072,0.34,0.203,0.72,0.389,1.11h-2.172c-0.051-0.14-0.119-0.36-0.203-0.65c-0.041-0.13-0.066-0.21-0.076-0.25
		c-0.375,0.36-0.777,0.63-1.203,0.82c-0.428,0.18-0.887,0.27-1.375,0.27c-0.855,0-1.526-0.229-2.017-0.699
		c-0.489-0.461-0.734-1.04-0.734-1.75c0-0.471,0.112-0.891,0.336-1.261c0.225-0.369,0.536-0.649,0.937-0.84
		c0.402-0.2,0.982-0.37,1.744-0.51c1.031-0.2,1.744-0.38,2.139-0.55v-0.221c0-0.409-0.104-0.71-0.311-0.899
		c-0.209-0.18-0.605-0.271-1.189-0.271c-0.385,0-0.686,0.08-0.904,0.23C343.281,487.062,343.105,487.331,342.97,487.722
		L342.97,487.722z M345.906,489.501c-0.279,0.091-0.725,0.2-1.336,0.33c-0.607,0.13-1.008,0.26-1.193,0.391
		c-0.293,0.199-0.439,0.449-0.439,0.76c0,0.319,0.115,0.58,0.344,0.81c0.23,0.221,0.521,0.33,0.875,0.33
		c0.396,0,0.777-0.13,1.143-0.39c0.26-0.2,0.432-0.44,0.514-0.73c0.064-0.189,0.094-0.54,0.094-1.06V489.501L345.906,489.501z
		 M357.773,493.481h-2.203v-4.23c0-0.899-0.047-1.479-0.139-1.739c-0.094-0.271-0.246-0.48-0.455-0.62
		c-0.207-0.15-0.463-0.221-0.764-0.221c-0.375,0-0.715,0.101-1.018,0.311c-0.301,0.21-0.51,0.49-0.625,0.83
		c-0.113,0.34-0.172,0.979-0.172,1.91v3.76h-2.186v-8.29h2.029v1.21c0.73-0.93,1.643-1.4,2.734-1.4c0.49,0,0.936,0.08,1.336,0.261
		c0.402,0.17,0.705,0.39,0.908,0.659c0.203,0.271,0.346,0.58,0.428,0.921c0.084,0.35,0.125,0.84,0.125,1.489V493.481
		L357.773,493.481z M361.642,487.722l-2-0.36c0.229-0.8,0.617-1.4,1.164-1.78c0.545-0.39,1.355-0.58,2.428-0.58
		c0.98,0,1.709,0.11,2.189,0.341c0.479,0.229,0.816,0.529,1.014,0.88c0.199,0.359,0.297,1.02,0.297,1.97l-0.029,2.56
		c0,0.73,0.035,1.271,0.107,1.62c0.074,0.34,0.205,0.72,0.393,1.11h-2.174c-0.051-0.14-0.119-0.36-0.201-0.65
		c-0.043-0.13-0.068-0.21-0.078-0.25c-0.375,0.36-0.777,0.63-1.203,0.82c-0.428,0.18-0.887,0.27-1.375,0.27
		c-0.855,0-1.527-0.229-2.018-0.699c-0.488-0.461-0.732-1.04-0.732-1.75c0-0.471,0.111-0.891,0.336-1.261
		c0.223-0.369,0.535-0.649,0.936-0.84c0.402-0.2,0.982-0.37,1.742-0.51c1.033-0.2,1.746-0.38,2.143-0.55v-0.221
		c0-0.409-0.105-0.71-0.313-0.899c-0.209-0.18-0.605-0.271-1.188-0.271c-0.387,0-0.688,0.08-0.906,0.23
		C361.955,487.062,361.777,487.331,361.642,487.722L361.642,487.722z M364.58,489.501c-0.281,0.091-0.729,0.2-1.338,0.33
		c-0.607,0.13-1.008,0.26-1.193,0.391c-0.293,0.199-0.439,0.449-0.439,0.76c0,0.319,0.115,0.58,0.346,0.81
		c0.229,0.221,0.52,0.33,0.875,0.33c0.395,0,0.775-0.13,1.141-0.39c0.26-0.2,0.432-0.44,0.514-0.73
		c0.064-0.189,0.096-0.54,0.096-1.06V489.501L364.58,489.501z M368.695,494.031l2.5,0.311c0.043,0.289,0.143,0.489,0.297,0.6
		c0.209,0.15,0.537,0.229,0.984,0.229c0.574,0,1-0.079,1.283-0.25c0.197-0.109,0.342-0.3,0.436-0.56
		c0.074-0.18,0.111-0.521,0.111-1.02v-1.2c-0.658,0.89-1.486,1.34-2.486,1.34c-1.113,0-2-0.47-2.654-1.42
		c-0.512-0.74-0.768-1.67-0.768-2.78c0-1.39,0.336-2.45,1.008-3.18c0.674-0.73,1.504-1.101,2.492-1.101
		c1.033,0,1.881,0.45,2.547,1.34v-1.149h2.047v7.43c0,0.99-0.08,1.73-0.24,2.21c-0.162,0.49-0.389,0.87-0.682,1.141
		c-0.291,0.279-0.678,0.5-1.164,0.649c-0.482,0.16-1.1,0.24-1.85,0.24c-1.408,0-2.404-0.24-2.994-0.73
		c-0.588-0.479-0.881-1.1-0.881-1.83C368.681,494.222,368.685,494.131,368.695,494.031L368.695,494.031z M370.648,489.151
		c0,0.89,0.172,1.54,0.518,1.94c0.344,0.409,0.766,0.609,1.266,0.609c0.531,0,0.98-0.21,1.35-0.62
		c0.371-0.42,0.557-1.04,0.557-1.859c0-0.87-0.178-1.511-0.531-1.921c-0.355-0.42-0.803-0.63-1.344-0.63
		c-0.521,0-0.953,0.21-1.297,0.62C370.82,487.701,370.648,488.321,370.648,489.151L370.648,489.151z M383.47,490.841l2.186,0.36
		c-0.279,0.8-0.723,1.42-1.326,1.84c-0.605,0.42-1.365,0.63-2.281,0.63c-1.439,0-2.506-0.47-3.203-1.42
		c-0.543-0.75-0.814-1.7-0.814-2.859c0-1.381,0.361-2.45,1.078-3.23c0.721-0.77,1.625-1.16,2.721-1.16c1.238,0,2.215,0.4,2.93,1.221
		c0.713,0.81,1.053,2.06,1.021,3.75h-5.5c0.012,0.64,0.186,1.149,0.525,1.51c0.338,0.37,0.762,0.55,1.273,0.55
		c0.344,0,0.633-0.09,0.865-0.28C383.181,491.562,383.355,491.262,383.47,490.841L383.47,490.841z M383.595,488.621
		c-0.012-0.63-0.172-1.12-0.486-1.45c-0.311-0.329-0.691-0.5-1.139-0.5c-0.48,0-0.875,0.181-1.189,0.53
		c-0.311,0.35-0.469,0.82-0.469,1.42H383.595L383.595,488.621z M389.666,493.481h-2.189v-8.29h2.033v1.17
		c0.354-0.55,0.668-0.92,0.945-1.1c0.275-0.17,0.59-0.261,0.943-0.261c0.5,0,0.986,0.13,1.453,0.4l-0.686,1.93
		c-0.365-0.24-0.709-0.359-1.031-0.359c-0.303,0-0.561,0.08-0.775,0.25c-0.213,0.159-0.383,0.47-0.508,0.909
		c-0.125,0.44-0.186,1.37-0.186,2.79V493.481L389.666,493.481z"/>
</g>
</svg>
