<?xml version="1.0" encoding="utf-8"?>
<!-- Generator: Adobe Illustrator 16.0.0, SVG Export Plug-In . SVG Version: 6.00 Build 0)  -->
<!DOCTYPE svg PUBLIC "-//W3C//DTD SVG 1.1//EN" "http://www.w3.org/Graphics/SVG/1.1/DTD/svg11.dtd">
<svg version="1.1" id="Layer_1" xmlns="http://www.w3.org/2000/svg" xmlns:xlink="http://www.w3.org/1999/xlink" x="0px" y="0px"
	 width="816px" height="431px" viewBox="0 0 816 431" enable-background="new 0 0 816 431" xml:space="preserve">
<image overflow="visible" width="57" height="70" xlink:href="307C0BF2.jpg"  transform="matrix(1 0 0 1 285.7202 14.0254)">
</image>
<image overflow="visible" width="90" height="107" xlink:href="307C0BF6.jpg"  transform="matrix(1 0 0 1 709.3008 49.5562)">
</image>
<image overflow="visible" width="790" height="479" xlink:href="307C0BF1.jpg"  transform="matrix(0.3165 0 0 0.3152 356 253)">
</image>
<path fill="#BFFFBF" d="M492.301,31.43v23.325c0,2.209,1.789,4,4,4h81.529c2.209,0,4-1.791,4-4V31.43c0-2.21-1.791-4-4-4h-81.529
	C494.09,27.43,492.301,29.22,492.301,31.43L492.301,31.43z"/>
<path fill="none" stroke="#000000" stroke-miterlimit="1.45" d="M492.301,31.43v23.325c0,2.209,1.789,4,4,4h81.529
	c2.209,0,4-1.791,4-4V31.43c0-2.21-1.791-4-4-4h-81.529C494.09,27.43,492.301,29.22,492.301,31.43L492.301,31.43z"/>
<path d="M495.631,47.806v-8.593h2.969c0.66,0,1.17,0.041,1.531,0.125c0.488,0.114,0.898,0.317,1.25,0.609
	c0.459,0.385,0.799,0.88,1.01,1.484c0.229,0.594,0.35,1.271,0.35,2.032c0,0.656-0.08,1.234-0.24,1.734
	c-0.141,0.5-0.34,0.917-0.57,1.25c-0.24,0.333-0.51,0.594-0.799,0.781c-0.281,0.188-0.621,0.334-1.021,0.438
	c-0.389,0.093-0.85,0.14-1.369,0.14H495.631L495.631,47.806z M496.77,46.792h1.83c0.57,0,1.02-0.052,1.34-0.157
	c0.32-0.104,0.58-0.255,0.77-0.453c0.271-0.26,0.48-0.619,0.621-1.078c0.16-0.458,0.24-1.01,0.24-1.656
	c0-0.896-0.16-1.583-0.461-2.063c-0.289-0.489-0.639-0.817-1.059-0.984c-0.311-0.114-0.801-0.172-1.471-0.172h-1.811V46.792
	L496.77,46.792z M508.23,47.041c-0.391,0.333-0.771,0.567-1.141,0.703c-0.35,0.135-0.74,0.203-1.16,0.203
	c-0.68,0-1.209-0.167-1.57-0.5c-0.369-0.333-0.549-0.76-0.549-1.281c0-0.302,0.07-0.578,0.199-0.828
	c0.141-0.261,0.32-0.464,0.551-0.61c0.23-0.156,0.479-0.271,0.77-0.344c0.189-0.062,0.51-0.119,0.93-0.171
	c0.85-0.094,1.471-0.214,1.881-0.36c0-0.146,0-0.234,0-0.265c0-0.438-0.102-0.745-0.301-0.922c-0.27-0.229-0.67-0.344-1.199-0.344
	c-0.49,0-0.861,0.089-1.1,0.266c-0.24,0.166-0.41,0.468-0.531,0.906l-1.029-0.141c0.1-0.438,0.25-0.791,0.469-1.062
	c0.221-0.271,0.531-0.479,0.941-0.625c0.398-0.146,0.869-0.219,1.398-0.219c0.541,0,0.971,0.062,1.301,0.187s0.58,0.282,0.74,0.469
	c0.15,0.188,0.26,0.427,0.32,0.719c0.029,0.177,0.049,0.5,0.049,0.969v1.406c0,0.979,0.021,1.599,0.061,1.859
	c0.061,0.261,0.15,0.511,0.279,0.75h-1.109C508.33,47.588,508.26,47.332,508.23,47.041L508.23,47.041z M508.141,44.681
	c-0.391,0.157-0.961,0.292-1.721,0.407c-0.439,0.062-0.75,0.135-0.92,0.218c-0.18,0.073-0.32,0.183-0.42,0.328
	c-0.1,0.146-0.15,0.313-0.15,0.5c0,0.282,0.109,0.516,0.32,0.704c0.221,0.187,0.529,0.281,0.93,0.281c0.41,0,0.77-0.089,1.08-0.266
	c0.33-0.177,0.561-0.422,0.711-0.734c0.109-0.24,0.17-0.589,0.17-1.047V44.681L508.141,44.681z M513.141,46.869l0.16,0.922
	c-0.311,0.063-0.57,0.093-0.801,0.093c-0.391,0-0.68-0.057-0.891-0.171c-0.209-0.125-0.359-0.287-0.449-0.485
	c-0.09-0.198-0.131-0.614-0.131-1.25V42.4h-0.76v-0.812h0.76v-1.547l1.051-0.625v2.172h1.061V42.4h-1.061v3.641
	c0,0.302,0.01,0.495,0.039,0.578c0.051,0.083,0.111,0.151,0.191,0.203c0.09,0.052,0.209,0.078,0.359,0.078
	C512.801,46.9,512.949,46.89,513.141,46.869L513.141,46.869z M518.24,47.041c-0.4,0.333-0.781,0.567-1.141,0.703
	c-0.359,0.135-0.74,0.203-1.16,0.203c-0.68,0-1.209-0.167-1.58-0.5c-0.359-0.333-0.539-0.76-0.539-1.281
	c0-0.302,0.07-0.578,0.199-0.828c0.141-0.261,0.32-0.464,0.551-0.61c0.23-0.156,0.48-0.271,0.76-0.344
	c0.199-0.062,0.51-0.119,0.939-0.171c0.84-0.094,1.471-0.214,1.881-0.36c0-0.146,0-0.234,0-0.265c0-0.438-0.1-0.745-0.301-0.922
	c-0.27-0.229-0.67-0.344-1.199-0.344c-0.49,0-0.861,0.089-1.1,0.266c-0.24,0.166-0.41,0.468-0.531,0.906l-1.029-0.141
	c0.09-0.438,0.25-0.791,0.469-1.062c0.221-0.271,0.531-0.479,0.941-0.625c0.4-0.146,0.869-0.219,1.4-0.219
	c0.529,0,0.969,0.062,1.299,0.187s0.58,0.282,0.73,0.469c0.16,0.188,0.27,0.427,0.33,0.719c0.029,0.177,0.051,0.5,0.051,0.969v1.406
	c0,0.979,0.02,1.599,0.059,1.859c0.051,0.261,0.15,0.511,0.281,0.75h-1.111C518.34,47.588,518.27,47.332,518.24,47.041
	L518.24,47.041z M518.15,44.681c-0.391,0.157-0.961,0.292-1.721,0.407c-0.439,0.062-0.75,0.135-0.92,0.218
	c-0.18,0.073-0.32,0.183-0.43,0.328c-0.09,0.146-0.141,0.313-0.141,0.5c0,0.282,0.111,0.516,0.32,0.704
	c0.211,0.187,0.529,0.281,0.93,0.281c0.41,0,0.771-0.089,1.08-0.266c0.32-0.177,0.561-0.422,0.701-0.734
	c0.119-0.24,0.18-0.589,0.18-1.047V44.681L518.15,44.681z M521.82,47.806h-0.98v-8.593h1.061v3.062
	c0.449-0.552,1.01-0.828,1.699-0.828c0.391,0,0.75,0.078,1.08,0.234c0.34,0.146,0.621,0.36,0.84,0.641
	c0.23,0.281,0.41,0.62,0.531,1.016c0.129,0.395,0.189,0.817,0.189,1.265c0,1.063-0.26,1.886-0.801,2.469
	c-0.529,0.583-1.16,0.875-1.889,0.875c-0.74,0-1.311-0.307-1.73-0.922V47.806L521.82,47.806z M521.801,44.65
	c0,0.74,0.109,1.276,0.318,1.609c0.33,0.542,0.781,0.813,1.34,0.813c0.461,0,0.852-0.198,1.191-0.594
	c0.34-0.396,0.51-0.995,0.51-1.797c0-0.812-0.16-1.411-0.48-1.797c-0.32-0.385-0.709-0.578-1.17-0.578
	c-0.459,0-0.859,0.203-1.209,0.61C521.971,43.313,521.801,43.89,521.801,44.65L521.801,44.65z M531.59,47.041
	c-0.4,0.333-0.779,0.567-1.141,0.703c-0.359,0.135-0.738,0.203-1.16,0.203c-0.689,0-1.209-0.167-1.58-0.5
	c-0.359-0.333-0.539-0.76-0.539-1.281c0-0.302,0.061-0.578,0.199-0.828c0.131-0.261,0.32-0.464,0.551-0.61
	c0.221-0.156,0.48-0.271,0.76-0.344c0.201-0.062,0.51-0.119,0.939-0.171c0.842-0.094,1.471-0.214,1.871-0.36
	c0-0.146,0-0.234,0-0.265c0-0.438-0.1-0.745-0.291-0.922c-0.27-0.229-0.68-0.344-1.209-0.344c-0.49,0-0.85,0.089-1.09,0.266
	c-0.24,0.166-0.42,0.468-0.531,0.906l-1.029-0.141c0.09-0.438,0.25-0.791,0.471-1.062c0.209-0.271,0.529-0.479,0.93-0.625
	c0.41-0.146,0.879-0.219,1.41-0.219c0.529,0,0.959,0.062,1.299,0.187c0.33,0.125,0.57,0.282,0.73,0.469
	c0.16,0.188,0.27,0.427,0.33,0.719c0.031,0.177,0.051,0.5,0.051,0.969v1.406c0,0.979,0.02,1.599,0.059,1.859
	c0.051,0.261,0.141,0.511,0.281,0.75h-1.109C531.689,47.588,531.619,47.332,531.59,47.041L531.59,47.041z M531.49,44.681
	c-0.381,0.157-0.951,0.292-1.721,0.407c-0.43,0.062-0.74,0.135-0.92,0.218c-0.17,0.073-0.311,0.183-0.42,0.328
	c-0.09,0.146-0.141,0.313-0.141,0.5c0,0.282,0.102,0.516,0.311,0.704c0.221,0.187,0.531,0.281,0.941,0.281
	c0.408,0,0.77-0.089,1.078-0.266c0.32-0.177,0.561-0.422,0.701-0.734c0.119-0.24,0.17-0.589,0.17-1.047V44.681L531.49,44.681z
	 M533.779,45.947l1.031-0.156c0.059,0.416,0.219,0.734,0.479,0.953c0.271,0.219,0.65,0.328,1.141,0.328
	c0.48,0,0.84-0.094,1.07-0.281c0.24-0.198,0.35-0.433,0.35-0.703c0-0.24-0.1-0.427-0.311-0.563
	c-0.139-0.094-0.498-0.213-1.078-0.359c-0.771-0.198-1.301-0.365-1.611-0.5c-0.289-0.146-0.51-0.344-0.67-0.594
	c-0.15-0.25-0.23-0.531-0.23-0.844c0-0.271,0.061-0.526,0.191-0.765c0.119-0.24,0.289-0.438,0.51-0.594
	c0.17-0.115,0.389-0.214,0.67-0.297c0.279-0.083,0.59-0.125,0.93-0.125c0.471,0,0.9,0.073,1.26,0.219
	c0.381,0.135,0.65,0.323,0.83,0.563c0.18,0.24,0.301,0.558,0.359,0.953l-1.029,0.141c-0.039-0.313-0.18-0.557-0.41-0.734
	c-0.219-0.188-0.539-0.282-0.949-0.282c-0.48,0-0.82,0.084-1.031,0.25c-0.209,0.157-0.318,0.344-0.318,0.563
	c0,0.135,0.049,0.255,0.129,0.359c0.09,0.115,0.23,0.209,0.41,0.281c0.1,0.042,0.41,0.131,0.93,0.266
	c0.75,0.208,1.27,0.375,1.57,0.5c0.289,0.125,0.52,0.307,0.68,0.547c0.17,0.24,0.25,0.542,0.25,0.906c0,0.354-0.1,0.688-0.311,1
	c-0.199,0.302-0.488,0.542-0.869,0.719c-0.391,0.167-0.83,0.25-1.32,0.25c-0.811,0-1.43-0.167-1.859-0.5
	C534.16,47.104,533.891,46.604,533.779,45.947L533.779,45.947z M544.449,45.806l1.09,0.125c-0.158,0.636-0.479,1.131-0.949,1.485
	c-0.471,0.354-1.061,0.531-1.779,0.531c-0.91,0-1.631-0.281-2.17-0.844c-0.541-0.563-0.801-1.349-0.801-2.359
	c0-1.042,0.27-1.849,0.811-2.422c0.539-0.583,1.24-0.875,2.1-0.875c0.83,0,1.51,0.281,2.029,0.844
	c0.531,0.562,0.791,1.359,0.791,2.39c0,0.063,0,0.157,0,0.282h-4.641c0.041,0.687,0.24,1.213,0.58,1.578
	c0.34,0.354,0.781,0.531,1.301,0.531c0.379,0,0.709-0.099,0.98-0.297C544.07,46.567,544.289,46.244,544.449,45.806L544.449,45.806z
	 M541,44.104h3.459c-0.039-0.531-0.17-0.927-0.389-1.188c-0.34-0.407-0.781-0.61-1.311-0.61c-0.49,0-0.9,0.162-1.23,0.485
	C541.199,43.114,541.029,43.551,541,44.104L541,44.104z M554.18,50.197V47.15c-0.17,0.229-0.41,0.422-0.709,0.578
	c-0.291,0.146-0.602,0.219-0.941,0.219c-0.74,0-1.369-0.292-1.898-0.875c-0.531-0.594-0.801-1.406-0.801-2.438
	c0-0.625,0.109-1.182,0.33-1.671c0.221-0.5,0.529-0.875,0.939-1.125c0.41-0.261,0.871-0.391,1.359-0.391
	c0.771,0,1.371,0.323,1.811,0.969v-0.828h0.951v8.609H554.18L554.18,50.197z M550.91,44.681c0,0.802,0.17,1.401,0.5,1.797
	c0.34,0.396,0.75,0.594,1.221,0.594c0.449,0,0.828-0.188,1.148-0.563c0.33-0.385,0.49-0.963,0.49-1.734
	c0-0.833-0.17-1.458-0.52-1.875c-0.33-0.417-0.73-0.625-1.199-0.625c-0.451,0-0.83,0.198-1.16,0.594
	C551.07,43.254,550.91,43.858,550.91,44.681L550.91,44.681z M560.959,47.806v-0.922c-0.488,0.709-1.148,1.063-1.988,1.063
	c-0.361,0-0.701-0.068-1.031-0.203c-0.309-0.146-0.539-0.323-0.699-0.531c-0.16-0.219-0.27-0.485-0.33-0.797
	c-0.041-0.198-0.061-0.526-0.061-0.985v-3.843h1.061v3.453c0,0.541,0.02,0.911,0.061,1.109c0.07,0.271,0.199,0.49,0.41,0.656
	c0.219,0.157,0.488,0.235,0.809,0.235s0.611-0.078,0.881-0.235c0.279-0.166,0.48-0.39,0.59-0.672
	c0.129-0.281,0.189-0.687,0.189-1.218v-3.328h1.051v6.218H560.959L560.959,47.806z M567.801,45.806l1.1,0.125
	c-0.17,0.636-0.49,1.131-0.961,1.485c-0.459,0.354-1.059,0.531-1.779,0.531c-0.9,0-1.631-0.281-2.17-0.844
	c-0.529-0.563-0.801-1.349-0.801-2.359c0-1.042,0.281-1.849,0.82-2.422c0.541-0.583,1.24-0.875,2.09-0.875
	c0.83,0,1.51,0.281,2.031,0.844c0.529,0.562,0.799,1.359,0.799,2.39c0,0.063,0,0.157,0,0.282h-4.641
	c0.041,0.687,0.23,1.213,0.58,1.578c0.34,0.354,0.771,0.531,1.291,0.531c0.391,0,0.721-0.099,0.99-0.297
	C567.43,46.567,567.65,46.244,567.801,45.806L567.801,45.806z M564.35,44.104h3.471c-0.041-0.531-0.17-0.927-0.391-1.188
	c-0.34-0.407-0.779-0.61-1.311-0.61c-0.488,0-0.898,0.162-1.238,0.485C564.561,43.114,564.381,43.551,564.35,44.104L564.35,44.104z
	 M570.211,47.806v-6.218h0.959v0.937c0.23-0.437,0.449-0.724,0.65-0.859c0.209-0.146,0.439-0.219,0.689-0.219
	c0.35,0,0.711,0.109,1.08,0.328l-0.359,0.984c-0.26-0.156-0.521-0.234-0.77-0.234c-0.24,0-0.451,0.073-0.641,0.219
	c-0.18,0.135-0.301,0.328-0.371,0.578c-0.129,0.375-0.189,0.781-0.189,1.219v3.265H570.211L570.211,47.806z M574.18,50.197
	l-0.129-0.984c0.229,0.062,0.43,0.093,0.609,0.093c0.23,0,0.41-0.041,0.549-0.125c0.141-0.073,0.262-0.177,0.361-0.312
	c0.061-0.115,0.17-0.38,0.33-0.797c0.01-0.052,0.039-0.135,0.09-0.25l-2.381-6.234h1.15l1.291,3.593
	c0.17,0.459,0.318,0.943,0.459,1.453c0.121-0.489,0.27-0.963,0.43-1.421l1.33-3.625h1.051l-2.359,6.328
	c-0.262,0.677-0.461,1.146-0.602,1.406c-0.18,0.354-0.4,0.609-0.65,0.766c-0.238,0.166-0.529,0.25-0.859,0.25
	C574.65,50.338,574.43,50.291,574.18,50.197L574.18,50.197z"/>
<path fill="#BFFFBF" d="M650.609,209.859v23.326c0,2.209,1.791,4,4,4h105.521c2.209,0,4-1.791,4-4v-23.326c0-2.209-1.791-4-4-4
	H654.609C652.4,205.859,650.609,207.65,650.609,209.859L650.609,209.859z"/>
<path fill="none" stroke="#000000" stroke-miterlimit="1.45" d="M650.609,209.859v23.326c0,2.209,1.791,4,4,4h105.521
	c2.209,0,4-1.791,4-4v-23.326c0-2.209-1.791-4-4-4H654.609C652.4,205.859,650.609,207.65,650.609,209.859L650.609,209.859z"/>
<path d="M656.26,226.236v-8.594h2.971c0.66,0,1.17,0.042,1.529,0.125c0.49,0.115,0.9,0.317,1.25,0.609
	c0.461,0.386,0.791,0.88,1.01,1.484c0.23,0.594,0.35,1.271,0.35,2.031c0,0.655-0.08,1.234-0.238,1.734
	c-0.141,0.5-0.342,0.916-0.58,1.25c-0.23,0.333-0.5,0.594-0.791,0.781c-0.279,0.188-0.619,0.333-1.02,0.438
	c-0.391,0.094-0.85,0.141-1.371,0.141H656.26L656.26,226.236z M657.4,225.221h1.83c0.57,0,1.02-0.053,1.34-0.156
	c0.32-0.104,0.58-0.255,0.77-0.453c0.27-0.261,0.48-0.62,0.619-1.078c0.16-0.459,0.24-1.011,0.24-1.656
	c0-0.896-0.16-1.584-0.459-2.063c-0.291-0.49-0.641-0.818-1.061-0.984c-0.311-0.115-0.799-0.172-1.471-0.172H657.4V225.221
	L657.4,225.221z M668.859,225.471c-0.389,0.334-0.77,0.567-1.139,0.702c-0.352,0.137-0.74,0.204-1.16,0.204
	c-0.68,0-1.211-0.167-1.57-0.5c-0.371-0.334-0.551-0.761-0.551-1.281c0-0.303,0.07-0.578,0.201-0.828
	c0.139-0.26,0.318-0.463,0.549-0.609c0.23-0.156,0.48-0.271,0.77-0.344c0.191-0.063,0.512-0.12,0.932-0.172
	c0.85-0.095,1.469-0.213,1.879-0.359c0-0.146,0-0.235,0-0.266c0-0.438-0.1-0.745-0.299-0.922c-0.271-0.229-0.67-0.344-1.201-0.344
	c-0.49,0-0.859,0.088-1.1,0.266c-0.24,0.167-0.41,0.469-0.529,0.905l-1.031-0.14c0.1-0.438,0.25-0.792,0.471-1.063
	c0.221-0.271,0.529-0.479,0.939-0.625c0.4-0.146,0.871-0.219,1.4-0.219c0.539,0,0.971,0.063,1.301,0.188s0.58,0.281,0.738,0.469
	c0.15,0.188,0.262,0.427,0.32,0.719c0.031,0.178,0.051,0.5,0.051,0.969v1.406c0,0.979,0.02,1.599,0.061,1.859
	c0.049,0.26,0.148,0.51,0.279,0.75h-1.109C668.959,226.018,668.891,225.763,668.859,225.471L668.859,225.471z M668.77,223.111
	c-0.389,0.156-0.959,0.292-1.719,0.406c-0.441,0.063-0.75,0.136-0.92,0.219c-0.182,0.073-0.32,0.182-0.422,0.328
	c-0.1,0.146-0.148,0.313-0.148,0.5c0,0.281,0.109,0.516,0.32,0.703c0.219,0.188,0.529,0.28,0.93,0.28c0.41,0,0.77-0.088,1.08-0.265
	c0.33-0.177,0.559-0.422,0.709-0.735c0.109-0.238,0.17-0.588,0.17-1.046V223.111L668.77,223.111z M673.77,225.298l0.16,0.923
	c-0.311,0.063-0.57,0.094-0.799,0.094c-0.391,0-0.682-0.058-0.891-0.172c-0.211-0.125-0.359-0.286-0.451-0.484
	c-0.09-0.198-0.129-0.615-0.129-1.25v-3.578h-0.77v-0.813h0.77v-1.547l1.049-0.625v2.172h1.061v0.813h-1.061v3.641
	c0,0.302,0.012,0.494,0.041,0.577c0.051,0.084,0.109,0.151,0.189,0.204s0.201,0.078,0.361,0.078
	C673.43,225.33,673.58,225.319,673.77,225.298L673.77,225.298z M678.869,225.471c-0.398,0.334-0.779,0.567-1.139,0.702
	c-0.361,0.137-0.74,0.204-1.16,0.204c-0.689,0-1.211-0.167-1.58-0.5c-0.359-0.334-0.541-0.761-0.541-1.281
	c0-0.303,0.061-0.578,0.201-0.828c0.139-0.26,0.32-0.463,0.549-0.609c0.23-0.156,0.48-0.271,0.76-0.344
	c0.201-0.063,0.512-0.12,0.941-0.172c0.84-0.095,1.469-0.213,1.879-0.359c0-0.146,0-0.235,0-0.266c0-0.438-0.1-0.745-0.299-0.922
	c-0.271-0.229-0.67-0.344-1.201-0.344c-0.49,0-0.859,0.088-1.1,0.266c-0.24,0.167-0.42,0.469-0.529,0.905l-1.031-0.14
	c0.09-0.438,0.25-0.792,0.471-1.063c0.221-0.271,0.529-0.479,0.939-0.625c0.4-0.146,0.871-0.219,1.4-0.219s0.971,0.063,1.301,0.188
	s0.58,0.281,0.729,0.469c0.16,0.188,0.271,0.427,0.33,0.719c0.031,0.178,0.051,0.5,0.051,0.969v1.406
	c0,0.979,0.02,1.599,0.061,1.859c0.049,0.26,0.15,0.51,0.279,0.75h-1.109C678.971,226.018,678.9,225.763,678.869,225.471
	L678.869,225.471z M678.779,223.111c-0.389,0.156-0.959,0.292-1.719,0.406c-0.441,0.063-0.75,0.136-0.93,0.219
	c-0.172,0.073-0.311,0.182-0.422,0.328c-0.09,0.146-0.139,0.313-0.139,0.5c0,0.281,0.109,0.516,0.311,0.703
	c0.219,0.188,0.539,0.28,0.939,0.28c0.41,0,0.77-0.088,1.08-0.265c0.32-0.177,0.559-0.422,0.699-0.735
	c0.121-0.238,0.18-0.588,0.18-1.046V223.111L678.779,223.111z M682.449,226.236h-0.99v-8.594h1.07v3.063
	c0.451-0.552,1.01-0.828,1.701-0.828c0.389,0,0.75,0.078,1.08,0.234c0.34,0.146,0.619,0.359,0.84,0.641
	c0.23,0.281,0.41,0.619,0.529,1.016c0.131,0.396,0.189,0.817,0.189,1.266c0,1.063-0.26,1.885-0.799,2.469
	c-0.531,0.583-1.16,0.875-1.891,0.875c-0.74,0-1.311-0.308-1.73-0.922V226.236L682.449,226.236z M682.43,223.08
	c0,0.739,0.109,1.276,0.32,1.609c0.33,0.542,0.779,0.813,1.34,0.813c0.461,0,0.85-0.197,1.189-0.594
	c0.34-0.396,0.51-0.995,0.51-1.797c0-0.813-0.158-1.412-0.479-1.797s-0.711-0.578-1.17-0.578c-0.461,0-0.861,0.203-1.211,0.609
	C682.6,221.741,682.43,222.319,682.43,223.08L682.43,223.08z M692.221,225.471c-0.4,0.334-0.781,0.567-1.141,0.702
	c-0.359,0.137-0.74,0.204-1.16,0.204c-0.689,0-1.211-0.167-1.58-0.5c-0.359-0.334-0.551-0.761-0.551-1.281
	c0-0.303,0.07-0.578,0.211-0.828c0.131-0.26,0.32-0.463,0.539-0.609c0.23-0.156,0.49-0.271,0.771-0.344
	c0.199-0.063,0.51-0.12,0.939-0.172c0.84-0.095,1.471-0.213,1.869-0.359c0-0.146,0-0.235,0-0.266c0-0.438-0.1-0.745-0.289-0.922
	c-0.27-0.229-0.68-0.344-1.211-0.344c-0.488,0-0.85,0.088-1.09,0.266c-0.24,0.167-0.42,0.469-0.529,0.905l-1.029-0.14
	c0.09-0.438,0.25-0.792,0.469-1.063c0.211-0.271,0.531-0.479,0.93-0.625c0.41-0.146,0.881-0.219,1.41-0.219
	c0.531,0,0.961,0.063,1.301,0.188c0.33,0.125,0.57,0.281,0.73,0.469s0.27,0.427,0.33,0.719c0.029,0.178,0.049,0.5,0.049,0.969v1.406
	c0,0.979,0.02,1.599,0.061,1.859c0.051,0.26,0.141,0.51,0.279,0.75h-1.109C692.32,226.018,692.25,225.763,692.221,225.471
	L692.221,225.471z M692.119,223.111c-0.379,0.156-0.959,0.292-1.719,0.406c-0.43,0.063-0.74,0.136-0.92,0.219
	c-0.17,0.073-0.32,0.182-0.42,0.328c-0.09,0.146-0.141,0.313-0.141,0.5c0,0.281,0.1,0.516,0.311,0.703
	c0.219,0.188,0.529,0.28,0.939,0.28s0.77-0.088,1.08-0.265c0.32-0.177,0.561-0.422,0.699-0.735c0.121-0.238,0.17-0.588,0.17-1.046
	V223.111L692.119,223.111z M694.41,224.377l1.029-0.156c0.061,0.417,0.221,0.734,0.48,0.952c0.27,0.22,0.65,0.329,1.141,0.329
	c0.479,0,0.84-0.094,1.059-0.281c0.24-0.198,0.361-0.433,0.361-0.703c0-0.239-0.1-0.428-0.311-0.563
	c-0.141-0.094-0.5-0.214-1.08-0.359c-0.77-0.198-1.301-0.364-1.609-0.5c-0.291-0.146-0.51-0.344-0.67-0.594
	c-0.15-0.25-0.23-0.531-0.23-0.844c0-0.271,0.061-0.526,0.189-0.766c0.121-0.239,0.291-0.438,0.51-0.595
	c0.17-0.113,0.391-0.213,0.67-0.296c0.281-0.084,0.59-0.125,0.932-0.125c0.469,0,0.898,0.072,1.26,0.219
	c0.379,0.136,0.648,0.322,0.83,0.563c0.18,0.239,0.299,0.557,0.359,0.953l-1.029,0.141c-0.041-0.313-0.182-0.558-0.41-0.734
	c-0.221-0.188-0.541-0.281-0.951-0.281c-0.48,0-0.83,0.083-1.029,0.25c-0.211,0.156-0.32,0.344-0.32,0.562
	c0,0.137,0.051,0.257,0.131,0.36c0.09,0.114,0.229,0.208,0.398,0.281c0.111,0.042,0.42,0.13,0.941,0.266
	c0.75,0.208,1.27,0.375,1.559,0.5c0.301,0.125,0.531,0.308,0.691,0.547c0.17,0.239,0.25,0.541,0.25,0.906
	c0,0.354-0.102,0.688-0.311,1c-0.199,0.302-0.49,0.541-0.869,0.719c-0.391,0.166-0.83,0.25-1.32,0.25c-0.811,0-1.43-0.167-1.861-0.5
	C694.789,225.533,694.52,225.033,694.41,224.377L694.41,224.377z M705.08,224.236l1.09,0.125c-0.16,0.635-0.48,1.13-0.949,1.484
	c-0.471,0.354-1.061,0.531-1.781,0.531c-0.91,0-1.629-0.281-2.17-0.844c-0.539-0.563-0.799-1.349-0.799-2.36
	c0-1.041,0.27-1.849,0.809-2.421c0.541-0.584,1.24-0.875,2.102-0.875c0.828,0,1.51,0.281,2.029,0.844
	c0.529,0.563,0.789,1.359,0.789,2.391c0,0.062,0,0.156,0,0.281h-4.639c0.039,0.688,0.24,1.214,0.58,1.578
	c0.34,0.354,0.779,0.531,1.299,0.531c0.381,0,0.711-0.099,0.98-0.297C704.699,224.996,704.92,224.673,705.08,224.236L705.08,224.236
	z M701.619,222.533h3.471c-0.039-0.531-0.17-0.927-0.391-1.188c-0.34-0.406-0.779-0.609-1.309-0.609c-0.49,0-0.9,0.161-1.23,0.484
	C701.83,221.543,701.66,221.981,701.619,222.533L701.619,222.533z M710.82,226.236v-6.219h0.949v0.938
	c0.24-0.438,0.461-0.724,0.66-0.859c0.211-0.146,0.439-0.219,0.689-0.219c0.352,0,0.711,0.109,1.08,0.328l-0.359,0.984
	c-0.26-0.156-0.52-0.234-0.77-0.234c-0.24,0-0.451,0.073-0.641,0.218c-0.18,0.137-0.299,0.329-0.379,0.579
	c-0.121,0.375-0.182,0.781-0.182,1.219v3.266H710.82L710.82,226.236z M719.08,224.236l1.1,0.125c-0.17,0.635-0.49,1.13-0.959,1.484
	c-0.471,0.354-1.061,0.531-1.781,0.531c-0.9,0-1.629-0.281-2.17-0.844c-0.529-0.563-0.799-1.349-0.799-2.36
	c0-1.041,0.27-1.849,0.818-2.421c0.541-0.584,1.23-0.875,2.092-0.875c0.828,0,1.51,0.281,2.029,0.844
	c0.529,0.563,0.799,1.359,0.799,2.391c0,0.062,0,0.156,0,0.281h-4.639c0.039,0.688,0.23,1.214,0.57,1.578
	c0.35,0.354,0.779,0.531,1.299,0.531c0.391,0,0.711-0.099,0.99-0.297C718.709,224.996,718.93,224.673,719.08,224.236L719.08,224.236
	z M715.631,222.533h3.469c-0.039-0.531-0.17-0.927-0.391-1.188c-0.35-0.406-0.779-0.609-1.318-0.609c-0.49,0-0.9,0.161-1.23,0.484
	C715.84,221.543,715.66,221.981,715.631,222.533L715.631,222.533z M721.08,224.377l1.039-0.156c0.061,0.417,0.221,0.734,0.48,0.952
	c0.27,0.22,0.65,0.329,1.141,0.329c0.48,0,0.83-0.094,1.061-0.281c0.238-0.198,0.359-0.433,0.359-0.703
	c0-0.239-0.1-0.428-0.311-0.563c-0.15-0.094-0.51-0.214-1.08-0.359c-0.77-0.198-1.311-0.364-1.609-0.5
	c-0.291-0.146-0.51-0.344-0.67-0.594s-0.23-0.531-0.23-0.844c0-0.271,0.061-0.526,0.18-0.766c0.131-0.239,0.301-0.438,0.52-0.595
	c0.172-0.113,0.391-0.213,0.672-0.296c0.279-0.084,0.59-0.125,0.92-0.125c0.479,0,0.898,0.072,1.27,0.219
	c0.369,0.136,0.65,0.322,0.83,0.563c0.17,0.239,0.289,0.557,0.359,0.953l-1.039,0.141c-0.041-0.313-0.17-0.558-0.4-0.734
	c-0.221-0.188-0.541-0.281-0.951-0.281c-0.479,0-0.83,0.083-1.039,0.25c-0.199,0.156-0.311,0.344-0.311,0.562
	c0,0.137,0.041,0.257,0.131,0.36c0.09,0.114,0.23,0.208,0.4,0.281c0.109,0.042,0.42,0.13,0.939,0.266
	c0.75,0.208,1.27,0.375,1.561,0.5c0.289,0.125,0.52,0.308,0.689,0.547s0.25,0.541,0.25,0.906c0,0.354-0.1,0.688-0.311,1
	c-0.199,0.302-0.49,0.541-0.879,0.719c-0.381,0.166-0.82,0.25-1.311,0.25c-0.811,0-1.43-0.167-1.859-0.5
	C721.459,225.533,721.199,225.033,721.08,224.377L721.08,224.377z M727.51,228.627v-8.609h0.949v0.797
	c0.23-0.313,0.48-0.547,0.762-0.703c0.299-0.156,0.648-0.234,1.049-0.234c0.531,0,1,0.136,1.41,0.406
	c0.4,0.271,0.711,0.656,0.9,1.156c0.209,0.5,0.32,1.047,0.32,1.641c0,0.635-0.121,1.208-0.35,1.718
	c-0.221,0.512-0.541,0.901-0.98,1.173c-0.439,0.271-0.9,0.406-1.381,0.406c-0.35,0-0.67-0.072-0.949-0.219
	c-0.281-0.156-0.51-0.344-0.689-0.563v3.031H727.51L727.51,228.627z M728.459,223.158c0,0.802,0.16,1.396,0.48,1.781
	c0.33,0.375,0.721,0.563,1.18,0.563c0.461,0,0.871-0.197,1.201-0.594c0.33-0.396,0.5-1.011,0.5-1.844c0-0.792-0.16-1.38-0.49-1.767
	c-0.32-0.395-0.711-0.593-1.17-0.593c-0.451,0-0.84,0.208-1.189,0.625C728.631,221.746,728.459,222.356,728.459,223.158
	L728.459,223.158z M733.789,223.127c0-1.156,0.32-2.011,0.951-2.563c0.529-0.458,1.18-0.688,1.959-0.688
	c0.852,0,1.551,0.281,2.09,0.844c0.551,0.552,0.83,1.322,0.83,2.313c0,0.802-0.119,1.432-0.359,1.89
	c-0.24,0.46-0.6,0.818-1.061,1.079c-0.459,0.25-0.959,0.375-1.5,0.375c-0.869,0-1.568-0.276-2.109-0.829
	C734.051,224.986,733.789,224.18,733.789,223.127L733.789,223.127z M734.869,223.127c0,0.791,0.17,1.386,0.512,1.781
	c0.359,0.396,0.789,0.594,1.318,0.594c0.531,0,0.961-0.197,1.311-0.594c0.34-0.396,0.51-1,0.51-1.813c0-0.771-0.17-1.354-0.529-1.75
	c-0.34-0.396-0.77-0.594-1.291-0.594c-0.529,0-0.959,0.197-1.318,0.594C735.039,221.731,734.869,222.324,734.869,223.127
	L734.869,223.127z M740.85,226.236v-6.219h0.939v0.875c0.461-0.678,1.121-1.016,1.99-1.016c0.371,0,0.711,0.067,1.031,0.203
	c0.32,0.135,0.559,0.313,0.719,0.531c0.15,0.219,0.26,0.474,0.32,0.766c0.031,0.197,0.051,0.541,0.051,1.031v3.828h-1.051v-3.781
	c0-0.438-0.039-0.761-0.119-0.969s-0.23-0.375-0.441-0.5c-0.209-0.136-0.449-0.203-0.729-0.203c-0.451,0-0.84,0.146-1.18,0.438
	c-0.32,0.281-0.48,0.817-0.48,1.609v3.406H740.85L740.85,226.236z M747.109,224.377l1.031-0.156
	c0.059,0.417,0.219,0.734,0.479,0.952c0.271,0.22,0.65,0.329,1.141,0.329c0.48,0,0.84-0.094,1.061-0.281
	c0.24-0.198,0.359-0.433,0.359-0.703c0-0.239-0.1-0.428-0.311-0.563c-0.139-0.094-0.5-0.214-1.08-0.359
	c-0.77-0.198-1.299-0.364-1.609-0.5c-0.289-0.146-0.51-0.344-0.67-0.594c-0.15-0.25-0.23-0.531-0.23-0.844
	c0-0.271,0.061-0.526,0.18-0.766c0.131-0.239,0.301-0.438,0.521-0.595c0.17-0.113,0.389-0.213,0.67-0.296
	c0.279-0.084,0.59-0.125,0.92-0.125c0.48,0,0.91,0.072,1.27,0.219c0.369,0.136,0.65,0.322,0.83,0.563
	c0.18,0.239,0.289,0.557,0.359,0.953L751,221.752c-0.051-0.313-0.18-0.558-0.41-0.734c-0.221-0.188-0.539-0.281-0.949-0.281
	c-0.48,0-0.83,0.083-1.031,0.25c-0.209,0.156-0.32,0.344-0.32,0.562c0,0.137,0.041,0.257,0.131,0.36
	c0.09,0.114,0.23,0.208,0.4,0.281c0.109,0.042,0.42,0.13,0.939,0.266c0.75,0.208,1.27,0.375,1.561,0.5
	c0.299,0.125,0.529,0.308,0.689,0.547c0.17,0.239,0.25,0.541,0.25,0.906c0,0.354-0.1,0.688-0.311,1
	c-0.199,0.302-0.49,0.541-0.879,0.719c-0.381,0.166-0.82,0.25-1.311,0.25c-0.811,0-1.43-0.167-1.859-0.5
	C747.49,225.533,747.221,225.033,747.109,224.377L747.109,224.377z M757.779,224.236l1.09,0.125c-0.17,0.635-0.479,1.13-0.949,1.484
	c-0.471,0.354-1.061,0.531-1.779,0.531c-0.91,0-1.631-0.281-2.182-0.844c-0.529-0.563-0.789-1.349-0.789-2.36
	c0-1.041,0.27-1.849,0.811-2.421c0.539-0.584,1.24-0.875,2.09-0.875c0.84,0,1.51,0.281,2.039,0.844
	c0.531,0.563,0.791,1.359,0.791,2.391c0,0.062,0,0.156,0,0.281h-4.641c0.041,0.688,0.24,1.214,0.58,1.578
	c0.34,0.354,0.779,0.531,1.301,0.531c0.379,0,0.709-0.099,0.979-0.297C757.4,224.996,757.619,224.673,757.779,224.236
	L757.779,224.236z M754.32,222.533h3.469c-0.039-0.531-0.17-0.927-0.389-1.188c-0.34-0.406-0.781-0.609-1.311-0.609
	c-0.49,0-0.9,0.161-1.23,0.484C754.529,221.543,754.359,221.981,754.32,222.533L754.32,222.533z"/>
<image overflow="visible" width="441" height="343" xlink:href="307C0BF3.jpg"  transform="matrix(0.4535 0 0 0.4548 15 189.0005)">
</image>
<image overflow="visible" width="37" height="47" xlink:href="307C0BF0.jpg"  transform="matrix(1 0 0 1 327.6299 41.9751)">
</image>
<g>
	<defs>
		<path id="SVGID_1_" d="M352.26,58.975c0,4.592-3.72,8.315-8.32,8.315c-4.59,0-8.31-3.723-8.31-8.315
			c0-4.593,3.72-8.316,8.31-8.316C348.54,50.659,352.26,54.382,352.26,58.975L352.26,58.975z"/>
	</defs>
	<clipPath id="SVGID_2_">
		<use xlink:href="#SVGID_1_"  overflow="visible"/>
	</clipPath>
	<g clip-path="url(#SVGID_2_)">
		
			<image overflow="visible" width="40" height="39" xlink:href="307C0BFE.jpg"  transform="matrix(0.48 0 0 -0.48 334.3716 68.5869)">
		</image>
	</g>
</g>
<path fill="none" stroke="#27AE27" stroke-miterlimit="1.45" d="M352.26,58.975c0,4.592-3.72,8.315-8.32,8.315
	c-4.59,0-8.31-3.723-8.31-8.315c0-4.593,3.72-8.316,8.31-8.316C348.54,50.659,352.26,54.382,352.26,58.975L352.26,58.975z"/>
<path fill="#FFFFFF" d="M15.5,151.718v23.326c0,2.209,1.791,4,4,4h87.527c2.209,0,4-1.791,4-4v-23.326c0-2.209-1.791-4-4-4H19.5
	C17.291,147.718,15.5,149.509,15.5,151.718L15.5,151.718z"/>
<path fill="none" stroke="#000000" stroke-miterlimit="1.45" d="M15.5,151.718v23.326c0,2.209,1.791,4,4,4h87.527
	c2.209,0,4-1.791,4-4v-23.326c0-2.209-1.791-4-4-4H19.5C17.291,147.718,15.5,149.509,15.5,151.718L15.5,151.718z"/>
<path d="M21.852,168.095v-8.594h3.813c0.771,0,1.354,0.078,1.75,0.235c0.396,0.156,0.713,0.432,0.953,0.828
	c0.24,0.385,0.359,0.812,0.359,1.281c0,0.615-0.198,1.13-0.593,1.547c-0.396,0.417-1.006,0.682-1.829,0.797
	c0.303,0.146,0.532,0.286,0.688,0.422c0.333,0.302,0.646,0.682,0.937,1.14l1.5,2.344h-1.437l-1.125-1.781
	c-0.333-0.521-0.609-0.917-0.828-1.188c-0.208-0.271-0.401-0.458-0.578-0.562c-0.167-0.115-0.339-0.198-0.516-0.25
	c-0.125-0.021-0.333-0.031-0.625-0.031h-1.328v3.812H21.852L21.852,168.095z M22.993,163.298h2.453c0.511,0,0.912-0.052,1.203-0.156
	c0.302-0.115,0.526-0.287,0.672-0.517c0.156-0.239,0.234-0.5,0.234-0.781c0-0.406-0.151-0.74-0.453-1
	c-0.291-0.26-0.755-0.391-1.39-0.391h-2.719V163.298L22.993,163.298z M34.628,166.095l1.093,0.125
	c-0.166,0.635-0.484,1.13-0.953,1.484c-0.468,0.355-1.062,0.532-1.781,0.532c-0.906,0-1.63-0.282-2.172-0.844
	c-0.531-0.563-0.797-1.349-0.797-2.359c0-1.042,0.271-1.849,0.813-2.422c0.542-0.584,1.239-0.875,2.094-0.875
	c0.833,0,1.51,0.281,2.031,0.843c0.531,0.563,0.797,1.36,0.797,2.391c0,0.063,0,0.156,0,0.281h-4.641
	c0.042,0.688,0.234,1.214,0.578,1.578c0.344,0.355,0.776,0.532,1.297,0.532c0.386,0,0.714-0.099,0.984-0.297
	C34.253,166.855,34.471,166.533,34.628,166.095L34.628,166.095z M31.175,164.392h3.468c-0.041-0.531-0.172-0.927-0.39-1.188
	c-0.344-0.406-0.782-0.609-1.313-0.609c-0.489,0-0.901,0.161-1.234,0.484C31.383,163.402,31.206,163.84,31.175,164.392
	L31.175,164.392z M41.114,165.814l1.031,0.14c-0.114,0.709-0.406,1.266-0.875,1.672c-0.468,0.407-1.041,0.61-1.718,0.61
	c-0.855,0-1.542-0.276-2.063-0.828c-0.51-0.563-0.766-1.365-0.766-2.407c0-0.666,0.11-1.25,0.329-1.75
	c0.229-0.51,0.567-0.89,1.015-1.14c0.459-0.25,0.959-0.375,1.5-0.375c0.667,0,1.214,0.172,1.641,0.515
	c0.437,0.334,0.719,0.818,0.844,1.453l-1.032,0.157c-0.093-0.417-0.265-0.73-0.515-0.938c-0.25-0.219-0.552-0.328-0.907-0.328
	c-0.531,0-0.963,0.193-1.296,0.578c-0.334,0.375-0.5,0.974-0.5,1.797c0,0.844,0.161,1.453,0.484,1.828
	c0.323,0.375,0.74,0.563,1.25,0.563c0.417,0,0.76-0.125,1.031-0.375C40.848,166.736,41.031,166.345,41.114,165.814L41.114,165.814z
	 M42.661,164.986c0-1.157,0.318-2.011,0.953-2.563c0.531-0.458,1.182-0.687,1.953-0.687c0.854,0,1.552,0.281,2.094,0.843
	c0.552,0.552,0.828,1.323,0.828,2.313c0,0.802-0.12,1.432-0.359,1.891c-0.24,0.458-0.594,0.817-1.063,1.078
	c-0.458,0.25-0.958,0.375-1.5,0.375c-0.864,0-1.568-0.276-2.109-0.828C42.927,166.845,42.661,166.038,42.661,164.986L42.661,164.986
	z M43.739,164.986c0,0.791,0.172,1.385,0.516,1.781c0.354,0.396,0.791,0.594,1.312,0.594c0.531,0,0.969-0.198,1.313-0.594
	c0.343-0.396,0.515-1,0.515-1.813c0-0.77-0.177-1.354-0.531-1.75c-0.344-0.395-0.776-0.593-1.297-0.593s-0.958,0.198-1.312,0.593
	C43.911,163.59,43.739,164.184,43.739,164.986L43.739,164.986z M49.71,168.095v-6.219h0.953v0.938
	c0.239-0.438,0.458-0.724,0.656-0.86c0.208-0.145,0.438-0.218,0.688-0.218c0.354,0,0.713,0.109,1.078,0.328l-0.36,0.984
	c-0.26-0.156-0.515-0.234-0.765-0.234c-0.24,0-0.453,0.073-0.641,0.219c-0.177,0.135-0.302,0.328-0.375,0.578
	c-0.125,0.375-0.187,0.781-0.187,1.218v3.266H49.71L49.71,168.095z M57.753,168.095v-0.781c-0.396,0.614-0.974,0.922-1.735,0.922
	c-0.5,0-0.958-0.136-1.375-0.407c-0.416-0.281-0.739-0.666-0.968-1.156c-0.23-0.489-0.344-1.052-0.344-1.687
	c0-0.615,0.104-1.177,0.312-1.688c0.209-0.51,0.521-0.896,0.938-1.156c0.417-0.271,0.88-0.406,1.39-0.406
	c0.375,0,0.709,0.078,1,0.234c0.292,0.156,0.532,0.359,0.719,0.609v-3.078h1.047v8.594H57.753L57.753,168.095z M54.425,164.986
	c0,0.802,0.166,1.401,0.5,1.797c0.333,0.385,0.729,0.578,1.187,0.578s0.849-0.188,1.172-0.563c0.323-0.375,0.484-0.948,0.484-1.719
	c0-0.854-0.166-1.479-0.5-1.875c-0.323-0.395-0.724-0.593-1.203-0.593c-0.469,0-0.859,0.192-1.172,0.578
	C54.581,163.564,54.425,164.163,54.425,164.986L54.425,164.986z M64.698,168.095h-0.984v-8.594h1.062v3.063
	c0.448-0.552,1.016-0.828,1.703-0.828c0.386,0,0.745,0.078,1.078,0.234c0.344,0.146,0.625,0.359,0.844,0.641
	c0.229,0.281,0.406,0.619,0.531,1.015s0.188,0.818,0.188,1.266c0,1.062-0.266,1.885-0.797,2.469
	c-0.531,0.583-1.161,0.875-1.891,0.875c-0.739,0-1.317-0.308-1.734-0.922V168.095L64.698,168.095z M64.682,164.939
	c0,0.739,0.105,1.276,0.313,1.609c0.333,0.542,0.781,0.813,1.344,0.813c0.458,0,0.854-0.198,1.187-0.594
	c0.344-0.396,0.516-0.995,0.516-1.797c0-0.812-0.162-1.411-0.485-1.797c-0.322-0.385-0.713-0.578-1.171-0.578
	c-0.459,0-0.86,0.203-1.204,0.609C64.849,163.6,64.682,164.178,64.682,164.939L64.682,164.939z M70.388,168.095v-6.219h0.953v0.938
	c0.239-0.438,0.458-0.724,0.656-0.86c0.208-0.145,0.437-0.218,0.687-0.218c0.355,0,0.714,0.109,1.079,0.328l-0.36,0.984
	c-0.26-0.156-0.515-0.234-0.765-0.234c-0.24,0-0.454,0.073-0.641,0.219c-0.177,0.135-0.302,0.328-0.375,0.578
	c-0.125,0.375-0.188,0.781-0.188,1.218v3.266H70.388L70.388,168.095z M74.009,164.986c0-1.157,0.317-2.011,0.953-2.563
	c0.531-0.458,1.182-0.687,1.953-0.687c0.854,0,1.552,0.281,2.094,0.843c0.552,0.552,0.828,1.323,0.828,2.313
	c0,0.802-0.12,1.432-0.36,1.891c-0.239,0.458-0.593,0.817-1.062,1.078c-0.458,0.25-0.958,0.375-1.5,0.375
	c-0.865,0-1.568-0.276-2.11-0.828C74.274,166.845,74.009,166.038,74.009,164.986L74.009,164.986z M75.087,164.986
	c0,0.791,0.172,1.385,0.515,1.781c0.355,0.396,0.792,0.594,1.313,0.594c0.531,0,0.969-0.198,1.312-0.594
	c0.344-0.396,0.516-1,0.516-1.813c0-0.77-0.177-1.354-0.531-1.75c-0.344-0.395-0.776-0.593-1.297-0.593s-0.958,0.198-1.313,0.593
	C75.259,163.59,75.087,164.184,75.087,164.986L75.087,164.986z M82.214,168.095l-1.907-6.219h1.094l0.985,3.594l0.375,1.328
	c0.02-0.062,0.13-0.489,0.328-1.281l0.984-3.641h1.078l0.938,3.61l0.312,1.187l0.36-1.203l1.062-3.594h1.031l-1.953,6.219h-1.094
	l-0.984-3.734l-0.25-1.047l-1.25,4.781H82.214L82.214,168.095z M89.317,166.236l1.031-0.157c0.063,0.417,0.224,0.735,0.485,0.954
	c0.271,0.218,0.651,0.328,1.14,0.328c0.48,0,0.834-0.094,1.063-0.282c0.24-0.198,0.359-0.432,0.359-0.703
	c0-0.239-0.104-0.427-0.312-0.562c-0.146-0.094-0.505-0.214-1.078-0.36c-0.771-0.198-1.308-0.364-1.61-0.5
	c-0.291-0.145-0.515-0.343-0.672-0.593c-0.156-0.25-0.234-0.532-0.234-0.844c0-0.271,0.063-0.526,0.188-0.766
	c0.125-0.239,0.296-0.437,0.515-0.593c0.167-0.115,0.391-0.214,0.672-0.297c0.281-0.084,0.589-0.125,0.922-0.125
	c0.479,0,0.901,0.073,1.266,0.218c0.375,0.136,0.651,0.323,0.828,0.563c0.177,0.239,0.297,0.557,0.359,0.953l-1.031,0.141
	c-0.042-0.313-0.177-0.558-0.406-0.735c-0.219-0.187-0.537-0.281-0.954-0.281c-0.479,0-0.822,0.083-1.031,0.25
	c-0.208,0.156-0.312,0.344-0.312,0.563c0,0.135,0.041,0.255,0.125,0.359c0.093,0.114,0.229,0.208,0.406,0.281
	c0.104,0.042,0.417,0.13,0.937,0.266c0.75,0.208,1.271,0.375,1.563,0.5s0.521,0.307,0.687,0.547c0.167,0.239,0.25,0.541,0.25,0.906
	c0,0.354-0.104,0.687-0.312,1c-0.198,0.302-0.49,0.542-0.875,0.719c-0.385,0.166-0.823,0.25-1.313,0.25
	c-0.812,0-1.432-0.167-1.859-0.5C89.697,167.392,89.432,166.893,89.317,166.236L89.317,166.236z M99.989,166.095l1.094,0.125
	c-0.167,0.635-0.485,1.13-0.953,1.484c-0.469,0.355-1.063,0.532-1.782,0.532c-0.906,0-1.63-0.282-2.171-0.844
	c-0.532-0.563-0.797-1.349-0.797-2.359c0-1.042,0.271-1.849,0.812-2.422c0.542-0.584,1.24-0.875,2.094-0.875
	c0.833,0,1.51,0.281,2.031,0.843c0.531,0.563,0.797,1.36,0.797,2.391c0,0.063,0,0.156,0,0.281h-4.641
	c0.042,0.688,0.235,1.214,0.579,1.578c0.343,0.355,0.776,0.532,1.296,0.532c0.386,0,0.714-0.099,0.985-0.297
	C99.614,166.855,99.833,166.533,99.989,166.095L99.989,166.095z M96.536,164.392h3.469c-0.042-0.531-0.172-0.927-0.391-1.188
	c-0.344-0.406-0.781-0.609-1.312-0.609c-0.49,0-0.901,0.161-1.235,0.484C96.744,163.402,96.567,163.84,96.536,164.392
	L96.536,164.392z M102.397,168.095v-6.219h0.953v0.938c0.24-0.438,0.459-0.724,0.657-0.86c0.208-0.145,0.437-0.218,0.687-0.218
	c0.354,0,0.714,0.109,1.078,0.328l-0.359,0.984c-0.261-0.156-0.516-0.234-0.766-0.234c-0.239,0-0.453,0.073-0.64,0.219
	c-0.177,0.135-0.302,0.328-0.375,0.578c-0.125,0.375-0.188,0.781-0.188,1.218v3.266H102.397L102.397,168.095z"/>
<path fill="#BFFFBF" d="M172.2,128.43v23.325c0,2.209,1.79,4,4,4h105.52c2.21,0,4-1.791,4-4V128.43c0-2.21-1.79-4-4-4H176.2
	C173.99,124.43,172.2,126.22,172.2,128.43L172.2,128.43z"/>
<path fill="none" stroke="#000000" stroke-miterlimit="1.45" d="M172.2,128.43v23.325c0,2.209,1.79,4,4,4h105.52c2.21,0,4-1.791,4-4
	V128.43c0-2.21-1.79-4-4-4H176.2C173.99,124.43,172.2,126.22,172.2,128.43L172.2,128.43z"/>
<path d="M176.81,144.806v-8.593h3.24c0.65,0,1.18,0.088,1.58,0.265c0.39,0.177,0.7,0.448,0.92,0.813
	c0.23,0.354,0.34,0.729,0.34,1.125c0,0.364-0.1,0.708-0.3,1.031c-0.19,0.323-0.5,0.583-0.9,0.781c0.52,0.156,0.91,0.422,1.19,0.797
	c0.28,0.365,0.42,0.797,0.42,1.297c0,0.396-0.09,0.771-0.25,1.125c-0.17,0.344-0.38,0.609-0.63,0.797
	c-0.25,0.187-0.57,0.328-0.95,0.422c-0.38,0.093-0.83,0.14-1.38,0.14H176.81L176.81,144.806z M177.95,139.822h1.86
	c0.5,0,0.86-0.031,1.08-0.094c0.29-0.083,0.51-0.224,0.66-0.422c0.14-0.208,0.22-0.463,0.22-0.765c0-0.282-0.07-0.532-0.21-0.75
	c-0.13-0.219-0.33-0.365-0.59-0.438c-0.25-0.083-0.68-0.125-1.3-0.125h-1.72V139.822L177.95,139.822z M177.95,143.791h2.14
	c0.37,0,0.62-0.016,0.77-0.047c0.27-0.042,0.49-0.115,0.66-0.219c0.17-0.114,0.32-0.276,0.43-0.484
	c0.12-0.209,0.18-0.448,0.18-0.719c0-0.323-0.09-0.604-0.25-0.844c-0.16-0.239-0.38-0.406-0.68-0.5c-0.29-0.094-0.71-0.14-1.26-0.14
	h-1.99V143.791L177.95,143.791z M184.72,144.806v-6.218h0.96v0.937c0.24-0.437,0.45-0.724,0.65-0.859
	c0.21-0.146,0.44-0.219,0.69-0.219c0.35,0,0.71,0.109,1.08,0.328l-0.36,0.984c-0.26-0.156-0.521-0.234-0.771-0.234
	c-0.24,0-0.45,0.073-0.64,0.219c-0.17,0.135-0.3,0.328-0.37,0.578c-0.13,0.375-0.19,0.781-0.19,1.219v3.265H184.72L184.72,144.806z
	 M188.34,141.697c0-1.156,0.32-2.01,0.96-2.563c0.53-0.458,1.18-0.687,1.95-0.687c0.85,0,1.55,0.281,2.09,0.844
	c0.56,0.552,0.83,1.323,0.83,2.313c0,0.802-0.12,1.433-0.36,1.891s-0.59,0.818-1.06,1.078c-0.46,0.25-0.96,0.375-1.5,0.375
	c-0.86,0-1.57-0.276-2.11-0.828C188.61,143.556,188.34,142.75,188.34,141.697L188.34,141.697z M189.42,141.697
	c0,0.792,0.17,1.385,0.52,1.781c0.35,0.396,0.79,0.594,1.31,0.594c0.53,0,0.97-0.198,1.31-0.594c0.35-0.396,0.52-1,0.52-1.812
	c0-0.771-0.18-1.354-0.53-1.75c-0.351-0.396-0.78-0.594-1.3-0.594s-0.96,0.198-1.31,0.594
	C189.59,140.301,189.42,140.896,189.42,141.697L189.42,141.697z M196.55,144.806l-1.91-6.218h1.1l0.979,3.593l0.38,1.328
	c0.02-0.062,0.13-0.489,0.32-1.281l0.99-3.64h1.08l0.93,3.609l0.32,1.187l0.36-1.203l1.06-3.593h1.03l-1.95,6.218h-1.1l-0.98-3.734
	l-0.25-1.047l-1.25,4.781H196.55L196.55,144.806z M203.65,142.947l1.03-0.156c0.07,0.416,0.23,0.734,0.49,0.953
	c0.27,0.219,0.65,0.328,1.14,0.328c0.48,0,0.83-0.094,1.06-0.281c0.24-0.198,0.36-0.433,0.36-0.703c0-0.24-0.1-0.427-0.31-0.563
	c-0.15-0.094-0.51-0.213-1.08-0.359c-0.77-0.198-1.31-0.365-1.61-0.5c-0.29-0.146-0.51-0.344-0.67-0.594
	c-0.16-0.25-0.24-0.531-0.24-0.844c0-0.271,0.07-0.526,0.19-0.765c0.13-0.24,0.3-0.438,0.521-0.594
	c0.16-0.115,0.39-0.214,0.67-0.297c0.28-0.083,0.59-0.125,0.92-0.125c0.48,0,0.9,0.073,1.27,0.219c0.37,0.135,0.65,0.323,0.83,0.562
	c0.17,0.24,0.29,0.558,0.35,0.953l-1.03,0.141c-0.04-0.313-0.17-0.557-0.4-0.734c-0.22-0.188-0.54-0.282-0.96-0.282
	c-0.48,0-0.82,0.084-1.03,0.25c-0.21,0.157-0.31,0.344-0.31,0.563c0,0.135,0.04,0.255,0.13,0.359c0.09,0.115,0.22,0.209,0.4,0.281
	c0.11,0.042,0.42,0.131,0.94,0.266c0.75,0.208,1.27,0.375,1.56,0.5s0.52,0.307,0.69,0.547s0.25,0.542,0.25,0.906
	c0,0.354-0.11,0.688-0.31,1c-0.2,0.302-0.49,0.542-0.88,0.719c-0.38,0.167-0.82,0.25-1.31,0.25c-0.81,0-1.43-0.167-1.86-0.5
	C204.03,144.104,203.77,143.604,203.65,142.947L203.65,142.947z M214.32,142.806l1.1,0.125c-0.17,0.636-0.49,1.131-0.95,1.485
	c-0.47,0.354-1.07,0.531-1.79,0.531c-0.9,0-1.63-0.281-2.17-0.844c-0.53-0.562-0.79-1.349-0.79-2.359
	c0-1.042,0.271-1.849,0.811-2.422c0.54-0.583,1.24-0.875,2.09-0.875c0.83,0,1.51,0.281,2.03,0.844c0.53,0.563,0.8,1.359,0.8,2.39
	c0,0.063,0,0.157,0,0.282h-4.64c0.04,0.687,0.23,1.213,0.58,1.578c0.34,0.354,0.77,0.531,1.29,0.531c0.39,0,0.72-0.099,0.99-0.297
	C213.95,143.567,214.17,143.244,214.32,142.806L214.32,142.806z M210.87,141.104h3.47c-0.04-0.531-0.17-0.927-0.39-1.187
	c-0.34-0.407-0.78-0.61-1.31-0.61c-0.49,0-0.9,0.162-1.24,0.485C211.08,140.114,210.9,140.551,210.87,141.104L210.87,141.104z
	 M215.95,144.947l2.49-8.875h0.84l-2.48,8.875H215.95L215.95,144.947z M224.33,142.806l1.1,0.125c-0.17,0.636-0.49,1.131-0.96,1.485
	c-0.47,0.354-1.06,0.531-1.78,0.531c-0.9,0-1.63-0.281-2.17-0.844c-0.53-0.562-0.8-1.349-0.8-2.359c0-1.042,0.27-1.849,0.82-2.422
	c0.54-0.583,1.24-0.875,2.09-0.875c0.83,0,1.51,0.281,2.03,0.844c0.53,0.563,0.8,1.359,0.8,2.39c0,0.063,0,0.157,0,0.282h-4.64
	c0.04,0.687,0.23,1.213,0.58,1.578c0.34,0.354,0.77,0.531,1.29,0.531c0.39,0,0.72-0.099,0.99-0.297
	C223.96,143.567,224.18,143.244,224.33,142.806L224.33,142.806z M220.88,141.104h3.47c-0.04-0.531-0.17-0.927-0.39-1.187
	c-0.35-0.407-0.78-0.61-1.31-0.61c-0.49,0-0.91,0.162-1.24,0.485C221.09,140.114,220.91,140.551,220.88,141.104L220.88,141.104z
	 M230.79,144.806v-0.781c-0.4,0.615-0.98,0.922-1.74,0.922c-0.5,0-0.96-0.135-1.37-0.406c-0.42-0.282-0.74-0.667-0.97-1.157
	c-0.23-0.489-0.34-1.052-0.34-1.687c0-0.615,0.1-1.177,0.31-1.688c0.21-0.51,0.52-0.895,0.94-1.156
	c0.41-0.271,0.88-0.406,1.39-0.406c0.37,0,0.7,0.078,1,0.234c0.29,0.157,0.53,0.36,0.72,0.61v-3.078h1.04v8.593H230.79
	L230.79,144.806z M227.46,141.697c0,0.802,0.17,1.401,0.5,1.797c0.33,0.385,0.73,0.578,1.19,0.578s0.85-0.188,1.17-0.563
	c0.32-0.375,0.48-0.947,0.48-1.718c0-0.854-0.16-1.479-0.5-1.875c-0.32-0.396-0.72-0.594-1.2-0.594c-0.47,0-0.86,0.193-1.17,0.578
	C227.62,140.275,227.46,140.875,227.46,141.697L227.46,141.697z M233.43,137.431v-1.218h1.06v1.218H233.43L233.43,137.431z
	 M233.43,144.806v-6.218h1.06v6.218H233.43L233.43,144.806z M238.39,143.869l0.16,0.922c-0.3,0.062-0.57,0.093-0.8,0.093
	c-0.38,0-0.68-0.057-0.89-0.171c-0.21-0.125-0.36-0.287-0.45-0.485c-0.08-0.198-0.13-0.614-0.13-1.25V139.4h-0.76v-0.812h0.76
	v-1.547l1.05-0.625v2.172h1.06v0.812h-1.06v3.641c0,0.302,0.02,0.495,0.05,0.578c0.04,0.083,0.1,0.151,0.18,0.203
	c0.09,0.052,0.21,0.078,0.36,0.078C238.05,143.9,238.21,143.89,238.39,143.869L238.39,143.869z M242.75,144.806v-6.218h0.95v0.937
	c0.24-0.437,0.46-0.724,0.66-0.859c0.21-0.146,0.44-0.219,0.69-0.219c0.35,0,0.71,0.109,1.07,0.328l-0.36,0.984
	c-0.26-0.156-0.51-0.234-0.76-0.234c-0.24,0-0.45,0.073-0.64,0.219c-0.18,0.135-0.3,0.328-0.38,0.578
	c-0.12,0.375-0.18,0.781-0.18,1.219v3.265H242.75L242.75,144.806z M251.01,142.806l1.09,0.125c-0.16,0.636-0.48,1.131-0.95,1.485
	c-0.47,0.354-1.06,0.531-1.78,0.531c-0.91,0-1.63-0.281-2.17-0.844c-0.53-0.562-0.8-1.349-0.8-2.359c0-1.042,0.27-1.849,0.81-2.422
	c0.55-0.583,1.24-0.875,2.1-0.875c0.83,0,1.51,0.281,2.03,0.844c0.53,0.563,0.8,1.359,0.8,2.39c0,0.063,0,0.157,0,0.282h-4.65
	c0.05,0.687,0.24,1.213,0.58,1.578c0.35,0.354,0.78,0.531,1.3,0.531c0.39,0,0.71-0.099,0.98-0.297
	C250.64,143.567,250.85,143.244,251.01,142.806L251.01,142.806z M247.56,141.104h3.47c-0.05-0.531-0.18-0.927-0.39-1.187
	c-0.35-0.407-0.79-0.61-1.32-0.61c-0.49,0-0.9,0.162-1.23,0.485C247.77,140.114,247.59,140.551,247.56,141.104L247.56,141.104z
	 M257.5,142.525l1.03,0.141c-0.12,0.708-0.41,1.265-0.88,1.672c-0.47,0.406-1.04,0.609-1.72,0.609c-0.85,0-1.54-0.276-2.06-0.828
	c-0.51-0.563-0.76-1.365-0.76-2.406c0-0.667,0.11-1.25,0.32-1.75c0.23-0.511,0.57-0.891,1.02-1.141c0.46-0.25,0.96-0.375,1.5-0.375
	c0.67,0,1.21,0.172,1.64,0.516c0.44,0.333,0.72,0.817,0.84,1.453l-1.03,0.156c-0.09-0.417-0.26-0.729-0.51-0.938
	c-0.25-0.218-0.55-0.328-0.91-0.328c-0.53,0-0.96,0.193-1.3,0.578c-0.33,0.375-0.5,0.974-0.5,1.797c0,0.844,0.17,1.453,0.49,1.828
	c0.32,0.375,0.74,0.563,1.25,0.563c0.42,0,0.76-0.125,1.03-0.375C257.23,143.447,257.41,143.056,257.5,142.525L257.5,142.525z
	 M259.04,141.697c0-1.156,0.32-2.01,0.96-2.563c0.53-0.458,1.18-0.687,1.95-0.687c0.85,0,1.55,0.281,2.09,0.844
	c0.56,0.552,0.83,1.323,0.83,2.313c0,0.802-0.12,1.433-0.36,1.891c-0.24,0.458-0.59,0.818-1.061,1.078
	c-0.46,0.25-0.959,0.375-1.5,0.375c-0.86,0-1.57-0.276-2.11-0.828C259.31,143.556,259.04,142.75,259.04,141.697L259.04,141.697z
	 M260.12,141.697c0,0.792,0.17,1.385,0.52,1.781c0.35,0.396,0.79,0.594,1.31,0.594c0.53,0,0.97-0.198,1.31-0.594
	c0.35-0.396,0.52-1,0.52-1.812c0-0.771-0.18-1.354-0.53-1.75s-0.78-0.594-1.3-0.594c-0.52,0-0.959,0.198-1.31,0.594
	C260.29,140.301,260.12,140.896,260.12,141.697L260.12,141.697z M266.09,144.806v-6.218h0.96v0.937
	c0.23-0.437,0.45-0.724,0.649-0.859c0.21-0.146,0.44-0.219,0.69-0.219c0.35,0,0.71,0.109,1.08,0.328l-0.36,0.984
	c-0.26-0.156-0.52-0.234-0.77-0.234c-0.24,0-0.45,0.073-0.64,0.219c-0.18,0.135-0.3,0.328-0.37,0.578
	c-0.13,0.375-0.19,0.781-0.19,1.219v3.265H266.09L266.09,144.806z M274.14,144.806v-0.781c-0.4,0.615-0.98,0.922-1.74,0.922
	c-0.5,0-0.96-0.135-1.37-0.406c-0.42-0.282-0.74-0.667-0.97-1.157c-0.23-0.489-0.35-1.052-0.35-1.687c0-0.615,0.11-1.177,0.32-1.688
	c0.2-0.51,0.521-0.895,0.93-1.156c0.42-0.271,0.88-0.406,1.39-0.406c0.38,0,0.71,0.078,1,0.234c0.3,0.157,0.54,0.36,0.72,0.61
	v-3.078h1.05v8.593H274.14L274.14,144.806z M270.81,141.697c0,0.802,0.16,1.401,0.5,1.797c0.33,0.385,0.73,0.578,1.18,0.578
	c0.46,0,0.85-0.188,1.18-0.563c0.32-0.375,0.48-0.947,0.48-1.718c0-0.854-0.17-1.479-0.5-1.875c-0.32-0.396-0.72-0.594-1.2-0.594
	c-0.47,0-0.86,0.193-1.17,0.578C270.96,140.275,270.81,140.875,270.81,141.697L270.81,141.697z M276.36,142.947l1.03-0.156
	c0.06,0.416,0.22,0.734,0.48,0.953c0.27,0.219,0.65,0.328,1.14,0.328c0.48,0,0.84-0.094,1.06-0.281
	c0.24-0.198,0.36-0.433,0.36-0.703c0-0.24-0.1-0.427-0.31-0.563c-0.14-0.094-0.5-0.213-1.08-0.359c-0.77-0.198-1.3-0.365-1.61-0.5
	c-0.29-0.146-0.51-0.344-0.67-0.594c-0.15-0.25-0.23-0.531-0.23-0.844c0-0.271,0.06-0.526,0.19-0.765
	c0.12-0.24,0.29-0.438,0.51-0.594c0.17-0.115,0.39-0.214,0.67-0.297c0.28-0.083,0.59-0.125,0.92-0.125c0.48,0,0.91,0.073,1.27,0.219
	c0.38,0.135,0.65,0.323,0.83,0.562c0.18,0.24,0.3,0.558,0.36,0.953l-1.03,0.141c-0.05-0.313-0.18-0.557-0.41-0.734
	c-0.22-0.188-0.54-0.282-0.95-0.282c-0.48,0-0.83,0.084-1.03,0.25c-0.21,0.157-0.32,0.344-0.32,0.563c0,0.135,0.05,0.255,0.13,0.359
	c0.09,0.115,0.23,0.209,0.4,0.281c0.11,0.042,0.42,0.131,0.94,0.266c0.75,0.208,1.27,0.375,1.56,0.5
	c0.3,0.125,0.53,0.307,0.69,0.547c0.17,0.24,0.25,0.542,0.25,0.906c0,0.354-0.1,0.688-0.311,1c-0.2,0.302-0.49,0.542-0.88,0.719
	c-0.38,0.167-0.82,0.25-1.31,0.25c-0.81,0-1.43-0.167-1.86-0.5C276.74,144.104,276.47,143.604,276.36,142.947L276.36,142.947z"/>
<path fill="#BFFFBF" d="M461.25,144.695v23.326c0,2.209,1.789,4,4,4h64.529c2.211,0,4-1.791,4-4v-23.326c0-2.209-1.789-4-4-4H465.25
	C463.039,140.695,461.25,142.486,461.25,144.695L461.25,144.695z"/>
<path fill="none" stroke="#000000" stroke-miterlimit="1.45" d="M461.25,144.695v23.326c0,2.209,1.789,4,4,4h64.529
	c2.211,0,4-1.791,4-4v-23.326c0-2.209-1.789-4-4-4H465.25C463.039,140.695,461.25,142.486,461.25,144.695L461.25,144.695z"/>
<path d="M466.75,161.072v-8.594H470c0.57,0,1,0.026,1.301,0.078c0.43,0.073,0.779,0.209,1.059,0.407
	c0.291,0.198,0.521,0.474,0.691,0.828c0.18,0.354,0.27,0.745,0.27,1.172c0,0.729-0.24,1.349-0.711,1.859
	c-0.459,0.5-1.289,0.75-2.51,0.75h-2.209v3.5H466.75L466.75,161.072z M467.891,156.572h2.219c0.74,0,1.26-0.135,1.57-0.406
	c0.311-0.282,0.461-0.672,0.461-1.172c0-0.354-0.09-0.656-0.281-0.906c-0.17-0.261-0.41-0.433-0.699-0.516
	c-0.201-0.052-0.551-0.078-1.061-0.078h-2.209V156.572L467.891,156.572z M478.881,159.072l1.1,0.125
	c-0.17,0.635-0.49,1.13-0.961,1.484c-0.469,0.355-1.059,0.532-1.779,0.532c-0.9,0-1.631-0.282-2.17-0.844
	c-0.531-0.563-0.801-1.349-0.801-2.36c0-1.041,0.27-1.848,0.82-2.421c0.541-0.584,1.24-0.875,2.09-0.875
	c0.83,0,1.51,0.281,2.029,0.843c0.531,0.563,0.801,1.36,0.801,2.391c0,0.062,0,0.156,0,0.281h-4.641
	c0.041,0.688,0.23,1.214,0.57,1.578c0.352,0.355,0.781,0.532,1.301,0.532c0.391,0,0.721-0.099,0.99-0.297
	C478.51,159.832,478.73,159.509,478.881,159.072L478.881,159.072z M475.43,157.369h3.471c-0.041-0.531-0.17-0.927-0.391-1.188
	c-0.35-0.406-0.779-0.609-1.32-0.609c-0.48,0-0.898,0.161-1.23,0.484C475.641,156.379,475.459,156.817,475.43,157.369
	L475.43,157.369z M481.289,161.072v-6.219h0.951v0.938c0.24-0.438,0.459-0.724,0.66-0.86c0.209-0.145,0.439-0.218,0.689-0.218
	c0.35,0,0.711,0.109,1.08,0.328l-0.359,0.984c-0.26-0.156-0.52-0.234-0.771-0.234c-0.238,0-0.449,0.073-0.639,0.218
	c-0.18,0.136-0.301,0.329-0.381,0.579c-0.119,0.375-0.18,0.781-0.18,1.218v3.266H481.289L481.289,161.072z M484.881,159.213
	l1.029-0.157c0.061,0.417,0.23,0.735,0.49,0.953c0.27,0.219,0.65,0.329,1.141,0.329c0.479,0,0.828-0.094,1.059-0.282
	c0.24-0.198,0.359-0.432,0.359-0.703c0-0.239-0.109-0.427-0.309-0.563c-0.15-0.094-0.51-0.214-1.08-0.36
	c-0.77-0.198-1.311-0.364-1.611-0.5c-0.289-0.145-0.52-0.343-0.668-0.593c-0.16-0.25-0.24-0.532-0.24-0.844
	c0-0.271,0.059-0.526,0.189-0.766c0.119-0.239,0.299-0.437,0.52-0.594c0.16-0.114,0.391-0.213,0.67-0.296
	c0.279-0.084,0.59-0.125,0.92-0.125c0.48,0,0.9,0.073,1.26,0.218c0.381,0.136,0.66,0.323,0.83,0.563
	c0.18,0.239,0.301,0.557,0.361,0.953l-1.031,0.141c-0.039-0.313-0.18-0.558-0.41-0.735c-0.209-0.187-0.529-0.281-0.949-0.281
	c-0.48,0-0.82,0.083-1.029,0.25c-0.211,0.156-0.311,0.344-0.311,0.562c0,0.136,0.039,0.256,0.119,0.36
	c0.1,0.114,0.23,0.208,0.41,0.281c0.1,0.042,0.42,0.13,0.941,0.266c0.75,0.208,1.27,0.375,1.559,0.5
	c0.291,0.125,0.52,0.307,0.691,0.547c0.158,0.239,0.248,0.541,0.248,0.906c0,0.354-0.109,0.687-0.318,1
	c-0.191,0.302-0.49,0.542-0.871,0.719c-0.389,0.166-0.82,0.25-1.309,0.25c-0.82,0-1.441-0.167-1.861-0.5
	C485.26,160.369,484.99,159.869,484.881,159.213L484.881,159.213z M491.301,153.697v-1.219h1.059v1.219H491.301L491.301,153.697z
	 M491.301,161.072v-6.219h1.059v6.219H491.301L491.301,161.072z M493.551,159.213l1.029-0.157c0.061,0.417,0.221,0.735,0.48,0.953
	c0.27,0.219,0.648,0.329,1.139,0.329c0.48,0,0.84-0.094,1.07-0.282c0.23-0.198,0.35-0.432,0.35-0.703c0-0.239-0.1-0.427-0.309-0.563
	c-0.141-0.094-0.5-0.214-1.08-0.36c-0.771-0.198-1.301-0.364-1.611-0.5c-0.289-0.145-0.51-0.343-0.67-0.593
	c-0.148-0.25-0.229-0.532-0.229-0.844c0-0.271,0.059-0.526,0.189-0.766c0.119-0.239,0.289-0.437,0.51-0.594
	c0.17-0.114,0.391-0.213,0.67-0.296c0.279-0.084,0.59-0.125,0.93-0.125c0.471,0,0.9,0.073,1.26,0.218
	c0.381,0.136,0.65,0.323,0.83,0.563c0.18,0.239,0.301,0.557,0.361,0.953l-1.031,0.141c-0.039-0.313-0.18-0.558-0.41-0.735
	c-0.219-0.187-0.539-0.281-0.949-0.281c-0.48,0-0.83,0.083-1.029,0.25c-0.211,0.156-0.32,0.344-0.32,0.562
	c0,0.136,0.049,0.256,0.129,0.36c0.09,0.114,0.23,0.208,0.41,0.281c0.1,0.042,0.41,0.13,0.93,0.266c0.75,0.208,1.271,0.375,1.57,0.5
	c0.291,0.125,0.52,0.307,0.68,0.547c0.17,0.239,0.25,0.541,0.25,0.906c0,0.354-0.1,0.687-0.309,1
	c-0.201,0.302-0.49,0.542-0.871,0.719c-0.389,0.166-0.83,0.25-1.32,0.25c-0.809,0-1.43-0.167-1.859-0.5
	C493.93,160.369,493.66,159.869,493.551,159.213L493.551,159.213z M502.27,160.134l0.15,0.922c-0.301,0.063-0.57,0.094-0.801,0.094
	c-0.379,0-0.68-0.057-0.889-0.172c-0.201-0.125-0.361-0.286-0.451-0.484c-0.08-0.198-0.119-0.615-0.119-1.25v-3.578h-0.77v-0.813
	h0.77v-1.547l1.039-0.625v2.172h1.07v0.813h-1.07v3.64c0,0.302,0.021,0.495,0.051,0.578c0.039,0.084,0.1,0.152,0.189,0.204
	c0.08,0.052,0.201,0.078,0.361,0.078C501.92,160.167,502.08,160.155,502.27,160.134L502.27,160.134z M510.67,161.072v-0.781
	c-0.4,0.614-0.98,0.922-1.74,0.922c-0.5,0-0.959-0.136-1.369-0.407c-0.42-0.281-0.74-0.666-0.971-1.156
	c-0.23-0.489-0.34-1.052-0.34-1.687c0-0.615,0.1-1.177,0.311-1.688c0.209-0.51,0.52-0.896,0.939-1.156
	c0.41-0.271,0.881-0.406,1.391-0.406c0.369,0,0.699,0.078,1,0.234c0.289,0.156,0.529,0.359,0.709,0.609v-3.078h1.051v8.594H510.67
	L510.67,161.072z M507.34,157.963c0,0.802,0.17,1.401,0.5,1.796c0.33,0.386,0.73,0.579,1.189,0.579c0.461,0,0.852-0.188,1.17-0.563
	c0.32-0.375,0.48-0.948,0.48-1.719c0-0.854-0.16-1.479-0.5-1.875c-0.32-0.395-0.719-0.593-1.199-0.593
	c-0.471,0-0.861,0.192-1.17,0.578C507.5,156.541,507.34,157.14,507.34,157.963L507.34,157.963z M517.369,160.306
	c-0.389,0.334-0.77,0.568-1.139,0.703c-0.35,0.136-0.74,0.204-1.15,0.204c-0.689,0-1.221-0.167-1.58-0.5
	c-0.369-0.334-0.551-0.761-0.551-1.282c0-0.302,0.07-0.578,0.201-0.828c0.139-0.26,0.32-0.463,0.549-0.609
	c0.23-0.156,0.49-0.271,0.771-0.344c0.189-0.062,0.51-0.12,0.93-0.172c0.85-0.094,1.469-0.213,1.879-0.359c0-0.146,0-0.235,0-0.266
	c0-0.437-0.1-0.745-0.299-0.922c-0.271-0.229-0.67-0.343-1.201-0.343c-0.488,0-0.859,0.088-1.09,0.265
	c-0.24,0.167-0.42,0.469-0.539,0.906l-1.031-0.14c0.102-0.438,0.25-0.792,0.471-1.063c0.221-0.27,0.529-0.479,0.939-0.625
	c0.41-0.145,0.871-0.218,1.41-0.218c0.531,0,0.961,0.062,1.291,0.187c0.34,0.125,0.58,0.281,0.74,0.469
	c0.148,0.187,0.26,0.427,0.32,0.719c0.039,0.177,0.049,0.5,0.049,0.968v1.407c0,0.979,0.02,1.599,0.061,1.859
	c0.061,0.26,0.15,0.51,0.289,0.75h-1.109C517.471,160.854,517.4,160.598,517.369,160.306L517.369,160.306z M517.279,157.947
	c-0.389,0.156-0.959,0.292-1.719,0.406c-0.441,0.063-0.74,0.136-0.92,0.219c-0.182,0.073-0.32,0.182-0.42,0.328
	c-0.102,0.146-0.141,0.313-0.141,0.5c0,0.281,0.1,0.516,0.311,0.703c0.219,0.188,0.529,0.281,0.939,0.281
	c0.4,0,0.76-0.088,1.07-0.265c0.33-0.177,0.561-0.422,0.709-0.735c0.111-0.239,0.17-0.588,0.17-1.046V157.947L517.279,157.947z
	 M522.279,160.134l0.16,0.922c-0.309,0.063-0.57,0.094-0.799,0.094c-0.391,0-0.682-0.057-0.891-0.172
	c-0.209-0.125-0.359-0.286-0.449-0.484c-0.092-0.198-0.131-0.615-0.131-1.25v-3.578h-0.76v-0.813h0.76v-1.547l1.051-0.625v2.172
	h1.059v0.813h-1.059v3.64c0,0.302,0.01,0.495,0.049,0.578c0.041,0.084,0.1,0.152,0.18,0.204c0.09,0.052,0.211,0.078,0.361,0.078
	C521.939,160.167,522.09,160.155,522.279,160.134L522.279,160.134z M527.381,160.306c-0.4,0.334-0.781,0.568-1.141,0.703
	c-0.35,0.136-0.74,0.204-1.16,0.204c-0.68,0-1.211-0.167-1.57-0.5c-0.369-0.334-0.549-0.761-0.549-1.282
	c0-0.302,0.068-0.578,0.199-0.828c0.141-0.26,0.32-0.463,0.551-0.609c0.229-0.156,0.479-0.271,0.76-0.344
	c0.199-0.062,0.51-0.12,0.939-0.172c0.85-0.094,1.471-0.213,1.881-0.359c0-0.146,0-0.235,0-0.266c0-0.437-0.102-0.745-0.301-0.922
	c-0.27-0.229-0.67-0.343-1.199-0.343c-0.49,0-0.861,0.088-1.102,0.265c-0.24,0.167-0.41,0.469-0.529,0.906l-1.029-0.14
	c0.09-0.438,0.25-0.792,0.469-1.063c0.221-0.27,0.531-0.479,0.939-0.625c0.4-0.145,0.871-0.218,1.4-0.218
	c0.531,0,0.971,0.062,1.301,0.187s0.58,0.281,0.73,0.469c0.16,0.187,0.27,0.427,0.33,0.719c0.029,0.177,0.049,0.5,0.049,0.968v1.407
	c0,0.979,0.02,1.599,0.061,1.859c0.049,0.26,0.15,0.51,0.279,0.75h-1.109C527.48,160.854,527.41,160.598,527.381,160.306
	L527.381,160.306z M527.291,157.947c-0.391,0.156-0.961,0.292-1.721,0.406c-0.439,0.063-0.75,0.136-0.92,0.219
	c-0.18,0.073-0.32,0.182-0.43,0.328c-0.09,0.146-0.141,0.313-0.141,0.5c0,0.281,0.109,0.516,0.32,0.703
	c0.209,0.188,0.529,0.281,0.93,0.281c0.41,0,0.77-0.088,1.08-0.265c0.32-0.177,0.561-0.422,0.699-0.735
	c0.121-0.239,0.182-0.588,0.182-1.046V157.947L527.291,157.947z"/>
<path fill="#BFFFBF" d="M229.59,324.719v46.325c0,2.209,1.79,4,4,4h105.52c2.21,0,4-1.791,4-4v-46.325c0-2.21-1.79-4-4-4H233.59
	C231.38,320.719,229.59,322.509,229.59,324.719L229.59,324.719z"/>
<path fill="none" stroke="#000000" stroke-miterlimit="1.45" d="M229.59,324.719v46.325c0,2.209,1.79,4,4,4h105.52
	c2.21,0,4-1.791,4-4v-46.325c0-2.21-1.79-4-4-4H233.59C231.38,320.719,229.59,322.509,229.59,324.719L229.59,324.719z"/>
<path d="M242.77,337.895v-7.578h-2.83V329.3h6.81v1.017h-2.84v7.578H242.77L242.77,337.895z M247.77,337.895v-6.22h0.95v0.938
	c0.24-0.438,0.46-0.724,0.66-0.86c0.21-0.146,0.44-0.219,0.69-0.219c0.35,0,0.71,0.11,1.08,0.329l-0.36,0.984
	c-0.26-0.156-0.52-0.234-0.77-0.234c-0.24,0-0.45,0.073-0.64,0.218c-0.18,0.136-0.3,0.328-0.37,0.578
	c-0.13,0.375-0.19,0.782-0.19,1.219v3.267H247.77L247.77,337.895z M255.85,337.128c-0.4,0.334-0.78,0.568-1.15,0.703
	c-0.35,0.136-0.73,0.203-1.15,0.203c-0.69,0-1.21-0.166-1.58-0.5c-0.36-0.333-0.55-0.76-0.55-1.281c0-0.302,0.07-0.578,0.21-0.828
	c0.13-0.26,0.31-0.463,0.54-0.608c0.23-0.157,0.49-0.271,0.77-0.344c0.2-0.063,0.51-0.12,0.94-0.173
	c0.84-0.094,1.47-0.213,1.87-0.358c0-0.146,0-0.235,0-0.266c0-0.438-0.1-0.745-0.3-0.923c-0.27-0.229-0.67-0.344-1.2-0.344
	c-0.49,0-0.85,0.089-1.09,0.266c-0.24,0.167-0.42,0.47-0.53,0.906l-1.03-0.14c0.09-0.438,0.25-0.792,0.46-1.063
	c0.22-0.271,0.54-0.479,0.94-0.625c0.41-0.146,0.88-0.219,1.41-0.219c0.53,0,0.96,0.063,1.29,0.188c0.34,0.125,0.58,0.28,0.74,0.469
	c0.16,0.187,0.26,0.427,0.33,0.718c0.03,0.178,0.04,0.5,0.04,0.969v1.406c0,0.98,0.03,1.599,0.07,1.86
	c0.05,0.26,0.14,0.51,0.28,0.75h-1.11C255.94,337.675,255.88,337.42,255.85,337.128L255.85,337.128z M255.75,334.77
	c-0.38,0.155-0.96,0.292-1.72,0.406c-0.43,0.063-0.74,0.136-0.92,0.219c-0.18,0.072-0.32,0.182-0.42,0.328
	c-0.09,0.146-0.14,0.312-0.14,0.5c0,0.28,0.1,0.516,0.31,0.702c0.22,0.188,0.53,0.281,0.94,0.281c0.4,0,0.76-0.088,1.08-0.265
	s0.55-0.422,0.7-0.735c0.11-0.239,0.17-0.588,0.17-1.047V334.77L255.75,334.77z M258.46,337.895v-6.22h0.93v0.876
	c0.46-0.678,1.12-1.017,1.99-1.017c0.37,0,0.72,0.068,1.03,0.204c0.32,0.135,0.56,0.312,0.72,0.531
	c0.15,0.219,0.26,0.474,0.33,0.765c0.03,0.198,0.04,0.542,0.04,1.032v3.828h-1.04v-3.781c0-0.438-0.04-0.761-0.13-0.969
	c-0.08-0.208-0.23-0.375-0.44-0.5c-0.2-0.137-0.45-0.203-0.73-0.203c-0.45,0-0.84,0.146-1.17,0.437
	c-0.32,0.281-0.49,0.818-0.49,1.61v3.406H258.46L258.46,337.895z M264.71,336.034l1.03-0.156c0.06,0.417,0.22,0.735,0.48,0.953
	c0.28,0.22,0.66,0.328,1.14,0.328s0.84-0.093,1.07-0.281c0.24-0.197,0.36-0.432,0.36-0.703c0-0.238-0.11-0.427-0.32-0.562
	c-0.14-0.094-0.5-0.214-1.07-0.36c-0.77-0.197-1.31-0.363-1.61-0.5c-0.29-0.146-0.52-0.344-0.68-0.594
	c-0.15-0.25-0.23-0.531-0.23-0.843c0-0.271,0.06-0.526,0.19-0.766c0.12-0.239,0.29-0.438,0.51-0.595
	c0.17-0.114,0.39-0.213,0.68-0.297c0.28-0.083,0.58-0.125,0.92-0.125c0.48,0,0.9,0.073,1.26,0.219c0.38,0.137,0.65,0.323,0.83,0.563
	c0.18,0.239,0.3,0.557,0.36,0.953l-1.03,0.14c-0.04-0.312-0.18-0.557-0.41-0.734c-0.22-0.187-0.53-0.28-0.95-0.28
	c-0.479,0-0.82,0.083-1.03,0.25c-0.21,0.155-0.31,0.344-0.31,0.562c0,0.136,0.04,0.256,0.12,0.36c0.09,0.114,0.23,0.208,0.41,0.281
	c0.1,0.042,0.41,0.13,0.93,0.266c0.75,0.208,1.28,0.375,1.57,0.5s0.52,0.307,0.68,0.546c0.17,0.24,0.25,0.542,0.25,0.907
	c0,0.354-0.1,0.687-0.31,1c-0.2,0.302-0.49,0.541-0.87,0.718c-0.39,0.167-0.83,0.25-1.32,0.25c-0.81,0-1.43-0.166-1.85-0.5
	C265.09,337.191,264.82,336.691,264.71,336.034L264.71,336.034z M271.38,337.895v-5.406h-0.94v-0.813h0.94v-0.672
	c0-0.416,0.04-0.724,0.11-0.922c0.1-0.281,0.28-0.505,0.53-0.672c0.26-0.166,0.62-0.25,1.08-0.25c0.3,0,0.63,0.037,0.98,0.11
	l-0.15,0.905c-0.22-0.03-0.43-0.047-0.63-0.047c-0.32,0-0.55,0.068-0.69,0.203c-0.12,0.136-0.18,0.392-0.18,0.767v0.577h1.22v0.813
	h-1.22v5.406H271.38L271.38,337.895z M278.71,335.895l1.1,0.125c-0.17,0.635-0.49,1.13-0.95,1.483
	c-0.47,0.354-1.07,0.531-1.79,0.531c-0.9,0-1.63-0.281-2.17-0.843c-0.53-0.563-0.79-1.35-0.79-2.36c0-1.041,0.27-1.849,0.81-2.422
	c0.54-0.583,1.24-0.875,2.09-0.875c0.83,0,1.51,0.282,2.03,0.844c0.53,0.563,0.8,1.36,0.8,2.392c0,0.062,0,0.155,0,0.28h-4.64
	c0.041,0.688,0.23,1.215,0.58,1.578c0.34,0.354,0.771,0.531,1.29,0.531c0.39,0,0.72-0.098,0.99-0.296
	C278.34,336.654,278.56,336.331,278.71,335.895L278.71,335.895z M275.26,334.191h3.47c-0.04-0.532-0.17-0.927-0.39-1.188
	c-0.34-0.405-0.78-0.608-1.31-0.608c-0.49,0-0.9,0.161-1.24,0.483C275.47,333.201,275.29,333.64,275.26,334.191L275.26,334.191z
	 M281.12,337.895v-6.22h0.96v0.938c0.24-0.438,0.45-0.724,0.65-0.86c0.21-0.146,0.44-0.219,0.69-0.219c0.35,0,0.71,0.11,1.08,0.329
	l-0.36,0.984c-0.26-0.156-0.52-0.234-0.77-0.234c-0.24,0-0.45,0.073-0.64,0.218c-0.17,0.136-0.3,0.328-0.37,0.578
	c-0.13,0.375-0.19,0.782-0.19,1.219v3.267H281.12L281.12,337.895z M289.44,337.895h-0.99V329.3h1.07v3.063
	c0.44-0.552,1.01-0.829,1.7-0.829c0.38,0,0.74,0.079,1.08,0.235c0.34,0.146,0.62,0.358,0.84,0.64c0.23,0.282,0.41,0.62,0.53,1.016
	c0.13,0.396,0.19,0.818,0.19,1.267c0,1.062-0.27,1.885-0.8,2.468c-0.53,0.584-1.16,0.875-1.89,0.875c-0.74,0-1.32-0.307-1.73-0.921
	V337.895L289.44,337.895z M289.42,334.738c0,0.739,0.11,1.276,0.31,1.609c0.34,0.542,0.79,0.812,1.35,0.812
	c0.46,0,0.85-0.197,1.19-0.593c0.34-0.396,0.51-0.995,0.51-1.797c0-0.813-0.16-1.412-0.48-1.797c-0.33-0.386-0.72-0.578-1.18-0.578
	c-0.45,0-0.85,0.203-1.2,0.608C289.59,333.399,289.42,333.978,289.42,334.738L289.42,334.738z M299.39,335.895l1.1,0.125
	c-0.17,0.635-0.49,1.13-0.959,1.483c-0.47,0.354-1.06,0.531-1.78,0.531c-0.9,0-1.63-0.281-2.17-0.843c-0.53-0.563-0.8-1.35-0.8-2.36
	c0-1.041,0.27-1.849,0.82-2.422c0.54-0.583,1.24-0.875,2.09-0.875c0.83,0,1.51,0.282,2.03,0.844c0.53,0.563,0.8,1.36,0.8,2.392
	c0,0.062,0,0.155,0,0.28h-4.64c0.04,0.688,0.23,1.215,0.57,1.578c0.351,0.354,0.78,0.531,1.3,0.531c0.39,0,0.72-0.098,0.99-0.296
	C299.02,336.654,299.24,336.331,299.39,335.895L299.39,335.895z M295.94,334.191h3.47c-0.04-0.532-0.17-0.927-0.39-1.188
	c-0.35-0.405-0.78-0.608-1.32-0.608c-0.479,0-0.899,0.161-1.229,0.483C296.15,333.201,295.97,333.64,295.94,334.191L295.94,334.191z
	 M304.11,336.956l0.16,0.922c-0.3,0.063-0.57,0.095-0.8,0.095c-0.38,0-0.68-0.058-0.89-0.172c-0.21-0.126-0.36-0.286-0.45-0.484
	c-0.08-0.198-0.13-0.615-0.13-1.25v-3.578h-0.76v-0.813H302v-1.547l1.05-0.625v2.172h1.06v0.813h-1.06v3.64
	c0,0.303,0.02,0.495,0.05,0.578c0.04,0.084,0.1,0.151,0.18,0.203c0.09,0.053,0.209,0.079,0.36,0.079
	C303.77,336.988,303.93,336.978,304.11,336.956L304.11,336.956z M306.29,337.895l-1.91-6.22h1.1l0.98,3.595l0.38,1.328
	c0.02-0.063,0.13-0.49,0.33-1.281l0.98-3.642h1.08l0.94,3.609l0.31,1.188l0.36-1.203l1.06-3.595h1.03l-1.95,6.22h-1.1l-0.98-3.735
	l-0.25-1.046l-1.25,4.781H306.29L306.29,337.895z M318.07,335.895l1.09,0.125c-0.17,0.635-0.48,1.13-0.95,1.483
	c-0.47,0.354-1.07,0.531-1.78,0.531c-0.91,0-1.63-0.281-2.18-0.843c-0.53-0.563-0.79-1.35-0.79-2.36c0-1.041,0.27-1.849,0.81-2.422
	c0.54-0.583,1.24-0.875,2.09-0.875c0.84,0,1.51,0.282,2.03,0.844c0.54,0.563,0.8,1.36,0.8,2.392c0,0.062,0,0.155,0,0.28h-4.64
	c0.04,0.688,0.23,1.215,0.58,1.578c0.34,0.354,0.77,0.531,1.3,0.531c0.38,0,0.71-0.098,0.98-0.296
	C317.69,336.654,317.91,336.331,318.07,335.895L318.07,335.895z M314.61,334.191h3.47c-0.04-0.532-0.17-0.927-0.39-1.188
	c-0.34-0.405-0.78-0.608-1.31-0.608c-0.49,0-0.9,0.161-1.24,0.483C314.82,333.201,314.64,333.64,314.61,334.191L314.61,334.191z
	 M324.74,335.895l1.09,0.125c-0.16,0.635-0.48,1.13-0.95,1.483c-0.47,0.354-1.06,0.531-1.78,0.531c-0.91,0-1.63-0.281-2.17-0.843
	c-0.53-0.563-0.8-1.35-0.8-2.36c0-1.041,0.27-1.849,0.81-2.422c0.54-0.583,1.24-0.875,2.1-0.875c0.83,0,1.51,0.282,2.03,0.844
	c0.53,0.563,0.79,1.36,0.79,2.392c0,0.062,0,0.155,0,0.28h-4.64c0.05,0.688,0.24,1.215,0.58,1.578c0.35,0.354,0.78,0.531,1.3,0.531
	c0.38,0,0.71-0.098,0.98-0.296C324.36,336.654,324.58,336.331,324.74,335.895L324.74,335.895z M321.29,334.191h3.47
	c-0.05-0.532-0.18-0.927-0.4-1.188c-0.34-0.405-0.78-0.608-1.31-0.608c-0.49,0-0.9,0.161-1.23,0.483
	C321.5,333.201,321.32,333.64,321.29,334.191L321.29,334.191z M327.16,337.895v-6.22h0.94v0.876c0.46-0.678,1.12-1.017,1.99-1.017
	c0.37,0,0.71,0.068,1.03,0.204c0.32,0.135,0.56,0.312,0.72,0.531c0.15,0.219,0.26,0.474,0.32,0.765
	c0.04,0.198,0.05,0.542,0.05,1.032v3.828h-1.05v-3.781c0-0.438-0.04-0.761-0.12-0.969s-0.23-0.375-0.44-0.5
	c-0.21-0.137-0.45-0.203-0.73-0.203c-0.45,0-0.84,0.146-1.17,0.437c-0.33,0.281-0.49,0.818-0.49,1.61v3.406H327.16L327.16,337.895z"
	/>
<path d="M241.75,351.658l0.16,0.921c-0.3,0.063-0.57,0.094-0.8,0.094c-0.38,0-0.68-0.057-0.89-0.172
	c-0.21-0.125-0.36-0.286-0.45-0.483c-0.09-0.198-0.13-0.615-0.13-1.25v-3.578h-0.76v-0.813h0.76v-1.547l1.05-0.625v2.172h1.06v0.813
	h-1.06v3.64c0,0.302,0.01,0.495,0.05,0.579c0.04,0.083,0.1,0.151,0.18,0.203c0.09,0.052,0.21,0.078,0.36,0.078
	C241.41,351.689,241.56,351.679,241.75,351.658L241.75,351.658z M242.79,352.596v-8.595h1.05v3.078
	c0.49-0.562,1.11-0.843,1.86-0.843c0.46,0,0.86,0.093,1.2,0.281c0.34,0.177,0.59,0.427,0.73,0.75c0.15,0.312,0.22,0.775,0.22,1.391
	v3.938h-1.05v-3.938c0-0.532-0.11-0.917-0.34-1.157c-0.23-0.238-0.55-0.358-0.97-0.358c-0.31,0-0.61,0.083-0.89,0.25
	c-0.27,0.155-0.47,0.375-0.59,0.655c-0.12,0.271-0.17,0.651-0.17,1.142v3.406H242.79L242.79,352.596z M253.71,350.596l1.1,0.125
	c-0.17,0.635-0.49,1.13-0.96,1.483c-0.47,0.355-1.06,0.532-1.78,0.532c-0.9,0-1.63-0.282-2.17-0.844c-0.53-0.563-0.8-1.35-0.8-2.359
	c0-1.042,0.27-1.849,0.82-2.422c0.54-0.584,1.24-0.875,2.09-0.875c0.83,0,1.51,0.281,2.03,0.843c0.53,0.563,0.8,1.36,0.8,2.392
	c0,0.063,0,0.155,0,0.28h-4.64c0.04,0.688,0.23,1.214,0.58,1.578c0.34,0.355,0.77,0.532,1.29,0.532c0.39,0,0.72-0.099,0.99-0.297
	C253.34,351.355,253.56,351.033,253.71,350.596L253.71,350.596z M250.26,348.893h3.47c-0.04-0.531-0.17-0.928-0.39-1.188
	c-0.35-0.406-0.78-0.608-1.31-0.608c-0.49,0-0.91,0.16-1.24,0.483C250.47,347.902,250.29,348.34,250.26,348.893L250.26,348.893z
	 M259.72,352.596v-5.406h-0.94v-0.813h0.94v-0.672c0-0.416,0.04-0.724,0.11-0.921c0.1-0.282,0.28-0.506,0.53-0.672
	c0.26-0.167,0.62-0.25,1.08-0.25c0.3,0,0.63,0.036,0.98,0.109l-0.15,0.905c-0.22-0.03-0.43-0.047-0.63-0.047
	c-0.32,0-0.55,0.068-0.69,0.204c-0.12,0.135-0.18,0.39-0.18,0.765v0.578h1.22v0.813h-1.22v5.406H259.72L259.72,352.596z
	 M262.41,349.486c0-1.157,0.32-2.011,0.96-2.563c0.53-0.458,1.18-0.687,1.95-0.687c0.85,0,1.55,0.281,2.09,0.843
	c0.56,0.552,0.83,1.323,0.83,2.313c0,0.802-0.12,1.432-0.36,1.891c-0.24,0.458-0.59,0.817-1.06,1.078
	c-0.46,0.25-0.96,0.375-1.5,0.375c-0.86,0-1.57-0.276-2.11-0.828C262.68,351.346,262.41,350.538,262.41,349.486L262.41,349.486z
	 M263.49,349.486c0,0.791,0.17,1.385,0.52,1.781c0.35,0.396,0.791,0.594,1.31,0.594c0.53,0,0.97-0.198,1.31-0.594
	c0.35-0.396,0.52-1,0.52-1.813c0-0.77-0.18-1.354-0.53-1.75c-0.35-0.395-0.78-0.593-1.3-0.593c-0.52,0-0.96,0.198-1.31,0.593
	C263.66,348.09,263.49,348.685,263.49,349.486L263.49,349.486z M269.46,352.596v-6.22h0.96v0.938c0.24-0.438,0.45-0.725,0.65-0.86
	c0.21-0.145,0.44-0.218,0.69-0.218c0.35,0,0.71,0.109,1.08,0.328l-0.36,0.983c-0.26-0.155-0.52-0.233-0.77-0.233
	c-0.24,0-0.45,0.073-0.64,0.219c-0.18,0.135-0.3,0.328-0.37,0.578c-0.13,0.375-0.189,0.781-0.189,1.218v3.267H269.46L269.46,352.596
	z M273.47,352.596v-6.22h0.94v0.875c0.2-0.312,0.46-0.557,0.78-0.733c0.33-0.188,0.7-0.281,1.11-0.281c0.46,0,0.84,0.093,1.13,0.281
	c0.3,0.187,0.51,0.453,0.62,0.797c0.5-0.719,1.14-1.078,1.92-1.078c0.63,0,1.1,0.172,1.43,0.515c0.33,0.334,0.5,0.86,0.5,1.578
	v4.267h-1.05v-3.923c0-0.417-0.04-0.719-0.11-0.905c-0.06-0.188-0.18-0.34-0.36-0.453c-0.18-0.115-0.39-0.172-0.64-0.172
	c-0.44,0-0.8,0.146-1.09,0.437c-0.29,0.292-0.43,0.761-0.43,1.407v3.609h-1.06v-4.048c0-0.469-0.09-0.817-0.26-1.047
	c-0.17-0.238-0.45-0.358-0.83-0.358c-0.3,0-0.58,0.078-0.83,0.233c-0.25,0.157-0.43,0.387-0.55,0.688
	c-0.11,0.302-0.17,0.733-0.17,1.297v3.234H273.47L273.47,352.596z M290.87,351.829c-0.4,0.334-0.78,0.568-1.14,0.704
	c-0.36,0.135-0.74,0.203-1.16,0.203c-0.69,0-1.21-0.167-1.58-0.5c-0.36-0.334-0.54-0.761-0.54-1.282c0-0.302,0.06-0.578,0.2-0.828
	c0.13-0.26,0.32-0.463,0.55-0.608c0.22-0.156,0.48-0.271,0.76-0.345c0.2-0.062,0.51-0.119,0.94-0.172
	c0.84-0.093,1.47-0.213,1.87-0.358c0-0.146,0-0.234,0-0.267c0-0.437-0.1-0.745-0.29-0.922c-0.27-0.229-0.68-0.343-1.21-0.343
	c-0.49,0-0.85,0.088-1.09,0.265c-0.24,0.167-0.42,0.47-0.53,0.907l-1.03-0.141c0.09-0.438,0.25-0.792,0.47-1.063
	c0.21-0.27,0.53-0.479,0.93-0.625c0.41-0.145,0.88-0.218,1.41-0.218c0.53,0,0.96,0.062,1.3,0.187c0.33,0.125,0.57,0.281,0.73,0.47
	c0.16,0.187,0.27,0.427,0.33,0.719c0.03,0.177,0.05,0.5,0.05,0.968v1.407c0,0.979,0.02,1.599,0.06,1.859
	c0.05,0.26,0.14,0.51,0.28,0.75h-1.11C290.97,352.376,290.9,352.121,290.87,351.829L290.87,351.829z M290.77,349.471
	c-0.38,0.155-0.96,0.292-1.72,0.405c-0.43,0.063-0.74,0.137-0.92,0.22c-0.17,0.072-0.32,0.182-0.42,0.327
	c-0.09,0.146-0.14,0.313-0.14,0.5c0,0.281,0.1,0.517,0.31,0.703c0.22,0.188,0.53,0.282,0.94,0.282c0.41,0,0.77-0.089,1.08-0.266
	c0.32-0.178,0.56-0.422,0.7-0.734c0.12-0.24,0.17-0.589,0.17-1.047V349.471L290.77,349.471z M293.48,352.596v-6.22h0.94v0.875
	c0.45-0.677,1.12-1.015,1.98-1.015c0.38,0,0.72,0.066,1.03,0.203c0.32,0.135,0.56,0.312,0.72,0.531
	c0.16,0.219,0.27,0.474,0.33,0.766c0.03,0.198,0.05,0.541,0.05,1.031v3.828h-1.05v-3.781c0-0.438-0.04-0.761-0.13-0.969
	c-0.08-0.208-0.23-0.375-0.43-0.5c-0.21-0.136-0.46-0.203-0.74-0.203c-0.45,0-0.84,0.146-1.17,0.437
	c-0.32,0.282-0.48,0.818-0.48,1.61v3.406H293.48L293.48,352.596z M304.18,352.596v-0.781c-0.39,0.614-0.97,0.922-1.73,0.922
	c-0.5,0-0.959-0.136-1.38-0.407c-0.41-0.281-0.74-0.666-0.96-1.156c-0.23-0.488-0.35-1.052-0.35-1.687
	c0-0.615,0.11-1.177,0.31-1.688c0.21-0.51,0.52-0.896,0.94-1.155c0.42-0.271,0.88-0.406,1.39-0.406c0.38,0,0.71,0.078,1,0.234
	c0.29,0.155,0.53,0.358,0.72,0.608v-3.078h1.05v8.595H304.18L304.18,352.596z M300.86,349.486c0,0.802,0.16,1.401,0.5,1.797
	c0.33,0.385,0.72,0.578,1.18,0.578s0.85-0.188,1.17-0.563c0.33-0.375,0.49-0.947,0.49-1.719c0-0.854-0.17-1.479-0.5-1.875
	c-0.32-0.395-0.72-0.593-1.2-0.593c-0.47,0-0.86,0.192-1.18,0.578C301.01,348.064,300.86,348.663,300.86,349.486L300.86,349.486z
	 M310.13,352.596v-8.595h1.06v8.595H310.13L310.13,352.596z M312.44,349.486c0-1.157,0.31-2.011,0.95-2.563
	c0.53-0.458,1.18-0.687,1.95-0.687c0.86,0,1.55,0.281,2.1,0.843c0.55,0.552,0.82,1.323,0.82,2.313c0,0.802-0.12,1.432-0.36,1.891
	c-0.24,0.458-0.59,0.817-1.06,1.078c-0.46,0.25-0.96,0.375-1.5,0.375c-0.86,0-1.57-0.276-2.11-0.828
	C312.7,351.346,312.44,350.538,312.44,349.486L312.44,349.486z M313.51,349.486c0,0.791,0.18,1.385,0.52,1.781
	c0.35,0.396,0.79,0.594,1.31,0.594c0.53,0,0.97-0.198,1.31-0.594c0.35-0.396,0.52-1,0.52-1.813c0-0.77-0.18-1.354-0.53-1.75
	c-0.35-0.395-0.78-0.593-1.3-0.593s-0.96,0.198-1.31,0.593C313.69,348.09,313.51,348.685,313.51,349.486L313.51,349.486z
	 M323.56,350.314l1.03,0.14c-0.11,0.709-0.4,1.267-0.87,1.672c-0.47,0.407-1.04,0.61-1.72,0.61c-0.85,0-1.54-0.276-2.06-0.828
	c-0.51-0.563-0.77-1.365-0.77-2.407c0-0.666,0.11-1.25,0.33-1.75c0.23-0.51,0.57-0.89,1.02-1.14s0.95-0.375,1.5-0.375
	c0.66,0,1.21,0.172,1.64,0.515c0.43,0.334,0.71,0.818,0.84,1.453l-1.03,0.157c-0.1-0.417-0.271-0.73-0.52-0.938
	c-0.25-0.219-0.55-0.327-0.9-0.327c-0.53,0-0.97,0.192-1.3,0.577c-0.33,0.375-0.5,0.975-0.5,1.798c0,0.844,0.16,1.452,0.48,1.827
	c0.33,0.375,0.74,0.563,1.25,0.563c0.42,0,0.76-0.125,1.04-0.375S323.48,350.846,323.56,350.314L323.56,350.314z M329.56,351.829
	c-0.39,0.334-0.77,0.568-1.14,0.704c-0.35,0.135-0.74,0.203-1.15,0.203c-0.69,0-1.22-0.167-1.58-0.5
	c-0.37-0.334-0.55-0.761-0.55-1.282c0-0.302,0.07-0.578,0.2-0.828c0.14-0.26,0.32-0.463,0.55-0.608
	c0.23-0.156,0.48-0.271,0.77-0.345c0.19-0.062,0.51-0.119,0.93-0.172c0.85-0.093,1.47-0.213,1.88-0.358c0-0.146,0-0.234,0-0.267
	c0-0.437-0.1-0.745-0.3-0.922c-0.27-0.229-0.67-0.343-1.2-0.343c-0.49,0-0.86,0.088-1.1,0.265c-0.23,0.167-0.41,0.47-0.53,0.907
	l-1.03-0.141c0.1-0.438,0.25-0.792,0.47-1.063c0.22-0.27,0.53-0.479,0.939-0.625c0.4-0.145,0.87-0.218,1.4-0.218
	c0.54,0,0.97,0.062,1.3,0.187s0.58,0.281,0.74,0.47c0.15,0.187,0.26,0.427,0.32,0.719c0.04,0.177,0.05,0.5,0.05,0.968v1.407
	c0,0.979,0.021,1.599,0.06,1.859c0.06,0.26,0.15,0.51,0.28,0.75h-1.1C329.66,352.376,329.59,352.121,329.56,351.829L329.56,351.829z
	 M329.47,349.471c-0.39,0.155-0.96,0.292-1.72,0.405c-0.44,0.063-0.75,0.137-0.92,0.22c-0.18,0.072-0.32,0.182-0.42,0.327
	c-0.1,0.146-0.14,0.313-0.14,0.5c0,0.281,0.1,0.517,0.31,0.703c0.22,0.188,0.53,0.282,0.94,0.282c0.4,0,0.76-0.089,1.07-0.266
	c0.33-0.178,0.56-0.422,0.71-0.734c0.11-0.24,0.17-0.589,0.17-1.047V349.471L329.47,349.471z M332.14,352.596v-8.595h1.06v8.595
	H332.14L332.14,352.596z"/>
<path d="M249.03,365.438l1.04-0.156c0.06,0.416,0.22,0.734,0.48,0.953c0.27,0.218,0.65,0.328,1.14,0.328
	c0.48,0,0.83-0.094,1.06-0.281c0.24-0.198,0.36-0.433,0.36-0.704c0-0.239-0.1-0.427-0.31-0.562c-0.15-0.095-0.5-0.215-1.081-0.359
	c-0.77-0.198-1.3-0.365-1.61-0.5c-0.29-0.146-0.51-0.344-0.67-0.594c-0.16-0.25-0.23-0.531-0.23-0.844
	c0-0.271,0.06-0.526,0.18-0.767c0.13-0.239,0.3-0.437,0.52-0.593c0.17-0.115,0.39-0.214,0.67-0.297
	c0.28-0.084,0.59-0.125,0.92-0.125c0.48,0,0.9,0.072,1.27,0.219c0.37,0.135,0.65,0.322,0.83,0.563c0.17,0.239,0.29,0.557,0.36,0.952
	l-1.03,0.142c-0.05-0.313-0.18-0.558-0.41-0.735c-0.22-0.187-0.54-0.281-0.95-0.281c-0.48,0-0.83,0.084-1.04,0.25
	c-0.2,0.156-0.31,0.345-0.31,0.563c0,0.135,0.041,0.255,0.13,0.359c0.09,0.114,0.23,0.208,0.4,0.28
	c0.11,0.042,0.42,0.131,0.94,0.267c0.75,0.208,1.27,0.375,1.56,0.5c0.3,0.125,0.52,0.307,0.69,0.547
	c0.17,0.238,0.25,0.541,0.25,0.906c0,0.354-0.1,0.688-0.31,1c-0.2,0.302-0.49,0.541-0.88,0.719c-0.38,0.166-0.82,0.25-1.31,0.25
	c-0.81,0-1.43-0.167-1.86-0.5C249.42,366.594,249.15,366.094,249.03,365.438L249.03,365.438z M257.75,366.359l0.16,0.922
	c-0.3,0.063-0.57,0.093-0.8,0.093c-0.38,0-0.68-0.057-0.89-0.172c-0.209-0.125-0.36-0.286-0.45-0.483
	c-0.08-0.198-0.13-0.615-0.13-1.25v-3.578h-0.76v-0.813h0.76v-1.546l1.05-0.625v2.171h1.06v0.813h-1.06v3.641
	c0,0.302,0.02,0.494,0.05,0.578c0.041,0.083,0.1,0.15,0.19,0.203c0.08,0.052,0.2,0.078,0.35,0.078
	C257.41,366.391,257.57,366.38,257.75,366.359L257.75,366.359z M258.4,364.188c0-1.156,0.32-2.012,0.95-2.563
	c0.53-0.458,1.19-0.687,1.96-0.687c0.85,0,1.55,0.281,2.09,0.844c0.55,0.552,0.83,1.322,0.83,2.313c0,0.802-0.12,1.432-0.36,1.891
	c-0.24,0.458-0.59,0.817-1.06,1.078c-0.46,0.25-0.96,0.375-1.5,0.375c-0.87,0-1.57-0.276-2.11-0.828
	C258.67,366.046,258.4,365.239,258.4,364.188L258.4,364.188z M259.48,364.188c0,0.791,0.17,1.385,0.51,1.781
	c0.36,0.396,0.8,0.594,1.32,0.594c0.53,0,0.97-0.198,1.31-0.594c0.34-0.396,0.51-1,0.51-1.813c0-0.771-0.17-1.354-0.53-1.75
	c-0.34-0.396-0.77-0.594-1.29-0.594s-0.96,0.198-1.32,0.594C259.65,362.791,259.48,363.386,259.48,364.188L259.48,364.188z
	 M265.45,367.296v-6.219h0.95v0.938c0.24-0.438,0.46-0.725,0.66-0.859c0.21-0.146,0.44-0.219,0.69-0.219
	c0.35,0,0.71,0.108,1.07,0.328l-0.36,0.983c-0.26-0.155-0.51-0.233-0.76-0.233c-0.24,0-0.45,0.072-0.64,0.219
	c-0.18,0.135-0.3,0.328-0.38,0.578c-0.12,0.375-0.18,0.781-0.18,1.219v3.265H265.45L265.45,367.296z M273.52,366.531
	c-0.39,0.333-0.77,0.567-1.14,0.703c-0.35,0.135-0.74,0.203-1.15,0.203c-0.69,0-1.22-0.167-1.58-0.5
	c-0.37-0.334-0.55-0.761-0.55-1.281c0-0.303,0.07-0.579,0.2-0.829c0.14-0.26,0.32-0.463,0.55-0.608
	c0.23-0.156,0.49-0.271,0.77-0.345c0.19-0.062,0.51-0.119,0.93-0.172c0.85-0.093,1.47-0.213,1.88-0.358c0-0.146,0-0.234,0-0.267
	c0-0.437-0.1-0.744-0.3-0.921c-0.27-0.229-0.67-0.344-1.2-0.344c-0.49,0-0.85,0.088-1.09,0.265c-0.24,0.167-0.42,0.469-0.54,0.907
	l-1.03-0.141c0.1-0.438,0.25-0.792,0.47-1.063c0.22-0.271,0.53-0.479,0.94-0.625c0.41-0.146,0.87-0.219,1.41-0.219
	c0.53,0,0.96,0.062,1.29,0.187c0.34,0.125,0.58,0.282,0.74,0.47c0.15,0.188,0.26,0.427,0.33,0.719c0.03,0.177,0.041,0.5,0.041,0.969
	v1.406c0,0.979,0.02,1.599,0.06,1.858c0.06,0.262,0.149,0.512,0.29,0.75h-1.11C273.62,367.077,273.55,366.822,273.52,366.531
	L273.52,366.531z M273.43,364.171c-0.39,0.156-0.96,0.292-1.72,0.406c-0.44,0.063-0.74,0.136-0.92,0.219
	c-0.18,0.073-0.32,0.183-0.42,0.328c-0.1,0.146-0.14,0.313-0.14,0.5c0,0.282,0.1,0.517,0.31,0.703c0.22,0.188,0.53,0.282,0.94,0.282
	c0.4,0,0.76-0.089,1.07-0.266c0.33-0.178,0.56-0.423,0.71-0.734c0.11-0.24,0.17-0.589,0.17-1.047V364.171L273.43,364.171z
	 M275.93,367.813l1.03,0.156c0.04,0.313,0.16,0.541,0.36,0.688c0.26,0.197,0.62,0.296,1.06,0.296c0.49,0,0.87-0.099,1.13-0.296
	c0.27-0.198,0.45-0.469,0.55-0.813c0.06-0.22,0.08-0.673,0.07-1.359c-0.45,0.541-1.03,0.812-1.71,0.812
	c-0.86,0-1.52-0.307-1.99-0.922c-0.47-0.625-0.7-1.363-0.7-2.218c0-0.594,0.1-1.141,0.31-1.641c0.22-0.511,0.53-0.901,0.94-1.172
	c0.4-0.271,0.88-0.406,1.44-0.406c0.74,0,1.34,0.297,1.82,0.89v-0.75h0.97v5.375c0,0.969-0.1,1.657-0.29,2.063
	c-0.2,0.405-0.51,0.724-0.94,0.953c-0.43,0.239-0.95,0.358-1.58,0.358c-0.74,0-1.34-0.166-1.8-0.5
	C276.14,368.994,275.92,368.489,275.93,367.813L275.93,367.813z M276.81,364.077c0,0.813,0.16,1.407,0.48,1.782
	s0.73,0.562,1.22,0.562c0.49,0,0.9-0.187,1.22-0.562c0.33-0.375,0.5-0.959,0.5-1.75c0-0.761-0.17-1.334-0.52-1.719
	c-0.33-0.386-0.74-0.578-1.22-0.578c-0.46,0-0.87,0.192-1.2,0.578C276.97,362.766,276.81,363.327,276.81,364.077L276.81,364.077z
	 M287.06,365.296l1.09,0.125c-0.16,0.637-0.48,1.131-0.95,1.485c-0.47,0.354-1.06,0.531-1.78,0.531c-0.91,0-1.63-0.281-2.17-0.844
	s-0.8-1.35-0.8-2.359c0-1.042,0.27-1.849,0.81-2.422c0.54-0.584,1.24-0.875,2.1-0.875c0.83,0,1.51,0.281,2.03,0.844
	c0.53,0.563,0.79,1.359,0.79,2.39c0,0.063,0,0.156,0,0.281h-4.64c0.04,0.688,0.24,1.214,0.58,1.579c0.34,0.354,0.78,0.531,1.3,0.531
	c0.38,0,0.71-0.1,0.98-0.297C286.68,366.058,286.9,365.734,287.06,365.296L287.06,365.296z M283.61,363.594h3.46
	c-0.04-0.531-0.17-0.928-0.39-1.188c-0.34-0.407-0.78-0.61-1.31-0.61c-0.49,0-0.9,0.162-1.23,0.485
	C283.81,362.604,283.64,363.041,283.61,363.594L283.61,363.594z M288.69,367.438l2.48-8.875h0.84l-2.48,8.875H288.69L288.69,367.438
	z M296.88,365.016l1.03,0.141c-0.11,0.708-0.41,1.265-0.88,1.671c-0.46,0.407-1.04,0.61-1.71,0.61c-0.86,0-1.55-0.276-2.07-0.828
	c-0.51-0.563-0.76-1.365-0.76-2.407c0-0.666,0.11-1.25,0.33-1.75c0.23-0.51,0.56-0.89,1.01-1.14c0.46-0.25,0.96-0.375,1.5-0.375
	c0.67,0,1.22,0.172,1.64,0.515c0.44,0.334,0.72,0.818,0.85,1.454l-1.04,0.156c-0.09-0.417-0.26-0.729-0.51-0.938
	c-0.25-0.218-0.55-0.328-0.91-0.328c-0.53,0-0.96,0.193-1.29,0.578c-0.34,0.375-0.5,0.975-0.5,1.797c0,0.845,0.16,1.453,0.48,1.828
	c0.32,0.375,0.74,0.563,1.25,0.563c0.42,0,0.76-0.125,1.03-0.375C296.61,365.938,296.8,365.546,296.88,365.016L296.88,365.016z
	 M302.88,366.531c-0.4,0.333-0.78,0.567-1.14,0.703c-0.36,0.135-0.74,0.203-1.16,0.203c-0.69,0-1.21-0.167-1.58-0.5
	c-0.36-0.334-0.54-0.761-0.54-1.281c0-0.303,0.06-0.579,0.2-0.829c0.14-0.26,0.32-0.463,0.55-0.608
	c0.23-0.156,0.48-0.271,0.76-0.345c0.2-0.062,0.51-0.119,0.94-0.172c0.84-0.093,1.47-0.213,1.87-0.358c0-0.146,0-0.234,0-0.267
	c0-0.437-0.09-0.744-0.29-0.921c-0.27-0.229-0.67-0.344-1.21-0.344c-0.479,0-0.85,0.088-1.09,0.265
	c-0.24,0.167-0.42,0.469-0.53,0.907l-1.03-0.141c0.09-0.438,0.25-0.792,0.47-1.063c0.22-0.271,0.53-0.479,0.93-0.625
	c0.41-0.146,0.88-0.219,1.41-0.219s0.96,0.062,1.3,0.187c0.33,0.125,0.58,0.282,0.73,0.47c0.16,0.188,0.271,0.427,0.331,0.719
	c0.03,0.177,0.05,0.5,0.05,0.969v1.406c0,0.979,0.02,1.599,0.06,1.858c0.05,0.262,0.15,0.512,0.28,0.75h-1.11
	C302.98,367.077,302.91,366.822,302.88,366.531L302.88,366.531z M302.78,364.171c-0.38,0.156-0.95,0.292-1.71,0.406
	c-0.44,0.063-0.75,0.136-0.93,0.219c-0.17,0.073-0.31,0.183-0.42,0.328c-0.09,0.146-0.14,0.313-0.14,0.5
	c0,0.282,0.11,0.517,0.31,0.703c0.22,0.188,0.54,0.282,0.94,0.282c0.41,0,0.77-0.089,1.08-0.266c0.32-0.178,0.56-0.423,0.7-0.734
	c0.12-0.24,0.17-0.589,0.17-1.047V364.171L302.78,364.171z M309.55,365.016l1.03,0.141c-0.11,0.708-0.4,1.265-0.87,1.671
	c-0.47,0.407-1.04,0.61-1.72,0.61c-0.85,0-1.54-0.276-2.06-0.828c-0.51-0.563-0.77-1.365-0.77-2.407c0-0.666,0.11-1.25,0.33-1.75
	c0.23-0.51,0.57-0.89,1.021-1.14c0.45-0.25,0.95-0.375,1.5-0.375c0.66,0,1.21,0.172,1.64,0.515c0.43,0.334,0.71,0.818,0.84,1.454
	l-1.03,0.156c-0.1-0.417-0.27-0.729-0.52-0.938c-0.25-0.218-0.55-0.328-0.9-0.328c-0.53,0-0.97,0.193-1.3,0.578
	c-0.33,0.375-0.5,0.975-0.5,1.797c0,0.845,0.16,1.453,0.48,1.828c0.33,0.375,0.74,0.563,1.25,0.563c0.42,0,0.76-0.125,1.04-0.375
	C309.29,365.938,309.47,365.546,309.55,365.016L309.55,365.016z M311.49,367.296v-8.594h1.05v3.079
	c0.49-0.563,1.11-0.844,1.86-0.844c0.46,0,0.87,0.094,1.2,0.281c0.34,0.177,0.59,0.427,0.73,0.75c0.15,0.313,0.22,0.775,0.22,1.391
	v3.937h-1.04v-3.937c0-0.532-0.12-0.917-0.35-1.157c-0.23-0.239-0.55-0.358-0.97-0.358c-0.31,0-0.61,0.083-0.89,0.25
	c-0.27,0.155-0.47,0.375-0.59,0.655c-0.12,0.271-0.17,0.651-0.17,1.142v3.405H311.49L311.49,367.296z M322.41,365.296l1.1,0.125
	c-0.17,0.637-0.49,1.131-0.96,1.485c-0.46,0.354-1.061,0.531-1.78,0.531c-0.9,0-1.63-0.281-2.17-0.844
	c-0.53-0.563-0.8-1.35-0.8-2.359c0-1.042,0.28-1.849,0.82-2.422c0.54-0.584,1.24-0.875,2.09-0.875c0.83,0,1.51,0.281,2.03,0.844
	c0.53,0.563,0.8,1.359,0.8,2.39c0,0.063,0,0.156,0,0.281h-4.64c0.04,0.688,0.23,1.214,0.58,1.579c0.34,0.354,0.77,0.531,1.29,0.531
	c0.39,0,0.72-0.1,0.99-0.297C322.04,366.058,322.26,365.734,322.41,365.296L322.41,365.296z M318.96,363.594h3.47
	c-0.04-0.531-0.17-0.928-0.39-1.188c-0.34-0.407-0.78-0.61-1.31-0.61c-0.49,0-0.9,0.162-1.24,0.485
	C319.17,362.604,318.99,363.041,318.96,363.594L318.96,363.594z"/>
<line fill="none" stroke="#000000" stroke-width="3" stroke-miterlimit="1.45" x1="709.279" y1="140.003" x2="580.301" y2="247.561"/>
<polygon points="572.619,253.965 588.15,249.158 581.26,246.761 580.141,239.559 "/>
<polyline fill="none" stroke="#339966" stroke-width="3" stroke-miterlimit="1.45" points="495.061,253.949 500.99,236.983 
	509.73,218.227 520.029,201.247 531.91,186.045 545.35,172.622 560.35,160.976 576.93,151.109 595.07,143.019 614.779,136.707 
	636.051,132.173 658.891,129.418 683.301,128.44 699.279,128.932 "/>
<polygon fill="#339966" points="709.27,129.24 694.471,122.531 698.029,128.895 694.09,135.025 "/>
<polyline fill="none" stroke="#000000" stroke-width="3" stroke-miterlimit="1.45" points="356.64,399.342 352.06,400.748 
	327.8,405.087 304.1,406.143 280.95,403.914 258.36,398.401 236.33,389.604 214.85,377.523 193.92,362.158 183.5,352.612 "/>
<polygon points="176.12,345.859 182.96,360.599 184.42,353.456 191.4,351.378 "/>
<polyline fill="none" stroke="#339966" stroke-width="3" stroke-miterlimit="1.45" points="313.92,83.985 313.16,98.037 
	310.18,120.233 305.48,140.88 299.08,159.979 290.96,177.529 281.14,193.53 269.61,207.983 256.36,220.889 241.41,232.243 
	225.2,241.786 225.11,241.827 "/>
<polygon fill="#339966" points="216.01,245.98 232.25,245.438 226.24,241.309 227.06,234.066 "/>
<polyline fill="none" stroke="#000000" stroke-width="3" stroke-miterlimit="1.45" points="121.14,189.892 124.303,175.979 
	130.71,156.881 138.82,139.33 148.64,123.329 160.18,108.876 173.42,95.972 188.37,84.616 205.04,74.808 223.41,66.55 
	243.49,59.839 265.29,54.678 288.79,51.065 289.61,50.998 "/>
<polygon points="299.57,50.181 284.11,45.177 288.36,51.1 285.13,57.635 "/>
<polyline fill="none" stroke="#339966" stroke-width="3" stroke-miterlimit="1.45" points="216.05,298.649 220.15,296.438 
	232.47,291.457 244.62,287.678 256.59,285.1 268.4,283.723 280.03,283.545 291.49,284.57 302.78,286.795 313.9,290.223 
	324.84,294.85 335.62,300.678 346.22,307.707 348.78,309.728 "/>
<polygon fill="#339966" points="356.63,315.921 348.73,301.724 347.8,308.952 340.98,311.536 "/>
<line fill="none" stroke="#000000" stroke-width="3" stroke-miterlimit="1.45" x1="352.23" y1="59.857" x2="699.34" y2="96.827"/>
<polygon points="709.279,97.886 695.029,90.082 698.1,96.694 693.699,102.512 "/>
</svg>
