<?xml version="1.0" encoding="utf-8"?>
<!-- Generator: Adobe Illustrator 16.0.0, SVG Export Plug-In . SVG Version: 6.00 Build 0)  -->
<!DOCTYPE svg PUBLIC "-//W3C//DTD SVG 1.1//EN" "http://www.w3.org/Graphics/SVG/1.1/DTD/svg11.dtd">
<svg version="1.1" id="Layer_1" xmlns="http://www.w3.org/2000/svg" xmlns:xlink="http://www.w3.org/1999/xlink" x="0px" y="0px"
	 width="833px" height="451px" viewBox="0 0 833 451" enable-background="new 0 0 833 451" xml:space="preserve">
<g>
	<defs>
		<rect id="SVGID_1_" x="19" y="21" width="814" height="430"/>
	</defs>
	<clipPath id="SVGID_2_">
		<use xlink:href="#SVGID_1_"  overflow="visible"/>
	</clipPath>
</g>
<image overflow="visible" width="57" height="70" xlink:href="307C0BF2.jpg"  transform="matrix(1 0 0 1 304.7202 36.0254)">
</image>
<image overflow="visible" width="90" height="107" xlink:href="307C0BF6.jpg"  transform="matrix(1 0 0 1 728.3008 71.5562)">
</image>
<image overflow="visible" width="790" height="479" xlink:href="307C0BF1.jpg"  transform="matrix(0.3165 0 0 0.3152 375 275)">
</image>
<path fill="#BFFFBF" d="M511.301,53.43v23.325c0,2.209,1.789,4,4,4h81.529c2.209,0,4-1.791,4-4V53.43c0-2.21-1.791-4-4-4h-81.529
	C513.09,49.43,511.301,51.22,511.301,53.43L511.301,53.43z"/>
<path fill="none" stroke="#000000" stroke-miterlimit="1.45" d="M511.301,53.43v23.325c0,2.209,1.789,4,4,4h81.529
	c2.209,0,4-1.791,4-4V53.43c0-2.21-1.791-4-4-4h-81.529C513.09,49.43,511.301,51.22,511.301,53.43L511.301,53.43z"/>
<path d="M514.631,69.806v-8.593h2.969c0.66,0,1.17,0.041,1.531,0.125c0.488,0.114,0.898,0.317,1.25,0.609
	c0.459,0.385,0.799,0.88,1.01,1.484c0.229,0.594,0.35,1.271,0.35,2.032c0,0.656-0.08,1.234-0.24,1.734
	c-0.141,0.5-0.34,0.917-0.57,1.25c-0.24,0.333-0.51,0.594-0.799,0.781c-0.281,0.188-0.621,0.334-1.021,0.438
	c-0.389,0.093-0.85,0.14-1.369,0.14H514.631L514.631,69.806z M515.77,68.792h1.83c0.57,0,1.02-0.052,1.34-0.157
	c0.32-0.104,0.58-0.255,0.77-0.453c0.271-0.26,0.48-0.619,0.621-1.078c0.16-0.458,0.24-1.01,0.24-1.656
	c0-0.896-0.16-1.583-0.461-2.063c-0.289-0.489-0.639-0.817-1.059-0.984c-0.311-0.114-0.801-0.172-1.471-0.172h-1.811V68.792
	L515.77,68.792z M527.23,69.041c-0.391,0.333-0.771,0.567-1.141,0.703c-0.35,0.135-0.74,0.203-1.16,0.203
	c-0.68,0-1.209-0.167-1.57-0.5c-0.369-0.333-0.549-0.76-0.549-1.281c0-0.302,0.07-0.578,0.199-0.828
	c0.141-0.261,0.32-0.464,0.551-0.61c0.23-0.156,0.479-0.271,0.77-0.344c0.189-0.062,0.51-0.119,0.93-0.171
	c0.85-0.094,1.471-0.214,1.881-0.36c0-0.146,0-0.234,0-0.265c0-0.438-0.102-0.745-0.301-0.922c-0.27-0.229-0.67-0.344-1.199-0.344
	c-0.49,0-0.861,0.089-1.1,0.266c-0.24,0.166-0.41,0.468-0.531,0.906l-1.029-0.141c0.1-0.438,0.25-0.791,0.469-1.062
	c0.221-0.271,0.531-0.479,0.941-0.625c0.398-0.146,0.869-0.219,1.398-0.219c0.541,0,0.971,0.062,1.301,0.187s0.58,0.282,0.74,0.469
	c0.15,0.188,0.26,0.427,0.32,0.719c0.029,0.177,0.049,0.5,0.049,0.969v1.406c0,0.979,0.021,1.599,0.061,1.859
	c0.061,0.261,0.15,0.511,0.279,0.75h-1.109C527.33,69.588,527.26,69.332,527.23,69.041L527.23,69.041z M527.141,66.681
	c-0.391,0.157-0.961,0.292-1.721,0.407c-0.439,0.062-0.75,0.135-0.92,0.218c-0.18,0.073-0.32,0.183-0.42,0.328
	c-0.1,0.146-0.15,0.313-0.15,0.5c0,0.282,0.109,0.516,0.32,0.704c0.221,0.187,0.529,0.281,0.93,0.281c0.41,0,0.77-0.089,1.08-0.266
	c0.33-0.177,0.561-0.422,0.711-0.734c0.109-0.24,0.17-0.589,0.17-1.047V66.681L527.141,66.681z M532.141,68.869l0.16,0.922
	c-0.311,0.063-0.57,0.093-0.801,0.093c-0.391,0-0.68-0.057-0.891-0.171c-0.209-0.125-0.359-0.287-0.449-0.485
	c-0.09-0.198-0.131-0.614-0.131-1.25V64.4h-0.76v-0.812h0.76v-1.547l1.051-0.625v2.172h1.061V64.4h-1.061v3.641
	c0,0.302,0.01,0.495,0.039,0.578c0.051,0.083,0.111,0.151,0.191,0.203c0.09,0.052,0.209,0.078,0.359,0.078
	C531.801,68.9,531.949,68.89,532.141,68.869L532.141,68.869z M537.24,69.041c-0.4,0.333-0.781,0.567-1.141,0.703
	c-0.359,0.135-0.74,0.203-1.16,0.203c-0.68,0-1.209-0.167-1.58-0.5c-0.359-0.333-0.539-0.76-0.539-1.281
	c0-0.302,0.07-0.578,0.199-0.828c0.141-0.261,0.32-0.464,0.551-0.61c0.23-0.156,0.48-0.271,0.76-0.344
	c0.199-0.062,0.51-0.119,0.939-0.171c0.84-0.094,1.471-0.214,1.881-0.36c0-0.146,0-0.234,0-0.265c0-0.438-0.1-0.745-0.301-0.922
	c-0.27-0.229-0.67-0.344-1.199-0.344c-0.49,0-0.861,0.089-1.1,0.266c-0.24,0.166-0.41,0.468-0.531,0.906l-1.029-0.141
	c0.09-0.438,0.25-0.791,0.469-1.062c0.221-0.271,0.531-0.479,0.941-0.625c0.4-0.146,0.869-0.219,1.4-0.219
	c0.529,0,0.969,0.062,1.299,0.187s0.58,0.282,0.73,0.469c0.16,0.188,0.27,0.427,0.33,0.719c0.029,0.177,0.051,0.5,0.051,0.969v1.406
	c0,0.979,0.02,1.599,0.059,1.859c0.051,0.261,0.15,0.511,0.281,0.75h-1.111C537.34,69.588,537.27,69.332,537.24,69.041
	L537.24,69.041z M537.15,66.681c-0.391,0.157-0.961,0.292-1.721,0.407c-0.439,0.062-0.75,0.135-0.92,0.218
	c-0.18,0.073-0.32,0.183-0.43,0.328c-0.09,0.146-0.141,0.313-0.141,0.5c0,0.282,0.111,0.516,0.32,0.704
	c0.211,0.187,0.529,0.281,0.93,0.281c0.41,0,0.771-0.089,1.08-0.266c0.32-0.177,0.561-0.422,0.701-0.734
	c0.119-0.24,0.18-0.589,0.18-1.047V66.681L537.15,66.681z M540.82,69.806h-0.98v-8.593h1.061v3.062
	c0.449-0.552,1.01-0.828,1.699-0.828c0.391,0,0.75,0.078,1.08,0.234c0.34,0.146,0.621,0.36,0.84,0.641
	c0.23,0.281,0.41,0.62,0.531,1.016c0.129,0.395,0.189,0.817,0.189,1.265c0,1.063-0.26,1.886-0.801,2.469
	c-0.529,0.583-1.16,0.875-1.889,0.875c-0.74,0-1.311-0.307-1.73-0.922V69.806L540.82,69.806z M540.801,66.65
	c0,0.74,0.109,1.276,0.318,1.609c0.33,0.542,0.781,0.813,1.34,0.813c0.461,0,0.852-0.198,1.191-0.594
	c0.34-0.396,0.51-0.995,0.51-1.797c0-0.812-0.16-1.411-0.48-1.797c-0.32-0.385-0.709-0.578-1.17-0.578
	c-0.459,0-0.859,0.203-1.209,0.61C540.971,65.313,540.801,65.89,540.801,66.65L540.801,66.65z M550.59,69.041
	c-0.4,0.333-0.779,0.567-1.141,0.703c-0.359,0.135-0.738,0.203-1.16,0.203c-0.689,0-1.209-0.167-1.58-0.5
	c-0.359-0.333-0.539-0.76-0.539-1.281c0-0.302,0.061-0.578,0.199-0.828c0.131-0.261,0.32-0.464,0.551-0.61
	c0.221-0.156,0.48-0.271,0.76-0.344c0.201-0.062,0.51-0.119,0.939-0.171c0.842-0.094,1.471-0.214,1.871-0.36
	c0-0.146,0-0.234,0-0.265c0-0.438-0.1-0.745-0.291-0.922c-0.27-0.229-0.68-0.344-1.209-0.344c-0.49,0-0.85,0.089-1.09,0.266
	c-0.24,0.166-0.42,0.468-0.531,0.906l-1.029-0.141c0.09-0.438,0.25-0.791,0.471-1.062c0.209-0.271,0.529-0.479,0.93-0.625
	c0.41-0.146,0.879-0.219,1.41-0.219c0.529,0,0.959,0.062,1.299,0.187c0.33,0.125,0.57,0.282,0.73,0.469
	c0.16,0.188,0.27,0.427,0.33,0.719c0.031,0.177,0.051,0.5,0.051,0.969v1.406c0,0.979,0.02,1.599,0.059,1.859
	c0.051,0.261,0.141,0.511,0.281,0.75h-1.109C550.689,69.588,550.619,69.332,550.59,69.041L550.59,69.041z M550.49,66.681
	c-0.381,0.157-0.951,0.292-1.721,0.407c-0.43,0.062-0.74,0.135-0.92,0.218c-0.17,0.073-0.311,0.183-0.42,0.328
	c-0.09,0.146-0.141,0.313-0.141,0.5c0,0.282,0.102,0.516,0.311,0.704c0.221,0.187,0.531,0.281,0.941,0.281
	c0.408,0,0.77-0.089,1.078-0.266c0.32-0.177,0.561-0.422,0.701-0.734c0.119-0.24,0.17-0.589,0.17-1.047V66.681L550.49,66.681z
	 M552.779,67.947l1.031-0.156c0.059,0.416,0.219,0.734,0.479,0.953c0.271,0.219,0.65,0.328,1.141,0.328
	c0.48,0,0.84-0.094,1.07-0.281c0.24-0.198,0.35-0.433,0.35-0.703c0-0.24-0.1-0.427-0.311-0.563
	c-0.139-0.094-0.498-0.213-1.078-0.359c-0.771-0.198-1.301-0.365-1.611-0.5c-0.289-0.146-0.51-0.344-0.67-0.594
	c-0.15-0.25-0.23-0.531-0.23-0.844c0-0.271,0.061-0.526,0.191-0.765c0.119-0.24,0.289-0.438,0.51-0.594
	c0.17-0.115,0.389-0.214,0.67-0.297c0.279-0.083,0.59-0.125,0.93-0.125c0.471,0,0.9,0.073,1.26,0.219
	c0.381,0.135,0.65,0.323,0.83,0.563c0.18,0.24,0.301,0.558,0.359,0.953l-1.029,0.141c-0.039-0.313-0.18-0.557-0.41-0.734
	c-0.219-0.188-0.539-0.282-0.949-0.282c-0.48,0-0.82,0.084-1.031,0.25c-0.209,0.157-0.318,0.344-0.318,0.563
	c0,0.135,0.049,0.255,0.129,0.359c0.09,0.115,0.23,0.209,0.41,0.281c0.1,0.042,0.41,0.131,0.93,0.266
	c0.75,0.208,1.27,0.375,1.57,0.5c0.289,0.125,0.52,0.307,0.68,0.547c0.17,0.24,0.25,0.542,0.25,0.906c0,0.354-0.1,0.688-0.311,1
	c-0.199,0.302-0.488,0.542-0.869,0.719c-0.391,0.167-0.83,0.25-1.32,0.25c-0.811,0-1.43-0.167-1.859-0.5
	C553.16,69.104,552.891,68.604,552.779,67.947L552.779,67.947z M563.449,67.806l1.09,0.125c-0.158,0.636-0.479,1.131-0.949,1.485
	c-0.471,0.354-1.061,0.531-1.779,0.531c-0.91,0-1.631-0.281-2.17-0.844c-0.541-0.563-0.801-1.349-0.801-2.359
	c0-1.042,0.27-1.849,0.811-2.422c0.539-0.583,1.24-0.875,2.1-0.875c0.83,0,1.51,0.281,2.029,0.844
	c0.531,0.562,0.791,1.359,0.791,2.39c0,0.063,0,0.157,0,0.282h-4.641c0.041,0.687,0.24,1.213,0.58,1.578
	c0.34,0.354,0.781,0.531,1.301,0.531c0.379,0,0.709-0.099,0.98-0.297C563.07,68.567,563.289,68.244,563.449,67.806L563.449,67.806z
	 M560,66.104h3.459c-0.039-0.531-0.17-0.927-0.389-1.188c-0.34-0.407-0.781-0.61-1.311-0.61c-0.49,0-0.9,0.162-1.23,0.485
	C560.199,65.114,560.029,65.551,560,66.104L560,66.104z M573.18,72.197V69.15c-0.17,0.229-0.41,0.422-0.709,0.578
	c-0.291,0.146-0.602,0.219-0.941,0.219c-0.74,0-1.369-0.292-1.898-0.875c-0.531-0.594-0.801-1.406-0.801-2.438
	c0-0.625,0.109-1.182,0.33-1.671c0.221-0.5,0.529-0.875,0.939-1.125c0.41-0.261,0.871-0.391,1.359-0.391
	c0.771,0,1.371,0.323,1.811,0.969v-0.828h0.951v8.609H573.18L573.18,72.197z M569.91,66.681c0,0.802,0.17,1.401,0.5,1.797
	c0.34,0.396,0.75,0.594,1.221,0.594c0.449,0,0.828-0.188,1.148-0.563c0.33-0.385,0.49-0.963,0.49-1.734
	c0-0.833-0.17-1.458-0.52-1.875c-0.33-0.417-0.73-0.625-1.199-0.625c-0.451,0-0.83,0.198-1.16,0.594
	C570.07,65.254,569.91,65.858,569.91,66.681L569.91,66.681z M579.959,69.806v-0.922c-0.488,0.709-1.148,1.063-1.988,1.063
	c-0.361,0-0.701-0.068-1.031-0.203c-0.309-0.146-0.539-0.323-0.699-0.531c-0.16-0.219-0.27-0.485-0.33-0.797
	c-0.041-0.198-0.061-0.526-0.061-0.985v-3.843h1.061v3.453c0,0.541,0.02,0.911,0.061,1.109c0.07,0.271,0.199,0.49,0.41,0.656
	c0.219,0.157,0.488,0.235,0.809,0.235s0.611-0.078,0.881-0.235c0.279-0.166,0.48-0.39,0.59-0.672
	c0.129-0.281,0.189-0.687,0.189-1.218v-3.328h1.051v6.218H579.959L579.959,69.806z M586.801,67.806l1.1,0.125
	c-0.17,0.636-0.49,1.131-0.961,1.485c-0.459,0.354-1.059,0.531-1.779,0.531c-0.9,0-1.631-0.281-2.17-0.844
	c-0.529-0.563-0.801-1.349-0.801-2.359c0-1.042,0.281-1.849,0.82-2.422c0.541-0.583,1.24-0.875,2.09-0.875
	c0.83,0,1.51,0.281,2.031,0.844c0.529,0.562,0.799,1.359,0.799,2.39c0,0.063,0,0.157,0,0.282h-4.641
	c0.041,0.687,0.23,1.213,0.58,1.578c0.34,0.354,0.771,0.531,1.291,0.531c0.391,0,0.721-0.099,0.99-0.297
	C586.43,68.567,586.65,68.244,586.801,67.806L586.801,67.806z M583.35,66.104h3.471c-0.041-0.531-0.17-0.927-0.391-1.188
	c-0.34-0.407-0.779-0.61-1.311-0.61c-0.488,0-0.898,0.162-1.238,0.485C583.561,65.114,583.381,65.551,583.35,66.104L583.35,66.104z
	 M589.211,69.806v-6.218h0.959v0.937c0.23-0.437,0.449-0.724,0.65-0.859c0.209-0.146,0.439-0.219,0.689-0.219
	c0.35,0,0.711,0.109,1.08,0.328l-0.359,0.984c-0.26-0.156-0.521-0.234-0.77-0.234c-0.24,0-0.451,0.073-0.641,0.219
	c-0.18,0.135-0.301,0.328-0.371,0.578c-0.129,0.375-0.189,0.781-0.189,1.219v3.265H589.211L589.211,69.806z M593.18,72.197
	l-0.129-0.984c0.229,0.062,0.43,0.093,0.609,0.093c0.23,0,0.41-0.041,0.549-0.125c0.141-0.073,0.262-0.177,0.361-0.312
	c0.061-0.115,0.17-0.38,0.33-0.797c0.01-0.052,0.039-0.135,0.09-0.25l-2.381-6.234h1.15l1.291,3.593
	c0.17,0.459,0.318,0.943,0.459,1.453c0.121-0.489,0.27-0.963,0.43-1.421l1.33-3.625h1.051l-2.359,6.328
	c-0.262,0.677-0.461,1.146-0.602,1.406c-0.18,0.354-0.4,0.609-0.65,0.766c-0.238,0.166-0.529,0.25-0.859,0.25
	C593.65,72.338,593.43,72.291,593.18,72.197L593.18,72.197z"/>
<path fill="#BFFFBF" d="M669.609,231.859v23.326c0,2.209,1.791,4,4,4h105.521c2.209,0,4-1.791,4-4v-23.326c0-2.209-1.791-4-4-4
	H673.609C671.4,227.859,669.609,229.65,669.609,231.859L669.609,231.859z"/>
<path fill="none" stroke="#000000" stroke-miterlimit="1.45" d="M669.609,231.859v23.326c0,2.209,1.791,4,4,4h105.521
	c2.209,0,4-1.791,4-4v-23.326c0-2.209-1.791-4-4-4H673.609C671.4,227.859,669.609,229.65,669.609,231.859L669.609,231.859z"/>
<path d="M675.26,248.236v-8.594h2.971c0.66,0,1.17,0.042,1.529,0.125c0.49,0.115,0.9,0.317,1.25,0.609
	c0.461,0.386,0.791,0.88,1.01,1.484c0.23,0.594,0.35,1.271,0.35,2.031c0,0.655-0.08,1.234-0.238,1.734
	c-0.141,0.5-0.342,0.916-0.58,1.25c-0.23,0.333-0.5,0.594-0.791,0.781c-0.279,0.188-0.619,0.333-1.02,0.438
	c-0.391,0.094-0.85,0.141-1.371,0.141H675.26L675.26,248.236z M676.4,247.221h1.83c0.57,0,1.02-0.053,1.34-0.156
	c0.32-0.104,0.58-0.255,0.77-0.453c0.27-0.261,0.48-0.62,0.619-1.078c0.16-0.459,0.24-1.011,0.24-1.656
	c0-0.896-0.16-1.584-0.459-2.063c-0.291-0.49-0.641-0.818-1.061-0.984c-0.311-0.115-0.799-0.172-1.471-0.172H676.4V247.221
	L676.4,247.221z M687.859,247.471c-0.389,0.334-0.77,0.567-1.139,0.702c-0.352,0.137-0.74,0.204-1.16,0.204
	c-0.68,0-1.211-0.167-1.57-0.5c-0.371-0.334-0.551-0.761-0.551-1.281c0-0.303,0.07-0.578,0.201-0.828
	c0.139-0.26,0.318-0.463,0.549-0.609c0.23-0.156,0.48-0.271,0.77-0.344c0.191-0.063,0.512-0.12,0.932-0.172
	c0.85-0.095,1.469-0.213,1.879-0.359c0-0.146,0-0.235,0-0.266c0-0.438-0.1-0.745-0.299-0.922c-0.271-0.229-0.67-0.344-1.201-0.344
	c-0.49,0-0.859,0.088-1.1,0.266c-0.24,0.167-0.41,0.469-0.529,0.905l-1.031-0.14c0.1-0.438,0.25-0.792,0.471-1.063
	c0.221-0.271,0.529-0.479,0.939-0.625c0.4-0.146,0.871-0.219,1.4-0.219c0.539,0,0.971,0.063,1.301,0.188s0.58,0.281,0.738,0.469
	c0.15,0.188,0.262,0.427,0.32,0.719c0.031,0.178,0.051,0.5,0.051,0.969v1.406c0,0.979,0.02,1.599,0.061,1.859
	c0.049,0.26,0.148,0.51,0.279,0.75h-1.109C687.959,248.018,687.891,247.763,687.859,247.471L687.859,247.471z M687.77,245.111
	c-0.389,0.156-0.959,0.292-1.719,0.406c-0.441,0.063-0.75,0.136-0.92,0.219c-0.182,0.073-0.32,0.182-0.422,0.328
	c-0.1,0.146-0.148,0.313-0.148,0.5c0,0.281,0.109,0.516,0.32,0.703c0.219,0.188,0.529,0.28,0.93,0.28c0.41,0,0.77-0.088,1.08-0.265
	c0.33-0.177,0.559-0.422,0.709-0.735c0.109-0.238,0.17-0.588,0.17-1.046V245.111L687.77,245.111z M692.77,247.298l0.16,0.923
	c-0.311,0.063-0.57,0.094-0.799,0.094c-0.391,0-0.682-0.058-0.891-0.172c-0.211-0.125-0.359-0.286-0.451-0.484
	c-0.09-0.198-0.129-0.615-0.129-1.25v-3.578h-0.77v-0.813h0.77v-1.547l1.049-0.625v2.172h1.061v0.813h-1.061v3.641
	c0,0.302,0.012,0.494,0.041,0.577c0.051,0.084,0.109,0.151,0.189,0.204s0.201,0.078,0.361,0.078
	C692.43,247.33,692.58,247.319,692.77,247.298L692.77,247.298z M697.869,247.471c-0.398,0.334-0.779,0.567-1.139,0.702
	c-0.361,0.137-0.74,0.204-1.16,0.204c-0.689,0-1.211-0.167-1.58-0.5c-0.359-0.334-0.541-0.761-0.541-1.281
	c0-0.303,0.061-0.578,0.201-0.828c0.139-0.26,0.32-0.463,0.549-0.609c0.23-0.156,0.48-0.271,0.76-0.344
	c0.201-0.063,0.512-0.12,0.941-0.172c0.84-0.095,1.469-0.213,1.879-0.359c0-0.146,0-0.235,0-0.266c0-0.438-0.1-0.745-0.299-0.922
	c-0.271-0.229-0.67-0.344-1.201-0.344c-0.49,0-0.859,0.088-1.1,0.266c-0.24,0.167-0.42,0.469-0.529,0.905l-1.031-0.14
	c0.09-0.438,0.25-0.792,0.471-1.063c0.221-0.271,0.529-0.479,0.939-0.625c0.4-0.146,0.871-0.219,1.4-0.219s0.971,0.063,1.301,0.188
	s0.58,0.281,0.729,0.469c0.16,0.188,0.271,0.427,0.33,0.719c0.031,0.178,0.051,0.5,0.051,0.969v1.406
	c0,0.979,0.02,1.599,0.061,1.859c0.049,0.26,0.15,0.51,0.279,0.75h-1.109C697.971,248.018,697.9,247.763,697.869,247.471
	L697.869,247.471z M697.779,245.111c-0.389,0.156-0.959,0.292-1.719,0.406c-0.441,0.063-0.75,0.136-0.93,0.219
	c-0.172,0.073-0.311,0.182-0.422,0.328c-0.09,0.146-0.139,0.313-0.139,0.5c0,0.281,0.109,0.516,0.311,0.703
	c0.219,0.188,0.539,0.28,0.939,0.28c0.41,0,0.77-0.088,1.08-0.265c0.32-0.177,0.559-0.422,0.699-0.735
	c0.121-0.238,0.18-0.588,0.18-1.046V245.111L697.779,245.111z M701.449,248.236h-0.99v-8.594h1.07v3.063
	c0.451-0.552,1.01-0.828,1.701-0.828c0.389,0,0.75,0.078,1.08,0.234c0.34,0.146,0.619,0.359,0.84,0.641
	c0.23,0.281,0.41,0.619,0.529,1.016c0.131,0.396,0.189,0.817,0.189,1.266c0,1.063-0.26,1.885-0.799,2.469
	c-0.531,0.583-1.16,0.875-1.891,0.875c-0.74,0-1.311-0.308-1.73-0.922V248.236L701.449,248.236z M701.43,245.08
	c0,0.739,0.109,1.276,0.32,1.609c0.33,0.542,0.779,0.813,1.34,0.813c0.461,0,0.85-0.197,1.189-0.594
	c0.34-0.396,0.51-0.995,0.51-1.797c0-0.813-0.158-1.412-0.479-1.797s-0.711-0.578-1.17-0.578c-0.461,0-0.861,0.203-1.211,0.609
	C701.6,243.741,701.43,244.319,701.43,245.08L701.43,245.08z M711.221,247.471c-0.4,0.334-0.781,0.567-1.141,0.702
	c-0.359,0.137-0.74,0.204-1.16,0.204c-0.689,0-1.211-0.167-1.58-0.5c-0.359-0.334-0.551-0.761-0.551-1.281
	c0-0.303,0.07-0.578,0.211-0.828c0.131-0.26,0.32-0.463,0.539-0.609c0.23-0.156,0.49-0.271,0.771-0.344
	c0.199-0.063,0.51-0.12,0.939-0.172c0.84-0.095,1.471-0.213,1.869-0.359c0-0.146,0-0.235,0-0.266c0-0.438-0.1-0.745-0.289-0.922
	c-0.27-0.229-0.68-0.344-1.211-0.344c-0.488,0-0.85,0.088-1.09,0.266c-0.24,0.167-0.42,0.469-0.529,0.905l-1.029-0.14
	c0.09-0.438,0.25-0.792,0.469-1.063c0.211-0.271,0.531-0.479,0.93-0.625c0.41-0.146,0.881-0.219,1.41-0.219
	c0.531,0,0.961,0.063,1.301,0.188c0.33,0.125,0.57,0.281,0.73,0.469s0.27,0.427,0.33,0.719c0.029,0.178,0.049,0.5,0.049,0.969v1.406
	c0,0.979,0.02,1.599,0.061,1.859c0.051,0.26,0.141,0.51,0.279,0.75h-1.109C711.32,248.018,711.25,247.763,711.221,247.471
	L711.221,247.471z M711.119,245.111c-0.379,0.156-0.959,0.292-1.719,0.406c-0.43,0.063-0.74,0.136-0.92,0.219
	c-0.17,0.073-0.32,0.182-0.42,0.328c-0.09,0.146-0.141,0.313-0.141,0.5c0,0.281,0.1,0.516,0.311,0.703
	c0.219,0.188,0.529,0.28,0.939,0.28s0.77-0.088,1.08-0.265c0.32-0.177,0.561-0.422,0.699-0.735c0.121-0.238,0.17-0.588,0.17-1.046
	V245.111L711.119,245.111z M713.41,246.377l1.029-0.156c0.061,0.417,0.221,0.734,0.48,0.952c0.27,0.22,0.65,0.329,1.141,0.329
	c0.479,0,0.84-0.094,1.059-0.281c0.24-0.198,0.361-0.433,0.361-0.703c0-0.239-0.1-0.428-0.311-0.563
	c-0.141-0.094-0.5-0.214-1.08-0.359c-0.77-0.198-1.301-0.364-1.609-0.5c-0.291-0.146-0.51-0.344-0.67-0.594
	c-0.15-0.25-0.23-0.531-0.23-0.844c0-0.271,0.061-0.526,0.189-0.766c0.121-0.239,0.291-0.438,0.51-0.595
	c0.17-0.113,0.391-0.213,0.67-0.296c0.281-0.084,0.59-0.125,0.932-0.125c0.469,0,0.898,0.072,1.26,0.219
	c0.379,0.136,0.648,0.322,0.83,0.563c0.18,0.239,0.299,0.557,0.359,0.953l-1.029,0.141c-0.041-0.313-0.182-0.558-0.41-0.734
	c-0.221-0.188-0.541-0.281-0.951-0.281c-0.48,0-0.83,0.083-1.029,0.25c-0.211,0.156-0.32,0.344-0.32,0.562
	c0,0.137,0.051,0.257,0.131,0.36c0.09,0.114,0.229,0.208,0.398,0.281c0.111,0.042,0.42,0.13,0.941,0.266
	c0.75,0.208,1.27,0.375,1.559,0.5c0.301,0.125,0.531,0.308,0.691,0.547c0.17,0.239,0.25,0.541,0.25,0.906
	c0,0.354-0.102,0.688-0.311,1c-0.199,0.302-0.49,0.541-0.869,0.719c-0.391,0.166-0.83,0.25-1.32,0.25c-0.811,0-1.43-0.167-1.861-0.5
	C713.789,247.533,713.52,247.033,713.41,246.377L713.41,246.377z M724.08,246.236l1.09,0.125c-0.16,0.635-0.48,1.13-0.949,1.484
	c-0.471,0.354-1.061,0.531-1.781,0.531c-0.91,0-1.629-0.281-2.17-0.844c-0.539-0.563-0.799-1.349-0.799-2.36
	c0-1.041,0.27-1.849,0.809-2.421c0.541-0.584,1.24-0.875,2.102-0.875c0.828,0,1.51,0.281,2.029,0.844
	c0.529,0.563,0.789,1.359,0.789,2.391c0,0.062,0,0.156,0,0.281h-4.639c0.039,0.688,0.24,1.214,0.58,1.578
	c0.34,0.354,0.779,0.531,1.299,0.531c0.381,0,0.711-0.099,0.98-0.297C723.699,246.996,723.92,246.673,724.08,246.236L724.08,246.236
	z M720.619,244.533h3.471c-0.039-0.531-0.17-0.927-0.391-1.188c-0.34-0.406-0.779-0.609-1.309-0.609c-0.49,0-0.9,0.161-1.23,0.484
	C720.83,243.543,720.66,243.981,720.619,244.533L720.619,244.533z M729.82,248.236v-6.219h0.949v0.938
	c0.24-0.438,0.461-0.724,0.66-0.859c0.211-0.146,0.439-0.219,0.689-0.219c0.352,0,0.711,0.109,1.08,0.328l-0.359,0.984
	c-0.26-0.156-0.52-0.234-0.77-0.234c-0.24,0-0.451,0.073-0.641,0.218c-0.18,0.137-0.299,0.329-0.379,0.579
	c-0.121,0.375-0.182,0.781-0.182,1.219v3.266H729.82L729.82,248.236z M738.08,246.236l1.1,0.125c-0.17,0.635-0.49,1.13-0.959,1.484
	c-0.471,0.354-1.061,0.531-1.781,0.531c-0.9,0-1.629-0.281-2.17-0.844c-0.529-0.563-0.799-1.349-0.799-2.36
	c0-1.041,0.27-1.849,0.818-2.421c0.541-0.584,1.23-0.875,2.092-0.875c0.828,0,1.51,0.281,2.029,0.844
	c0.529,0.563,0.799,1.359,0.799,2.391c0,0.062,0,0.156,0,0.281h-4.639c0.039,0.688,0.23,1.214,0.57,1.578
	c0.35,0.354,0.779,0.531,1.299,0.531c0.391,0,0.711-0.099,0.99-0.297C737.709,246.996,737.93,246.673,738.08,246.236L738.08,246.236
	z M734.631,244.533h3.469c-0.039-0.531-0.17-0.927-0.391-1.188c-0.35-0.406-0.779-0.609-1.318-0.609c-0.49,0-0.9,0.161-1.23,0.484
	C734.84,243.543,734.66,243.981,734.631,244.533L734.631,244.533z M740.08,246.377l1.039-0.156c0.061,0.417,0.221,0.734,0.48,0.952
	c0.27,0.22,0.65,0.329,1.141,0.329c0.48,0,0.83-0.094,1.061-0.281c0.238-0.198,0.359-0.433,0.359-0.703
	c0-0.239-0.1-0.428-0.311-0.563c-0.15-0.094-0.51-0.214-1.08-0.359c-0.77-0.198-1.311-0.364-1.609-0.5
	c-0.291-0.146-0.51-0.344-0.67-0.594s-0.23-0.531-0.23-0.844c0-0.271,0.061-0.526,0.18-0.766c0.131-0.239,0.301-0.438,0.52-0.595
	c0.172-0.113,0.391-0.213,0.672-0.296c0.279-0.084,0.59-0.125,0.92-0.125c0.479,0,0.898,0.072,1.27,0.219
	c0.369,0.136,0.65,0.322,0.83,0.563c0.17,0.239,0.289,0.557,0.359,0.953l-1.039,0.141c-0.041-0.313-0.17-0.558-0.4-0.734
	c-0.221-0.188-0.541-0.281-0.951-0.281c-0.479,0-0.83,0.083-1.039,0.25c-0.199,0.156-0.311,0.344-0.311,0.562
	c0,0.137,0.041,0.257,0.131,0.36c0.09,0.114,0.23,0.208,0.4,0.281c0.109,0.042,0.42,0.13,0.939,0.266
	c0.75,0.208,1.27,0.375,1.561,0.5c0.289,0.125,0.52,0.308,0.689,0.547s0.25,0.541,0.25,0.906c0,0.354-0.1,0.688-0.311,1
	c-0.199,0.302-0.49,0.541-0.879,0.719c-0.381,0.166-0.82,0.25-1.311,0.25c-0.811,0-1.43-0.167-1.859-0.5
	C740.459,247.533,740.199,247.033,740.08,246.377L740.08,246.377z M746.51,250.627v-8.609h0.949v0.797
	c0.23-0.313,0.48-0.547,0.762-0.703c0.299-0.156,0.648-0.234,1.049-0.234c0.531,0,1,0.136,1.41,0.406
	c0.4,0.271,0.711,0.656,0.9,1.156c0.209,0.5,0.32,1.047,0.32,1.641c0,0.635-0.121,1.208-0.35,1.718
	c-0.221,0.512-0.541,0.901-0.98,1.173c-0.439,0.271-0.9,0.406-1.381,0.406c-0.35,0-0.67-0.072-0.949-0.219
	c-0.281-0.156-0.51-0.344-0.689-0.563v3.031H746.51L746.51,250.627z M747.459,245.158c0,0.802,0.16,1.396,0.48,1.781
	c0.33,0.375,0.721,0.563,1.18,0.563c0.461,0,0.871-0.197,1.201-0.594c0.33-0.396,0.5-1.011,0.5-1.844c0-0.792-0.16-1.38-0.49-1.767
	c-0.32-0.395-0.711-0.593-1.17-0.593c-0.451,0-0.84,0.208-1.189,0.625C747.631,243.746,747.459,244.356,747.459,245.158
	L747.459,245.158z M752.789,245.127c0-1.156,0.32-2.011,0.951-2.563c0.529-0.458,1.18-0.688,1.959-0.688
	c0.852,0,1.551,0.281,2.09,0.844c0.551,0.552,0.83,1.322,0.83,2.313c0,0.802-0.119,1.432-0.359,1.89
	c-0.24,0.46-0.6,0.818-1.061,1.079c-0.459,0.25-0.959,0.375-1.5,0.375c-0.869,0-1.568-0.276-2.109-0.829
	C753.051,246.986,752.789,246.18,752.789,245.127L752.789,245.127z M753.869,245.127c0,0.791,0.17,1.386,0.512,1.781
	c0.359,0.396,0.789,0.594,1.318,0.594c0.531,0,0.961-0.197,1.311-0.594c0.34-0.396,0.51-1,0.51-1.813c0-0.771-0.17-1.354-0.529-1.75
	c-0.34-0.396-0.77-0.594-1.291-0.594c-0.529,0-0.959,0.197-1.318,0.594C754.039,243.731,753.869,244.324,753.869,245.127
	L753.869,245.127z M759.85,248.236v-6.219h0.939v0.875c0.461-0.678,1.121-1.016,1.99-1.016c0.371,0,0.711,0.067,1.031,0.203
	c0.32,0.135,0.559,0.313,0.719,0.531c0.15,0.219,0.26,0.474,0.32,0.766c0.031,0.197,0.051,0.541,0.051,1.031v3.828h-1.051v-3.781
	c0-0.438-0.039-0.761-0.119-0.969s-0.23-0.375-0.441-0.5c-0.209-0.136-0.449-0.203-0.729-0.203c-0.451,0-0.84,0.146-1.18,0.438
	c-0.32,0.281-0.48,0.817-0.48,1.609v3.406H759.85L759.85,248.236z M766.109,246.377l1.031-0.156
	c0.059,0.417,0.219,0.734,0.479,0.952c0.271,0.22,0.65,0.329,1.141,0.329c0.48,0,0.84-0.094,1.061-0.281
	c0.24-0.198,0.359-0.433,0.359-0.703c0-0.239-0.1-0.428-0.311-0.563c-0.139-0.094-0.5-0.214-1.08-0.359
	c-0.77-0.198-1.299-0.364-1.609-0.5c-0.289-0.146-0.51-0.344-0.67-0.594c-0.15-0.25-0.23-0.531-0.23-0.844
	c0-0.271,0.061-0.526,0.18-0.766c0.131-0.239,0.301-0.438,0.521-0.595c0.17-0.113,0.389-0.213,0.67-0.296
	c0.279-0.084,0.59-0.125,0.92-0.125c0.48,0,0.91,0.072,1.27,0.219c0.369,0.136,0.65,0.322,0.83,0.563
	c0.18,0.239,0.289,0.557,0.359,0.953L770,243.752c-0.051-0.313-0.18-0.558-0.41-0.734c-0.221-0.188-0.539-0.281-0.949-0.281
	c-0.48,0-0.83,0.083-1.031,0.25c-0.209,0.156-0.32,0.344-0.32,0.562c0,0.137,0.041,0.257,0.131,0.36
	c0.09,0.114,0.23,0.208,0.4,0.281c0.109,0.042,0.42,0.13,0.939,0.266c0.75,0.208,1.27,0.375,1.561,0.5
	c0.299,0.125,0.529,0.308,0.689,0.547c0.17,0.239,0.25,0.541,0.25,0.906c0,0.354-0.1,0.688-0.311,1
	c-0.199,0.302-0.49,0.541-0.879,0.719c-0.381,0.166-0.82,0.25-1.311,0.25c-0.811,0-1.43-0.167-1.859-0.5
	C766.49,247.533,766.221,247.033,766.109,246.377L766.109,246.377z M776.779,246.236l1.09,0.125c-0.17,0.635-0.479,1.13-0.949,1.484
	c-0.471,0.354-1.061,0.531-1.779,0.531c-0.91,0-1.631-0.281-2.182-0.844c-0.529-0.563-0.789-1.349-0.789-2.36
	c0-1.041,0.27-1.849,0.811-2.421c0.539-0.584,1.24-0.875,2.09-0.875c0.84,0,1.51,0.281,2.039,0.844
	c0.531,0.563,0.791,1.359,0.791,2.391c0,0.062,0,0.156,0,0.281h-4.641c0.041,0.688,0.24,1.214,0.58,1.578
	c0.34,0.354,0.779,0.531,1.301,0.531c0.379,0,0.709-0.099,0.979-0.297C776.4,246.996,776.619,246.673,776.779,246.236
	L776.779,246.236z M773.32,244.533h3.469c-0.039-0.531-0.17-0.927-0.389-1.188c-0.34-0.406-0.781-0.609-1.311-0.609
	c-0.49,0-0.9,0.161-1.23,0.484C773.529,243.543,773.359,243.981,773.32,244.533L773.32,244.533z"/>
<image overflow="visible" width="441" height="343" xlink:href="307C0BF3.jpg"  transform="matrix(0.4535 0 0 0.4548 34 211.0005)">
</image>
<image overflow="visible" width="37" height="47" xlink:href="307C0BF0.jpg"  transform="matrix(1 0 0 1 346.6299 63.9751)">
</image>
<g>
	<defs>
		<path id="SVGID_3_" d="M371.26,80.975c0,4.592-3.72,8.315-8.32,8.315c-4.59,0-8.31-3.723-8.31-8.315
			c0-4.593,3.72-8.316,8.31-8.316C367.54,72.659,371.26,76.382,371.26,80.975L371.26,80.975z"/>
	</defs>
	<clipPath id="SVGID_4_">
		<use xlink:href="#SVGID_3_"  overflow="visible"/>
	</clipPath>
	<g clip-path="url(#SVGID_4_)">
		
			<image overflow="visible" width="40" height="39" xlink:href="307C0BFE.jpg"  transform="matrix(0.48 0 0 -0.48 353.3716 90.5869)">
		</image>
	</g>
</g>
<path fill="none" stroke="#27AE27" stroke-miterlimit="1.45" d="M371.26,80.975c0,4.592-3.72,8.315-8.32,8.315
	c-4.59,0-8.31-3.723-8.31-8.315c0-4.593,3.72-8.316,8.31-8.316C367.54,72.659,371.26,76.382,371.26,80.975L371.26,80.975z"/>
<path fill="#FFFFFF" d="M34.5,173.718v23.326c0,2.209,1.791,4,4,4h87.527c2.209,0,4-1.791,4-4v-23.326c0-2.209-1.791-4-4-4H38.5
	C36.291,169.718,34.5,171.509,34.5,173.718L34.5,173.718z"/>
<path fill="none" stroke="#000000" stroke-miterlimit="1.45" d="M34.5,173.718v23.326c0,2.209,1.791,4,4,4h87.527
	c2.209,0,4-1.791,4-4v-23.326c0-2.209-1.791-4-4-4H38.5C36.291,169.718,34.5,171.509,34.5,173.718L34.5,173.718z"/>
<path d="M40.852,190.095v-8.594h3.813c0.771,0,1.354,0.078,1.75,0.235c0.396,0.156,0.713,0.432,0.953,0.828
	c0.24,0.385,0.359,0.812,0.359,1.281c0,0.615-0.198,1.13-0.593,1.547c-0.396,0.417-1.006,0.682-1.829,0.797
	c0.303,0.146,0.532,0.286,0.688,0.422c0.333,0.302,0.646,0.682,0.937,1.14l1.5,2.344h-1.437l-1.125-1.781
	c-0.333-0.521-0.609-0.917-0.828-1.188c-0.208-0.271-0.401-0.458-0.578-0.562c-0.167-0.115-0.339-0.198-0.516-0.25
	c-0.125-0.021-0.333-0.031-0.625-0.031h-1.328v3.812H40.852L40.852,190.095z M41.993,185.298h2.453c0.511,0,0.912-0.052,1.203-0.156
	c0.302-0.115,0.526-0.287,0.672-0.517c0.156-0.239,0.234-0.5,0.234-0.781c0-0.406-0.151-0.74-0.453-1
	c-0.291-0.26-0.755-0.391-1.39-0.391h-2.719V185.298L41.993,185.298z M53.628,188.095l1.093,0.125
	c-0.166,0.635-0.484,1.13-0.953,1.484c-0.468,0.355-1.062,0.532-1.781,0.532c-0.906,0-1.63-0.282-2.172-0.844
	c-0.531-0.563-0.797-1.349-0.797-2.359c0-1.042,0.271-1.849,0.813-2.422c0.542-0.584,1.239-0.875,2.094-0.875
	c0.833,0,1.51,0.281,2.031,0.843c0.531,0.563,0.797,1.36,0.797,2.391c0,0.063,0,0.156,0,0.281h-4.641
	c0.042,0.688,0.234,1.214,0.578,1.578c0.344,0.355,0.776,0.532,1.297,0.532c0.386,0,0.714-0.099,0.984-0.297
	C53.253,188.855,53.471,188.533,53.628,188.095L53.628,188.095z M50.175,186.392h3.468c-0.041-0.531-0.172-0.927-0.39-1.188
	c-0.344-0.406-0.782-0.609-1.313-0.609c-0.489,0-0.901,0.161-1.234,0.484C50.383,185.402,50.206,185.84,50.175,186.392
	L50.175,186.392z M60.114,187.814l1.031,0.14c-0.114,0.709-0.406,1.266-0.875,1.672c-0.468,0.407-1.041,0.61-1.718,0.61
	c-0.855,0-1.542-0.276-2.063-0.828c-0.51-0.563-0.766-1.365-0.766-2.407c0-0.666,0.11-1.25,0.329-1.75
	c0.229-0.51,0.567-0.89,1.015-1.14c0.459-0.25,0.959-0.375,1.5-0.375c0.667,0,1.214,0.172,1.641,0.515
	c0.437,0.334,0.719,0.818,0.844,1.453l-1.032,0.157c-0.093-0.417-0.265-0.73-0.515-0.938c-0.25-0.219-0.552-0.328-0.907-0.328
	c-0.531,0-0.963,0.193-1.296,0.578c-0.334,0.375-0.5,0.974-0.5,1.797c0,0.844,0.161,1.453,0.484,1.828
	c0.323,0.375,0.74,0.563,1.25,0.563c0.417,0,0.76-0.125,1.031-0.375C59.848,188.736,60.031,188.345,60.114,187.814L60.114,187.814z
	 M61.661,186.986c0-1.157,0.318-2.011,0.953-2.563c0.531-0.458,1.182-0.687,1.953-0.687c0.854,0,1.552,0.281,2.094,0.843
	c0.552,0.552,0.828,1.323,0.828,2.313c0,0.802-0.12,1.432-0.359,1.891c-0.24,0.458-0.594,0.817-1.063,1.078
	c-0.458,0.25-0.958,0.375-1.5,0.375c-0.864,0-1.568-0.276-2.109-0.828C61.927,188.845,61.661,188.038,61.661,186.986L61.661,186.986
	z M62.739,186.986c0,0.791,0.172,1.385,0.516,1.781c0.354,0.396,0.791,0.594,1.312,0.594c0.531,0,0.969-0.198,1.313-0.594
	c0.343-0.396,0.515-1,0.515-1.813c0-0.77-0.177-1.354-0.531-1.75c-0.344-0.395-0.776-0.593-1.297-0.593s-0.958,0.198-1.312,0.593
	C62.911,185.59,62.739,186.184,62.739,186.986L62.739,186.986z M68.71,190.095v-6.219h0.953v0.938
	c0.239-0.438,0.458-0.724,0.656-0.86c0.208-0.145,0.438-0.218,0.688-0.218c0.354,0,0.713,0.109,1.078,0.328l-0.36,0.984
	c-0.26-0.156-0.515-0.234-0.765-0.234c-0.24,0-0.453,0.073-0.641,0.219c-0.177,0.135-0.302,0.328-0.375,0.578
	c-0.125,0.375-0.187,0.781-0.187,1.218v3.266H68.71L68.71,190.095z M76.753,190.095v-0.781c-0.396,0.614-0.974,0.922-1.735,0.922
	c-0.5,0-0.958-0.136-1.375-0.407c-0.416-0.281-0.739-0.666-0.968-1.156c-0.23-0.489-0.344-1.052-0.344-1.687
	c0-0.615,0.104-1.177,0.312-1.688c0.209-0.51,0.521-0.896,0.938-1.156c0.417-0.271,0.88-0.406,1.39-0.406
	c0.375,0,0.709,0.078,1,0.234c0.292,0.156,0.532,0.359,0.719,0.609v-3.078h1.047v8.594H76.753L76.753,190.095z M73.425,186.986
	c0,0.802,0.166,1.401,0.5,1.797c0.333,0.385,0.729,0.578,1.187,0.578s0.849-0.188,1.172-0.563c0.323-0.375,0.484-0.948,0.484-1.719
	c0-0.854-0.166-1.479-0.5-1.875c-0.323-0.395-0.724-0.593-1.203-0.593c-0.469,0-0.859,0.192-1.172,0.578
	C73.581,185.564,73.425,186.163,73.425,186.986L73.425,186.986z M83.698,190.095h-0.984v-8.594h1.062v3.063
	c0.448-0.552,1.016-0.828,1.703-0.828c0.386,0,0.745,0.078,1.078,0.234c0.344,0.146,0.625,0.359,0.844,0.641
	c0.229,0.281,0.406,0.619,0.531,1.015s0.188,0.818,0.188,1.266c0,1.062-0.266,1.885-0.797,2.469
	c-0.531,0.583-1.161,0.875-1.891,0.875c-0.739,0-1.317-0.308-1.734-0.922V190.095L83.698,190.095z M83.682,186.939
	c0,0.739,0.105,1.276,0.313,1.609c0.333,0.542,0.781,0.813,1.344,0.813c0.458,0,0.854-0.198,1.187-0.594
	c0.344-0.396,0.516-0.995,0.516-1.797c0-0.812-0.162-1.411-0.485-1.797c-0.322-0.385-0.713-0.578-1.171-0.578
	c-0.459,0-0.86,0.203-1.204,0.609C83.849,185.6,83.682,186.178,83.682,186.939L83.682,186.939z M89.388,190.095v-6.219h0.953v0.938
	c0.239-0.438,0.458-0.724,0.656-0.86c0.208-0.145,0.437-0.218,0.687-0.218c0.355,0,0.714,0.109,1.079,0.328l-0.36,0.984
	c-0.26-0.156-0.515-0.234-0.765-0.234c-0.24,0-0.454,0.073-0.641,0.219c-0.177,0.135-0.302,0.328-0.375,0.578
	c-0.125,0.375-0.188,0.781-0.188,1.218v3.266H89.388L89.388,190.095z M93.009,186.986c0-1.157,0.317-2.011,0.953-2.563
	c0.531-0.458,1.182-0.687,1.953-0.687c0.854,0,1.552,0.281,2.094,0.843c0.552,0.552,0.828,1.323,0.828,2.313
	c0,0.802-0.12,1.432-0.36,1.891c-0.239,0.458-0.593,0.817-1.062,1.078c-0.458,0.25-0.958,0.375-1.5,0.375
	c-0.865,0-1.568-0.276-2.11-0.828C93.274,188.845,93.009,188.038,93.009,186.986L93.009,186.986z M94.087,186.986
	c0,0.791,0.172,1.385,0.515,1.781c0.355,0.396,0.792,0.594,1.313,0.594c0.531,0,0.969-0.198,1.312-0.594
	c0.344-0.396,0.516-1,0.516-1.813c0-0.77-0.177-1.354-0.531-1.75c-0.344-0.395-0.776-0.593-1.297-0.593s-0.958,0.198-1.313,0.593
	C94.259,185.59,94.087,186.184,94.087,186.986L94.087,186.986z M101.214,190.095l-1.907-6.219h1.094l0.985,3.594l0.375,1.328
	c0.02-0.062,0.13-0.489,0.328-1.281l0.984-3.641h1.078l0.938,3.61l0.312,1.187l0.36-1.203l1.062-3.594h1.031l-1.953,6.219h-1.094
	l-0.984-3.734l-0.25-1.047l-1.25,4.781H101.214L101.214,190.095z M108.317,188.236l1.031-0.157c0.063,0.417,0.224,0.735,0.485,0.954
	c0.271,0.218,0.651,0.328,1.14,0.328c0.48,0,0.834-0.094,1.063-0.282c0.24-0.198,0.359-0.432,0.359-0.703
	c0-0.239-0.104-0.427-0.312-0.562c-0.146-0.094-0.505-0.214-1.078-0.36c-0.771-0.198-1.308-0.364-1.61-0.5
	c-0.291-0.145-0.515-0.343-0.672-0.593c-0.156-0.25-0.234-0.532-0.234-0.844c0-0.271,0.063-0.526,0.188-0.766
	c0.125-0.239,0.296-0.437,0.515-0.593c0.167-0.115,0.391-0.214,0.672-0.297c0.281-0.084,0.589-0.125,0.922-0.125
	c0.479,0,0.901,0.073,1.266,0.218c0.375,0.136,0.651,0.323,0.828,0.563c0.177,0.239,0.297,0.557,0.359,0.953l-1.031,0.141
	c-0.042-0.313-0.177-0.558-0.406-0.735c-0.219-0.187-0.537-0.281-0.954-0.281c-0.479,0-0.822,0.083-1.031,0.25
	c-0.208,0.156-0.312,0.344-0.312,0.563c0,0.135,0.041,0.255,0.125,0.359c0.093,0.114,0.229,0.208,0.406,0.281
	c0.104,0.042,0.417,0.13,0.937,0.266c0.75,0.208,1.271,0.375,1.563,0.5s0.521,0.307,0.687,0.547c0.167,0.239,0.25,0.541,0.25,0.906
	c0,0.354-0.104,0.687-0.312,1c-0.198,0.302-0.49,0.542-0.875,0.719c-0.385,0.166-0.823,0.25-1.313,0.25
	c-0.812,0-1.432-0.167-1.859-0.5C108.697,189.392,108.432,188.893,108.317,188.236L108.317,188.236z M118.989,188.095l1.094,0.125
	c-0.167,0.635-0.485,1.13-0.953,1.484c-0.469,0.355-1.063,0.532-1.782,0.532c-0.906,0-1.63-0.282-2.171-0.844
	c-0.532-0.563-0.797-1.349-0.797-2.359c0-1.042,0.271-1.849,0.812-2.422c0.542-0.584,1.24-0.875,2.094-0.875
	c0.833,0,1.51,0.281,2.031,0.843c0.531,0.563,0.797,1.36,0.797,2.391c0,0.063,0,0.156,0,0.281h-4.641
	c0.042,0.688,0.235,1.214,0.579,1.578c0.343,0.355,0.776,0.532,1.296,0.532c0.386,0,0.714-0.099,0.985-0.297
	C118.614,188.855,118.833,188.533,118.989,188.095L118.989,188.095z M115.536,186.392h3.469c-0.042-0.531-0.172-0.927-0.391-1.188
	c-0.344-0.406-0.781-0.609-1.312-0.609c-0.49,0-0.901,0.161-1.235,0.484C115.744,185.402,115.567,185.84,115.536,186.392
	L115.536,186.392z M121.397,190.095v-6.219h0.953v0.938c0.24-0.438,0.459-0.724,0.657-0.86c0.208-0.145,0.437-0.218,0.687-0.218
	c0.354,0,0.714,0.109,1.078,0.328l-0.359,0.984c-0.261-0.156-0.516-0.234-0.766-0.234c-0.239,0-0.453,0.073-0.64,0.219
	c-0.177,0.135-0.302,0.328-0.375,0.578c-0.125,0.375-0.188,0.781-0.188,1.218v3.266H121.397L121.397,190.095z"/>
<path fill="#BFFFBF" d="M191.2,150.43v23.325c0,2.209,1.79,4,4,4h105.52c2.21,0,4-1.791,4-4V150.43c0-2.21-1.79-4-4-4H195.2
	C192.99,146.43,191.2,148.22,191.2,150.43L191.2,150.43z"/>
<path fill="none" stroke="#000000" stroke-miterlimit="1.45" d="M191.2,150.43v23.325c0,2.209,1.79,4,4,4h105.52c2.21,0,4-1.791,4-4
	V150.43c0-2.21-1.79-4-4-4H195.2C192.99,146.43,191.2,148.22,191.2,150.43L191.2,150.43z"/>
<path d="M195.81,166.806v-8.593h3.24c0.65,0,1.18,0.088,1.58,0.265c0.39,0.177,0.7,0.448,0.92,0.813
	c0.23,0.354,0.34,0.729,0.34,1.125c0,0.364-0.1,0.708-0.3,1.031c-0.19,0.323-0.5,0.583-0.9,0.781c0.52,0.156,0.91,0.422,1.19,0.797
	c0.28,0.365,0.42,0.797,0.42,1.297c0,0.396-0.09,0.771-0.25,1.125c-0.17,0.344-0.38,0.609-0.63,0.797
	c-0.25,0.187-0.57,0.328-0.95,0.422c-0.38,0.093-0.83,0.14-1.38,0.14H195.81L195.81,166.806z M196.95,161.822h1.86
	c0.5,0,0.86-0.031,1.08-0.094c0.29-0.083,0.51-0.224,0.66-0.422c0.14-0.208,0.22-0.463,0.22-0.765c0-0.282-0.07-0.532-0.21-0.75
	c-0.13-0.219-0.33-0.365-0.59-0.438c-0.25-0.083-0.68-0.125-1.3-0.125h-1.72V161.822L196.95,161.822z M196.95,165.791h2.14
	c0.37,0,0.62-0.016,0.77-0.047c0.27-0.042,0.49-0.115,0.66-0.219c0.17-0.114,0.32-0.276,0.43-0.484
	c0.12-0.209,0.18-0.448,0.18-0.719c0-0.323-0.09-0.604-0.25-0.844c-0.16-0.239-0.38-0.406-0.68-0.5c-0.29-0.094-0.71-0.14-1.26-0.14
	h-1.99V165.791L196.95,165.791z M203.72,166.806v-6.218h0.96v0.937c0.24-0.437,0.45-0.724,0.65-0.859
	c0.21-0.146,0.44-0.219,0.69-0.219c0.35,0,0.71,0.109,1.08,0.328l-0.36,0.984c-0.26-0.156-0.521-0.234-0.771-0.234
	c-0.24,0-0.45,0.073-0.64,0.219c-0.17,0.135-0.3,0.328-0.37,0.578c-0.13,0.375-0.19,0.781-0.19,1.219v3.265H203.72L203.72,166.806z
	 M207.34,163.697c0-1.156,0.32-2.01,0.96-2.563c0.53-0.458,1.18-0.687,1.95-0.687c0.85,0,1.55,0.281,2.09,0.844
	c0.56,0.552,0.83,1.323,0.83,2.313c0,0.802-0.12,1.433-0.36,1.891s-0.59,0.818-1.06,1.078c-0.46,0.25-0.96,0.375-1.5,0.375
	c-0.86,0-1.57-0.276-2.11-0.828C207.61,165.556,207.34,164.75,207.34,163.697L207.34,163.697z M208.42,163.697
	c0,0.792,0.17,1.385,0.52,1.781c0.35,0.396,0.79,0.594,1.31,0.594c0.53,0,0.97-0.198,1.31-0.594c0.35-0.396,0.52-1,0.52-1.812
	c0-0.771-0.18-1.354-0.53-1.75c-0.351-0.396-0.78-0.594-1.3-0.594s-0.96,0.198-1.31,0.594
	C208.59,162.301,208.42,162.896,208.42,163.697L208.42,163.697z M215.55,166.806l-1.91-6.218h1.1l0.979,3.593l0.38,1.328
	c0.02-0.062,0.13-0.489,0.32-1.281l0.99-3.64h1.08l0.93,3.609l0.32,1.187l0.36-1.203l1.06-3.593h1.03l-1.95,6.218h-1.1l-0.98-3.734
	l-0.25-1.047l-1.25,4.781H215.55L215.55,166.806z M222.65,164.947l1.03-0.156c0.07,0.416,0.23,0.734,0.49,0.953
	c0.27,0.219,0.65,0.328,1.14,0.328c0.48,0,0.83-0.094,1.06-0.281c0.24-0.198,0.36-0.433,0.36-0.703c0-0.24-0.1-0.427-0.31-0.563
	c-0.15-0.094-0.51-0.213-1.08-0.359c-0.77-0.198-1.31-0.365-1.61-0.5c-0.29-0.146-0.51-0.344-0.67-0.594
	c-0.16-0.25-0.24-0.531-0.24-0.844c0-0.271,0.07-0.526,0.19-0.765c0.13-0.24,0.3-0.438,0.521-0.594
	c0.16-0.115,0.39-0.214,0.67-0.297c0.28-0.083,0.59-0.125,0.92-0.125c0.48,0,0.9,0.073,1.27,0.219c0.37,0.135,0.65,0.323,0.83,0.562
	c0.17,0.24,0.29,0.558,0.35,0.953l-1.03,0.141c-0.04-0.313-0.17-0.557-0.4-0.734c-0.22-0.188-0.54-0.282-0.96-0.282
	c-0.48,0-0.82,0.084-1.03,0.25c-0.21,0.157-0.31,0.344-0.31,0.563c0,0.135,0.04,0.255,0.13,0.359c0.09,0.115,0.22,0.209,0.4,0.281
	c0.11,0.042,0.42,0.131,0.94,0.266c0.75,0.208,1.27,0.375,1.56,0.5s0.52,0.307,0.69,0.547s0.25,0.542,0.25,0.906
	c0,0.354-0.11,0.688-0.31,1c-0.2,0.302-0.49,0.542-0.88,0.719c-0.38,0.167-0.82,0.25-1.31,0.25c-0.81,0-1.43-0.167-1.86-0.5
	C223.03,166.104,222.77,165.604,222.65,164.947L222.65,164.947z M233.32,164.806l1.1,0.125c-0.17,0.636-0.49,1.131-0.95,1.485
	c-0.47,0.354-1.07,0.531-1.79,0.531c-0.9,0-1.63-0.281-2.17-0.844c-0.53-0.562-0.79-1.349-0.79-2.359
	c0-1.042,0.271-1.849,0.811-2.422c0.54-0.583,1.24-0.875,2.09-0.875c0.83,0,1.51,0.281,2.03,0.844c0.53,0.563,0.8,1.359,0.8,2.39
	c0,0.063,0,0.157,0,0.282h-4.64c0.04,0.687,0.23,1.213,0.58,1.578c0.34,0.354,0.77,0.531,1.29,0.531c0.39,0,0.72-0.099,0.99-0.297
	C232.95,165.567,233.17,165.244,233.32,164.806L233.32,164.806z M229.87,163.104h3.47c-0.04-0.531-0.17-0.927-0.39-1.187
	c-0.34-0.407-0.78-0.61-1.31-0.61c-0.49,0-0.9,0.162-1.24,0.485C230.08,162.114,229.9,162.551,229.87,163.104L229.87,163.104z
	 M234.95,166.947l2.49-8.875h0.84l-2.48,8.875H234.95L234.95,166.947z M243.33,164.806l1.1,0.125c-0.17,0.636-0.49,1.131-0.96,1.485
	c-0.47,0.354-1.06,0.531-1.78,0.531c-0.9,0-1.63-0.281-2.17-0.844c-0.53-0.562-0.8-1.349-0.8-2.359c0-1.042,0.27-1.849,0.82-2.422
	c0.54-0.583,1.24-0.875,2.09-0.875c0.83,0,1.51,0.281,2.03,0.844c0.53,0.563,0.8,1.359,0.8,2.39c0,0.063,0,0.157,0,0.282h-4.64
	c0.04,0.687,0.23,1.213,0.58,1.578c0.34,0.354,0.77,0.531,1.29,0.531c0.39,0,0.72-0.099,0.99-0.297
	C242.96,165.567,243.18,165.244,243.33,164.806L243.33,164.806z M239.88,163.104h3.47c-0.04-0.531-0.17-0.927-0.39-1.187
	c-0.35-0.407-0.78-0.61-1.31-0.61c-0.49,0-0.91,0.162-1.24,0.485C240.09,162.114,239.91,162.551,239.88,163.104L239.88,163.104z
	 M249.79,166.806v-0.781c-0.4,0.615-0.98,0.922-1.74,0.922c-0.5,0-0.96-0.135-1.37-0.406c-0.42-0.282-0.74-0.667-0.97-1.157
	c-0.23-0.489-0.34-1.052-0.34-1.687c0-0.615,0.1-1.177,0.31-1.688c0.21-0.51,0.52-0.895,0.94-1.156
	c0.41-0.271,0.88-0.406,1.39-0.406c0.37,0,0.7,0.078,1,0.234c0.29,0.157,0.53,0.36,0.72,0.61v-3.078h1.04v8.593H249.79
	L249.79,166.806z M246.46,163.697c0,0.802,0.17,1.401,0.5,1.797c0.33,0.385,0.73,0.578,1.19,0.578s0.85-0.188,1.17-0.563
	c0.32-0.375,0.48-0.947,0.48-1.718c0-0.854-0.16-1.479-0.5-1.875c-0.32-0.396-0.72-0.594-1.2-0.594c-0.47,0-0.86,0.193-1.17,0.578
	C246.62,162.275,246.46,162.875,246.46,163.697L246.46,163.697z M252.43,159.431v-1.218h1.06v1.218H252.43L252.43,159.431z
	 M252.43,166.806v-6.218h1.06v6.218H252.43L252.43,166.806z M257.39,165.869l0.16,0.922c-0.3,0.062-0.57,0.093-0.8,0.093
	c-0.38,0-0.68-0.057-0.89-0.171c-0.21-0.125-0.36-0.287-0.45-0.485c-0.08-0.198-0.13-0.614-0.13-1.25V161.4h-0.76v-0.812h0.76
	v-1.547l1.05-0.625v2.172h1.06v0.812h-1.06v3.641c0,0.302,0.02,0.495,0.05,0.578c0.04,0.083,0.1,0.151,0.18,0.203
	c0.09,0.052,0.21,0.078,0.36,0.078C257.05,165.9,257.21,165.89,257.39,165.869L257.39,165.869z M261.75,166.806v-6.218h0.95v0.937
	c0.24-0.437,0.46-0.724,0.66-0.859c0.21-0.146,0.44-0.219,0.69-0.219c0.35,0,0.71,0.109,1.07,0.328l-0.36,0.984
	c-0.26-0.156-0.51-0.234-0.76-0.234c-0.24,0-0.45,0.073-0.64,0.219c-0.18,0.135-0.3,0.328-0.38,0.578
	c-0.12,0.375-0.18,0.781-0.18,1.219v3.265H261.75L261.75,166.806z M270.01,164.806l1.09,0.125c-0.16,0.636-0.48,1.131-0.95,1.485
	c-0.47,0.354-1.06,0.531-1.78,0.531c-0.91,0-1.63-0.281-2.17-0.844c-0.53-0.562-0.8-1.349-0.8-2.359c0-1.042,0.27-1.849,0.81-2.422
	c0.55-0.583,1.24-0.875,2.1-0.875c0.83,0,1.51,0.281,2.03,0.844c0.53,0.563,0.8,1.359,0.8,2.39c0,0.063,0,0.157,0,0.282h-4.65
	c0.05,0.687,0.24,1.213,0.58,1.578c0.35,0.354,0.78,0.531,1.3,0.531c0.39,0,0.71-0.099,0.98-0.297
	C269.64,165.567,269.85,165.244,270.01,164.806L270.01,164.806z M266.56,163.104h3.47c-0.05-0.531-0.18-0.927-0.39-1.187
	c-0.35-0.407-0.79-0.61-1.32-0.61c-0.49,0-0.9,0.162-1.23,0.485C266.77,162.114,266.59,162.551,266.56,163.104L266.56,163.104z
	 M276.5,164.525l1.03,0.141c-0.12,0.708-0.41,1.265-0.88,1.672c-0.47,0.406-1.04,0.609-1.72,0.609c-0.85,0-1.54-0.276-2.06-0.828
	c-0.51-0.563-0.76-1.365-0.76-2.406c0-0.667,0.11-1.25,0.32-1.75c0.23-0.511,0.57-0.891,1.02-1.141c0.46-0.25,0.96-0.375,1.5-0.375
	c0.67,0,1.21,0.172,1.64,0.516c0.44,0.333,0.72,0.817,0.84,1.453l-1.03,0.156c-0.09-0.417-0.26-0.729-0.51-0.938
	c-0.25-0.218-0.55-0.328-0.91-0.328c-0.53,0-0.96,0.193-1.3,0.578c-0.33,0.375-0.5,0.974-0.5,1.797c0,0.844,0.17,1.453,0.49,1.828
	c0.32,0.375,0.74,0.563,1.25,0.563c0.42,0,0.76-0.125,1.03-0.375C276.23,165.447,276.41,165.056,276.5,164.525L276.5,164.525z
	 M278.04,163.697c0-1.156,0.32-2.01,0.96-2.563c0.53-0.458,1.18-0.687,1.95-0.687c0.85,0,1.55,0.281,2.09,0.844
	c0.56,0.552,0.83,1.323,0.83,2.313c0,0.802-0.12,1.433-0.36,1.891c-0.24,0.458-0.59,0.818-1.061,1.078
	c-0.46,0.25-0.959,0.375-1.5,0.375c-0.86,0-1.57-0.276-2.11-0.828C278.31,165.556,278.04,164.75,278.04,163.697L278.04,163.697z
	 M279.12,163.697c0,0.792,0.17,1.385,0.52,1.781c0.35,0.396,0.79,0.594,1.31,0.594c0.53,0,0.97-0.198,1.31-0.594
	c0.35-0.396,0.52-1,0.52-1.812c0-0.771-0.18-1.354-0.53-1.75s-0.78-0.594-1.3-0.594c-0.52,0-0.959,0.198-1.31,0.594
	C279.29,162.301,279.12,162.896,279.12,163.697L279.12,163.697z M285.09,166.806v-6.218h0.96v0.937
	c0.23-0.437,0.45-0.724,0.649-0.859c0.21-0.146,0.44-0.219,0.69-0.219c0.35,0,0.71,0.109,1.08,0.328l-0.36,0.984
	c-0.26-0.156-0.52-0.234-0.77-0.234c-0.24,0-0.45,0.073-0.64,0.219c-0.18,0.135-0.3,0.328-0.37,0.578
	c-0.13,0.375-0.19,0.781-0.19,1.219v3.265H285.09L285.09,166.806z M293.14,166.806v-0.781c-0.4,0.615-0.98,0.922-1.74,0.922
	c-0.5,0-0.96-0.135-1.37-0.406c-0.42-0.282-0.74-0.667-0.97-1.157c-0.23-0.489-0.35-1.052-0.35-1.687c0-0.615,0.11-1.177,0.32-1.688
	c0.2-0.51,0.521-0.895,0.93-1.156c0.42-0.271,0.88-0.406,1.39-0.406c0.38,0,0.71,0.078,1,0.234c0.3,0.157,0.54,0.36,0.72,0.61
	v-3.078h1.05v8.593H293.14L293.14,166.806z M289.81,163.697c0,0.802,0.16,1.401,0.5,1.797c0.33,0.385,0.73,0.578,1.18,0.578
	c0.46,0,0.85-0.188,1.18-0.563c0.32-0.375,0.48-0.947,0.48-1.718c0-0.854-0.17-1.479-0.5-1.875c-0.32-0.396-0.72-0.594-1.2-0.594
	c-0.47,0-0.86,0.193-1.17,0.578C289.96,162.275,289.81,162.875,289.81,163.697L289.81,163.697z M295.36,164.947l1.03-0.156
	c0.06,0.416,0.22,0.734,0.48,0.953c0.27,0.219,0.65,0.328,1.14,0.328c0.48,0,0.84-0.094,1.06-0.281
	c0.24-0.198,0.36-0.433,0.36-0.703c0-0.24-0.1-0.427-0.31-0.563c-0.14-0.094-0.5-0.213-1.08-0.359c-0.77-0.198-1.3-0.365-1.61-0.5
	c-0.29-0.146-0.51-0.344-0.67-0.594c-0.15-0.25-0.23-0.531-0.23-0.844c0-0.271,0.06-0.526,0.19-0.765
	c0.12-0.24,0.29-0.438,0.51-0.594c0.17-0.115,0.39-0.214,0.67-0.297c0.28-0.083,0.59-0.125,0.92-0.125c0.48,0,0.91,0.073,1.27,0.219
	c0.38,0.135,0.65,0.323,0.83,0.562c0.18,0.24,0.3,0.558,0.36,0.953l-1.03,0.141c-0.05-0.313-0.18-0.557-0.41-0.734
	c-0.22-0.188-0.54-0.282-0.95-0.282c-0.48,0-0.83,0.084-1.03,0.25c-0.21,0.157-0.32,0.344-0.32,0.563c0,0.135,0.05,0.255,0.13,0.359
	c0.09,0.115,0.23,0.209,0.4,0.281c0.11,0.042,0.42,0.131,0.94,0.266c0.75,0.208,1.27,0.375,1.56,0.5
	c0.3,0.125,0.53,0.307,0.69,0.547c0.17,0.24,0.25,0.542,0.25,0.906c0,0.354-0.1,0.688-0.311,1c-0.2,0.302-0.49,0.542-0.88,0.719
	c-0.38,0.167-0.82,0.25-1.31,0.25c-0.81,0-1.43-0.167-1.86-0.5C295.74,166.104,295.47,165.604,295.36,164.947L295.36,164.947z"/>
<path fill="#BFFFBF" d="M480.25,166.695v23.326c0,2.209,1.789,4,4,4h64.529c2.211,0,4-1.791,4-4v-23.326c0-2.209-1.789-4-4-4H484.25
	C482.039,162.695,480.25,164.486,480.25,166.695L480.25,166.695z"/>
<path fill="none" stroke="#000000" stroke-miterlimit="1.45" d="M480.25,166.695v23.326c0,2.209,1.789,4,4,4h64.529
	c2.211,0,4-1.791,4-4v-23.326c0-2.209-1.789-4-4-4H484.25C482.039,162.695,480.25,164.486,480.25,166.695L480.25,166.695z"/>
<path d="M485.75,183.072v-8.594H489c0.57,0,1,0.026,1.301,0.078c0.43,0.073,0.779,0.209,1.059,0.407
	c0.291,0.198,0.521,0.474,0.691,0.828c0.18,0.354,0.27,0.745,0.27,1.172c0,0.729-0.24,1.349-0.711,1.859
	c-0.459,0.5-1.289,0.75-2.51,0.75h-2.209v3.5H485.75L485.75,183.072z M486.891,178.572h2.219c0.74,0,1.26-0.135,1.57-0.406
	c0.311-0.282,0.461-0.672,0.461-1.172c0-0.354-0.09-0.656-0.281-0.906c-0.17-0.261-0.41-0.433-0.699-0.516
	c-0.201-0.052-0.551-0.078-1.061-0.078h-2.209V178.572L486.891,178.572z M497.881,181.072l1.1,0.125
	c-0.17,0.635-0.49,1.13-0.961,1.484c-0.469,0.355-1.059,0.532-1.779,0.532c-0.9,0-1.631-0.282-2.17-0.844
	c-0.531-0.563-0.801-1.349-0.801-2.36c0-1.041,0.27-1.848,0.82-2.421c0.541-0.584,1.24-0.875,2.09-0.875
	c0.83,0,1.51,0.281,2.029,0.843c0.531,0.563,0.801,1.36,0.801,2.391c0,0.062,0,0.156,0,0.281h-4.641
	c0.041,0.688,0.23,1.214,0.57,1.578c0.352,0.355,0.781,0.532,1.301,0.532c0.391,0,0.721-0.099,0.99-0.297
	C497.51,181.832,497.73,181.509,497.881,181.072L497.881,181.072z M494.43,179.369h3.471c-0.041-0.531-0.17-0.927-0.391-1.188
	c-0.35-0.406-0.779-0.609-1.32-0.609c-0.48,0-0.898,0.161-1.23,0.484C494.641,178.379,494.459,178.817,494.43,179.369
	L494.43,179.369z M500.289,183.072v-6.219h0.951v0.938c0.24-0.438,0.459-0.724,0.66-0.86c0.209-0.145,0.439-0.218,0.689-0.218
	c0.35,0,0.711,0.109,1.08,0.328l-0.359,0.984c-0.26-0.156-0.52-0.234-0.771-0.234c-0.238,0-0.449,0.073-0.639,0.218
	c-0.18,0.136-0.301,0.329-0.381,0.579c-0.119,0.375-0.18,0.781-0.18,1.218v3.266H500.289L500.289,183.072z M503.881,181.213
	l1.029-0.157c0.061,0.417,0.23,0.735,0.49,0.953c0.27,0.219,0.65,0.329,1.141,0.329c0.479,0,0.828-0.094,1.059-0.282
	c0.24-0.198,0.359-0.432,0.359-0.703c0-0.239-0.109-0.427-0.309-0.563c-0.15-0.094-0.51-0.214-1.08-0.36
	c-0.77-0.198-1.311-0.364-1.611-0.5c-0.289-0.145-0.52-0.343-0.668-0.593c-0.16-0.25-0.24-0.532-0.24-0.844
	c0-0.271,0.059-0.526,0.189-0.766c0.119-0.239,0.299-0.437,0.52-0.594c0.16-0.114,0.391-0.213,0.67-0.296
	c0.279-0.084,0.59-0.125,0.92-0.125c0.48,0,0.9,0.073,1.26,0.218c0.381,0.136,0.66,0.323,0.83,0.563
	c0.18,0.239,0.301,0.557,0.361,0.953l-1.031,0.141c-0.039-0.313-0.18-0.558-0.41-0.735c-0.209-0.187-0.529-0.281-0.949-0.281
	c-0.48,0-0.82,0.083-1.029,0.25c-0.211,0.156-0.311,0.344-0.311,0.562c0,0.136,0.039,0.256,0.119,0.36
	c0.1,0.114,0.23,0.208,0.41,0.281c0.1,0.042,0.42,0.13,0.941,0.266c0.75,0.208,1.27,0.375,1.559,0.5
	c0.291,0.125,0.52,0.307,0.691,0.547c0.158,0.239,0.248,0.541,0.248,0.906c0,0.354-0.109,0.687-0.318,1
	c-0.191,0.302-0.49,0.542-0.871,0.719c-0.389,0.166-0.82,0.25-1.309,0.25c-0.82,0-1.441-0.167-1.861-0.5
	C504.26,182.369,503.99,181.869,503.881,181.213L503.881,181.213z M510.301,175.697v-1.219h1.059v1.219H510.301L510.301,175.697z
	 M510.301,183.072v-6.219h1.059v6.219H510.301L510.301,183.072z M512.551,181.213l1.029-0.157c0.061,0.417,0.221,0.735,0.48,0.953
	c0.27,0.219,0.648,0.329,1.139,0.329c0.48,0,0.84-0.094,1.07-0.282c0.23-0.198,0.35-0.432,0.35-0.703c0-0.239-0.1-0.427-0.309-0.563
	c-0.141-0.094-0.5-0.214-1.08-0.36c-0.771-0.198-1.301-0.364-1.611-0.5c-0.289-0.145-0.51-0.343-0.67-0.593
	c-0.148-0.25-0.229-0.532-0.229-0.844c0-0.271,0.059-0.526,0.189-0.766c0.119-0.239,0.289-0.437,0.51-0.594
	c0.17-0.114,0.391-0.213,0.67-0.296c0.279-0.084,0.59-0.125,0.93-0.125c0.471,0,0.9,0.073,1.26,0.218
	c0.381,0.136,0.65,0.323,0.83,0.563c0.18,0.239,0.301,0.557,0.361,0.953l-1.031,0.141c-0.039-0.313-0.18-0.558-0.41-0.735
	c-0.219-0.187-0.539-0.281-0.949-0.281c-0.48,0-0.83,0.083-1.029,0.25c-0.211,0.156-0.32,0.344-0.32,0.562
	c0,0.136,0.049,0.256,0.129,0.36c0.09,0.114,0.23,0.208,0.41,0.281c0.1,0.042,0.41,0.13,0.93,0.266c0.75,0.208,1.271,0.375,1.57,0.5
	c0.291,0.125,0.52,0.307,0.68,0.547c0.17,0.239,0.25,0.541,0.25,0.906c0,0.354-0.1,0.687-0.309,1
	c-0.201,0.302-0.49,0.542-0.871,0.719c-0.389,0.166-0.83,0.25-1.32,0.25c-0.809,0-1.43-0.167-1.859-0.5
	C512.93,182.369,512.66,181.869,512.551,181.213L512.551,181.213z M521.27,182.134l0.15,0.922c-0.301,0.063-0.57,0.094-0.801,0.094
	c-0.379,0-0.68-0.057-0.889-0.172c-0.201-0.125-0.361-0.286-0.451-0.484c-0.08-0.198-0.119-0.615-0.119-1.25v-3.578h-0.77v-0.813
	h0.77v-1.547l1.039-0.625v2.172h1.07v0.813h-1.07v3.64c0,0.302,0.021,0.495,0.051,0.578c0.039,0.084,0.1,0.152,0.189,0.204
	c0.08,0.052,0.201,0.078,0.361,0.078C520.92,182.167,521.08,182.155,521.27,182.134L521.27,182.134z M529.67,183.072v-0.781
	c-0.4,0.614-0.98,0.922-1.74,0.922c-0.5,0-0.959-0.136-1.369-0.407c-0.42-0.281-0.74-0.666-0.971-1.156
	c-0.23-0.489-0.34-1.052-0.34-1.687c0-0.615,0.1-1.177,0.311-1.688c0.209-0.51,0.52-0.896,0.939-1.156
	c0.41-0.271,0.881-0.406,1.391-0.406c0.369,0,0.699,0.078,1,0.234c0.289,0.156,0.529,0.359,0.709,0.609v-3.078h1.051v8.594H529.67
	L529.67,183.072z M526.34,179.963c0,0.802,0.17,1.401,0.5,1.796c0.33,0.386,0.73,0.579,1.189,0.579c0.461,0,0.852-0.188,1.17-0.563
	c0.32-0.375,0.48-0.948,0.48-1.719c0-0.854-0.16-1.479-0.5-1.875c-0.32-0.395-0.719-0.593-1.199-0.593
	c-0.471,0-0.861,0.192-1.17,0.578C526.5,178.541,526.34,179.14,526.34,179.963L526.34,179.963z M536.369,182.306
	c-0.389,0.334-0.77,0.568-1.139,0.703c-0.35,0.136-0.74,0.204-1.15,0.204c-0.689,0-1.221-0.167-1.58-0.5
	c-0.369-0.334-0.551-0.761-0.551-1.282c0-0.302,0.07-0.578,0.201-0.828c0.139-0.26,0.32-0.463,0.549-0.609
	c0.23-0.156,0.49-0.271,0.771-0.344c0.189-0.062,0.51-0.12,0.93-0.172c0.85-0.094,1.469-0.213,1.879-0.359c0-0.146,0-0.235,0-0.266
	c0-0.437-0.1-0.745-0.299-0.922c-0.271-0.229-0.67-0.343-1.201-0.343c-0.488,0-0.859,0.088-1.09,0.265
	c-0.24,0.167-0.42,0.469-0.539,0.906l-1.031-0.14c0.102-0.438,0.25-0.792,0.471-1.063c0.221-0.27,0.529-0.479,0.939-0.625
	c0.41-0.145,0.871-0.218,1.41-0.218c0.531,0,0.961,0.062,1.291,0.187c0.34,0.125,0.58,0.281,0.74,0.469
	c0.148,0.187,0.26,0.427,0.32,0.719c0.039,0.177,0.049,0.5,0.049,0.968v1.407c0,0.979,0.02,1.599,0.061,1.859
	c0.061,0.26,0.15,0.51,0.289,0.75h-1.109C536.471,182.854,536.4,182.598,536.369,182.306L536.369,182.306z M536.279,179.947
	c-0.389,0.156-0.959,0.292-1.719,0.406c-0.441,0.063-0.74,0.136-0.92,0.219c-0.182,0.073-0.32,0.182-0.42,0.328
	c-0.102,0.146-0.141,0.313-0.141,0.5c0,0.281,0.1,0.516,0.311,0.703c0.219,0.188,0.529,0.281,0.939,0.281
	c0.4,0,0.76-0.088,1.07-0.265c0.33-0.177,0.561-0.422,0.709-0.735c0.111-0.239,0.17-0.588,0.17-1.046V179.947L536.279,179.947z
	 M541.279,182.134l0.16,0.922c-0.309,0.063-0.57,0.094-0.799,0.094c-0.391,0-0.682-0.057-0.891-0.172
	c-0.209-0.125-0.359-0.286-0.449-0.484c-0.092-0.198-0.131-0.615-0.131-1.25v-3.578h-0.76v-0.813h0.76v-1.547l1.051-0.625v2.172
	h1.059v0.813h-1.059v3.64c0,0.302,0.01,0.495,0.049,0.578c0.041,0.084,0.1,0.152,0.18,0.204c0.09,0.052,0.211,0.078,0.361,0.078
	C540.939,182.167,541.09,182.155,541.279,182.134L541.279,182.134z M546.381,182.306c-0.4,0.334-0.781,0.568-1.141,0.703
	c-0.35,0.136-0.74,0.204-1.16,0.204c-0.68,0-1.211-0.167-1.57-0.5c-0.369-0.334-0.549-0.761-0.549-1.282
	c0-0.302,0.068-0.578,0.199-0.828c0.141-0.26,0.32-0.463,0.551-0.609c0.229-0.156,0.479-0.271,0.76-0.344
	c0.199-0.062,0.51-0.12,0.939-0.172c0.85-0.094,1.471-0.213,1.881-0.359c0-0.146,0-0.235,0-0.266c0-0.437-0.102-0.745-0.301-0.922
	c-0.27-0.229-0.67-0.343-1.199-0.343c-0.49,0-0.861,0.088-1.102,0.265c-0.24,0.167-0.41,0.469-0.529,0.906l-1.029-0.14
	c0.09-0.438,0.25-0.792,0.469-1.063c0.221-0.27,0.531-0.479,0.939-0.625c0.4-0.145,0.871-0.218,1.4-0.218
	c0.531,0,0.971,0.062,1.301,0.187s0.58,0.281,0.73,0.469c0.16,0.187,0.27,0.427,0.33,0.719c0.029,0.177,0.049,0.5,0.049,0.968v1.407
	c0,0.979,0.02,1.599,0.061,1.859c0.049,0.26,0.15,0.51,0.279,0.75h-1.109C546.48,182.854,546.41,182.598,546.381,182.306
	L546.381,182.306z M546.291,179.947c-0.391,0.156-0.961,0.292-1.721,0.406c-0.439,0.063-0.75,0.136-0.92,0.219
	c-0.18,0.073-0.32,0.182-0.43,0.328c-0.09,0.146-0.141,0.313-0.141,0.5c0,0.281,0.109,0.516,0.32,0.703
	c0.209,0.188,0.529,0.281,0.93,0.281c0.41,0,0.77-0.088,1.08-0.265c0.32-0.177,0.561-0.422,0.699-0.735
	c0.121-0.239,0.182-0.588,0.182-1.046V179.947L546.291,179.947z"/>
<line fill="none" stroke="#000000" stroke-width="3" stroke-miterlimit="1.45" x1="728.279" y1="162.003" x2="599.301" y2="269.561"/>
<polygon points="591.619,275.965 607.15,271.158 600.26,268.761 599.141,261.559 "/>
<polyline fill="none" stroke="#339966" stroke-width="3" stroke-miterlimit="1.45" points="514.061,275.949 519.99,258.983 
	528.73,240.227 539.029,223.247 550.91,208.045 564.35,194.622 579.35,182.976 595.93,173.109 614.07,165.019 633.779,158.707 
	655.051,154.173 677.891,151.418 702.301,150.44 718.279,150.932 "/>
<polygon fill="#339966" points="728.27,151.24 713.471,144.531 717.029,150.895 713.09,157.025 "/>
<polyline fill="none" stroke="#000000" stroke-width="3" stroke-miterlimit="1.45" points="375.59,410.417 373.04,411.053 
	348.96,414.328 325.37,414.745 302.26,412.304 279.63,407.003 257.49,398.845 235.83,387.827 214.91,374.119 214.83,374.057 "/>
<polygon points="207.04,367.792 214.81,382.061 215.8,374.839 222.64,372.317 "/>
<polyline fill="none" stroke="#339966" stroke-width="3" stroke-miterlimit="1.45" points="332.92,105.985 332.16,120.037 
	329.18,142.233 324.48,162.88 318.08,181.979 309.96,199.529 300.14,215.53 288.61,229.983 275.36,242.889 260.41,254.243 
	244.2,263.786 244.11,263.827 "/>
<polygon fill="#339966" points="235.01,267.98 251.25,267.438 245.24,263.309 246.06,256.066 "/>
<polyline fill="none" stroke="#000000" stroke-width="3" stroke-miterlimit="1.45" points="140.14,211.892 143.303,197.979 
	149.71,178.881 157.82,161.33 167.64,145.329 179.18,130.876 192.42,117.972 207.37,106.616 224.04,96.808 242.41,88.55 
	262.49,81.839 284.29,76.678 307.79,73.065 308.61,72.998 "/>
<polygon points="318.57,72.181 303.11,67.177 307.36,73.1 304.13,79.635 "/>
<polyline fill="none" stroke="#339966" stroke-width="3" stroke-miterlimit="1.45" points="235.03,329.845 237.56,329.584 
	260.89,328.787 283.98,329.609 306.85,332.051 329.48,336.109 351.89,341.787 366.18,346.492 366.28,346.53 "/>
<polygon fill="#339966" points="375.74,349.762 363.56,339 365.09,346.126 359.52,350.829 "/>
<line fill="none" stroke="#000000" stroke-width="3" stroke-miterlimit="1.45" x1="371.23" y1="81.857" x2="718.34" y2="118.827"/>
<polygon points="728.279,119.886 714.029,112.082 717.1,118.694 712.699,124.512 "/>
</svg>
