<?xml version="1.0" encoding="utf-8"?>
<!-- Generator: Adobe Illustrator 16.0.0, SVG Export Plug-In . SVG Version: 6.00 Build 0)  -->
<!DOCTYPE svg PUBLIC "-//W3C//DTD SVG 1.1//EN" "http://www.w3.org/Graphics/SVG/1.1/DTD/svg11.dtd">
<svg version="1.1" id="Capa_1" xmlns="http://www.w3.org/2000/svg" xmlns:xlink="http://www.w3.org/1999/xlink" x="0px" y="0px"
	 width="675px" height="344.983px" viewBox="-39.86 306.542 675 344.983" enable-background="new -39.86 306.542 675 344.983"
	 xml:space="preserve">
<rect x="-2.36" y="331.362" fill="#FFCC73" stroke="#000000" stroke-width="8" stroke-linecap="round" stroke-linejoin="round" stroke-miterlimit="10" width="600" height="300"/>
<path fill="#F97946" d="M230.494,602.206H58.074c2.021-38.683,30.118-71.935,68.306-79.99l0.701-11.904
	c-21.719-7.368-36.317-27.74-36.317-50.683c0-29.514,24.001-53.529,53.514-53.529c29.514,0,53.515,24.015,53.515,53.529
	c0,22.942-14.599,43.314-36.319,50.683l0.715,11.904C200.376,530.271,228.459,563.523,230.494,602.206z"/>
<path fill="#4489D3" d="M244.405,360.531v241.675h-1.526c-1.787-39.04-26.805-73.337-62.545-87.414
	c18.31-11.959,29.829-32.551,29.829-55.163c0-36.332-29.554-65.9-65.886-65.9c-36.331,0-65.886,29.568-65.886,65.9
	c0,22.612,11.52,43.204,29.843,55.163c-35.741,14.077-60.759,48.374-62.546,87.414h-1.54V360.531H244.405z"/>
<path d="M256.777,348.159v266.418h-225V348.159H256.777z M244.405,602.206V360.531H44.149v241.675h1.54
	c1.787-39.04,26.805-73.337,62.546-87.414c-18.324-11.959-29.843-32.551-29.843-55.163c0-36.332,29.555-65.9,65.886-65.9
	c36.332,0,65.886,29.568,65.886,65.9c0,22.612-11.519,43.204-29.829,55.163c35.74,14.077,60.758,48.374,62.545,87.414H244.405z
	 M58.074,602.206h172.42c-2.035-38.683-30.118-71.935-68.306-79.99l-0.715-11.904c21.72-7.368,36.319-27.74,36.319-50.683
	c0-29.514-24.001-53.529-53.515-53.529c-29.513,0-53.514,24.015-53.514,53.529c0,22.942,14.599,43.314,36.317,50.683l-0.701,11.904
	C88.192,530.271,60.095,563.523,58.074,602.206z"/>
<line fill="none" stroke="#000000" stroke-width="27" stroke-miterlimit="10" x1="331.81" y1="378.851" x2="564.056" y2="378.851"/>
<line fill="none" stroke="#000000" stroke-width="27" stroke-miterlimit="10" x1="331.81" y1="583.886" x2="564.056" y2="583.886"/>
<line fill="none" stroke="#000000" stroke-width="27" stroke-miterlimit="10" x1="331.81" y1="515.545" x2="564.056" y2="515.545"/>
<line fill="none" stroke="#000000" stroke-width="27" stroke-miterlimit="10" x1="331.81" y1="447.19" x2="564.056" y2="447.19"/>
</svg>
